<?xml version="1.0" encoding="UTF-8"?>
<svg width="857.15" height="191.53" version="1.1" viewBox="0 0 857.15 191.53" xmlns="http://www.w3.org/2000/svg">
 <g transform="matrix(1.3333 0 0 -1.3333 0 191.53)">
  <g transform="scale(.1)">
   <g fill="#2f5db3">
    <path d="m4571 848.91c-71.95 0-130.46-58.531-130.46-130.48v-171.36c0-71.946 58.51-130.47 130.46-130.47h471.6c71.94 0 130.48 58.527 130.48 130.47v171.36c0 71.953-58.54 130.48-130.48 130.48zm471.6-566.24h-471.6c-145.78 0-264.38 118.61-264.38 264.39v171.36c0 145.79 118.6 264.4 264.38 264.4h471.6c145.78 0 264.39-118.6 264.39-264.4v-171.36c0-145.78-118.61-264.39-264.39-264.39"/>
    <path d="m6294.7 983.38v-520.64l-582.06 520.78-0.13-0.144h-133.62v-700.71h133.92v521.02l581.89-520.64v-0.387h133.91v700.71h-133.91"/>
    <path d="m2844.3 983.38v-283.4h-581.88v283.4h-133.92v-700.7h133.92v283.39h581.88v-283.39h133.92v700.7h-133.92"/>
    <path d="m3396.8 849.19h417.95c71.94 0 130.48-58.532 130.48-130.48v-3.973c0-71.941-58.54-130.47-130.48-130.47h-417.95zm514.58-566.43h200.83l-205.94 184.26c100.74 37.355 172.87 134.14 172.87 247.71v3.973c0 145.79-118.61 264.4-264.39 264.4h-417.95v0.278h-133.91v-700.71h133.91v167.67h327.27l187.31-167.58"/>
    <path d="m628.9 282.67h-419.99c-114.07 0-206.87 92.808-206.87 206.87h133.92c0-40.223 32.723-72.949 72.953-72.949h419.99c39.59 0 71.813 32.207 71.813 71.808 0 39.594-32.223 71.805-71.813 71.805h-423.18c-113.43 0-205.73 92.289-205.73 205.73v11.164c0 113.44 92.301 205.73 205.73 205.73h424.14c111.44 0 202.1-90.656 202.1-202.1h-133.91c0 37.597-30.586 68.187-68.184 68.187h-424.14c-39.59 0-71.813-32.211-71.813-71.812v-11.164c0-39.602 32.223-71.813 71.813-71.813h423.18c113.43 0 205.73-92.285 205.73-205.72 0-113.45-92.297-205.73-205.73-205.73"/>
    <path d="m1917.2 983.28h-200.83l-316.64-283.3h-200.35v283.4h-133.91v-700.7h133.91v283.39h196.23l316.63-283.3h200.82l-389.4 348.42 393.54 352.1"/>
   </g>
   <path d="m4949.7 1360.7-142.85 75.82-618.31-328.17 62.26-117.53 1.02-0.536 555.03 294.59 555.03-294.59 1.01 0.536 62.27 117.53-475.46 252.35" fill="#fbbc09"/>
   <path d="m5307 0.011719h-1000.4v132.46h1000.4v-132.46" fill="#df6713"/>
   <path d="m4903.3 705.84c0 53.258-43.17 96.429-96.42 96.429-53.26 0-96.43-43.171-96.43-96.429 0-32.699 16.31-61.551 41.21-78.985v-108.42c0-30.489 24.72-55.215 55.22-55.215 30.49 0 55.21 24.726 55.21 55.215v108.42c24.9 17.434 41.21 46.286 41.21 78.985" fill="#2f5db3"/>
  </g>
 </g>
</svg>
