<?xml version="1.0" standalone="no"?>
<!DOCTYPE svg PUBLIC "-//W3C//DTD SVG 20010904//EN"
 "http://www.w3.org/TR/2001/REC-SVG-20010904/DTD/svg10.dtd">
<svg version="1.0" xmlns="http://www.w3.org/2000/svg"
 width="988.000000pt" height="333.000000pt" viewBox="0 0 988.000000 333.000000"
 preserveAspectRatio="xMidYMid meet">

<g transform="translate(0.000000,333.000000) scale(0.100000,-0.100000)"
fill="#000000" stroke="none">
<path d="M2491 3310 l-473 -17 -664 -664 -664 -664 356 -5 356 -5 -560 -550
-561 -550 246 -5 245 -5 -233 -255 c-128 -140 -300 -329 -383 -420 l-151 -164
91 49 c50 28 474 261 941 520 l850 470 -318 3 c-176 1 -319 6 -319 10 0 4 308
257 684 562 l684 555 -370 3 c-228 1 -368 6 -366 12 2 5 246 237 543 515 297
279 567 533 600 566 l60 59 -60 -1 c-33 -1 -273 -10 -534 -19z"/>
<path d="M4470 2609 c-345 -31 -576 -255 -597 -579 -11 -162 40 -294 152 -399
86 -80 185 -126 410 -190 99 -28 200 -61 224 -74 55 -28 81 -74 81 -145 0
-108 -68 -178 -196 -202 -191 -36 -361 37 -395 168 l-13 52 -199 0 -200 0 7
-62 c34 -300 263 -493 621 -523 89 -8 239 7 325 32 234 67 396 239 436 463 34
191 -13 352 -134 462 -78 70 -169 111 -392 177 -279 84 -321 114 -328 240 -5
84 19 138 78 177 44 29 133 54 196 54 51 0 161 -34 189 -58 37 -31 73 -86 84
-129 l12 -43 200 0 201 0 -7 53 c-18 134 -79 250 -183 349 -77 72 -133 107
-234 143 -62 22 -94 28 -218 39 -19 2 -73 -1 -120 -5z"/>
<path d="M7600 2617 c0 -2 -67 -430 -150 -952 -82 -522 -150 -955 -150 -962 0
-10 41 -13 189 -13 l188 0 25 159 26 158 82 79 c45 44 85 80 89 81 3 1 51
-102 105 -230 55 -128 102 -235 106 -240 3 -4 97 -6 208 -5 l201 3 -159 363
c-88 199 -160 364 -160 366 0 2 126 123 280 270 l280 266 -241 0 -242 0 -233
-226 c-129 -125 -234 -222 -234 -216 0 5 38 253 85 550 47 298 85 543 85 546
0 3 -85 6 -190 6 -104 0 -190 -1 -190 -3z"/>
<path d="M7210 2601 c-115 -37 -184 -116 -197 -221 -14 -123 81 -221 201 -208
125 14 236 135 236 257 0 51 -37 118 -80 147 -40 27 -118 39 -160 25z"/>
<path d="M5490 2351 c0 -12 -49 -328 -56 -363 l-6 -28 -117 0 -118 0 -22 -137
c-12 -76 -25 -146 -27 -155 -5 -16 5 -18 116 -18 l121 0 -6 -32 c-3 -18 -34
-220 -70 -448 -35 -228 -67 -430 -70 -447 l-6 -33 190 0 189 0 6 28 c6 26 146
920 146 928 0 2 54 4 120 4 66 0 120 3 120 8 0 4 11 72 25 152 14 80 25 146
25 148 0 1 -51 2 -114 2 -63 0 -117 3 -119 8 -2 4 9 86 24 182 15 96 28 183
28 193 1 16 -14 17 -189 17 -108 0 -190 -4 -190 -9z"/>
<path d="M9084 1985 c-344 -75 -575 -379 -574 -758 1 -182 52 -318 157 -418
110 -105 238 -149 432 -149 142 0 204 14 331 77 144 70 264 201 319 346 l11
27 -188 0 -187 -1 -26 -37 c-39 -57 -117 -95 -209 -100 -41 -2 -94 1 -118 7
-81 22 -141 97 -157 197 l-6 41 173 6 c95 4 299 7 454 7 l280 0 12 89 c24 181
9 302 -54 421 -65 124 -188 213 -339 245 -85 18 -229 18 -311 0z m262 -324
c60 -34 102 -120 87 -178 l-5 -23 -259 0 c-144 0 -259 4 -259 9 0 5 18 36 41
70 42 63 101 111 167 136 56 22 178 14 228 -14z"/>
<path d="M6710 1979 c-88 -15 -171 -61 -235 -131 l-55 -62 6 87 7 87 -182 0
c-99 0 -181 -2 -181 -4 0 -9 -190 -1212 -196 -1239 l-6 -27 191 0 c190 0 191
0 196 23 2 12 25 151 49 308 25 158 54 312 65 342 40 116 119 192 235 229 17
6 85 13 151 16 l119 7 23 145 c12 80 25 159 28 177 5 28 3 32 -22 37 -63 11
-141 14 -193 5z"/>
<path d="M6970 1951 c0 -14 -189 -1211 -195 -1239 l-5 -22 192 2 192 3 97 615
c54 338 98 623 98 633 1 16 -15 17 -189 17 -111 0 -190 -4 -190 -9z"/>
</g>
</svg>
