<?xml version="1.0" encoding="UTF-8" standalone="no"?>
<!DOCTYPE svg PUBLIC "-//W3C//DTD SVG 1.1//EN"
 "http://www.w3.org/Graphics/SVG/1.1/DTD/svg11.dtd">
<!-- Generated by graphviz version 2.43.0 (0)
 -->
<!-- Title: G Pages: 1 -->
<svg width="853pt" height="839pt"
 viewBox="0.00 0.00 853.20 839.20" xmlns="http://www.w3.org/2000/svg" xmlns:xlink="http://www.w3.org/1999/xlink">
<g id="graph0" class="graph" transform="scale(1 1) rotate(0) translate(21.6 817.6)">
<title>G</title>
<polygon fill="#111111" stroke="transparent" points="-21.6,21.6 -21.6,-817.6 831.6,-817.6 831.6,21.6 -21.6,21.6"/>
<!-- config/index.ts -->
<g id="node1" class="node">
<title>config/index.ts</title>
<path fill="none" stroke="#cfffac" d="M127.83,-64C127.83,-64 24.17,-64 24.17,-64 19.83,-64 15.5,-59.67 15.5,-55.33 15.5,-55.33 15.5,-46.67 15.5,-46.67 15.5,-42.33 19.83,-38 24.17,-38 24.17,-38 127.83,-38 127.83,-38 132.17,-38 136.5,-42.33 136.5,-46.67 136.5,-46.67 136.5,-55.33 136.5,-55.33 136.5,-59.67 132.17,-64 127.83,-64"/>
<text text-anchor="middle" x="76" y="-47.2" font-family="Arial" font-size="16.00" fill="#cfffac">config/index.ts</text>
</g>
<!-- i18n/effects.ts -->
<g id="node2" class="node">
<title>i18n/effects.ts</title>
<path fill="none" stroke="#c6c5fe" d="M614.33,-146C614.33,-146 514.67,-146 514.67,-146 510.33,-146 506,-141.67 506,-137.33 506,-137.33 506,-128.67 506,-128.67 506,-124.33 510.33,-120 514.67,-120 514.67,-120 614.33,-120 614.33,-120 618.67,-120 623,-124.33 623,-128.67 623,-128.67 623,-137.33 623,-137.33 623,-141.67 618.67,-146 614.33,-146"/>
<text text-anchor="middle" x="564.5" y="-129.2" font-family="Arial" font-size="16.00" fill="#c6c5fe">i18n/effects.ts</text>
</g>
<!-- i18n/types.ts -->
<g id="node3" class="node">
<title>i18n/types.ts</title>
<path fill="none" stroke="#cfffac" d="M801.33,-166C801.33,-166 710.67,-166 710.67,-166 706.33,-166 702,-161.67 702,-157.33 702,-157.33 702,-148.67 702,-148.67 702,-144.33 706.33,-140 710.67,-140 710.67,-140 801.33,-140 801.33,-140 805.67,-140 810,-144.33 810,-148.67 810,-148.67 810,-157.33 810,-157.33 810,-161.67 805.67,-166 801.33,-166"/>
<text text-anchor="middle" x="756" y="-149.2" font-family="Arial" font-size="16.00" fill="#cfffac">i18n/types.ts</text>
</g>
<!-- i18n/effects.ts&#45;&gt;i18n/types.ts -->
<g id="edge1" class="edge">
<title>i18n/effects.ts&#45;&gt;i18n/types.ts</title>
<path fill="none" stroke="#757575" d="M623.13,-139.08C644.85,-141.37 669.66,-143.99 691.85,-146.34"/>
<polygon fill="#757575" stroke="#757575" points="691.53,-149.82 701.85,-147.39 692.27,-142.86 691.53,-149.82"/>
</g>
<!-- i18n/hooks/client&#45;locale.ts -->
<g id="node4" class="node">
<title>i18n/hooks/client&#45;locale.ts</title>
<path fill="none" stroke="#cfffac" d="M657.33,-67C657.33,-67 471.67,-67 471.67,-67 467.33,-67 463,-62.67 463,-58.33 463,-58.33 463,-49.67 463,-49.67 463,-45.33 467.33,-41 471.67,-41 471.67,-41 657.33,-41 657.33,-41 661.67,-41 666,-45.33 666,-49.67 666,-49.67 666,-58.33 666,-58.33 666,-62.67 661.67,-67 657.33,-67"/>
<text text-anchor="middle" x="564.5" y="-50.2" font-family="Arial" font-size="16.00" fill="#cfffac">i18n/hooks/client&#45;locale.ts</text>
</g>
<!-- i18n/hooks/locale&#45;change.ts -->
<g id="node5" class="node">
<title>i18n/hooks/locale&#45;change.ts</title>
<path fill="none" stroke="#c6c5fe" d="M407.83,-26C407.83,-26 207.17,-26 207.17,-26 202.83,-26 198.5,-21.67 198.5,-17.33 198.5,-17.33 198.5,-8.67 198.5,-8.67 198.5,-4.33 202.83,0 207.17,0 207.17,0 407.83,0 407.83,0 412.17,0 416.5,-4.33 416.5,-8.67 416.5,-8.67 416.5,-17.33 416.5,-17.33 416.5,-21.67 412.17,-26 407.83,-26"/>
<text text-anchor="middle" x="307.5" y="-9.2" font-family="Arial" font-size="16.00" fill="#c6c5fe">i18n/hooks/locale&#45;change.ts</text>
</g>
<!-- i18n/hooks/locale&#45;change.ts&#45;&gt;i18n/hooks/client&#45;locale.ts -->
<g id="edge2" class="edge">
<title>i18n/hooks/locale&#45;change.ts&#45;&gt;i18n/hooks/client&#45;locale.ts</title>
<path fill="none" stroke="#757575" d="M389.53,-26.03C415.78,-30.25 445.08,-34.96 472.03,-39.29"/>
<polygon fill="#757575" stroke="#757575" points="471.81,-42.8 482.24,-40.93 472.92,-35.89 471.81,-42.8"/>
</g>
<!-- i18n/hooks/setup.ts -->
<g id="node6" class="node">
<title>i18n/hooks/setup.ts</title>
<path fill="none" stroke="#c6c5fe" d="M377.33,-108C377.33,-108 237.67,-108 237.67,-108 233.33,-108 229,-103.67 229,-99.33 229,-99.33 229,-90.67 229,-90.67 229,-86.33 233.33,-82 237.67,-82 237.67,-82 377.33,-82 377.33,-82 381.67,-82 386,-86.33 386,-90.67 386,-90.67 386,-99.33 386,-99.33 386,-103.67 381.67,-108 377.33,-108"/>
<text text-anchor="middle" x="307.5" y="-91.2" font-family="Arial" font-size="16.00" fill="#c6c5fe">i18n/hooks/setup.ts</text>
</g>
<!-- i18n/hooks/setup.ts&#45;&gt;i18n/effects.ts -->
<g id="edge3" class="edge">
<title>i18n/hooks/setup.ts&#45;&gt;i18n/effects.ts</title>
<path fill="none" stroke="#757575" d="M386.05,-106.56C420.97,-111.76 461.83,-117.85 495.54,-122.87"/>
<polygon fill="#757575" stroke="#757575" points="495.35,-126.38 505.76,-124.39 496.38,-119.46 495.35,-126.38"/>
</g>
<!-- i18n/hooks/setup.ts&#45;&gt;i18n/hooks/client&#45;locale.ts -->
<g id="edge4" class="edge">
<title>i18n/hooks/setup.ts&#45;&gt;i18n/hooks/client&#45;locale.ts</title>
<path fill="none" stroke="#757575" d="M386.05,-82.53C413.31,-78.15 444.19,-73.18 472.46,-68.64"/>
<polygon fill="#757575" stroke="#757575" points="473.03,-72.09 482.35,-67.05 471.92,-65.18 473.03,-72.09"/>
</g>
<!-- i18n/index.ts -->
<g id="node7" class="node">
<title>i18n/index.ts</title>
<path fill="none" stroke="#c6c5fe" d="M121.33,-108C121.33,-108 30.67,-108 30.67,-108 26.33,-108 22,-103.67 22,-99.33 22,-99.33 22,-90.67 22,-90.67 22,-86.33 26.33,-82 30.67,-82 30.67,-82 121.33,-82 121.33,-82 125.67,-82 130,-86.33 130,-90.67 130,-90.67 130,-99.33 130,-99.33 130,-103.67 125.67,-108 121.33,-108"/>
<text text-anchor="middle" x="76" y="-91.2" font-family="Arial" font-size="16.00" fill="#c6c5fe">i18n/index.ts</text>
</g>
<!-- i18n/index.ts&#45;&gt;i18n/effects.ts -->
<g id="edge5" class="edge">
<title>i18n/index.ts&#45;&gt;i18n/effects.ts</title>
<path fill="none" stroke="#757575" d="M130.09,-107.24C148.35,-110.99 168.98,-114.72 188,-117 294.89,-129.79 419.97,-132.74 495.4,-133.22"/>
<polygon fill="#757575" stroke="#757575" points="495.69,-136.72 505.7,-133.27 495.72,-129.72 495.69,-136.72"/>
</g>
<!-- i18n/index.ts&#45;&gt;i18n/types.ts -->
<g id="edge9" class="edge">
<title>i18n/index.ts&#45;&gt;i18n/types.ts</title>
<path fill="none" stroke="#757575" d="M103.16,-108.14C125.19,-118.52 157.84,-132.33 188,-139 367.11,-178.63 585.81,-168 691.62,-159.27"/>
<polygon fill="#757575" stroke="#757575" points="692.14,-162.73 701.81,-158.4 691.55,-155.76 692.14,-162.73"/>
</g>
<!-- i18n/index.ts&#45;&gt;i18n/hooks/client&#45;locale.ts -->
<g id="edge6" class="edge">
<title>i18n/index.ts&#45;&gt;i18n/hooks/client&#45;locale.ts</title>
<path fill="none" stroke="#757575" d="M130.1,-82.85C148.36,-79.1 168.99,-75.35 188,-73 276.47,-62.05 377.42,-57.38 452.35,-55.4"/>
<polygon fill="#757575" stroke="#757575" points="452.84,-58.89 462.75,-55.14 452.66,-51.89 452.84,-58.89"/>
</g>
<!-- i18n/index.ts&#45;&gt;i18n/hooks/locale&#45;change.ts -->
<g id="edge7" class="edge">
<title>i18n/index.ts&#45;&gt;i18n/hooks/locale&#45;change.ts</title>
<path fill="none" stroke="#757575" d="M130.29,-82.68C137.81,-80 145.26,-76.8 152,-73 170.9,-62.34 168.78,-50.08 188,-40 196.1,-35.75 204.85,-32.17 213.8,-29.15"/>
<polygon fill="#757575" stroke="#757575" points="215.07,-32.42 223.57,-26.09 212.98,-25.74 215.07,-32.42"/>
</g>
<!-- i18n/index.ts&#45;&gt;i18n/hooks/setup.ts -->
<g id="edge8" class="edge">
<title>i18n/index.ts&#45;&gt;i18n/hooks/setup.ts</title>
<path fill="none" stroke="#757575" d="M130.23,-95C156.52,-95 188.93,-95 218.76,-95"/>
<polygon fill="#757575" stroke="#757575" points="218.76,-98.5 228.76,-95 218.76,-91.5 218.76,-98.5"/>
</g>
<!-- lifecycle/before&#45;render.ts -->
<g id="node8" class="node">
<title>lifecycle/before&#45;render.ts</title>
<path fill="none" stroke="#cfffac" d="M395.83,-541C395.83,-541 219.17,-541 219.17,-541 214.83,-541 210.5,-536.67 210.5,-532.33 210.5,-532.33 210.5,-523.67 210.5,-523.67 210.5,-519.33 214.83,-515 219.17,-515 219.17,-515 395.83,-515 395.83,-515 400.17,-515 404.5,-519.33 404.5,-523.67 404.5,-523.67 404.5,-532.33 404.5,-532.33 404.5,-536.67 400.17,-541 395.83,-541"/>
<text text-anchor="middle" x="307.5" y="-524.2" font-family="Arial" font-size="16.00" fill="#cfffac">lifecycle/before&#45;render.ts</text>
</g>
<!-- lifecycle/before&#45;route.ts -->
<g id="node9" class="node">
<title>lifecycle/before&#45;route.ts</title>
<path fill="none" stroke="#c6c5fe" d="M391.33,-497C391.33,-497 223.67,-497 223.67,-497 219.33,-497 215,-492.67 215,-488.33 215,-488.33 215,-479.67 215,-479.67 215,-475.33 219.33,-471 223.67,-471 223.67,-471 391.33,-471 391.33,-471 395.67,-471 400,-475.33 400,-479.67 400,-479.67 400,-488.33 400,-488.33 400,-492.67 395.67,-497 391.33,-497"/>
<text text-anchor="middle" x="307.5" y="-480.2" font-family="Arial" font-size="16.00" fill="#c6c5fe">lifecycle/before&#45;route.ts</text>
</g>
<!-- types.ts -->
<g id="node10" class="node">
<title>types.ts</title>
<path fill="none" stroke="#cfffac" d="M592.33,-398C592.33,-398 536.67,-398 536.67,-398 532.33,-398 528,-393.67 528,-389.33 528,-389.33 528,-380.67 528,-380.67 528,-376.33 532.33,-372 536.67,-372 536.67,-372 592.33,-372 592.33,-372 596.67,-372 601,-376.33 601,-380.67 601,-380.67 601,-389.33 601,-389.33 601,-393.67 596.67,-398 592.33,-398"/>
<text text-anchor="middle" x="564.5" y="-381.2" font-family="Arial" font-size="16.00" fill="#cfffac">types.ts</text>
</g>
<!-- lifecycle/before&#45;route.ts&#45;&gt;types.ts -->
<g id="edge10" class="edge">
<title>lifecycle/before&#45;route.ts&#45;&gt;types.ts</title>
<path fill="none" stroke="#757575" d="M396.74,-470.98C407.07,-468.47 417.36,-465.5 427,-462 467.44,-447.3 510,-421.39 536.63,-403.72"/>
<polygon fill="#757575" stroke="#757575" points="538.68,-406.55 545.03,-398.07 534.78,-400.74 538.68,-406.55"/>
</g>
<!-- lifecycle/index.ts -->
<g id="node11" class="node">
<title>lifecycle/index.ts</title>
<path fill="none" stroke="#c6c5fe" d="M135.33,-497C135.33,-497 16.67,-497 16.67,-497 12.33,-497 8,-492.67 8,-488.33 8,-488.33 8,-479.67 8,-479.67 8,-475.33 12.33,-471 16.67,-471 16.67,-471 135.33,-471 135.33,-471 139.67,-471 144,-475.33 144,-479.67 144,-479.67 144,-488.33 144,-488.33 144,-492.67 139.67,-497 135.33,-497"/>
<text text-anchor="middle" x="76" y="-480.2" font-family="Arial" font-size="16.00" fill="#c6c5fe">lifecycle/index.ts</text>
</g>
<!-- lifecycle/index.ts&#45;&gt;lifecycle/before&#45;render.ts -->
<g id="edge11" class="edge">
<title>lifecycle/index.ts&#45;&gt;lifecycle/before&#45;render.ts</title>
<path fill="none" stroke="#757575" d="M142.12,-497.04C157.18,-500.02 173.14,-503.15 188,-506 200.16,-508.33 213.03,-510.76 225.64,-513.12"/>
<polygon fill="#757575" stroke="#757575" points="225.19,-516.6 235.67,-514.99 226.48,-509.72 225.19,-516.6"/>
</g>
<!-- lifecycle/index.ts&#45;&gt;lifecycle/before&#45;route.ts -->
<g id="edge12" class="edge">
<title>lifecycle/index.ts&#45;&gt;lifecycle/before&#45;route.ts</title>
<path fill="none" stroke="#757575" d="M144.31,-484C163.29,-484 184.37,-484 204.89,-484"/>
<polygon fill="#757575" stroke="#757575" points="204.9,-487.5 214.9,-484 204.9,-480.5 204.9,-487.5"/>
</g>
<!-- lifecycle/prerender&#45;start.ts -->
<g id="node12" class="node">
<title>lifecycle/prerender&#45;start.ts</title>
<path fill="none" stroke="#cfffac" d="M400.33,-453C400.33,-453 214.67,-453 214.67,-453 210.33,-453 206,-448.67 206,-444.33 206,-444.33 206,-435.67 206,-435.67 206,-431.33 210.33,-427 214.67,-427 214.67,-427 400.33,-427 400.33,-427 404.67,-427 409,-431.33 409,-435.67 409,-435.67 409,-444.33 409,-444.33 409,-448.67 404.67,-453 400.33,-453"/>
<text text-anchor="middle" x="307.5" y="-436.2" font-family="Arial" font-size="16.00" fill="#cfffac">lifecycle/prerender&#45;start.ts</text>
</g>
<!-- lifecycle/index.ts&#45;&gt;lifecycle/prerender&#45;start.ts -->
<g id="edge13" class="edge">
<title>lifecycle/index.ts&#45;&gt;lifecycle/prerender&#45;start.ts</title>
<path fill="none" stroke="#757575" d="M142.12,-470.96C157.18,-467.98 173.14,-464.85 188,-462 200.16,-459.67 213.03,-457.24 225.64,-454.88"/>
<polygon fill="#757575" stroke="#757575" points="226.48,-458.28 235.67,-453.01 225.19,-451.4 226.48,-458.28"/>
</g>
<!-- metadata/head.tsx -->
<g id="node13" class="node">
<title>metadata/head.tsx</title>
<path fill="none" stroke="#cfffac" d="M373.83,-409C373.83,-409 241.17,-409 241.17,-409 236.83,-409 232.5,-404.67 232.5,-400.33 232.5,-400.33 232.5,-391.67 232.5,-391.67 232.5,-387.33 236.83,-383 241.17,-383 241.17,-383 373.83,-383 373.83,-383 378.17,-383 382.5,-387.33 382.5,-391.67 382.5,-391.67 382.5,-400.33 382.5,-400.33 382.5,-404.67 378.17,-409 373.83,-409"/>
<text text-anchor="middle" x="307.5" y="-392.2" font-family="Arial" font-size="16.00" fill="#cfffac">metadata/head.tsx</text>
</g>
<!-- metadata/index.ts -->
<g id="node14" class="node">
<title>metadata/index.ts</title>
<path fill="none" stroke="#c6c5fe" d="M139.83,-321C139.83,-321 12.17,-321 12.17,-321 7.83,-321 3.5,-316.67 3.5,-312.33 3.5,-312.33 3.5,-303.67 3.5,-303.67 3.5,-299.33 7.83,-295 12.17,-295 12.17,-295 139.83,-295 139.83,-295 144.17,-295 148.5,-299.33 148.5,-303.67 148.5,-303.67 148.5,-312.33 148.5,-312.33 148.5,-316.67 144.17,-321 139.83,-321"/>
<text text-anchor="middle" x="76" y="-304.2" font-family="Arial" font-size="16.00" fill="#c6c5fe">metadata/index.ts</text>
</g>
<!-- metadata/index.ts&#45;&gt;metadata/head.tsx -->
<g id="edge14" class="edge">
<title>metadata/index.ts&#45;&gt;metadata/head.tsx</title>
<path fill="none" stroke="#757575" d="M94.46,-321.06C115.52,-336.16 152.54,-360.65 188,-374 198.94,-378.12 210.75,-381.49 222.52,-384.24"/>
<polygon fill="#757575" stroke="#757575" points="221.87,-387.67 232.39,-386.4 223.37,-380.84 221.87,-387.67"/>
</g>
<!-- metadata/lang.ts -->
<g id="node15" class="node">
<title>metadata/lang.ts</title>
<path fill="none" stroke="#cfffac" d="M367.33,-365C367.33,-365 247.67,-365 247.67,-365 243.33,-365 239,-360.67 239,-356.33 239,-356.33 239,-347.67 239,-347.67 239,-343.33 243.33,-339 247.67,-339 247.67,-339 367.33,-339 367.33,-339 371.67,-339 376,-343.33 376,-347.67 376,-347.67 376,-356.33 376,-356.33 376,-360.67 371.67,-365 367.33,-365"/>
<text text-anchor="middle" x="307.5" y="-348.2" font-family="Arial" font-size="16.00" fill="#cfffac">metadata/lang.ts</text>
</g>
<!-- metadata/index.ts&#45;&gt;metadata/lang.ts -->
<g id="edge15" class="edge">
<title>metadata/index.ts&#45;&gt;metadata/lang.ts</title>
<path fill="none" stroke="#757575" d="M142.12,-321.04C157.18,-324.02 173.14,-327.15 188,-330 201.23,-332.54 215.3,-335.19 228.95,-337.74"/>
<polygon fill="#757575" stroke="#757575" points="228.32,-341.19 238.79,-339.58 229.61,-334.3 228.32,-341.19"/>
</g>
<!-- metadata/title.ts -->
<g id="node16" class="node">
<title>metadata/title.ts</title>
<path fill="none" stroke="#cfffac" d="M364.33,-321C364.33,-321 250.67,-321 250.67,-321 246.33,-321 242,-316.67 242,-312.33 242,-312.33 242,-303.67 242,-303.67 242,-299.33 246.33,-295 250.67,-295 250.67,-295 364.33,-295 364.33,-295 368.67,-295 373,-299.33 373,-303.67 373,-303.67 373,-312.33 373,-312.33 373,-316.67 368.67,-321 364.33,-321"/>
<text text-anchor="middle" x="307.5" y="-304.2" font-family="Arial" font-size="16.00" fill="#cfffac">metadata/title.ts</text>
</g>
<!-- metadata/index.ts&#45;&gt;metadata/title.ts -->
<g id="edge16" class="edge">
<title>metadata/index.ts&#45;&gt;metadata/title.ts</title>
<path fill="none" stroke="#757575" d="M148.67,-308C175.14,-308 205.2,-308 231.92,-308"/>
<polygon fill="#757575" stroke="#757575" points="231.99,-311.5 241.99,-308 231.99,-304.5 231.99,-311.5"/>
</g>
<!-- metadata/types.ts -->
<g id="node17" class="node">
<title>metadata/types.ts</title>
<path fill="none" stroke="#cfffac" d="M628.33,-247C628.33,-247 500.67,-247 500.67,-247 496.33,-247 492,-242.67 492,-238.33 492,-238.33 492,-229.67 492,-229.67 492,-225.33 496.33,-221 500.67,-221 500.67,-221 628.33,-221 628.33,-221 632.67,-221 637,-225.33 637,-229.67 637,-229.67 637,-238.33 637,-238.33 637,-242.67 632.67,-247 628.33,-247"/>
<text text-anchor="middle" x="564.5" y="-230.2" font-family="Arial" font-size="16.00" fill="#cfffac">metadata/types.ts</text>
</g>
<!-- metadata/index.ts&#45;&gt;metadata/types.ts -->
<g id="edge17" class="edge">
<title>metadata/index.ts&#45;&gt;metadata/types.ts</title>
<path fill="none" stroke="#757575" d="M93.04,-294.77C113.56,-278.76 150.93,-252.62 188,-242 286.09,-213.91 404.56,-217.17 481.84,-223.95"/>
<polygon fill="#757575" stroke="#757575" points="481.72,-227.46 492,-224.88 482.36,-220.49 481.72,-227.46"/>
</g>
<!-- metadata/utils.ts -->
<g id="node18" class="node">
<title>metadata/utils.ts</title>
<path fill="none" stroke="#c6c5fe" d="M366.33,-277C366.33,-277 248.67,-277 248.67,-277 244.33,-277 240,-272.67 240,-268.33 240,-268.33 240,-259.67 240,-259.67 240,-255.33 244.33,-251 248.67,-251 248.67,-251 366.33,-251 366.33,-251 370.67,-251 375,-255.33 375,-259.67 375,-259.67 375,-268.33 375,-268.33 375,-272.67 370.67,-277 366.33,-277"/>
<text text-anchor="middle" x="307.5" y="-260.2" font-family="Arial" font-size="16.00" fill="#c6c5fe">metadata/utils.ts</text>
</g>
<!-- metadata/index.ts&#45;&gt;metadata/utils.ts -->
<g id="edge18" class="edge">
<title>metadata/index.ts&#45;&gt;metadata/utils.ts</title>
<path fill="none" stroke="#757575" d="M142.12,-294.96C157.18,-291.98 173.14,-288.85 188,-286 201.48,-283.41 215.83,-280.71 229.71,-278.12"/>
<polygon fill="#757575" stroke="#757575" points="230.54,-281.52 239.73,-276.25 229.26,-274.64 230.54,-281.52"/>
</g>
<!-- metadata/utils.ts&#45;&gt;types.ts -->
<g id="edge20" class="edge">
<title>metadata/utils.ts&#45;&gt;types.ts</title>
<path fill="none" stroke="#757575" d="M375.22,-271.06C392.54,-274.31 410.85,-279.07 427,-286 472.15,-305.38 516.77,-341.9 542.15,-364.76"/>
<polygon fill="#757575" stroke="#757575" points="539.95,-367.49 549.69,-371.66 544.67,-362.33 539.95,-367.49"/>
</g>
<!-- metadata/utils.ts&#45;&gt;metadata/types.ts -->
<g id="edge19" class="edge">
<title>metadata/utils.ts&#45;&gt;metadata/types.ts</title>
<path fill="none" stroke="#757575" d="M375.17,-256.16C407.8,-252.32 447.39,-247.66 481.82,-243.61"/>
<polygon fill="#757575" stroke="#757575" points="482.34,-247.07 491.86,-242.43 481.52,-240.12 482.34,-247.07"/>
</g>
<!-- navigation/components/link.tsx -->
<g id="node19" class="node">
<title>navigation/components/link.tsx</title>
<path fill="none" stroke="#c6c5fe" d="M418.33,-667C418.33,-667 196.67,-667 196.67,-667 192.33,-667 188,-662.67 188,-658.33 188,-658.33 188,-649.67 188,-649.67 188,-645.33 192.33,-641 196.67,-641 196.67,-641 418.33,-641 418.33,-641 422.67,-641 427,-645.33 427,-649.67 427,-649.67 427,-658.33 427,-658.33 427,-662.67 422.67,-667 418.33,-667"/>
<text text-anchor="middle" x="307.5" y="-650.2" font-family="Arial" font-size="16.00" fill="#c6c5fe">navigation/components/link.tsx</text>
</g>
<!-- navigation/utils.ts -->
<g id="node20" class="node">
<title>navigation/utils.ts</title>
<path fill="none" stroke="#cfffac" d="M626.83,-626C626.83,-626 502.17,-626 502.17,-626 497.83,-626 493.5,-621.67 493.5,-617.33 493.5,-617.33 493.5,-608.67 493.5,-608.67 493.5,-604.33 497.83,-600 502.17,-600 502.17,-600 626.83,-600 626.83,-600 631.17,-600 635.5,-604.33 635.5,-608.67 635.5,-608.67 635.5,-617.33 635.5,-617.33 635.5,-621.67 631.17,-626 626.83,-626"/>
<text text-anchor="middle" x="564.5" y="-609.2" font-family="Arial" font-size="16.00" fill="#cfffac">navigation/utils.ts</text>
</g>
<!-- navigation/components/link.tsx&#45;&gt;navigation/utils.ts -->
<g id="edge21" class="edge">
<title>navigation/components/link.tsx&#45;&gt;navigation/utils.ts</title>
<path fill="none" stroke="#757575" d="M389.53,-640.97C419.54,-636.15 453.52,-630.68 483.44,-625.87"/>
<polygon fill="#757575" stroke="#757575" points="484.1,-629.31 493.42,-624.27 482.99,-622.4 484.1,-629.31"/>
</g>
<!-- navigation/index.ts -->
<g id="node21" class="node">
<title>navigation/index.ts</title>
<path fill="none" stroke="#c6c5fe" d="M143.33,-626C143.33,-626 8.67,-626 8.67,-626 4.33,-626 0,-621.67 0,-617.33 0,-617.33 0,-608.67 0,-608.67 0,-604.33 4.33,-600 8.67,-600 8.67,-600 143.33,-600 143.33,-600 147.67,-600 152,-604.33 152,-608.67 152,-608.67 152,-617.33 152,-617.33 152,-621.67 147.67,-626 143.33,-626"/>
<text text-anchor="middle" x="76" y="-609.2" font-family="Arial" font-size="16.00" fill="#c6c5fe">navigation/index.ts</text>
</g>
<!-- navigation/index.ts&#45;&gt;navigation/components/link.tsx -->
<g id="edge22" class="edge">
<title>navigation/index.ts&#45;&gt;navigation/components/link.tsx</title>
<path fill="none" stroke="#757575" d="M149.93,-626.03C173.24,-630.19 199.23,-634.84 223.22,-639.12"/>
<polygon fill="#757575" stroke="#757575" points="222.91,-642.62 233.37,-640.93 224.14,-635.73 222.91,-642.62"/>
</g>
<!-- navigation/index.ts&#45;&gt;navigation/utils.ts -->
<g id="edge24" class="edge">
<title>navigation/index.ts&#45;&gt;navigation/utils.ts</title>
<path fill="none" stroke="#757575" d="M152.22,-613C241.94,-613 391.3,-613 483.2,-613"/>
<polygon fill="#757575" stroke="#757575" points="483.29,-616.5 493.29,-613 483.29,-609.5 483.29,-616.5"/>
</g>
<!-- navigation/providers.tsx -->
<g id="node22" class="node">
<title>navigation/providers.tsx</title>
<path fill="none" stroke="#c6c5fe" d="M392.83,-585C392.83,-585 222.17,-585 222.17,-585 217.83,-585 213.5,-580.67 213.5,-576.33 213.5,-576.33 213.5,-567.67 213.5,-567.67 213.5,-563.33 217.83,-559 222.17,-559 222.17,-559 392.83,-559 392.83,-559 397.17,-559 401.5,-563.33 401.5,-567.67 401.5,-567.67 401.5,-576.33 401.5,-576.33 401.5,-580.67 397.17,-585 392.83,-585"/>
<text text-anchor="middle" x="307.5" y="-568.2" font-family="Arial" font-size="16.00" fill="#c6c5fe">navigation/providers.tsx</text>
</g>
<!-- navigation/index.ts&#45;&gt;navigation/providers.tsx -->
<g id="edge23" class="edge">
<title>navigation/index.ts&#45;&gt;navigation/providers.tsx</title>
<path fill="none" stroke="#757575" d="M149.93,-599.97C173.24,-595.81 199.23,-591.16 223.22,-586.88"/>
<polygon fill="#757575" stroke="#757575" points="224.14,-590.27 233.37,-585.07 222.91,-583.38 224.14,-590.27"/>
</g>
<!-- navigation/providers.tsx&#45;&gt;navigation/utils.ts -->
<g id="edge25" class="edge">
<title>navigation/providers.tsx&#45;&gt;navigation/utils.ts</title>
<path fill="none" stroke="#757575" d="M389.53,-585.03C419.54,-589.85 453.52,-595.32 483.44,-600.13"/>
<polygon fill="#757575" stroke="#757575" points="482.99,-603.6 493.42,-601.73 484.1,-596.69 482.99,-603.6"/>
</g>
<!-- tracking/effects.ts -->
<g id="node23" class="node">
<title>tracking/effects.ts</title>
<path fill="none" stroke="#c6c5fe" d="M370.33,-793C370.33,-793 244.67,-793 244.67,-793 240.33,-793 236,-788.67 236,-784.33 236,-784.33 236,-775.67 236,-775.67 236,-771.33 240.33,-767 244.67,-767 244.67,-767 370.33,-767 370.33,-767 374.67,-767 379,-771.33 379,-775.67 379,-775.67 379,-784.33 379,-784.33 379,-788.67 374.67,-793 370.33,-793"/>
<text text-anchor="middle" x="307.5" y="-776.2" font-family="Arial" font-size="16.00" fill="#c6c5fe">tracking/effects.ts</text>
</g>
<!-- tracking/types.ts -->
<g id="node24" class="node">
<title>tracking/types.ts</title>
<path fill="none" stroke="#cfffac" d="M622.83,-752C622.83,-752 506.17,-752 506.17,-752 501.83,-752 497.5,-747.67 497.5,-743.33 497.5,-743.33 497.5,-734.67 497.5,-734.67 497.5,-730.33 501.83,-726 506.17,-726 506.17,-726 622.83,-726 622.83,-726 627.17,-726 631.5,-730.33 631.5,-734.67 631.5,-734.67 631.5,-743.33 631.5,-743.33 631.5,-747.67 627.17,-752 622.83,-752"/>
<text text-anchor="middle" x="564.5" y="-735.2" font-family="Arial" font-size="16.00" fill="#cfffac">tracking/types.ts</text>
</g>
<!-- tracking/effects.ts&#45;&gt;tracking/types.ts -->
<g id="edge26" class="edge">
<title>tracking/effects.ts&#45;&gt;tracking/types.ts</title>
<path fill="none" stroke="#757575" d="M379.19,-768.63C412.87,-763.22 453.18,-756.74 487.51,-751.22"/>
<polygon fill="#757575" stroke="#757575" points="488.17,-754.66 497.49,-749.61 487.06,-747.75 488.17,-754.66"/>
</g>
<!-- tracking/hooks.ts -->
<g id="node25" class="node">
<title>tracking/hooks.ts</title>
<path fill="none" stroke="#c6c5fe" d="M368.33,-711C368.33,-711 246.67,-711 246.67,-711 242.33,-711 238,-706.67 238,-702.33 238,-702.33 238,-693.67 238,-693.67 238,-689.33 242.33,-685 246.67,-685 246.67,-685 368.33,-685 368.33,-685 372.67,-685 377,-689.33 377,-693.67 377,-693.67 377,-702.33 377,-702.33 377,-706.67 372.67,-711 368.33,-711"/>
<text text-anchor="middle" x="307.5" y="-694.2" font-family="Arial" font-size="16.00" fill="#c6c5fe">tracking/hooks.ts</text>
</g>
<!-- tracking/hooks.ts&#45;&gt;tracking/types.ts -->
<g id="edge27" class="edge">
<title>tracking/hooks.ts&#45;&gt;tracking/types.ts</title>
<path fill="none" stroke="#757575" d="M377.17,-709.04C411.14,-714.5 452.24,-721.11 487.19,-726.73"/>
<polygon fill="#757575" stroke="#757575" points="486.92,-730.23 497.35,-728.36 488.03,-723.32 486.92,-730.23"/>
</g>
<!-- tracking/index.ts -->
<g id="node26" class="node">
<title>tracking/index.ts</title>
<path fill="none" stroke="#c6c5fe" d="M134.33,-752C134.33,-752 17.67,-752 17.67,-752 13.33,-752 9,-747.67 9,-743.33 9,-743.33 9,-734.67 9,-734.67 9,-730.33 13.33,-726 17.67,-726 17.67,-726 134.33,-726 134.33,-726 138.67,-726 143,-730.33 143,-734.67 143,-734.67 143,-743.33 143,-743.33 143,-747.67 138.67,-752 134.33,-752"/>
<text text-anchor="middle" x="76" y="-735.2" font-family="Arial" font-size="16.00" fill="#c6c5fe">tracking/index.ts</text>
</g>
<!-- tracking/index.ts&#45;&gt;tracking/effects.ts -->
<g id="edge28" class="edge">
<title>tracking/index.ts&#45;&gt;tracking/effects.ts</title>
<path fill="none" stroke="#757575" d="M143.07,-750.8C168.79,-755.4 198.51,-760.71 225.49,-765.53"/>
<polygon fill="#757575" stroke="#757575" points="225.23,-769.04 235.69,-767.35 226.46,-762.14 225.23,-769.04"/>
</g>
<!-- tracking/index.ts&#45;&gt;tracking/types.ts -->
<g id="edge30" class="edge">
<title>tracking/index.ts&#45;&gt;tracking/types.ts</title>
<path fill="none" stroke="#757575" d="M143.12,-739C232.73,-739 392.4,-739 487.06,-739"/>
<polygon fill="#757575" stroke="#757575" points="487.14,-742.5 497.14,-739 487.14,-735.5 487.14,-742.5"/>
</g>
<!-- tracking/index.ts&#45;&gt;tracking/hooks.ts -->
<g id="edge29" class="edge">
<title>tracking/index.ts&#45;&gt;tracking/hooks.ts</title>
<path fill="none" stroke="#757575" d="M143.07,-727.2C169.49,-722.48 200.13,-717 227.7,-712.08"/>
<polygon fill="#757575" stroke="#757575" points="228.47,-715.5 237.7,-710.29 227.24,-708.6 228.47,-715.5"/>
</g>
<!-- vite&#45;env.d.ts -->
<g id="node27" class="node">
<title>vite&#45;env.d.ts</title>
<path fill="none" stroke="#cfffac" d="M118.83,-796C118.83,-796 33.17,-796 33.17,-796 28.83,-796 24.5,-791.67 24.5,-787.33 24.5,-787.33 24.5,-778.67 24.5,-778.67 24.5,-774.33 28.83,-770 33.17,-770 33.17,-770 118.83,-770 118.83,-770 123.17,-770 127.5,-774.33 127.5,-778.67 127.5,-778.67 127.5,-787.33 127.5,-787.33 127.5,-791.67 123.17,-796 118.83,-796"/>
<text text-anchor="middle" x="76" y="-779.2" font-family="Arial" font-size="16.00" fill="#cfffac">vite&#45;env.d.ts</text>
</g>
</g>
</svg>
