<?xml version="1.0" encoding="UTF-8" standalone="no"?>
<!DOCTYPE svg PUBLIC "-//W3C//DTD SVG 1.1//EN"
 "http://www.w3.org/Graphics/SVG/1.1/DTD/svg11.dtd">
<!-- Generated by graphviz version 2.43.0 (0)
 -->
<!-- Title: dependency&#45;cruiser output Pages: 1 -->
<svg width="981pt" height="1442pt"
 viewBox="0.00 0.00 981.00 1442.00" xmlns="http://www.w3.org/2000/svg" xmlns:xlink="http://www.w3.org/1999/xlink">
<g id="graph0" class="graph" transform="scale(1 1) rotate(0) translate(4 1438)">
<title>dependency&#45;cruiser output</title>
<polygon fill="white" stroke="transparent" points="-4,4 -4,-1438 977,-1438 977,4 -4,4"/>
<g id="clust1" class="cluster">
<title>cluster_src</title>
<path fill="#ffffff" stroke="black" stroke-width="2" d="M20,-8C20,-8 953,-8 953,-8 959,-8 965,-14 965,-20 965,-20 965,-1414 965,-1414 965,-1420 959,-1426 953,-1426 953,-1426 20,-1426 20,-1426 14,-1426 8,-1420 8,-1414 8,-1414 8,-20 8,-20 8,-14 14,-8 20,-8"/>
<text text-anchor="middle" x="486.5" y="-1409.2" font-family="Helvetica,sans-Serif" font-weight="bold" font-size="16.00">src</text>
</g>
<g id="clust2" class="cluster">
<title>cluster_src/config</title>
<path fill="#ffffff" stroke="black" stroke-width="2" d="M37.5,-1258C37.5,-1258 110.5,-1258 110.5,-1258 116.5,-1258 122.5,-1264 122.5,-1270 122.5,-1270 122.5,-1342 122.5,-1342 122.5,-1348 116.5,-1354 110.5,-1354 110.5,-1354 37.5,-1354 37.5,-1354 31.5,-1354 25.5,-1348 25.5,-1342 25.5,-1342 25.5,-1270 25.5,-1270 25.5,-1264 31.5,-1258 37.5,-1258"/>
<text text-anchor="middle" x="74" y="-1337.2" font-family="Helvetica,sans-Serif" font-weight="bold" font-size="16.00">config</text>
</g>
<g id="clust3" class="cluster">
<title>cluster_src/i18n</title>
<path fill="#ffffff" stroke="black" stroke-width="2" d="M437,-642C437,-642 945,-642 945,-642 951,-642 957,-648 957,-654 957,-654 957,-972 957,-972 957,-978 951,-984 945,-984 945,-984 437,-984 437,-984 431,-984 425,-978 425,-972 425,-972 425,-654 425,-654 425,-648 431,-642 437,-642"/>
<text text-anchor="middle" x="691" y="-967.2" font-family="Helvetica,sans-Serif" font-weight="bold" font-size="16.00">i18n</text>
</g>
<g id="clust4" class="cluster">
<title>cluster_src/i18n/hooks</title>
<path fill="#ffffff" stroke="black" stroke-width="2" d="M590,-712C590,-712 937,-712 937,-712 943,-712 949,-718 949,-724 949,-724 949,-872 949,-872 949,-878 943,-884 937,-884 937,-884 590,-884 590,-884 584,-884 578,-878 578,-872 578,-872 578,-724 578,-724 578,-718 584,-712 590,-712"/>
<text text-anchor="middle" x="763.5" y="-867.2" font-family="Helvetica,sans-Serif" font-weight="bold" font-size="16.00">hooks</text>
</g>
<g id="clust5" class="cluster">
<title>cluster_src/lifecycle</title>
<path fill="#ffffff" stroke="black" stroke-width="2" d="M37.5,-876C37.5,-876 357,-876 357,-876 363,-876 369,-882 369,-888 369,-888 369,-1112 369,-1112 369,-1118 363,-1124 357,-1124 357,-1124 37.5,-1124 37.5,-1124 31.5,-1124 25.5,-1118 25.5,-1112 25.5,-1112 25.5,-888 25.5,-888 25.5,-882 31.5,-876 37.5,-876"/>
<text text-anchor="middle" x="197.25" y="-1107.2" font-family="Helvetica,sans-Serif" font-weight="bold" font-size="16.00">lifecycle</text>
</g>
<g id="clust6" class="cluster">
<title>cluster_src/metadata</title>
<path fill="#ffffff" stroke="black" stroke-width="2" d="M437,-992C437,-992 699.5,-992 699.5,-992 705.5,-992 711.5,-998 711.5,-1004 711.5,-1004 711.5,-1380 711.5,-1380 711.5,-1386 705.5,-1392 699.5,-1392 699.5,-1392 437,-1392 437,-1392 431,-1392 425,-1386 425,-1380 425,-1380 425,-1004 425,-1004 425,-998 431,-992 437,-992"/>
<text text-anchor="middle" x="568.25" y="-1375.2" font-family="Helvetica,sans-Serif" font-weight="bold" font-size="16.00">metadata</text>
</g>
<g id="clust7" class="cluster">
<title>cluster_src/navigation</title>
<path fill="#ffffff" stroke="black" stroke-width="2" d="M37.5,-410C37.5,-410 504.5,-410 504.5,-410 510.5,-410 516.5,-416 516.5,-422 516.5,-422 516.5,-622 516.5,-622 516.5,-628 510.5,-634 504.5,-634 504.5,-634 37.5,-634 37.5,-634 31.5,-634 25.5,-628 25.5,-622 25.5,-622 25.5,-422 25.5,-422 25.5,-416 31.5,-410 37.5,-410"/>
<text text-anchor="middle" x="271" y="-617.2" font-family="Helvetica,sans-Serif" font-weight="bold" font-size="16.00">navigation</text>
</g>
<g id="clust8" class="cluster">
<title>cluster_src/navigation/components</title>
<path fill="#ffffff" stroke="black" stroke-width="2" d="M231.5,-418C231.5,-418 334.5,-418 334.5,-418 340.5,-418 346.5,-424 346.5,-430 346.5,-430 346.5,-502 346.5,-502 346.5,-508 340.5,-514 334.5,-514 334.5,-514 231.5,-514 231.5,-514 225.5,-514 219.5,-508 219.5,-502 219.5,-502 219.5,-430 219.5,-430 219.5,-424 225.5,-418 231.5,-418"/>
<text text-anchor="middle" x="283" y="-497.2" font-family="Helvetica,sans-Serif" font-weight="bold" font-size="16.00">components</text>
</g>
<g id="clust9" class="cluster">
<title>cluster_src/tracking</title>
<path fill="#ffffff" stroke="black" stroke-width="2" d="M37.5,-154C37.5,-154 323.5,-154 323.5,-154 329.5,-154 335.5,-160 335.5,-166 335.5,-166 335.5,-390 335.5,-390 335.5,-396 329.5,-402 323.5,-402 323.5,-402 37.5,-402 37.5,-402 31.5,-402 25.5,-396 25.5,-390 25.5,-390 25.5,-166 25.5,-166 25.5,-160 31.5,-154 37.5,-154"/>
<text text-anchor="middle" x="180.5" y="-385.2" font-family="Helvetica,sans-Serif" font-weight="bold" font-size="16.00">tracking</text>
</g>
<!-- src/config/index.ts -->
<g id="node1" class="node">
<title>src/config/index.ts</title>
<g id="a_node1"><a xlink:href="src/config/index.ts" xlink:title="index.ts">
<path fill="#ccffcc" stroke="black" d="M102.5,-1320C102.5,-1320 45.5,-1320 45.5,-1320 39.5,-1320 33.5,-1314 33.5,-1308 33.5,-1308 33.5,-1278 33.5,-1278 33.5,-1272 39.5,-1266 45.5,-1266 45.5,-1266 102.5,-1266 102.5,-1266 108.5,-1266 114.5,-1272 114.5,-1278 114.5,-1278 114.5,-1308 114.5,-1308 114.5,-1314 108.5,-1320 102.5,-1320"/>
<text text-anchor="start" x="41.5" y="-1289.2" font-family="Helvetica,sans-Serif" font-size="16.00">index.ts</text>
</a>
</g>
</g>
<!-- src/i18n/effects.ts -->
<g id="node2" class="node">
<title>src/i18n/effects.ts</title>
<g id="a_node2"><a xlink:href="src/i18n/effects.ts" xlink:title="effects.ts">
<path fill="#ddfeff" stroke="black" d="M907,-704C907,-704 841,-704 841,-704 835,-704 829,-698 829,-692 829,-692 829,-662 829,-662 829,-656 835,-650 841,-650 841,-650 907,-650 907,-650 913,-650 919,-656 919,-662 919,-662 919,-692 919,-692 919,-698 913,-704 907,-704"/>
<text text-anchor="start" x="837" y="-673.2" font-family="Helvetica,sans-Serif" font-size="16.00">effects.ts</text>
</a>
</g>
</g>
<!-- src/i18n/hooks/client&#45;locale.ts -->
<g id="node3" class="node">
<title>src/i18n/hooks/client&#45;locale.ts</title>
<g id="a_node3"><a xlink:href="src/i18n/hooks/client-locale.ts" xlink:title="client&#45;locale.ts">
<path fill="#ddfeff" stroke="black" d="M929,-850C929,-850 819,-850 819,-850 813,-850 807,-844 807,-838 807,-838 807,-808 807,-808 807,-802 813,-796 819,-796 819,-796 929,-796 929,-796 935,-796 941,-802 941,-808 941,-808 941,-838 941,-838 941,-844 935,-850 929,-850"/>
<text text-anchor="start" x="815" y="-819.2" font-family="Helvetica,sans-Serif" font-size="16.00">client&#45;locale.ts</text>
</a>
</g>
</g>
<!-- src/i18n/hooks/locale&#45;change.ts -->
<g id="node4" class="node">
<title>src/i18n/hooks/locale&#45;change.ts</title>
<g id="a_node4"><a xlink:href="src/i18n/hooks/locale-change.ts" xlink:title="locale&#45;change.ts">
<path fill="#ddfeff" stroke="black" d="M723,-850C723,-850 598,-850 598,-850 592,-850 586,-844 586,-838 586,-838 586,-808 586,-808 586,-802 592,-796 598,-796 598,-796 723,-796 723,-796 729,-796 735,-802 735,-808 735,-808 735,-838 735,-838 735,-844 729,-850 723,-850"/>
<text text-anchor="start" x="594" y="-819.2" font-family="Helvetica,sans-Serif" font-size="16.00">locale&#45;change.ts</text>
</a>
</g>
</g>
<!-- src/i18n/hooks/locale&#45;change.ts&#45;&gt;src/i18n/hooks/client&#45;locale.ts -->
<g id="edge1" class="edge">
<title>src/i18n/hooks/locale&#45;change.ts&#45;&gt;src/i18n/hooks/client&#45;locale.ts</title>
<path fill="none" stroke="#666666" stroke-width="2" stroke-opacity="0.458824" d="M735.17,-823C735.17,-823 786.86,-823 786.86,-823"/>
<polygon fill="#666666" fill-opacity="0.458824" stroke="#666666" stroke-width="2" stroke-opacity="0.458824" points="806.86,-823 786.86,-832 796.86,-823.5 786.86,-823.5 786.86,-823 786.86,-822.5 796.86,-822.5 786.86,-814 806.86,-823 806.86,-823"/>
</g>
<!-- src/i18n/hooks/setup.ts -->
<g id="node5" class="node">
<title>src/i18n/hooks/setup.ts</title>
<g id="a_node5"><a xlink:href="src/i18n/hooks/setup.ts" xlink:title="setup.ts">
<path fill="#ddfeff" stroke="black" d="M689,-774C689,-774 632,-774 632,-774 626,-774 620,-768 620,-762 620,-762 620,-732 620,-732 620,-726 626,-720 632,-720 632,-720 689,-720 689,-720 695,-720 701,-726 701,-732 701,-732 701,-762 701,-762 701,-768 695,-774 689,-774"/>
<text text-anchor="start" x="628" y="-743.2" font-family="Helvetica,sans-Serif" font-size="16.00">setup.ts</text>
</a>
</g>
</g>
<!-- src/i18n/hooks/setup.ts&#45;&gt;src/i18n/effects.ts -->
<g id="edge2" class="edge">
<title>src/i18n/hooks/setup.ts&#45;&gt;src/i18n/effects.ts</title>
<path fill="none" stroke="#666666" stroke-width="2" stroke-opacity="0.458824" d="M661,-719.71C661,-703.47 661,-686 661,-686 661,-686 808.83,-686 808.83,-686"/>
<polygon fill="#666666" fill-opacity="0.458824" stroke="#666666" stroke-width="2" stroke-opacity="0.458824" points="828.83,-686 808.83,-695 818.83,-686.5 808.83,-686.5 808.83,-686 808.83,-685.5 818.83,-685.5 808.83,-677 828.83,-686 828.83,-686"/>
</g>
<!-- src/i18n/hooks/setup.ts&#45;&gt;src/i18n/hooks/client&#45;locale.ts -->
<g id="edge3" class="edge">
<title>src/i18n/hooks/setup.ts&#45;&gt;src/i18n/hooks/client&#45;locale.ts</title>
<path fill="none" stroke="#666666" stroke-width="2" stroke-opacity="0.458824" d="M701.06,-747C747.73,-747 818,-747 818,-747 818,-747 818,-775.99 818,-775.99"/>
<polygon fill="#666666" fill-opacity="0.458824" stroke="#666666" stroke-width="2" stroke-opacity="0.458824" points="818,-795.99 809,-775.99 817.5,-785.99 817.5,-775.99 818,-775.99 818.5,-775.99 818.5,-785.99 827,-775.99 818,-795.99 818,-795.99"/>
</g>
<!-- src/i18n/index.ts -->
<g id="node6" class="node">
<title>src/i18n/index.ts</title>
<g id="a_node6"><a xlink:href="src/i18n/index.ts" xlink:title="index.ts">
<path fill="#ddfeff" stroke="black" d="M502,-875C502,-875 445,-875 445,-875 439,-875 433,-869 433,-863 433,-863 433,-833 433,-833 433,-827 439,-821 445,-821 445,-821 502,-821 502,-821 508,-821 514,-827 514,-833 514,-833 514,-863 514,-863 514,-869 508,-875 502,-875"/>
<text text-anchor="start" x="441" y="-844.2" font-family="Helvetica,sans-Serif" font-size="16.00">index.ts</text>
</a>
</g>
</g>
<!-- src/i18n/index.ts&#45;&gt;src/i18n/effects.ts -->
<g id="edge4" class="edge">
<title>src/i18n/index.ts&#45;&gt;src/i18n/effects.ts</title>
<path fill="none" stroke="#666666" stroke-width="2" stroke-opacity="0.458824" d="M462,-820.66C462,-770.31 462,-668 462,-668 462,-668 808.73,-668 808.73,-668"/>
<polygon fill="#666666" fill-opacity="0.458824" stroke="#666666" stroke-width="2" stroke-opacity="0.458824" points="828.73,-675 808.73,-668 828.73,-661 828.73,-675"/>
</g>
<!-- src/i18n/index.ts&#45;&gt;src/i18n/hooks/client&#45;locale.ts -->
<g id="edge5" class="edge">
<title>src/i18n/index.ts&#45;&gt;src/i18n/hooks/client&#45;locale.ts</title>
<path fill="none" stroke="#666666" stroke-width="2" stroke-opacity="0.458824" d="M514.11,-858.33C615.92,-858.33 874,-858.33 874,-858.33 874,-858.33 874,-857.51 874,-857.51"/>
<polygon fill="#666666" fill-opacity="0.458824" stroke="#666666" stroke-width="2" stroke-opacity="0.458824" points="881,-850.14 874,-870.14 867,-850.14 881,-850.14"/>
</g>
<!-- src/i18n/index.ts&#45;&gt;src/i18n/hooks/locale&#45;change.ts -->
<g id="edge6" class="edge">
<title>src/i18n/index.ts&#45;&gt;src/i18n/hooks/locale&#45;change.ts</title>
<path fill="none" stroke="#666666" stroke-width="2" stroke-opacity="0.458824" d="M514.08,-835.5C514.08,-835.5 565.7,-835.5 565.7,-835.5"/>
<polygon fill="#666666" fill-opacity="0.458824" stroke="#666666" stroke-width="2" stroke-opacity="0.458824" points="585.7,-842.5 565.7,-835.5 585.7,-828.5 585.7,-842.5"/>
</g>
<!-- src/i18n/index.ts&#45;&gt;src/i18n/hooks/setup.ts -->
<g id="edge7" class="edge">
<title>src/i18n/index.ts&#45;&gt;src/i18n/hooks/setup.ts</title>
<path fill="none" stroke="#666666" stroke-width="2" stroke-opacity="0.458824" d="M486,-820.93C486,-791.02 486,-747 486,-747 486,-747 599.59,-747 599.59,-747"/>
<polygon fill="#666666" fill-opacity="0.458824" stroke="#666666" stroke-width="2" stroke-opacity="0.458824" points="619.59,-754 599.59,-747 619.59,-740 619.59,-754"/>
</g>
<!-- src/i18n/types.ts -->
<g id="node7" class="node">
<title>src/i18n/types.ts</title>
<g id="a_node7"><a xlink:href="src/i18n/types.ts" xlink:title="types.ts">
<path fill="#ddfeff" stroke="black" d="M688.5,-950C688.5,-950 632.5,-950 632.5,-950 626.5,-950 620.5,-944 620.5,-938 620.5,-938 620.5,-908 620.5,-908 620.5,-902 626.5,-896 632.5,-896 632.5,-896 688.5,-896 688.5,-896 694.5,-896 700.5,-902 700.5,-908 700.5,-908 700.5,-938 700.5,-938 700.5,-944 694.5,-950 688.5,-950"/>
<text text-anchor="start" x="628.5" y="-919.2" font-family="Helvetica,sans-Serif" font-size="16.00">types.ts</text>
</a>
</g>
</g>
<!-- src/i18n/index.ts&#45;&gt;src/i18n/types.ts -->
<g id="edge8" class="edge">
<title>src/i18n/index.ts&#45;&gt;src/i18n/types.ts</title>
<path fill="none" stroke="#666666" stroke-width="2" stroke-opacity="0.458824" d="M514.18,-866.67C569.33,-866.67 661,-866.67 661,-866.67 661,-866.67 661,-875.82 661,-875.82"/>
<polygon fill="#666666" fill-opacity="0.458824" stroke="#666666" stroke-width="2" stroke-opacity="0.458824" points="654,-895.82 661,-875.82 668,-895.82 654,-895.82"/>
</g>
<!-- src/lifecycle/before&#45;render.ts -->
<g id="node8" class="node">
<title>src/lifecycle/before&#45;render.ts</title>
<g id="a_node8"><a xlink:href="src/lifecycle/before-render.ts" xlink:title="before&#45;render.ts">
<path fill="#ddfeff" stroke="black" d="M343.5,-938C343.5,-938 221.5,-938 221.5,-938 215.5,-938 209.5,-932 209.5,-926 209.5,-926 209.5,-896 209.5,-896 209.5,-890 215.5,-884 221.5,-884 221.5,-884 343.5,-884 343.5,-884 349.5,-884 355.5,-890 355.5,-896 355.5,-896 355.5,-926 355.5,-926 355.5,-932 349.5,-938 343.5,-938"/>
<text text-anchor="start" x="217.5" y="-907.2" font-family="Helvetica,sans-Serif" font-size="16.00">before&#45;render.ts</text>
</a>
</g>
</g>
<!-- src/lifecycle/before&#45;render.ts&#45;&gt;src/i18n/index.ts -->
<g id="edge9" class="edge">
<title>src/lifecycle/before&#45;render.ts&#45;&gt;src/i18n/index.ts</title>
<path fill="none" stroke="#666666" stroke-width="2" stroke-opacity="0.458824" d="M350,-883.92C350,-866.84 350,-848 350,-848 350,-848 412.72,-848 412.72,-848"/>
<polygon fill="#666666" fill-opacity="0.458824" stroke="#666666" stroke-width="2" stroke-opacity="0.458824" points="432.72,-848 412.72,-857 422.72,-848.5 412.72,-848.5 412.72,-848 412.72,-847.5 422.72,-847.5 412.72,-839 432.72,-848 432.72,-848"/>
</g>
<!-- src/metadata/index.ts -->
<g id="node9" class="node">
<title>src/metadata/index.ts</title>
<g id="a_node9"><a xlink:href="src/metadata/index.ts" xlink:title="index.ts">
<path fill="#ddfeff" stroke="black" d="M502,-1168C502,-1168 445,-1168 445,-1168 439,-1168 433,-1162 433,-1156 433,-1156 433,-1126 433,-1126 433,-1120 439,-1114 445,-1114 445,-1114 502,-1114 502,-1114 508,-1114 514,-1120 514,-1126 514,-1126 514,-1156 514,-1156 514,-1162 508,-1168 502,-1168"/>
<text text-anchor="start" x="441" y="-1137.2" font-family="Helvetica,sans-Serif" font-size="16.00">index.ts</text>
</a>
</g>
</g>
<!-- src/lifecycle/before&#45;render.ts&#45;&gt;src/metadata/index.ts -->
<g id="edge10" class="edge">
<title>src/lifecycle/before&#45;render.ts&#45;&gt;src/metadata/index.ts</title>
<path fill="none" stroke="#666666" stroke-width="2" stroke-opacity="0.458824" d="M355.72,-917C404.62,-917 460,-917 460,-917 460,-917 460,-1093.98 460,-1093.98"/>
<polygon fill="#666666" fill-opacity="0.458824" stroke="#666666" stroke-width="2" stroke-opacity="0.458824" points="460,-1113.98 451,-1093.98 459.5,-1103.98 459.5,-1093.98 460,-1093.98 460.5,-1093.98 460.5,-1103.98 469,-1093.98 460,-1113.98 460,-1113.98"/>
</g>
<!-- src/metadata/head.tsx -->
<g id="node13" class="node">
<title>src/metadata/head.tsx</title>
<g id="a_node13"><a xlink:href="src/metadata/head.tsx" xlink:title="head.tsx">
<path fill="#bbfeff" stroke="black" d="M691.5,-1054C691.5,-1054 629.5,-1054 629.5,-1054 623.5,-1054 617.5,-1048 617.5,-1042 617.5,-1042 617.5,-1012 617.5,-1012 617.5,-1006 623.5,-1000 629.5,-1000 629.5,-1000 691.5,-1000 691.5,-1000 697.5,-1000 703.5,-1006 703.5,-1012 703.5,-1012 703.5,-1042 703.5,-1042 703.5,-1048 697.5,-1054 691.5,-1054"/>
<text text-anchor="start" x="625.5" y="-1023.2" font-family="Helvetica,sans-Serif" font-size="16.00">head.tsx</text>
</a>
</g>
</g>
<!-- src/metadata/index.ts&#45;&gt;src/metadata/head.tsx -->
<g id="edge14" class="edge">
<title>src/metadata/index.ts&#45;&gt;src/metadata/head.tsx</title>
<path fill="none" stroke="#666666" stroke-width="2" stroke-opacity="0.458824" d="M487,-1113.75C487,-1085.37 487,-1045 487,-1045 487,-1045 597.17,-1045 597.17,-1045"/>
<polygon fill="#666666" fill-opacity="0.458824" stroke="#666666" stroke-width="2" stroke-opacity="0.458824" points="617.17,-1052 597.17,-1045 617.17,-1038 617.17,-1052"/>
</g>
<!-- src/metadata/lang.ts -->
<g id="node14" class="node">
<title>src/metadata/lang.ts</title>
<g id="a_node14"><a xlink:href="src/metadata/lang.ts" xlink:title="lang.ts">
<path fill="#ddfeff" stroke="black" d="M684,-1130C684,-1130 637,-1130 637,-1130 631,-1130 625,-1124 625,-1118 625,-1118 625,-1088 625,-1088 625,-1082 631,-1076 637,-1076 637,-1076 684,-1076 684,-1076 690,-1076 696,-1082 696,-1088 696,-1088 696,-1118 696,-1118 696,-1124 690,-1130 684,-1130"/>
<text text-anchor="start" x="633" y="-1099.2" font-family="Helvetica,sans-Serif" font-size="16.00">lang.ts</text>
</a>
</g>
</g>
<!-- src/metadata/index.ts&#45;&gt;src/metadata/lang.ts -->
<g id="edge15" class="edge">
<title>src/metadata/index.ts&#45;&gt;src/metadata/lang.ts</title>
<path fill="none" stroke="#666666" stroke-width="2" stroke-opacity="0.458824" d="M514.08,-1122C514.08,-1122 604.74,-1122 604.74,-1122"/>
<polygon fill="#666666" fill-opacity="0.458824" stroke="#666666" stroke-width="2" stroke-opacity="0.458824" points="624.74,-1129 604.74,-1122 624.74,-1115 624.74,-1129"/>
</g>
<!-- src/metadata/title.ts -->
<g id="node15" class="node">
<title>src/metadata/title.ts</title>
<g id="a_node15"><a xlink:href="src/metadata/title.ts" xlink:title="title.ts">
<path fill="#ddfeff" stroke="black" d="M682,-1206C682,-1206 639,-1206 639,-1206 633,-1206 627,-1200 627,-1194 627,-1194 627,-1164 627,-1164 627,-1158 633,-1152 639,-1152 639,-1152 682,-1152 682,-1152 688,-1152 694,-1158 694,-1164 694,-1164 694,-1194 694,-1194 694,-1200 688,-1206 682,-1206"/>
<text text-anchor="start" x="635" y="-1175.2" font-family="Helvetica,sans-Serif" font-size="16.00">title.ts</text>
</a>
</g>
</g>
<!-- src/metadata/index.ts&#45;&gt;src/metadata/title.ts -->
<g id="edge16" class="edge">
<title>src/metadata/index.ts&#45;&gt;src/metadata/title.ts</title>
<path fill="none" stroke="#666666" stroke-width="2" stroke-opacity="0.458824" d="M514.08,-1160C514.08,-1160 606.88,-1160 606.88,-1160"/>
<polygon fill="#666666" fill-opacity="0.458824" stroke="#666666" stroke-width="2" stroke-opacity="0.458824" points="626.88,-1167 606.88,-1160 626.88,-1153 626.88,-1167"/>
</g>
<!-- src/metadata/types.ts -->
<g id="node16" class="node">
<title>src/metadata/types.ts</title>
<g id="a_node16"><a xlink:href="src/metadata/types.ts" xlink:title="types.ts">
<path fill="#ddfeff" stroke="black" d="M688.5,-1282C688.5,-1282 632.5,-1282 632.5,-1282 626.5,-1282 620.5,-1276 620.5,-1270 620.5,-1270 620.5,-1240 620.5,-1240 620.5,-1234 626.5,-1228 632.5,-1228 632.5,-1228 688.5,-1228 688.5,-1228 694.5,-1228 700.5,-1234 700.5,-1240 700.5,-1240 700.5,-1270 700.5,-1270 700.5,-1276 694.5,-1282 688.5,-1282"/>
<text text-anchor="start" x="628.5" y="-1251.2" font-family="Helvetica,sans-Serif" font-size="16.00">types.ts</text>
</a>
</g>
</g>
<!-- src/metadata/index.ts&#45;&gt;src/metadata/types.ts -->
<g id="edge17" class="edge">
<title>src/metadata/index.ts&#45;&gt;src/metadata/types.ts</title>
<path fill="none" stroke="#666666" stroke-width="2" stroke-opacity="0.458824" d="M487,-1168.02C487,-1199.43 487,-1247 487,-1247 487,-1247 600.26,-1247 600.26,-1247"/>
<polygon fill="#666666" fill-opacity="0.458824" stroke="#666666" stroke-width="2" stroke-opacity="0.458824" points="620.26,-1254 600.26,-1247 620.26,-1240 620.26,-1254"/>
</g>
<!-- src/metadata/utils.ts -->
<g id="node17" class="node">
<title>src/metadata/utils.ts</title>
<g id="a_node17"><a xlink:href="src/metadata/utils.ts" xlink:title="utils.ts">
<path fill="#ddfeff" stroke="black" d="M683.5,-1358C683.5,-1358 637.5,-1358 637.5,-1358 631.5,-1358 625.5,-1352 625.5,-1346 625.5,-1346 625.5,-1316 625.5,-1316 625.5,-1310 631.5,-1304 637.5,-1304 637.5,-1304 683.5,-1304 683.5,-1304 689.5,-1304 695.5,-1310 695.5,-1316 695.5,-1316 695.5,-1346 695.5,-1346 695.5,-1352 689.5,-1358 683.5,-1358"/>
<text text-anchor="start" x="633.5" y="-1327.2" font-family="Helvetica,sans-Serif" font-size="16.00">utils.ts</text>
</a>
</g>
</g>
<!-- src/metadata/index.ts&#45;&gt;src/metadata/utils.ts -->
<g id="edge18" class="edge">
<title>src/metadata/index.ts&#45;&gt;src/metadata/utils.ts</title>
<path fill="none" stroke="#666666" stroke-width="2" stroke-opacity="0.458824" d="M460,-1168.1C460,-1216.31 460,-1312 460,-1312 460,-1312 605.12,-1312 605.12,-1312"/>
<polygon fill="#666666" fill-opacity="0.458824" stroke="#666666" stroke-width="2" stroke-opacity="0.458824" points="625.12,-1319 605.12,-1312 625.12,-1305 625.12,-1319"/>
</g>
<!-- src/lifecycle/before&#45;route.ts -->
<g id="node10" class="node">
<title>src/lifecycle/before&#45;route.ts</title>
<g id="a_node10"><a xlink:href="src/lifecycle/before-route.ts" xlink:title="before&#45;route.ts">
<path fill="#ddfeff" stroke="black" d="M338.5,-1014C338.5,-1014 226.5,-1014 226.5,-1014 220.5,-1014 214.5,-1008 214.5,-1002 214.5,-1002 214.5,-972 214.5,-972 214.5,-966 220.5,-960 226.5,-960 226.5,-960 338.5,-960 338.5,-960 344.5,-960 350.5,-966 350.5,-972 350.5,-972 350.5,-1002 350.5,-1002 350.5,-1008 344.5,-1014 338.5,-1014"/>
<text text-anchor="start" x="222.5" y="-983.2" font-family="Helvetica,sans-Serif" font-size="16.00">before&#45;route.ts</text>
</a>
</g>
</g>
<!-- src/lifecycle/index.ts -->
<g id="node11" class="node">
<title>src/lifecycle/index.ts</title>
<g id="a_node11"><a xlink:href="src/lifecycle/index.ts" xlink:title="index.ts">
<path fill="#ddfeff" stroke="black" d="M102.5,-1014C102.5,-1014 45.5,-1014 45.5,-1014 39.5,-1014 33.5,-1008 33.5,-1002 33.5,-1002 33.5,-972 33.5,-972 33.5,-966 39.5,-960 45.5,-960 45.5,-960 102.5,-960 102.5,-960 108.5,-960 114.5,-966 114.5,-972 114.5,-972 114.5,-1002 114.5,-1002 114.5,-1008 108.5,-1014 102.5,-1014"/>
<text text-anchor="start" x="41.5" y="-983.2" font-family="Helvetica,sans-Serif" font-size="16.00">index.ts</text>
</a>
</g>
</g>
<!-- src/lifecycle/index.ts&#45;&gt;src/lifecycle/before&#45;render.ts -->
<g id="edge11" class="edge">
<title>src/lifecycle/index.ts&#45;&gt;src/lifecycle/before&#45;render.ts</title>
<path fill="none" stroke="#666666" stroke-width="2" stroke-opacity="0.458824" d="M74,-959.99C74,-938.15 74,-911 74,-911 74,-911 189.28,-911 189.28,-911"/>
<polygon fill="#666666" fill-opacity="0.458824" stroke="#666666" stroke-width="2" stroke-opacity="0.458824" points="209.28,-918 189.28,-911 209.28,-904 209.28,-918"/>
</g>
<!-- src/lifecycle/index.ts&#45;&gt;src/lifecycle/before&#45;route.ts -->
<g id="edge12" class="edge">
<title>src/lifecycle/index.ts&#45;&gt;src/lifecycle/before&#45;route.ts</title>
<path fill="none" stroke="#666666" stroke-width="2" stroke-opacity="0.458824" d="M114.7,-987C114.7,-987 194.41,-987 194.41,-987"/>
<polygon fill="#666666" fill-opacity="0.458824" stroke="#666666" stroke-width="2" stroke-opacity="0.458824" points="214.41,-994 194.41,-987 214.41,-980 214.41,-994"/>
</g>
<!-- src/lifecycle/prerender&#45;start.ts -->
<g id="node12" class="node">
<title>src/lifecycle/prerender&#45;start.ts</title>
<g id="a_node12"><a xlink:href="src/lifecycle/prerender-start.ts" xlink:title="prerender&#45;start.ts">
<path fill="#ddfeff" stroke="black" d="M349,-1090C349,-1090 216,-1090 216,-1090 210,-1090 204,-1084 204,-1078 204,-1078 204,-1048 204,-1048 204,-1042 210,-1036 216,-1036 216,-1036 349,-1036 349,-1036 355,-1036 361,-1042 361,-1048 361,-1048 361,-1078 361,-1078 361,-1084 355,-1090 349,-1090"/>
<text text-anchor="start" x="212" y="-1059.2" font-family="Helvetica,sans-Serif" font-size="16.00">prerender&#45;start.ts</text>
</a>
</g>
</g>
<!-- src/lifecycle/index.ts&#45;&gt;src/lifecycle/prerender&#45;start.ts -->
<g id="edge13" class="edge">
<title>src/lifecycle/index.ts&#45;&gt;src/lifecycle/prerender&#45;start.ts</title>
<path fill="none" stroke="#666666" stroke-width="2" stroke-opacity="0.458824" d="M74,-1014.01C74,-1035.85 74,-1063 74,-1063 74,-1063 183.97,-1063 183.97,-1063"/>
<polygon fill="#666666" fill-opacity="0.458824" stroke="#666666" stroke-width="2" stroke-opacity="0.458824" points="203.97,-1070 183.97,-1063 203.97,-1056 203.97,-1070"/>
</g>
<!-- src/navigation/components/link.tsx -->
<g id="node18" class="node">
<title>src/navigation/components/link.tsx</title>
<g id="a_node18"><a xlink:href="src/navigation/components/link.tsx" xlink:title="link.tsx">
<path fill="#bbfeff" stroke="black" d="M307.5,-480C307.5,-480 257.5,-480 257.5,-480 251.5,-480 245.5,-474 245.5,-468 245.5,-468 245.5,-438 245.5,-438 245.5,-432 251.5,-426 257.5,-426 257.5,-426 307.5,-426 307.5,-426 313.5,-426 319.5,-432 319.5,-438 319.5,-438 319.5,-468 319.5,-468 319.5,-474 313.5,-480 307.5,-480"/>
<text text-anchor="start" x="253.5" y="-449.2" font-family="Helvetica,sans-Serif" font-size="16.00">link.tsx</text>
</a>
</g>
</g>
<!-- src/navigation/utils.ts -->
<g id="node19" class="node">
<title>src/navigation/utils.ts</title>
<g id="a_node19"><a xlink:href="src/navigation/utils.ts" xlink:title="utils.ts">
<path fill="#ddfeff" stroke="black" d="M496.5,-550C496.5,-550 450.5,-550 450.5,-550 444.5,-550 438.5,-544 438.5,-538 438.5,-538 438.5,-508 438.5,-508 438.5,-502 444.5,-496 450.5,-496 450.5,-496 496.5,-496 496.5,-496 502.5,-496 508.5,-502 508.5,-508 508.5,-508 508.5,-538 508.5,-538 508.5,-544 502.5,-550 496.5,-550"/>
<text text-anchor="start" x="446.5" y="-519.2" font-family="Helvetica,sans-Serif" font-size="16.00">utils.ts</text>
</a>
</g>
</g>
<!-- src/navigation/components/link.tsx&#45;&gt;src/navigation/utils.ts -->
<g id="edge19" class="edge">
<title>src/navigation/components/link.tsx&#45;&gt;src/navigation/utils.ts</title>
<path fill="none" stroke="#666666" stroke-width="2" stroke-opacity="0.458824" d="M295,-480.04C295,-495.83 295,-512.67 295,-512.67 295,-512.67 418.23,-512.67 418.23,-512.67"/>
<polygon fill="#666666" fill-opacity="0.458824" stroke="#666666" stroke-width="2" stroke-opacity="0.458824" points="438.23,-512.67 418.23,-521.67 428.23,-513.17 418.23,-513.17 418.23,-512.67 418.23,-512.17 428.23,-512.17 418.23,-503.67 438.23,-512.67 438.23,-512.67"/>
</g>
<!-- src/navigation/index.ts -->
<g id="node20" class="node">
<title>src/navigation/index.ts</title>
<g id="a_node20"><a xlink:href="src/navigation/index.ts" xlink:title="index.ts">
<path fill="#ddfeff" stroke="black" d="M102.5,-550C102.5,-550 45.5,-550 45.5,-550 39.5,-550 33.5,-544 33.5,-538 33.5,-538 33.5,-508 33.5,-508 33.5,-502 39.5,-496 45.5,-496 45.5,-496 102.5,-496 102.5,-496 108.5,-496 114.5,-502 114.5,-508 114.5,-508 114.5,-538 114.5,-538 114.5,-544 108.5,-550 102.5,-550"/>
<text text-anchor="start" x="41.5" y="-519.2" font-family="Helvetica,sans-Serif" font-size="16.00">index.ts</text>
</a>
</g>
</g>
<!-- src/navigation/index.ts&#45;&gt;src/navigation/components/link.tsx -->
<g id="edge20" class="edge">
<title>src/navigation/index.ts&#45;&gt;src/navigation/components/link.tsx</title>
<path fill="none" stroke="#666666" stroke-width="2" stroke-opacity="0.458824" d="M114.82,-504.33C172.52,-504.33 271,-504.33 271,-504.33 271,-504.33 271,-500.17 271,-500.17"/>
<polygon fill="#666666" fill-opacity="0.458824" stroke="#666666" stroke-width="2" stroke-opacity="0.458824" points="278,-480.17 271,-500.17 264,-480.17 278,-480.17"/>
</g>
<!-- src/navigation/index.ts&#45;&gt;src/navigation/utils.ts -->
<g id="edge22" class="edge">
<title>src/navigation/index.ts&#45;&gt;src/navigation/utils.ts</title>
<path fill="none" stroke="#666666" stroke-width="2" stroke-opacity="0.458824" d="M114.5,-521C114.5,-521 418.38,-521 418.38,-521"/>
<polygon fill="#666666" fill-opacity="0.458824" stroke="#666666" stroke-width="2" stroke-opacity="0.458824" points="438.38,-528 418.38,-521 438.38,-514 438.38,-528"/>
</g>
<!-- src/navigation/providers.tsx -->
<g id="node21" class="node">
<title>src/navigation/providers.tsx</title>
<g id="a_node21"><a xlink:href="src/navigation/providers.tsx" xlink:title="providers.tsx">
<path fill="#bbfeff" stroke="black" d="M331.5,-600C331.5,-600 233.5,-600 233.5,-600 227.5,-600 221.5,-594 221.5,-588 221.5,-588 221.5,-558 221.5,-558 221.5,-552 227.5,-546 233.5,-546 233.5,-546 331.5,-546 331.5,-546 337.5,-546 343.5,-552 343.5,-558 343.5,-558 343.5,-588 343.5,-588 343.5,-594 337.5,-600 331.5,-600"/>
<text text-anchor="start" x="229.5" y="-569.2" font-family="Helvetica,sans-Serif" font-size="16.00">providers.tsx</text>
</a>
</g>
</g>
<!-- src/navigation/index.ts&#45;&gt;src/navigation/providers.tsx -->
<g id="edge21" class="edge">
<title>src/navigation/index.ts&#45;&gt;src/navigation/providers.tsx</title>
<path fill="none" stroke="#666666" stroke-width="2" stroke-opacity="0.458824" d="M114.58,-529.33C160.8,-529.33 230,-529.33 230,-529.33 230,-529.33 230,-530.96 230,-530.96"/>
<polygon fill="#666666" fill-opacity="0.458824" stroke="#666666" stroke-width="2" stroke-opacity="0.458824" points="223,-545.59 230,-525.59 237,-545.59 223,-545.59"/>
</g>
<!-- src/navigation/providers.tsx&#45;&gt;src/navigation/utils.ts -->
<g id="edge23" class="edge">
<title>src/navigation/providers.tsx&#45;&gt;src/navigation/utils.ts</title>
<path fill="none" stroke="#666666" stroke-width="2" stroke-opacity="0.458824" d="M336,-545.86C336,-541.12 336,-537.67 336,-537.67 336,-537.67 418.45,-537.67 418.45,-537.67"/>
<polygon fill="#666666" fill-opacity="0.458824" stroke="#666666" stroke-width="2" stroke-opacity="0.458824" points="438.45,-537.67 418.45,-546.67 428.45,-538.17 418.45,-538.17 418.45,-537.67 418.45,-537.17 428.45,-537.17 418.45,-528.67 438.45,-537.67 438.45,-537.67"/>
</g>
<!-- src/tracking/effects.ts -->
<g id="node22" class="node">
<title>src/tracking/effects.ts</title>
<g id="a_node22"><a xlink:href="src/tracking/effects.ts" xlink:title="effects.ts">
<path fill="#ddfeff" stroke="black" d="M315.5,-216C315.5,-216 249.5,-216 249.5,-216 243.5,-216 237.5,-210 237.5,-204 237.5,-204 237.5,-174 237.5,-174 237.5,-168 243.5,-162 249.5,-162 249.5,-162 315.5,-162 315.5,-162 321.5,-162 327.5,-168 327.5,-174 327.5,-174 327.5,-204 327.5,-204 327.5,-210 321.5,-216 315.5,-216"/>
<text text-anchor="start" x="245.5" y="-185.2" font-family="Helvetica,sans-Serif" font-size="16.00">effects.ts</text>
</a>
</g>
</g>
<!-- src/tracking/hooks.ts -->
<g id="node23" class="node">
<title>src/tracking/hooks.ts</title>
<g id="a_node23"><a xlink:href="src/tracking/hooks.ts" xlink:title="hooks.ts">
<path fill="#ddfeff" stroke="black" d="M312,-292C312,-292 253,-292 253,-292 247,-292 241,-286 241,-280 241,-280 241,-250 241,-250 241,-244 247,-238 253,-238 253,-238 312,-238 312,-238 318,-238 324,-244 324,-250 324,-250 324,-280 324,-280 324,-286 318,-292 312,-292"/>
<text text-anchor="start" x="249" y="-261.2" font-family="Helvetica,sans-Serif" font-size="16.00">hooks.ts</text>
</a>
</g>
</g>
<!-- src/tracking/index.ts -->
<g id="node24" class="node">
<title>src/tracking/index.ts</title>
<g id="a_node24"><a xlink:href="src/tracking/index.ts" xlink:title="index.ts">
<path fill="#ddfeff" stroke="black" d="M102.5,-292C102.5,-292 45.5,-292 45.5,-292 39.5,-292 33.5,-286 33.5,-280 33.5,-280 33.5,-250 33.5,-250 33.5,-244 39.5,-238 45.5,-238 45.5,-238 102.5,-238 102.5,-238 108.5,-238 114.5,-244 114.5,-250 114.5,-250 114.5,-280 114.5,-280 114.5,-286 108.5,-292 102.5,-292"/>
<text text-anchor="start" x="41.5" y="-261.2" font-family="Helvetica,sans-Serif" font-size="16.00">index.ts</text>
</a>
</g>
</g>
<!-- src/tracking/index.ts&#45;&gt;src/tracking/effects.ts -->
<g id="edge24" class="edge">
<title>src/tracking/index.ts&#45;&gt;src/tracking/effects.ts</title>
<path fill="none" stroke="#666666" stroke-width="2" stroke-opacity="0.458824" d="M74,-237.99C74,-216.15 74,-189 74,-189 74,-189 217.26,-189 217.26,-189"/>
<polygon fill="#666666" fill-opacity="0.458824" stroke="#666666" stroke-width="2" stroke-opacity="0.458824" points="237.26,-196 217.26,-189 237.26,-182 237.26,-196"/>
</g>
<!-- src/tracking/index.ts&#45;&gt;src/tracking/hooks.ts -->
<g id="edge25" class="edge">
<title>src/tracking/index.ts&#45;&gt;src/tracking/hooks.ts</title>
<path fill="none" stroke="#666666" stroke-width="2" stroke-opacity="0.458824" d="M114.7,-265C114.7,-265 220.84,-265 220.84,-265"/>
<polygon fill="#666666" fill-opacity="0.458824" stroke="#666666" stroke-width="2" stroke-opacity="0.458824" points="240.84,-272 220.84,-265 240.84,-258 240.84,-272"/>
</g>
<!-- src/tracking/types.ts -->
<g id="node25" class="node">
<title>src/tracking/types.ts</title>
<g id="a_node25"><a xlink:href="src/tracking/types.ts" xlink:title="types.ts">
<path fill="#ddfeff" stroke="black" d="M310.5,-368C310.5,-368 254.5,-368 254.5,-368 248.5,-368 242.5,-362 242.5,-356 242.5,-356 242.5,-326 242.5,-326 242.5,-320 248.5,-314 254.5,-314 254.5,-314 310.5,-314 310.5,-314 316.5,-314 322.5,-320 322.5,-326 322.5,-326 322.5,-356 322.5,-356 322.5,-362 316.5,-368 310.5,-368"/>
<text text-anchor="start" x="250.5" y="-337.2" font-family="Helvetica,sans-Serif" font-size="16.00">types.ts</text>
</a>
</g>
</g>
<!-- src/tracking/index.ts&#45;&gt;src/tracking/types.ts -->
<g id="edge26" class="edge">
<title>src/tracking/index.ts&#45;&gt;src/tracking/types.ts</title>
<path fill="none" stroke="#666666" stroke-width="2" stroke-opacity="0.458824" d="M74,-292.01C74,-313.85 74,-341 74,-341 74,-341 222.3,-341 222.3,-341"/>
<polygon fill="#666666" fill-opacity="0.458824" stroke="#666666" stroke-width="2" stroke-opacity="0.458824" points="242.3,-348 222.3,-341 242.3,-334 242.3,-348"/>
</g>
<!-- src/types.ts -->
<g id="node26" class="node">
<title>src/types.ts</title>
<g id="a_node26"><a xlink:href="src/types.ts" xlink:title="types.ts">
<path fill="#ccffcc" stroke="black" d="M102,-146C102,-146 46,-146 46,-146 40,-146 34,-140 34,-134 34,-134 34,-104 34,-104 34,-98 40,-92 46,-92 46,-92 102,-92 102,-92 108,-92 114,-98 114,-104 114,-104 114,-134 114,-134 114,-140 108,-146 102,-146"/>
<text text-anchor="start" x="42" y="-115.2" font-family="Helvetica,sans-Serif" font-size="16.00">types.ts</text>
</a>
</g>
</g>
<!-- src/vite&#45;env.d.ts -->
<g id="node27" class="node">
<title>src/vite&#45;env.d.ts</title>
<g id="a_node27"><a xlink:href="src/vite-env.d.ts" xlink:title="vite&#45;env.d.ts">
<path fill="#ccffcc" stroke="black" d="M120,-70C120,-70 28,-70 28,-70 22,-70 16,-64 16,-58 16,-58 16,-28 16,-28 16,-22 22,-16 28,-16 28,-16 120,-16 120,-16 126,-16 132,-22 132,-28 132,-28 132,-58 132,-58 132,-64 126,-70 120,-70"/>
<text text-anchor="start" x="24" y="-39.2" font-family="Helvetica,sans-Serif" font-size="16.00">vite&#45;env.d.ts</text>
</a>
</g>
</g>
</g>
</svg>
