<?xml version="1.0" encoding="UTF-8" standalone="no"?>
<!DOCTYPE svg PUBLIC "-//W3C//DTD SVG 1.1//EN"
 "http://www.w3.org/Graphics/SVG/1.1/DTD/svg11.dtd">
<!-- Generated by graphviz version 2.43.0 (0)
 -->
<!-- Title: dependency&#45;cruiser output Pages: 1 -->
<svg width="954pt" height="1442pt"
 viewBox="0.00 0.00 954.00 1442.00" xmlns="http://www.w3.org/2000/svg" xmlns:xlink="http://www.w3.org/1999/xlink">
<g id="graph0" class="graph" transform="scale(1 1) rotate(0) translate(4 1438)">
<title>dependency&#45;cruiser output</title>
<polygon fill="white" stroke="transparent" points="-4,4 -4,-1438 950,-1438 950,4 -4,4"/>
<g id="clust1" class="cluster">
<title>cluster_src</title>
<path fill="#ffffff" stroke="black" stroke-width="2" d="M20,-8C20,-8 926,-8 926,-8 932,-8 938,-14 938,-20 938,-20 938,-1414 938,-1414 938,-1420 932,-1426 926,-1426 926,-1426 20,-1426 20,-1426 14,-1426 8,-1420 8,-1414 8,-1414 8,-20 8,-20 8,-14 14,-8 20,-8"/>
<text text-anchor="middle" x="473" y="-1409.2" font-family="Helvetica,sans-Serif" font-weight="bold" font-size="16.00">src</text>
</g>
<g id="clust2" class="cluster">
<title>cluster_src/config</title>
<path fill="#ffffff" stroke="black" stroke-width="2" d="M28,-1258C28,-1258 101,-1258 101,-1258 107,-1258 113,-1264 113,-1270 113,-1270 113,-1342 113,-1342 113,-1348 107,-1354 101,-1354 101,-1354 28,-1354 28,-1354 22,-1354 16,-1348 16,-1342 16,-1342 16,-1270 16,-1270 16,-1264 22,-1258 28,-1258"/>
<text text-anchor="middle" x="64.5" y="-1337.2" font-family="Helvetica,sans-Serif" font-weight="bold" font-size="16.00">config</text>
</g>
<g id="clust3" class="cluster">
<title>cluster_src/i18n</title>
<path fill="#ffffff" stroke="black" stroke-width="2" d="M410,-642C410,-642 918,-642 918,-642 924,-642 930,-648 930,-654 930,-654 930,-972 930,-972 930,-978 924,-984 918,-984 918,-984 410,-984 410,-984 404,-984 398,-978 398,-972 398,-972 398,-654 398,-654 398,-648 404,-642 410,-642"/>
<text text-anchor="middle" x="664" y="-967.2" font-family="Helvetica,sans-Serif" font-weight="bold" font-size="16.00">i18n</text>
</g>
<g id="clust4" class="cluster">
<title>cluster_src/i18n/hooks</title>
<path fill="#ffffff" stroke="black" stroke-width="2" d="M563,-712C563,-712 910,-712 910,-712 916,-712 922,-718 922,-724 922,-724 922,-872 922,-872 922,-878 916,-884 910,-884 910,-884 563,-884 563,-884 557,-884 551,-878 551,-872 551,-872 551,-724 551,-724 551,-718 557,-712 563,-712"/>
<text text-anchor="middle" x="736.5" y="-867.2" font-family="Helvetica,sans-Serif" font-weight="bold" font-size="16.00">hooks</text>
</g>
<g id="clust5" class="cluster">
<title>cluster_src/lifecycle</title>
<path fill="#ffffff" stroke="black" stroke-width="2" d="M28,-876C28,-876 330,-876 330,-876 336,-876 342,-882 342,-888 342,-888 342,-1112 342,-1112 342,-1118 336,-1124 330,-1124 330,-1124 28,-1124 28,-1124 22,-1124 16,-1118 16,-1112 16,-1112 16,-888 16,-888 16,-882 22,-876 28,-876"/>
<text text-anchor="middle" x="179" y="-1107.2" font-family="Helvetica,sans-Serif" font-weight="bold" font-size="16.00">lifecycle</text>
</g>
<g id="clust6" class="cluster">
<title>cluster_src/metadata</title>
<path fill="#ffffff" stroke="black" stroke-width="2" d="M410,-992C410,-992 672.5,-992 672.5,-992 678.5,-992 684.5,-998 684.5,-1004 684.5,-1004 684.5,-1380 684.5,-1380 684.5,-1386 678.5,-1392 672.5,-1392 672.5,-1392 410,-1392 410,-1392 404,-1392 398,-1386 398,-1380 398,-1380 398,-1004 398,-1004 398,-998 404,-992 410,-992"/>
<text text-anchor="middle" x="541.25" y="-1375.2" font-family="Helvetica,sans-Serif" font-weight="bold" font-size="16.00">metadata</text>
</g>
<g id="clust7" class="cluster">
<title>cluster_src/navigation</title>
<path fill="#ffffff" stroke="black" stroke-width="2" d="M28,-334C28,-334 477.5,-334 477.5,-334 483.5,-334 489.5,-340 489.5,-346 489.5,-346 489.5,-622 489.5,-622 489.5,-628 483.5,-634 477.5,-634 477.5,-634 28,-634 28,-634 22,-634 16,-628 16,-622 16,-622 16,-346 16,-346 16,-340 22,-334 28,-334"/>
<text text-anchor="middle" x="252.75" y="-617.2" font-family="Helvetica,sans-Serif" font-weight="bold" font-size="16.00">navigation</text>
</g>
<g id="clust8" class="cluster">
<title>cluster_src/navigation/components</title>
<path fill="#ffffff" stroke="black" stroke-width="2" d="M204.5,-342C204.5,-342 307.5,-342 307.5,-342 313.5,-342 319.5,-348 319.5,-354 319.5,-354 319.5,-426 319.5,-426 319.5,-432 313.5,-438 307.5,-438 307.5,-438 204.5,-438 204.5,-438 198.5,-438 192.5,-432 192.5,-426 192.5,-426 192.5,-354 192.5,-354 192.5,-348 198.5,-342 204.5,-342"/>
<text text-anchor="middle" x="256" y="-421.2" font-family="Helvetica,sans-Serif" font-weight="bold" font-size="16.00">components</text>
</g>
<g id="clust9" class="cluster">
<title>cluster_src/telemetry</title>
<path fill="#ffffff" stroke="black" stroke-width="2" d="M28,-78C28,-78 296.5,-78 296.5,-78 302.5,-78 308.5,-84 308.5,-90 308.5,-90 308.5,-314 308.5,-314 308.5,-320 302.5,-326 296.5,-326 296.5,-326 28,-326 28,-326 22,-326 16,-320 16,-314 16,-314 16,-90 16,-90 16,-84 22,-78 28,-78"/>
<text text-anchor="middle" x="162.25" y="-309.2" font-family="Helvetica,sans-Serif" font-weight="bold" font-size="16.00">telemetry</text>
</g>
<!-- src/config/index.ts -->
<g id="node1" class="node">
<title>src/config/index.ts</title>
<g id="a_node1"><a xlink:href="src/config/index.ts" xlink:title="index.ts">
<path fill="#ccffcc" stroke="black" d="M93,-1320C93,-1320 36,-1320 36,-1320 30,-1320 24,-1314 24,-1308 24,-1308 24,-1278 24,-1278 24,-1272 30,-1266 36,-1266 36,-1266 93,-1266 93,-1266 99,-1266 105,-1272 105,-1278 105,-1278 105,-1308 105,-1308 105,-1314 99,-1320 93,-1320"/>
<text text-anchor="start" x="32" y="-1289.2" font-family="Helvetica,sans-Serif" font-size="16.00">index.ts</text>
</a>
</g>
</g>
<!-- src/i18n/effects.ts -->
<g id="node2" class="node">
<title>src/i18n/effects.ts</title>
<g id="a_node2"><a xlink:href="src/i18n/effects.ts" xlink:title="effects.ts">
<path fill="#ddfeff" stroke="black" d="M880,-704C880,-704 814,-704 814,-704 808,-704 802,-698 802,-692 802,-692 802,-662 802,-662 802,-656 808,-650 814,-650 814,-650 880,-650 880,-650 886,-650 892,-656 892,-662 892,-662 892,-692 892,-692 892,-698 886,-704 880,-704"/>
<text text-anchor="start" x="810" y="-673.2" font-family="Helvetica,sans-Serif" font-size="16.00">effects.ts</text>
</a>
</g>
</g>
<!-- src/i18n/hooks/client&#45;locale.ts -->
<g id="node3" class="node">
<title>src/i18n/hooks/client&#45;locale.ts</title>
<g id="a_node3"><a xlink:href="src/i18n/hooks/client-locale.ts" xlink:title="client&#45;locale.ts">
<path fill="#ddfeff" stroke="black" d="M902,-850C902,-850 792,-850 792,-850 786,-850 780,-844 780,-838 780,-838 780,-808 780,-808 780,-802 786,-796 792,-796 792,-796 902,-796 902,-796 908,-796 914,-802 914,-808 914,-808 914,-838 914,-838 914,-844 908,-850 902,-850"/>
<text text-anchor="start" x="788" y="-819.2" font-family="Helvetica,sans-Serif" font-size="16.00">client&#45;locale.ts</text>
</a>
</g>
</g>
<!-- src/i18n/hooks/locale&#45;change.ts -->
<g id="node4" class="node">
<title>src/i18n/hooks/locale&#45;change.ts</title>
<g id="a_node4"><a xlink:href="src/i18n/hooks/locale-change.ts" xlink:title="locale&#45;change.ts">
<path fill="#ddfeff" stroke="black" d="M696,-850C696,-850 571,-850 571,-850 565,-850 559,-844 559,-838 559,-838 559,-808 559,-808 559,-802 565,-796 571,-796 571,-796 696,-796 696,-796 702,-796 708,-802 708,-808 708,-808 708,-838 708,-838 708,-844 702,-850 696,-850"/>
<text text-anchor="start" x="567" y="-819.2" font-family="Helvetica,sans-Serif" font-size="16.00">locale&#45;change.ts</text>
</a>
</g>
</g>
<!-- src/i18n/hooks/locale&#45;change.ts&#45;&gt;src/i18n/hooks/client&#45;locale.ts -->
<g id="edge1" class="edge">
<title>src/i18n/hooks/locale&#45;change.ts&#45;&gt;src/i18n/hooks/client&#45;locale.ts</title>
<path fill="none" stroke="#666666" stroke-width="2" stroke-opacity="0.458824" d="M708.17,-823C708.17,-823 759.86,-823 759.86,-823"/>
<polygon fill="#666666" fill-opacity="0.458824" stroke="#666666" stroke-width="2" stroke-opacity="0.458824" points="779.86,-823 759.86,-832 769.86,-823.5 759.86,-823.5 759.86,-823 759.86,-822.5 769.86,-822.5 759.86,-814 779.86,-823 779.86,-823"/>
</g>
<!-- src/i18n/hooks/setup.ts -->
<g id="node5" class="node">
<title>src/i18n/hooks/setup.ts</title>
<g id="a_node5"><a xlink:href="src/i18n/hooks/setup.ts" xlink:title="setup.ts">
<path fill="#ddfeff" stroke="black" d="M662,-774C662,-774 605,-774 605,-774 599,-774 593,-768 593,-762 593,-762 593,-732 593,-732 593,-726 599,-720 605,-720 605,-720 662,-720 662,-720 668,-720 674,-726 674,-732 674,-732 674,-762 674,-762 674,-768 668,-774 662,-774"/>
<text text-anchor="start" x="601" y="-743.2" font-family="Helvetica,sans-Serif" font-size="16.00">setup.ts</text>
</a>
</g>
</g>
<!-- src/i18n/hooks/setup.ts&#45;&gt;src/i18n/effects.ts -->
<g id="edge2" class="edge">
<title>src/i18n/hooks/setup.ts&#45;&gt;src/i18n/effects.ts</title>
<path fill="none" stroke="#666666" stroke-width="2" stroke-opacity="0.458824" d="M634,-719.71C634,-703.47 634,-686 634,-686 634,-686 781.83,-686 781.83,-686"/>
<polygon fill="#666666" fill-opacity="0.458824" stroke="#666666" stroke-width="2" stroke-opacity="0.458824" points="801.83,-686 781.83,-695 791.83,-686.5 781.83,-686.5 781.83,-686 781.83,-685.5 791.83,-685.5 781.83,-677 801.83,-686 801.83,-686"/>
</g>
<!-- src/i18n/hooks/setup.ts&#45;&gt;src/i18n/hooks/client&#45;locale.ts -->
<g id="edge3" class="edge">
<title>src/i18n/hooks/setup.ts&#45;&gt;src/i18n/hooks/client&#45;locale.ts</title>
<path fill="none" stroke="#666666" stroke-width="2" stroke-opacity="0.458824" d="M674.06,-747C720.73,-747 791,-747 791,-747 791,-747 791,-775.99 791,-775.99"/>
<polygon fill="#666666" fill-opacity="0.458824" stroke="#666666" stroke-width="2" stroke-opacity="0.458824" points="791,-795.99 782,-775.99 790.5,-785.99 790.5,-775.99 791,-775.99 791.5,-775.99 791.5,-785.99 800,-775.99 791,-795.99 791,-795.99"/>
</g>
<!-- src/i18n/index.ts -->
<g id="node6" class="node">
<title>src/i18n/index.ts</title>
<g id="a_node6"><a xlink:href="src/i18n/index.ts" xlink:title="index.ts">
<path fill="#ddfeff" stroke="black" d="M475,-875C475,-875 418,-875 418,-875 412,-875 406,-869 406,-863 406,-863 406,-833 406,-833 406,-827 412,-821 418,-821 418,-821 475,-821 475,-821 481,-821 487,-827 487,-833 487,-833 487,-863 487,-863 487,-869 481,-875 475,-875"/>
<text text-anchor="start" x="414" y="-844.2" font-family="Helvetica,sans-Serif" font-size="16.00">index.ts</text>
</a>
</g>
</g>
<!-- src/i18n/index.ts&#45;&gt;src/i18n/effects.ts -->
<g id="edge4" class="edge">
<title>src/i18n/index.ts&#45;&gt;src/i18n/effects.ts</title>
<path fill="none" stroke="#666666" stroke-width="2" stroke-opacity="0.458824" d="M435,-820.66C435,-770.31 435,-668 435,-668 435,-668 781.73,-668 781.73,-668"/>
<polygon fill="#666666" fill-opacity="0.458824" stroke="#666666" stroke-width="2" stroke-opacity="0.458824" points="801.73,-675 781.73,-668 801.73,-661 801.73,-675"/>
</g>
<!-- src/i18n/index.ts&#45;&gt;src/i18n/hooks/client&#45;locale.ts -->
<g id="edge5" class="edge">
<title>src/i18n/index.ts&#45;&gt;src/i18n/hooks/client&#45;locale.ts</title>
<path fill="none" stroke="#666666" stroke-width="2" stroke-opacity="0.458824" d="M487.11,-858.33C588.92,-858.33 847,-858.33 847,-858.33 847,-858.33 847,-857.51 847,-857.51"/>
<polygon fill="#666666" fill-opacity="0.458824" stroke="#666666" stroke-width="2" stroke-opacity="0.458824" points="854,-850.14 847,-870.14 840,-850.14 854,-850.14"/>
</g>
<!-- src/i18n/index.ts&#45;&gt;src/i18n/hooks/locale&#45;change.ts -->
<g id="edge6" class="edge">
<title>src/i18n/index.ts&#45;&gt;src/i18n/hooks/locale&#45;change.ts</title>
<path fill="none" stroke="#666666" stroke-width="2" stroke-opacity="0.458824" d="M487.08,-835.5C487.08,-835.5 538.7,-835.5 538.7,-835.5"/>
<polygon fill="#666666" fill-opacity="0.458824" stroke="#666666" stroke-width="2" stroke-opacity="0.458824" points="558.7,-842.5 538.7,-835.5 558.7,-828.5 558.7,-842.5"/>
</g>
<!-- src/i18n/index.ts&#45;&gt;src/i18n/hooks/setup.ts -->
<g id="edge7" class="edge">
<title>src/i18n/index.ts&#45;&gt;src/i18n/hooks/setup.ts</title>
<path fill="none" stroke="#666666" stroke-width="2" stroke-opacity="0.458824" d="M459,-820.93C459,-791.02 459,-747 459,-747 459,-747 572.59,-747 572.59,-747"/>
<polygon fill="#666666" fill-opacity="0.458824" stroke="#666666" stroke-width="2" stroke-opacity="0.458824" points="592.59,-754 572.59,-747 592.59,-740 592.59,-754"/>
</g>
<!-- src/i18n/types.ts -->
<g id="node7" class="node">
<title>src/i18n/types.ts</title>
<g id="a_node7"><a xlink:href="src/i18n/types.ts" xlink:title="types.ts">
<path fill="#ddfeff" stroke="black" d="M661.5,-950C661.5,-950 605.5,-950 605.5,-950 599.5,-950 593.5,-944 593.5,-938 593.5,-938 593.5,-908 593.5,-908 593.5,-902 599.5,-896 605.5,-896 605.5,-896 661.5,-896 661.5,-896 667.5,-896 673.5,-902 673.5,-908 673.5,-908 673.5,-938 673.5,-938 673.5,-944 667.5,-950 661.5,-950"/>
<text text-anchor="start" x="601.5" y="-919.2" font-family="Helvetica,sans-Serif" font-size="16.00">types.ts</text>
</a>
</g>
</g>
<!-- src/i18n/index.ts&#45;&gt;src/i18n/types.ts -->
<g id="edge8" class="edge">
<title>src/i18n/index.ts&#45;&gt;src/i18n/types.ts</title>
<path fill="none" stroke="#666666" stroke-width="2" stroke-opacity="0.458824" d="M487.18,-866.67C542.33,-866.67 634,-866.67 634,-866.67 634,-866.67 634,-875.82 634,-875.82"/>
<polygon fill="#666666" fill-opacity="0.458824" stroke="#666666" stroke-width="2" stroke-opacity="0.458824" points="627,-895.82 634,-875.82 641,-895.82 627,-895.82"/>
</g>
<!-- src/lifecycle/before&#45;render.ts -->
<g id="node8" class="node">
<title>src/lifecycle/before&#45;render.ts</title>
<g id="a_node8"><a xlink:href="src/lifecycle/before-render.ts" xlink:title="before&#45;render.ts">
<path fill="#ddfeff" stroke="black" d="M316.5,-938C316.5,-938 194.5,-938 194.5,-938 188.5,-938 182.5,-932 182.5,-926 182.5,-926 182.5,-896 182.5,-896 182.5,-890 188.5,-884 194.5,-884 194.5,-884 316.5,-884 316.5,-884 322.5,-884 328.5,-890 328.5,-896 328.5,-896 328.5,-926 328.5,-926 328.5,-932 322.5,-938 316.5,-938"/>
<text text-anchor="start" x="190.5" y="-907.2" font-family="Helvetica,sans-Serif" font-size="16.00">before&#45;render.ts</text>
</a>
</g>
</g>
<!-- src/lifecycle/before&#45;render.ts&#45;&gt;src/i18n/index.ts -->
<g id="edge9" class="edge">
<title>src/lifecycle/before&#45;render.ts&#45;&gt;src/i18n/index.ts</title>
<path fill="none" stroke="#666666" stroke-width="2" stroke-opacity="0.458824" d="M323,-883.92C323,-866.84 323,-848 323,-848 323,-848 385.72,-848 385.72,-848"/>
<polygon fill="#666666" fill-opacity="0.458824" stroke="#666666" stroke-width="2" stroke-opacity="0.458824" points="405.72,-848 385.72,-857 395.72,-848.5 385.72,-848.5 385.72,-848 385.72,-847.5 395.72,-847.5 385.72,-839 405.72,-848 405.72,-848"/>
</g>
<!-- src/metadata/index.ts -->
<g id="node9" class="node">
<title>src/metadata/index.ts</title>
<g id="a_node9"><a xlink:href="src/metadata/index.ts" xlink:title="index.ts">
<path fill="#ddfeff" stroke="black" d="M475,-1168C475,-1168 418,-1168 418,-1168 412,-1168 406,-1162 406,-1156 406,-1156 406,-1126 406,-1126 406,-1120 412,-1114 418,-1114 418,-1114 475,-1114 475,-1114 481,-1114 487,-1120 487,-1126 487,-1126 487,-1156 487,-1156 487,-1162 481,-1168 475,-1168"/>
<text text-anchor="start" x="414" y="-1137.2" font-family="Helvetica,sans-Serif" font-size="16.00">index.ts</text>
</a>
</g>
</g>
<!-- src/lifecycle/before&#45;render.ts&#45;&gt;src/metadata/index.ts -->
<g id="edge10" class="edge">
<title>src/lifecycle/before&#45;render.ts&#45;&gt;src/metadata/index.ts</title>
<path fill="none" stroke="#666666" stroke-width="2" stroke-opacity="0.458824" d="M328.72,-917C377.62,-917 433,-917 433,-917 433,-917 433,-1093.98 433,-1093.98"/>
<polygon fill="#666666" fill-opacity="0.458824" stroke="#666666" stroke-width="2" stroke-opacity="0.458824" points="433,-1113.98 424,-1093.98 432.5,-1103.98 432.5,-1093.98 433,-1093.98 433.5,-1093.98 433.5,-1103.98 442,-1093.98 433,-1113.98 433,-1113.98"/>
</g>
<!-- src/metadata/head.tsx -->
<g id="node13" class="node">
<title>src/metadata/head.tsx</title>
<g id="a_node13"><a xlink:href="src/metadata/head.tsx" xlink:title="head.tsx">
<path fill="#bbfeff" stroke="black" d="M664.5,-1054C664.5,-1054 602.5,-1054 602.5,-1054 596.5,-1054 590.5,-1048 590.5,-1042 590.5,-1042 590.5,-1012 590.5,-1012 590.5,-1006 596.5,-1000 602.5,-1000 602.5,-1000 664.5,-1000 664.5,-1000 670.5,-1000 676.5,-1006 676.5,-1012 676.5,-1012 676.5,-1042 676.5,-1042 676.5,-1048 670.5,-1054 664.5,-1054"/>
<text text-anchor="start" x="598.5" y="-1023.2" font-family="Helvetica,sans-Serif" font-size="16.00">head.tsx</text>
</a>
</g>
</g>
<!-- src/metadata/index.ts&#45;&gt;src/metadata/head.tsx -->
<g id="edge14" class="edge">
<title>src/metadata/index.ts&#45;&gt;src/metadata/head.tsx</title>
<path fill="none" stroke="#666666" stroke-width="2" stroke-opacity="0.458824" d="M460,-1113.75C460,-1085.37 460,-1045 460,-1045 460,-1045 570.17,-1045 570.17,-1045"/>
<polygon fill="#666666" fill-opacity="0.458824" stroke="#666666" stroke-width="2" stroke-opacity="0.458824" points="590.17,-1052 570.17,-1045 590.17,-1038 590.17,-1052"/>
</g>
<!-- src/metadata/lang.ts -->
<g id="node14" class="node">
<title>src/metadata/lang.ts</title>
<g id="a_node14"><a xlink:href="src/metadata/lang.ts" xlink:title="lang.ts">
<path fill="#ddfeff" stroke="black" d="M657,-1130C657,-1130 610,-1130 610,-1130 604,-1130 598,-1124 598,-1118 598,-1118 598,-1088 598,-1088 598,-1082 604,-1076 610,-1076 610,-1076 657,-1076 657,-1076 663,-1076 669,-1082 669,-1088 669,-1088 669,-1118 669,-1118 669,-1124 663,-1130 657,-1130"/>
<text text-anchor="start" x="606" y="-1099.2" font-family="Helvetica,sans-Serif" font-size="16.00">lang.ts</text>
</a>
</g>
</g>
<!-- src/metadata/index.ts&#45;&gt;src/metadata/lang.ts -->
<g id="edge15" class="edge">
<title>src/metadata/index.ts&#45;&gt;src/metadata/lang.ts</title>
<path fill="none" stroke="#666666" stroke-width="2" stroke-opacity="0.458824" d="M487.08,-1122C487.08,-1122 577.74,-1122 577.74,-1122"/>
<polygon fill="#666666" fill-opacity="0.458824" stroke="#666666" stroke-width="2" stroke-opacity="0.458824" points="597.74,-1129 577.74,-1122 597.74,-1115 597.74,-1129"/>
</g>
<!-- src/metadata/title.ts -->
<g id="node15" class="node">
<title>src/metadata/title.ts</title>
<g id="a_node15"><a xlink:href="src/metadata/title.ts" xlink:title="title.ts">
<path fill="#ddfeff" stroke="black" d="M655,-1206C655,-1206 612,-1206 612,-1206 606,-1206 600,-1200 600,-1194 600,-1194 600,-1164 600,-1164 600,-1158 606,-1152 612,-1152 612,-1152 655,-1152 655,-1152 661,-1152 667,-1158 667,-1164 667,-1164 667,-1194 667,-1194 667,-1200 661,-1206 655,-1206"/>
<text text-anchor="start" x="608" y="-1175.2" font-family="Helvetica,sans-Serif" font-size="16.00">title.ts</text>
</a>
</g>
</g>
<!-- src/metadata/index.ts&#45;&gt;src/metadata/title.ts -->
<g id="edge16" class="edge">
<title>src/metadata/index.ts&#45;&gt;src/metadata/title.ts</title>
<path fill="none" stroke="#666666" stroke-width="2" stroke-opacity="0.458824" d="M487.08,-1160C487.08,-1160 579.88,-1160 579.88,-1160"/>
<polygon fill="#666666" fill-opacity="0.458824" stroke="#666666" stroke-width="2" stroke-opacity="0.458824" points="599.88,-1167 579.88,-1160 599.88,-1153 599.88,-1167"/>
</g>
<!-- src/metadata/types.ts -->
<g id="node16" class="node">
<title>src/metadata/types.ts</title>
<g id="a_node16"><a xlink:href="src/metadata/types.ts" xlink:title="types.ts">
<path fill="#ddfeff" stroke="black" d="M661.5,-1282C661.5,-1282 605.5,-1282 605.5,-1282 599.5,-1282 593.5,-1276 593.5,-1270 593.5,-1270 593.5,-1240 593.5,-1240 593.5,-1234 599.5,-1228 605.5,-1228 605.5,-1228 661.5,-1228 661.5,-1228 667.5,-1228 673.5,-1234 673.5,-1240 673.5,-1240 673.5,-1270 673.5,-1270 673.5,-1276 667.5,-1282 661.5,-1282"/>
<text text-anchor="start" x="601.5" y="-1251.2" font-family="Helvetica,sans-Serif" font-size="16.00">types.ts</text>
</a>
</g>
</g>
<!-- src/metadata/index.ts&#45;&gt;src/metadata/types.ts -->
<g id="edge17" class="edge">
<title>src/metadata/index.ts&#45;&gt;src/metadata/types.ts</title>
<path fill="none" stroke="#666666" stroke-width="2" stroke-opacity="0.458824" d="M460,-1168.02C460,-1199.43 460,-1247 460,-1247 460,-1247 573.26,-1247 573.26,-1247"/>
<polygon fill="#666666" fill-opacity="0.458824" stroke="#666666" stroke-width="2" stroke-opacity="0.458824" points="593.26,-1254 573.26,-1247 593.26,-1240 593.26,-1254"/>
</g>
<!-- src/metadata/utils.ts -->
<g id="node17" class="node">
<title>src/metadata/utils.ts</title>
<g id="a_node17"><a xlink:href="src/metadata/utils.ts" xlink:title="utils.ts">
<path fill="#ddfeff" stroke="black" d="M656.5,-1358C656.5,-1358 610.5,-1358 610.5,-1358 604.5,-1358 598.5,-1352 598.5,-1346 598.5,-1346 598.5,-1316 598.5,-1316 598.5,-1310 604.5,-1304 610.5,-1304 610.5,-1304 656.5,-1304 656.5,-1304 662.5,-1304 668.5,-1310 668.5,-1316 668.5,-1316 668.5,-1346 668.5,-1346 668.5,-1352 662.5,-1358 656.5,-1358"/>
<text text-anchor="start" x="606.5" y="-1327.2" font-family="Helvetica,sans-Serif" font-size="16.00">utils.ts</text>
</a>
</g>
</g>
<!-- src/metadata/index.ts&#45;&gt;src/metadata/utils.ts -->
<g id="edge18" class="edge">
<title>src/metadata/index.ts&#45;&gt;src/metadata/utils.ts</title>
<path fill="none" stroke="#666666" stroke-width="2" stroke-opacity="0.458824" d="M433,-1168.1C433,-1216.31 433,-1312 433,-1312 433,-1312 578.12,-1312 578.12,-1312"/>
<polygon fill="#666666" fill-opacity="0.458824" stroke="#666666" stroke-width="2" stroke-opacity="0.458824" points="598.12,-1319 578.12,-1312 598.12,-1305 598.12,-1319"/>
</g>
<!-- src/lifecycle/before&#45;route.ts -->
<g id="node10" class="node">
<title>src/lifecycle/before&#45;route.ts</title>
<g id="a_node10"><a xlink:href="src/lifecycle/before-route.ts" xlink:title="before&#45;route.ts">
<path fill="#ddfeff" stroke="black" d="M311.5,-1014C311.5,-1014 199.5,-1014 199.5,-1014 193.5,-1014 187.5,-1008 187.5,-1002 187.5,-1002 187.5,-972 187.5,-972 187.5,-966 193.5,-960 199.5,-960 199.5,-960 311.5,-960 311.5,-960 317.5,-960 323.5,-966 323.5,-972 323.5,-972 323.5,-1002 323.5,-1002 323.5,-1008 317.5,-1014 311.5,-1014"/>
<text text-anchor="start" x="195.5" y="-983.2" font-family="Helvetica,sans-Serif" font-size="16.00">before&#45;route.ts</text>
</a>
</g>
</g>
<!-- src/lifecycle/index.ts -->
<g id="node11" class="node">
<title>src/lifecycle/index.ts</title>
<g id="a_node11"><a xlink:href="src/lifecycle/index.ts" xlink:title="index.ts">
<path fill="#ddfeff" stroke="black" d="M93,-1014C93,-1014 36,-1014 36,-1014 30,-1014 24,-1008 24,-1002 24,-1002 24,-972 24,-972 24,-966 30,-960 36,-960 36,-960 93,-960 93,-960 99,-960 105,-966 105,-972 105,-972 105,-1002 105,-1002 105,-1008 99,-1014 93,-1014"/>
<text text-anchor="start" x="32" y="-983.2" font-family="Helvetica,sans-Serif" font-size="16.00">index.ts</text>
</a>
</g>
</g>
<!-- src/lifecycle/index.ts&#45;&gt;src/lifecycle/before&#45;render.ts -->
<g id="edge11" class="edge">
<title>src/lifecycle/index.ts&#45;&gt;src/lifecycle/before&#45;render.ts</title>
<path fill="none" stroke="#666666" stroke-width="2" stroke-opacity="0.458824" d="M65,-959.99C65,-938.15 65,-911 65,-911 65,-911 162.39,-911 162.39,-911"/>
<polygon fill="#666666" fill-opacity="0.458824" stroke="#666666" stroke-width="2" stroke-opacity="0.458824" points="182.39,-918 162.39,-911 182.39,-904 182.39,-918"/>
</g>
<!-- src/lifecycle/index.ts&#45;&gt;src/lifecycle/before&#45;route.ts -->
<g id="edge12" class="edge">
<title>src/lifecycle/index.ts&#45;&gt;src/lifecycle/before&#45;route.ts</title>
<path fill="none" stroke="#666666" stroke-width="2" stroke-opacity="0.458824" d="M105.01,-987C105.01,-987 167.24,-987 167.24,-987"/>
<polygon fill="#666666" fill-opacity="0.458824" stroke="#666666" stroke-width="2" stroke-opacity="0.458824" points="187.24,-994 167.24,-987 187.24,-980 187.24,-994"/>
</g>
<!-- src/lifecycle/prerender&#45;start.ts -->
<g id="node12" class="node">
<title>src/lifecycle/prerender&#45;start.ts</title>
<g id="a_node12"><a xlink:href="src/lifecycle/prerender-start.ts" xlink:title="prerender&#45;start.ts">
<path fill="#ddfeff" stroke="black" d="M322,-1090C322,-1090 189,-1090 189,-1090 183,-1090 177,-1084 177,-1078 177,-1078 177,-1048 177,-1048 177,-1042 183,-1036 189,-1036 189,-1036 322,-1036 322,-1036 328,-1036 334,-1042 334,-1048 334,-1048 334,-1078 334,-1078 334,-1084 328,-1090 322,-1090"/>
<text text-anchor="start" x="185" y="-1059.2" font-family="Helvetica,sans-Serif" font-size="16.00">prerender&#45;start.ts</text>
</a>
</g>
</g>
<!-- src/lifecycle/index.ts&#45;&gt;src/lifecycle/prerender&#45;start.ts -->
<g id="edge13" class="edge">
<title>src/lifecycle/index.ts&#45;&gt;src/lifecycle/prerender&#45;start.ts</title>
<path fill="none" stroke="#666666" stroke-width="2" stroke-opacity="0.458824" d="M65,-1014.01C65,-1035.85 65,-1063 65,-1063 65,-1063 156.92,-1063 156.92,-1063"/>
<polygon fill="#666666" fill-opacity="0.458824" stroke="#666666" stroke-width="2" stroke-opacity="0.458824" points="176.92,-1070 156.92,-1063 176.92,-1056 176.92,-1070"/>
</g>
<!-- src/navigation/components/link.tsx -->
<g id="node18" class="node">
<title>src/navigation/components/link.tsx</title>
<g id="a_node18"><a xlink:href="src/navigation/components/link.tsx" xlink:title="link.tsx">
<path fill="#bbfeff" stroke="black" d="M280.5,-404C280.5,-404 230.5,-404 230.5,-404 224.5,-404 218.5,-398 218.5,-392 218.5,-392 218.5,-362 218.5,-362 218.5,-356 224.5,-350 230.5,-350 230.5,-350 280.5,-350 280.5,-350 286.5,-350 292.5,-356 292.5,-362 292.5,-362 292.5,-392 292.5,-392 292.5,-398 286.5,-404 280.5,-404"/>
<text text-anchor="start" x="226.5" y="-373.2" font-family="Helvetica,sans-Serif" font-size="16.00">link.tsx</text>
</a>
</g>
</g>
<!-- src/navigation/utils.ts -->
<g id="node19" class="node">
<title>src/navigation/utils.ts</title>
<g id="a_node19"><a xlink:href="src/navigation/utils.ts" xlink:title="utils.ts">
<path fill="#ddfeff" stroke="black" d="M469.5,-474C469.5,-474 423.5,-474 423.5,-474 417.5,-474 411.5,-468 411.5,-462 411.5,-462 411.5,-432 411.5,-432 411.5,-426 417.5,-420 423.5,-420 423.5,-420 469.5,-420 469.5,-420 475.5,-420 481.5,-426 481.5,-432 481.5,-432 481.5,-462 481.5,-462 481.5,-468 475.5,-474 469.5,-474"/>
<text text-anchor="start" x="419.5" y="-443.2" font-family="Helvetica,sans-Serif" font-size="16.00">utils.ts</text>
</a>
</g>
</g>
<!-- src/navigation/components/link.tsx&#45;&gt;src/navigation/utils.ts -->
<g id="edge19" class="edge">
<title>src/navigation/components/link.tsx&#45;&gt;src/navigation/utils.ts</title>
<path fill="none" stroke="#666666" stroke-width="2" stroke-opacity="0.458824" d="M268,-404.1C268,-418.19 268,-432.5 268,-432.5 268,-432.5 391.23,-432.5 391.23,-432.5"/>
<polygon fill="#666666" fill-opacity="0.458824" stroke="#666666" stroke-width="2" stroke-opacity="0.458824" points="411.23,-432.5 391.23,-441.5 401.23,-433 391.23,-433 391.23,-432.5 391.23,-432 401.23,-432 391.23,-423.5 411.23,-432.5 411.23,-432.5"/>
</g>
<!-- src/navigation/hooks.ts -->
<g id="node20" class="node">
<title>src/navigation/hooks.ts</title>
<g id="a_node20"><a xlink:href="src/navigation/hooks.ts" xlink:title="hooks.ts">
<path fill="#ddfeff" stroke="black" d="M285,-524C285,-524 226,-524 226,-524 220,-524 214,-518 214,-512 214,-512 214,-482 214,-482 214,-476 220,-470 226,-470 226,-470 285,-470 285,-470 291,-470 297,-476 297,-482 297,-482 297,-512 297,-512 297,-518 291,-524 285,-524"/>
<text text-anchor="start" x="222" y="-493.2" font-family="Helvetica,sans-Serif" font-size="16.00">hooks.ts</text>
</a>
</g>
</g>
<!-- src/navigation/index.ts -->
<g id="node21" class="node">
<title>src/navigation/index.ts</title>
<g id="a_node21"><a xlink:href="src/navigation/index.ts" xlink:title="index.ts">
<path fill="#ddfeff" stroke="black" d="M93,-499C93,-499 36,-499 36,-499 30,-499 24,-493 24,-487 24,-487 24,-457 24,-457 24,-451 30,-445 36,-445 36,-445 93,-445 93,-445 99,-445 105,-451 105,-457 105,-457 105,-487 105,-487 105,-493 99,-499 93,-499"/>
<text text-anchor="start" x="32" y="-468.2" font-family="Helvetica,sans-Serif" font-size="16.00">index.ts</text>
</a>
</g>
</g>
<!-- src/navigation/index.ts&#45;&gt;src/navigation/components/link.tsx -->
<g id="edge20" class="edge">
<title>src/navigation/index.ts&#45;&gt;src/navigation/components/link.tsx</title>
<path fill="none" stroke="#666666" stroke-width="2" stroke-opacity="0.458824" d="M105.23,-451.25C158.19,-451.25 244,-451.25 244,-451.25 244,-451.25 244,-424.23 244,-424.23"/>
<polygon fill="#666666" fill-opacity="0.458824" stroke="#666666" stroke-width="2" stroke-opacity="0.458824" points="251,-404.23 244,-424.23 237,-404.23 251,-404.23"/>
</g>
<!-- src/navigation/index.ts&#45;&gt;src/navigation/utils.ts -->
<g id="edge23" class="edge">
<title>src/navigation/index.ts&#45;&gt;src/navigation/utils.ts</title>
<path fill="none" stroke="#666666" stroke-width="2" stroke-opacity="0.458824" d="M105.02,-457.5C105.02,-457.5 391.42,-457.5 391.42,-457.5"/>
<polygon fill="#666666" fill-opacity="0.458824" stroke="#666666" stroke-width="2" stroke-opacity="0.458824" points="411.42,-464.5 391.42,-457.5 411.42,-450.5 411.42,-464.5"/>
</g>
<!-- src/navigation/index.ts&#45;&gt;src/navigation/hooks.ts -->
<g id="edge21" class="edge">
<title>src/navigation/index.ts&#45;&gt;src/navigation/hooks.ts</title>
<path fill="none" stroke="#666666" stroke-width="2" stroke-opacity="0.458824" d="M105.01,-479.67C105.01,-479.67 193.73,-479.67 193.73,-479.67"/>
<polygon fill="#666666" fill-opacity="0.458824" stroke="#666666" stroke-width="2" stroke-opacity="0.458824" points="213.73,-486.67 193.73,-479.67 213.73,-472.67 213.73,-486.67"/>
</g>
<!-- src/navigation/providers.tsx -->
<g id="node22" class="node">
<title>src/navigation/providers.tsx</title>
<g id="a_node22"><a xlink:href="src/navigation/providers.tsx" xlink:title="providers.tsx">
<path fill="#bbfeff" stroke="black" d="M304.5,-600C304.5,-600 206.5,-600 206.5,-600 200.5,-600 194.5,-594 194.5,-588 194.5,-588 194.5,-558 194.5,-558 194.5,-552 200.5,-546 206.5,-546 206.5,-546 304.5,-546 304.5,-546 310.5,-546 316.5,-552 316.5,-558 316.5,-558 316.5,-588 316.5,-588 316.5,-594 310.5,-600 304.5,-600"/>
<text text-anchor="start" x="202.5" y="-569.2" font-family="Helvetica,sans-Serif" font-size="16.00">providers.tsx</text>
</a>
</g>
</g>
<!-- src/navigation/index.ts&#45;&gt;src/navigation/providers.tsx -->
<g id="edge22" class="edge">
<title>src/navigation/index.ts&#45;&gt;src/navigation/providers.tsx</title>
<path fill="none" stroke="#666666" stroke-width="2" stroke-opacity="0.458824" d="M105.31,-489.33C146.16,-489.33 203,-489.33 203,-489.33 203,-489.33 203,-525.6 203,-525.6"/>
<polygon fill="#666666" fill-opacity="0.458824" stroke="#666666" stroke-width="2" stroke-opacity="0.458824" points="196,-545.6 203,-525.6 210,-545.6 196,-545.6"/>
</g>
<!-- src/navigation/providers.tsx&#45;&gt;src/navigation/utils.ts -->
<g id="edge24" class="edge">
<title>src/navigation/providers.tsx&#45;&gt;src/navigation/utils.ts</title>
<path fill="none" stroke="#666666" stroke-width="2" stroke-opacity="0.458824" d="M309,-545.99C309,-513.64 309,-463.75 309,-463.75 309,-463.75 391.45,-463.75 391.45,-463.75"/>
<polygon fill="#666666" fill-opacity="0.458824" stroke="#666666" stroke-width="2" stroke-opacity="0.458824" points="411.45,-463.75 391.45,-472.75 401.45,-464.25 391.45,-464.25 391.45,-463.75 391.45,-463.25 401.45,-463.25 391.45,-454.75 411.45,-463.75 411.45,-463.75"/>
</g>
<!-- src/telemetry/effects.ts -->
<g id="node23" class="node">
<title>src/telemetry/effects.ts</title>
<g id="a_node23"><a xlink:href="src/telemetry/effects.ts" xlink:title="effects.ts">
<path fill="#ddfeff" stroke="black" d="M288.5,-140C288.5,-140 222.5,-140 222.5,-140 216.5,-140 210.5,-134 210.5,-128 210.5,-128 210.5,-98 210.5,-98 210.5,-92 216.5,-86 222.5,-86 222.5,-86 288.5,-86 288.5,-86 294.5,-86 300.5,-92 300.5,-98 300.5,-98 300.5,-128 300.5,-128 300.5,-134 294.5,-140 288.5,-140"/>
<text text-anchor="start" x="218.5" y="-109.2" font-family="Helvetica,sans-Serif" font-size="16.00">effects.ts</text>
</a>
</g>
</g>
<!-- src/telemetry/hooks.ts -->
<g id="node24" class="node">
<title>src/telemetry/hooks.ts</title>
<g id="a_node24"><a xlink:href="src/telemetry/hooks.ts" xlink:title="hooks.ts">
<path fill="#ddfeff" stroke="black" d="M285,-216C285,-216 226,-216 226,-216 220,-216 214,-210 214,-204 214,-204 214,-174 214,-174 214,-168 220,-162 226,-162 226,-162 285,-162 285,-162 291,-162 297,-168 297,-174 297,-174 297,-204 297,-204 297,-210 291,-216 285,-216"/>
<text text-anchor="start" x="222" y="-185.2" font-family="Helvetica,sans-Serif" font-size="16.00">hooks.ts</text>
</a>
</g>
</g>
<!-- src/telemetry/index.ts -->
<g id="node25" class="node">
<title>src/telemetry/index.ts</title>
<g id="a_node25"><a xlink:href="src/telemetry/index.ts" xlink:title="index.ts">
<path fill="#ddfeff" stroke="black" d="M93,-216C93,-216 36,-216 36,-216 30,-216 24,-210 24,-204 24,-204 24,-174 24,-174 24,-168 30,-162 36,-162 36,-162 93,-162 93,-162 99,-162 105,-168 105,-174 105,-174 105,-204 105,-204 105,-210 99,-216 93,-216"/>
<text text-anchor="start" x="32" y="-185.2" font-family="Helvetica,sans-Serif" font-size="16.00">index.ts</text>
</a>
</g>
</g>
<!-- src/telemetry/index.ts&#45;&gt;src/telemetry/effects.ts -->
<g id="edge25" class="edge">
<title>src/telemetry/index.ts&#45;&gt;src/telemetry/effects.ts</title>
<path fill="none" stroke="#666666" stroke-width="2" stroke-opacity="0.458824" d="M65,-161.99C65,-140.15 65,-113 65,-113 65,-113 190.35,-113 190.35,-113"/>
<polygon fill="#666666" fill-opacity="0.458824" stroke="#666666" stroke-width="2" stroke-opacity="0.458824" points="210.35,-120 190.35,-113 210.35,-106 210.35,-120"/>
</g>
<!-- src/telemetry/index.ts&#45;&gt;src/telemetry/hooks.ts -->
<g id="edge26" class="edge">
<title>src/telemetry/index.ts&#45;&gt;src/telemetry/hooks.ts</title>
<path fill="none" stroke="#666666" stroke-width="2" stroke-opacity="0.458824" d="M105.01,-189C105.01,-189 193.73,-189 193.73,-189"/>
<polygon fill="#666666" fill-opacity="0.458824" stroke="#666666" stroke-width="2" stroke-opacity="0.458824" points="213.73,-196 193.73,-189 213.73,-182 213.73,-196"/>
</g>
<!-- src/telemetry/types.ts -->
<g id="node26" class="node">
<title>src/telemetry/types.ts</title>
<g id="a_node26"><a xlink:href="src/telemetry/types.ts" xlink:title="types.ts">
<path fill="#ddfeff" stroke="black" d="M283.5,-292C283.5,-292 227.5,-292 227.5,-292 221.5,-292 215.5,-286 215.5,-280 215.5,-280 215.5,-250 215.5,-250 215.5,-244 221.5,-238 227.5,-238 227.5,-238 283.5,-238 283.5,-238 289.5,-238 295.5,-244 295.5,-250 295.5,-250 295.5,-280 295.5,-280 295.5,-286 289.5,-292 283.5,-292"/>
<text text-anchor="start" x="223.5" y="-261.2" font-family="Helvetica,sans-Serif" font-size="16.00">types.ts</text>
</a>
</g>
</g>
<!-- src/telemetry/index.ts&#45;&gt;src/telemetry/types.ts -->
<g id="edge27" class="edge">
<title>src/telemetry/index.ts&#45;&gt;src/telemetry/types.ts</title>
<path fill="none" stroke="#666666" stroke-width="2" stroke-opacity="0.458824" d="M65,-216.01C65,-237.85 65,-265 65,-265 65,-265 195.1,-265 195.1,-265"/>
<polygon fill="#666666" fill-opacity="0.458824" stroke="#666666" stroke-width="2" stroke-opacity="0.458824" points="215.1,-272 195.1,-265 215.1,-258 215.1,-272"/>
</g>
<!-- src/types.ts -->
<g id="node27" class="node">
<title>src/types.ts</title>
<g id="a_node27"><a xlink:href="src/types.ts" xlink:title="types.ts">
<path fill="#ccffcc" stroke="black" d="M92.5,-70C92.5,-70 36.5,-70 36.5,-70 30.5,-70 24.5,-64 24.5,-58 24.5,-58 24.5,-28 24.5,-28 24.5,-22 30.5,-16 36.5,-16 36.5,-16 92.5,-16 92.5,-16 98.5,-16 104.5,-22 104.5,-28 104.5,-28 104.5,-58 104.5,-58 104.5,-64 98.5,-70 92.5,-70"/>
<text text-anchor="start" x="32.5" y="-39.2" font-family="Helvetica,sans-Serif" font-size="16.00">types.ts</text>
</a>
</g>
</g>
</g>
</svg>
