<?xml version="1.0" encoding="UTF-8" standalone="no"?>
<!DOCTYPE svg PUBLIC "-//W3C//DTD SVG 1.1//EN"
 "http://www.w3.org/Graphics/SVG/1.1/DTD/svg11.dtd">
<!-- Generated by graphviz version 2.43.0 (0)
 -->
<!-- Title: dependency&#45;cruiser output Pages: 1 -->
<svg width="981pt" height="1518pt"
 viewBox="0.00 0.00 981.00 1518.00" xmlns="http://www.w3.org/2000/svg" xmlns:xlink="http://www.w3.org/1999/xlink">
<g id="graph0" class="graph" transform="scale(1 1) rotate(0) translate(4 1514)">
<title>dependency&#45;cruiser output</title>
<polygon fill="white" stroke="transparent" points="-4,4 -4,-1514 977,-1514 977,4 -4,4"/>
<g id="clust1" class="cluster">
<title>cluster_src</title>
<path fill="#ffffff" stroke="black" stroke-width="2" d="M20,-8C20,-8 953,-8 953,-8 959,-8 965,-14 965,-20 965,-20 965,-1490 965,-1490 965,-1496 959,-1502 953,-1502 953,-1502 20,-1502 20,-1502 14,-1502 8,-1496 8,-1490 8,-1490 8,-20 8,-20 8,-14 14,-8 20,-8"/>
<text text-anchor="middle" x="486.5" y="-1485.2" font-family="Helvetica,sans-Serif" font-weight="bold" font-size="16.00">src</text>
</g>
<g id="clust2" class="cluster">
<title>cluster_src/config</title>
<path fill="#ffffff" stroke="black" stroke-width="2" d="M37.5,-1350C37.5,-1350 110.5,-1350 110.5,-1350 116.5,-1350 122.5,-1356 122.5,-1362 122.5,-1362 122.5,-1434 122.5,-1434 122.5,-1440 116.5,-1446 110.5,-1446 110.5,-1446 37.5,-1446 37.5,-1446 31.5,-1446 25.5,-1440 25.5,-1434 25.5,-1434 25.5,-1362 25.5,-1362 25.5,-1356 31.5,-1350 37.5,-1350"/>
<text text-anchor="middle" x="74" y="-1429.2" font-family="Helvetica,sans-Serif" font-weight="bold" font-size="16.00">config</text>
</g>
<g id="clust3" class="cluster">
<title>cluster_src/i18n</title>
<path fill="#ffffff" stroke="black" stroke-width="2" d="M437,-718C437,-718 945,-718 945,-718 951,-718 957,-724 957,-730 957,-730 957,-1048 957,-1048 957,-1054 951,-1060 945,-1060 945,-1060 437,-1060 437,-1060 431,-1060 425,-1054 425,-1048 425,-1048 425,-730 425,-730 425,-724 431,-718 437,-718"/>
<text text-anchor="middle" x="691" y="-1043.2" font-family="Helvetica,sans-Serif" font-weight="bold" font-size="16.00">i18n</text>
</g>
<g id="clust4" class="cluster">
<title>cluster_src/i18n/hooks</title>
<path fill="#ffffff" stroke="black" stroke-width="2" d="M590,-788C590,-788 937,-788 937,-788 943,-788 949,-794 949,-800 949,-800 949,-948 949,-948 949,-954 943,-960 937,-960 937,-960 590,-960 590,-960 584,-960 578,-954 578,-948 578,-948 578,-800 578,-800 578,-794 584,-788 590,-788"/>
<text text-anchor="middle" x="763.5" y="-943.2" font-family="Helvetica,sans-Serif" font-weight="bold" font-size="16.00">hooks</text>
</g>
<g id="clust5" class="cluster">
<title>cluster_src/lifecycle</title>
<path fill="#ffffff" stroke="black" stroke-width="2" d="M37.5,-930C37.5,-930 357,-930 357,-930 363,-930 369,-936 369,-942 369,-942 369,-1242 369,-1242 369,-1248 363,-1254 357,-1254 357,-1254 37.5,-1254 37.5,-1254 31.5,-1254 25.5,-1248 25.5,-1242 25.5,-1242 25.5,-942 25.5,-942 25.5,-936 31.5,-930 37.5,-930"/>
<text text-anchor="middle" x="197.25" y="-1237.2" font-family="Helvetica,sans-Serif" font-weight="bold" font-size="16.00">lifecycle</text>
</g>
<g id="clust6" class="cluster">
<title>cluster_src/metadata</title>
<path fill="#ffffff" stroke="black" stroke-width="2" d="M437,-1068C437,-1068 699.5,-1068 699.5,-1068 705.5,-1068 711.5,-1074 711.5,-1080 711.5,-1080 711.5,-1456 711.5,-1456 711.5,-1462 705.5,-1468 699.5,-1468 699.5,-1468 437,-1468 437,-1468 431,-1468 425,-1462 425,-1456 425,-1456 425,-1080 425,-1080 425,-1074 431,-1068 437,-1068"/>
<text text-anchor="middle" x="568.25" y="-1451.2" font-family="Helvetica,sans-Serif" font-weight="bold" font-size="16.00">metadata</text>
</g>
<g id="clust7" class="cluster">
<title>cluster_src/navigation</title>
<path fill="#ffffff" stroke="black" stroke-width="2" d="M37.5,-410C37.5,-410 504.5,-410 504.5,-410 510.5,-410 516.5,-416 516.5,-422 516.5,-422 516.5,-698 516.5,-698 516.5,-704 510.5,-710 504.5,-710 504.5,-710 37.5,-710 37.5,-710 31.5,-710 25.5,-704 25.5,-698 25.5,-698 25.5,-422 25.5,-422 25.5,-416 31.5,-410 37.5,-410"/>
<text text-anchor="middle" x="271" y="-693.2" font-family="Helvetica,sans-Serif" font-weight="bold" font-size="16.00">navigation</text>
</g>
<g id="clust8" class="cluster">
<title>cluster_src/navigation/components</title>
<path fill="#ffffff" stroke="black" stroke-width="2" d="M231.5,-418C231.5,-418 334.5,-418 334.5,-418 340.5,-418 346.5,-424 346.5,-430 346.5,-430 346.5,-502 346.5,-502 346.5,-508 340.5,-514 334.5,-514 334.5,-514 231.5,-514 231.5,-514 225.5,-514 219.5,-508 219.5,-502 219.5,-502 219.5,-430 219.5,-430 219.5,-424 225.5,-418 231.5,-418"/>
<text text-anchor="middle" x="283" y="-497.2" font-family="Helvetica,sans-Serif" font-weight="bold" font-size="16.00">components</text>
</g>
<g id="clust9" class="cluster">
<title>cluster_src/telemetry</title>
<path fill="#ffffff" stroke="black" stroke-width="2" d="M37.5,-154C37.5,-154 323.5,-154 323.5,-154 329.5,-154 335.5,-160 335.5,-166 335.5,-166 335.5,-390 335.5,-390 335.5,-396 329.5,-402 323.5,-402 323.5,-402 37.5,-402 37.5,-402 31.5,-402 25.5,-396 25.5,-390 25.5,-390 25.5,-166 25.5,-166 25.5,-160 31.5,-154 37.5,-154"/>
<text text-anchor="middle" x="180.5" y="-385.2" font-family="Helvetica,sans-Serif" font-weight="bold" font-size="16.00">telemetry</text>
</g>
<!-- src/config/index.ts -->
<g id="node1" class="node">
<title>src/config/index.ts</title>
<g id="a_node1"><a xlink:href="src/config/index.ts" xlink:title="index.ts">
<path fill="#ccffcc" stroke="black" d="M102.5,-1412C102.5,-1412 45.5,-1412 45.5,-1412 39.5,-1412 33.5,-1406 33.5,-1400 33.5,-1400 33.5,-1370 33.5,-1370 33.5,-1364 39.5,-1358 45.5,-1358 45.5,-1358 102.5,-1358 102.5,-1358 108.5,-1358 114.5,-1364 114.5,-1370 114.5,-1370 114.5,-1400 114.5,-1400 114.5,-1406 108.5,-1412 102.5,-1412"/>
<text text-anchor="start" x="41.5" y="-1381.2" font-family="Helvetica,sans-Serif" font-size="16.00">index.ts</text>
</a>
</g>
</g>
<!-- src/i18n/effects.ts -->
<g id="node2" class="node">
<title>src/i18n/effects.ts</title>
<g id="a_node2"><a xlink:href="src/i18n/effects.ts" xlink:title="effects.ts">
<path fill="#ddfeff" stroke="black" d="M907,-780C907,-780 841,-780 841,-780 835,-780 829,-774 829,-768 829,-768 829,-738 829,-738 829,-732 835,-726 841,-726 841,-726 907,-726 907,-726 913,-726 919,-732 919,-738 919,-738 919,-768 919,-768 919,-774 913,-780 907,-780"/>
<text text-anchor="start" x="837" y="-749.2" font-family="Helvetica,sans-Serif" font-size="16.00">effects.ts</text>
</a>
</g>
</g>
<!-- src/i18n/hooks/client&#45;locale.ts -->
<g id="node3" class="node">
<title>src/i18n/hooks/client&#45;locale.ts</title>
<g id="a_node3"><a xlink:href="src/i18n/hooks/client-locale.ts" xlink:title="client&#45;locale.ts">
<path fill="#ddfeff" stroke="black" d="M929,-926C929,-926 819,-926 819,-926 813,-926 807,-920 807,-914 807,-914 807,-884 807,-884 807,-878 813,-872 819,-872 819,-872 929,-872 929,-872 935,-872 941,-878 941,-884 941,-884 941,-914 941,-914 941,-920 935,-926 929,-926"/>
<text text-anchor="start" x="815" y="-895.2" font-family="Helvetica,sans-Serif" font-size="16.00">client&#45;locale.ts</text>
</a>
</g>
</g>
<!-- src/i18n/hooks/locale&#45;change.ts -->
<g id="node4" class="node">
<title>src/i18n/hooks/locale&#45;change.ts</title>
<g id="a_node4"><a xlink:href="src/i18n/hooks/locale-change.ts" xlink:title="locale&#45;change.ts">
<path fill="#ddfeff" stroke="black" d="M723,-926C723,-926 598,-926 598,-926 592,-926 586,-920 586,-914 586,-914 586,-884 586,-884 586,-878 592,-872 598,-872 598,-872 723,-872 723,-872 729,-872 735,-878 735,-884 735,-884 735,-914 735,-914 735,-920 729,-926 723,-926"/>
<text text-anchor="start" x="594" y="-895.2" font-family="Helvetica,sans-Serif" font-size="16.00">locale&#45;change.ts</text>
</a>
</g>
</g>
<!-- src/i18n/hooks/locale&#45;change.ts&#45;&gt;src/i18n/hooks/client&#45;locale.ts -->
<g id="edge1" class="edge">
<title>src/i18n/hooks/locale&#45;change.ts&#45;&gt;src/i18n/hooks/client&#45;locale.ts</title>
<path fill="none" stroke="#666666" stroke-width="2" stroke-opacity="0.458824" d="M735.17,-899C735.17,-899 786.86,-899 786.86,-899"/>
<polygon fill="#666666" fill-opacity="0.458824" stroke="#666666" stroke-width="2" stroke-opacity="0.458824" points="806.86,-899 786.86,-908 796.86,-899.5 786.86,-899.5 786.86,-899 786.86,-898.5 796.86,-898.5 786.86,-890 806.86,-899 806.86,-899"/>
</g>
<!-- src/i18n/hooks/setup.ts -->
<g id="node5" class="node">
<title>src/i18n/hooks/setup.ts</title>
<g id="a_node5"><a xlink:href="src/i18n/hooks/setup.ts" xlink:title="setup.ts">
<path fill="#ddfeff" stroke="black" d="M689,-850C689,-850 632,-850 632,-850 626,-850 620,-844 620,-838 620,-838 620,-808 620,-808 620,-802 626,-796 632,-796 632,-796 689,-796 689,-796 695,-796 701,-802 701,-808 701,-808 701,-838 701,-838 701,-844 695,-850 689,-850"/>
<text text-anchor="start" x="628" y="-819.2" font-family="Helvetica,sans-Serif" font-size="16.00">setup.ts</text>
</a>
</g>
</g>
<!-- src/i18n/hooks/setup.ts&#45;&gt;src/i18n/effects.ts -->
<g id="edge2" class="edge">
<title>src/i18n/hooks/setup.ts&#45;&gt;src/i18n/effects.ts</title>
<path fill="none" stroke="#666666" stroke-width="2" stroke-opacity="0.458824" d="M661,-795.71C661,-779.47 661,-762 661,-762 661,-762 808.83,-762 808.83,-762"/>
<polygon fill="#666666" fill-opacity="0.458824" stroke="#666666" stroke-width="2" stroke-opacity="0.458824" points="828.83,-762 808.83,-771 818.83,-762.5 808.83,-762.5 808.83,-762 808.83,-761.5 818.83,-761.5 808.83,-753 828.83,-762 828.83,-762"/>
</g>
<!-- src/i18n/hooks/setup.ts&#45;&gt;src/i18n/hooks/client&#45;locale.ts -->
<g id="edge3" class="edge">
<title>src/i18n/hooks/setup.ts&#45;&gt;src/i18n/hooks/client&#45;locale.ts</title>
<path fill="none" stroke="#666666" stroke-width="2" stroke-opacity="0.458824" d="M701.06,-823C747.73,-823 818,-823 818,-823 818,-823 818,-851.99 818,-851.99"/>
<polygon fill="#666666" fill-opacity="0.458824" stroke="#666666" stroke-width="2" stroke-opacity="0.458824" points="818,-871.99 809,-851.99 817.5,-861.99 817.5,-851.99 818,-851.99 818.5,-851.99 818.5,-861.99 827,-851.99 818,-871.99 818,-871.99"/>
</g>
<!-- src/i18n/index.ts -->
<g id="node6" class="node">
<title>src/i18n/index.ts</title>
<g id="a_node6"><a xlink:href="src/i18n/index.ts" xlink:title="index.ts">
<path fill="#ddfeff" stroke="black" d="M502,-948C502,-948 445,-948 445,-948 439,-948 433,-942 433,-936 433,-936 433,-906 433,-906 433,-900 439,-894 445,-894 445,-894 502,-894 502,-894 508,-894 514,-900 514,-906 514,-906 514,-936 514,-936 514,-942 508,-948 502,-948"/>
<text text-anchor="start" x="441" y="-917.2" font-family="Helvetica,sans-Serif" font-size="16.00">index.ts</text>
</a>
</g>
</g>
<!-- src/i18n/index.ts&#45;&gt;src/i18n/effects.ts -->
<g id="edge4" class="edge">
<title>src/i18n/index.ts&#45;&gt;src/i18n/effects.ts</title>
<path fill="none" stroke="#666666" stroke-width="2" stroke-opacity="0.458824" d="M462,-893.73C462,-844.08 462,-744 462,-744 462,-744 808.73,-744 808.73,-744"/>
<polygon fill="#666666" fill-opacity="0.458824" stroke="#666666" stroke-width="2" stroke-opacity="0.458824" points="828.73,-751 808.73,-744 828.73,-737 828.73,-751"/>
</g>
<!-- src/i18n/index.ts&#45;&gt;src/i18n/hooks/client&#45;locale.ts -->
<g id="edge5" class="edge">
<title>src/i18n/index.ts&#45;&gt;src/i18n/hooks/client&#45;locale.ts</title>
<path fill="none" stroke="#666666" stroke-width="2" stroke-opacity="0.458824" d="M514.11,-937C615.92,-937 874,-937 874,-937 874,-937 874,-935.92 874,-935.92"/>
<polygon fill="#666666" fill-opacity="0.458824" stroke="#666666" stroke-width="2" stroke-opacity="0.458824" points="881,-926.21 874,-946.21 867,-926.21 881,-926.21"/>
</g>
<!-- src/i18n/index.ts&#45;&gt;src/i18n/hooks/locale&#45;change.ts -->
<g id="edge6" class="edge">
<title>src/i18n/index.ts&#45;&gt;src/i18n/hooks/locale&#45;change.ts</title>
<path fill="none" stroke="#666666" stroke-width="2" stroke-opacity="0.458824" d="M514.08,-910C514.08,-910 565.7,-910 565.7,-910"/>
<polygon fill="#666666" fill-opacity="0.458824" stroke="#666666" stroke-width="2" stroke-opacity="0.458824" points="585.7,-917 565.7,-910 585.7,-903 585.7,-917"/>
</g>
<!-- src/i18n/index.ts&#45;&gt;src/i18n/hooks/setup.ts -->
<g id="edge7" class="edge">
<title>src/i18n/index.ts&#45;&gt;src/i18n/hooks/setup.ts</title>
<path fill="none" stroke="#666666" stroke-width="2" stroke-opacity="0.458824" d="M486,-893.96C486,-864.95 486,-823 486,-823 486,-823 599.59,-823 599.59,-823"/>
<polygon fill="#666666" fill-opacity="0.458824" stroke="#666666" stroke-width="2" stroke-opacity="0.458824" points="619.59,-830 599.59,-823 619.59,-816 619.59,-830"/>
</g>
<!-- src/i18n/types.ts -->
<g id="node7" class="node">
<title>src/i18n/types.ts</title>
<g id="a_node7"><a xlink:href="src/i18n/types.ts" xlink:title="types.ts">
<path fill="#ddfeff" stroke="black" d="M688.5,-1026C688.5,-1026 632.5,-1026 632.5,-1026 626.5,-1026 620.5,-1020 620.5,-1014 620.5,-1014 620.5,-984 620.5,-984 620.5,-978 626.5,-972 632.5,-972 632.5,-972 688.5,-972 688.5,-972 694.5,-972 700.5,-978 700.5,-984 700.5,-984 700.5,-1014 700.5,-1014 700.5,-1020 694.5,-1026 688.5,-1026"/>
<text text-anchor="start" x="628.5" y="-995.2" font-family="Helvetica,sans-Serif" font-size="16.00">types.ts</text>
</a>
</g>
</g>
<!-- src/i18n/index.ts&#45;&gt;src/i18n/types.ts -->
<g id="edge8" class="edge">
<title>src/i18n/index.ts&#45;&gt;src/i18n/types.ts</title>
<path fill="none" stroke="#666666" stroke-width="2" stroke-opacity="0.458824" d="M494,-948.14C494,-963.1 494,-978.67 494,-978.67 494,-978.67 600.19,-978.67 600.19,-978.67"/>
<polygon fill="#666666" fill-opacity="0.458824" stroke="#666666" stroke-width="2" stroke-opacity="0.458824" points="620.2,-985.67 600.19,-978.67 620.19,-971.67 620.2,-985.67"/>
</g>
<!-- src/lifecycle/before&#45;render.ts -->
<g id="node8" class="node">
<title>src/lifecycle/before&#45;render.ts</title>
<g id="a_node8"><a xlink:href="src/lifecycle/before-render.ts" xlink:title="before&#45;render.ts">
<path fill="#ddfeff" stroke="black" d="M343.5,-992C343.5,-992 221.5,-992 221.5,-992 215.5,-992 209.5,-986 209.5,-980 209.5,-980 209.5,-950 209.5,-950 209.5,-944 215.5,-938 221.5,-938 221.5,-938 343.5,-938 343.5,-938 349.5,-938 355.5,-944 355.5,-950 355.5,-950 355.5,-980 355.5,-980 355.5,-986 349.5,-992 343.5,-992"/>
<text text-anchor="start" x="217.5" y="-961.2" font-family="Helvetica,sans-Serif" font-size="16.00">before&#45;render.ts</text>
</a>
</g>
</g>
<!-- src/lifecycle/before&#45;render.ts&#45;&gt;src/i18n/index.ts -->
<g id="edge9" class="edge">
<title>src/lifecycle/before&#45;render.ts&#45;&gt;src/i18n/index.ts</title>
<path fill="none" stroke="#666666" stroke-width="2" stroke-opacity="0.458824" d="M355.53,-943C355.53,-943 412.85,-943 412.85,-943"/>
<polygon fill="#666666" fill-opacity="0.458824" stroke="#666666" stroke-width="2" stroke-opacity="0.458824" points="432.85,-943 412.85,-952 422.85,-943.5 412.85,-943.5 412.85,-943 412.85,-942.5 422.85,-942.5 412.85,-934 432.85,-943 432.85,-943"/>
</g>
<!-- src/metadata/index.ts -->
<g id="node9" class="node">
<title>src/metadata/index.ts</title>
<g id="a_node9"><a xlink:href="src/metadata/index.ts" xlink:title="index.ts">
<path fill="#ddfeff" stroke="black" d="M502,-1244C502,-1244 445,-1244 445,-1244 439,-1244 433,-1238 433,-1232 433,-1232 433,-1202 433,-1202 433,-1196 439,-1190 445,-1190 445,-1190 502,-1190 502,-1190 508,-1190 514,-1196 514,-1202 514,-1202 514,-1232 514,-1232 514,-1238 508,-1244 502,-1244"/>
<text text-anchor="start" x="441" y="-1213.2" font-family="Helvetica,sans-Serif" font-size="16.00">index.ts</text>
</a>
</g>
</g>
<!-- src/lifecycle/before&#45;render.ts&#45;&gt;src/metadata/index.ts -->
<g id="edge10" class="edge">
<title>src/lifecycle/before&#45;render.ts&#45;&gt;src/metadata/index.ts</title>
<path fill="none" stroke="#666666" stroke-width="2" stroke-opacity="0.458824" d="M355.73,-985.33C402.34,-985.33 454,-985.33 454,-985.33 454,-985.33 454,-1169.97 454,-1169.97"/>
<polygon fill="#666666" fill-opacity="0.458824" stroke="#666666" stroke-width="2" stroke-opacity="0.458824" points="454,-1189.97 445,-1169.97 453.5,-1179.97 453.5,-1169.97 454,-1169.97 454.5,-1169.97 454.5,-1179.97 463,-1169.97 454,-1189.97 454,-1189.97"/>
</g>
<!-- src/metadata/head.tsx -->
<g id="node14" class="node">
<title>src/metadata/head.tsx</title>
<g id="a_node14"><a xlink:href="src/metadata/head.tsx" xlink:title="head.tsx">
<path fill="#bbfeff" stroke="black" d="M691.5,-1130C691.5,-1130 629.5,-1130 629.5,-1130 623.5,-1130 617.5,-1124 617.5,-1118 617.5,-1118 617.5,-1088 617.5,-1088 617.5,-1082 623.5,-1076 629.5,-1076 629.5,-1076 691.5,-1076 691.5,-1076 697.5,-1076 703.5,-1082 703.5,-1088 703.5,-1088 703.5,-1118 703.5,-1118 703.5,-1124 697.5,-1130 691.5,-1130"/>
<text text-anchor="start" x="625.5" y="-1099.2" font-family="Helvetica,sans-Serif" font-size="16.00">head.tsx</text>
</a>
</g>
</g>
<!-- src/metadata/index.ts&#45;&gt;src/metadata/head.tsx -->
<g id="edge15" class="edge">
<title>src/metadata/index.ts&#45;&gt;src/metadata/head.tsx</title>
<path fill="none" stroke="#666666" stroke-width="2" stroke-opacity="0.458824" d="M474,-1190C474,-1158.3 474,-1110 474,-1110 474,-1110 597.24,-1110 597.24,-1110"/>
<polygon fill="#666666" fill-opacity="0.458824" stroke="#666666" stroke-width="2" stroke-opacity="0.458824" points="617.24,-1117 597.24,-1110 617.24,-1103 617.24,-1117"/>
</g>
<!-- src/metadata/lang.ts -->
<g id="node15" class="node">
<title>src/metadata/lang.ts</title>
<g id="a_node15"><a xlink:href="src/metadata/lang.ts" xlink:title="lang.ts">
<path fill="#ddfeff" stroke="black" d="M684,-1206C684,-1206 637,-1206 637,-1206 631,-1206 625,-1200 625,-1194 625,-1194 625,-1164 625,-1164 625,-1158 631,-1152 637,-1152 637,-1152 684,-1152 684,-1152 690,-1152 696,-1158 696,-1164 696,-1164 696,-1194 696,-1194 696,-1200 690,-1206 684,-1206"/>
<text text-anchor="start" x="633" y="-1175.2" font-family="Helvetica,sans-Serif" font-size="16.00">lang.ts</text>
</a>
</g>
</g>
<!-- src/metadata/index.ts&#45;&gt;src/metadata/lang.ts -->
<g id="edge16" class="edge">
<title>src/metadata/index.ts&#45;&gt;src/metadata/lang.ts</title>
<path fill="none" stroke="#666666" stroke-width="2" stroke-opacity="0.458824" d="M514.08,-1198C514.08,-1198 604.74,-1198 604.74,-1198"/>
<polygon fill="#666666" fill-opacity="0.458824" stroke="#666666" stroke-width="2" stroke-opacity="0.458824" points="624.74,-1205 604.74,-1198 624.74,-1191 624.74,-1205"/>
</g>
<!-- src/metadata/title.ts -->
<g id="node16" class="node">
<title>src/metadata/title.ts</title>
<g id="a_node16"><a xlink:href="src/metadata/title.ts" xlink:title="title.ts">
<path fill="#ddfeff" stroke="black" d="M682,-1282C682,-1282 639,-1282 639,-1282 633,-1282 627,-1276 627,-1270 627,-1270 627,-1240 627,-1240 627,-1234 633,-1228 639,-1228 639,-1228 682,-1228 682,-1228 688,-1228 694,-1234 694,-1240 694,-1240 694,-1270 694,-1270 694,-1276 688,-1282 682,-1282"/>
<text text-anchor="start" x="635" y="-1251.2" font-family="Helvetica,sans-Serif" font-size="16.00">title.ts</text>
</a>
</g>
</g>
<!-- src/metadata/index.ts&#45;&gt;src/metadata/title.ts -->
<g id="edge17" class="edge">
<title>src/metadata/index.ts&#45;&gt;src/metadata/title.ts</title>
<path fill="none" stroke="#666666" stroke-width="2" stroke-opacity="0.458824" d="M514.08,-1236C514.08,-1236 606.88,-1236 606.88,-1236"/>
<polygon fill="#666666" fill-opacity="0.458824" stroke="#666666" stroke-width="2" stroke-opacity="0.458824" points="626.88,-1243 606.88,-1236 626.88,-1229 626.88,-1243"/>
</g>
<!-- src/metadata/types.ts -->
<g id="node17" class="node">
<title>src/metadata/types.ts</title>
<g id="a_node17"><a xlink:href="src/metadata/types.ts" xlink:title="types.ts">
<path fill="#ddfeff" stroke="black" d="M688.5,-1358C688.5,-1358 632.5,-1358 632.5,-1358 626.5,-1358 620.5,-1352 620.5,-1346 620.5,-1346 620.5,-1316 620.5,-1316 620.5,-1310 626.5,-1304 632.5,-1304 632.5,-1304 688.5,-1304 688.5,-1304 694.5,-1304 700.5,-1310 700.5,-1316 700.5,-1316 700.5,-1346 700.5,-1346 700.5,-1352 694.5,-1358 688.5,-1358"/>
<text text-anchor="start" x="628.5" y="-1327.2" font-family="Helvetica,sans-Serif" font-size="16.00">types.ts</text>
</a>
</g>
</g>
<!-- src/metadata/index.ts&#45;&gt;src/metadata/types.ts -->
<g id="edge18" class="edge">
<title>src/metadata/index.ts&#45;&gt;src/metadata/types.ts</title>
<path fill="none" stroke="#666666" stroke-width="2" stroke-opacity="0.458824" d="M487,-1244.02C487,-1277.73 487,-1331 487,-1331 487,-1331 600.26,-1331 600.26,-1331"/>
<polygon fill="#666666" fill-opacity="0.458824" stroke="#666666" stroke-width="2" stroke-opacity="0.458824" points="620.26,-1338 600.26,-1331 620.26,-1324 620.26,-1338"/>
</g>
<!-- src/metadata/utils.ts -->
<g id="node18" class="node">
<title>src/metadata/utils.ts</title>
<g id="a_node18"><a xlink:href="src/metadata/utils.ts" xlink:title="utils.ts">
<path fill="#ddfeff" stroke="black" d="M683.5,-1434C683.5,-1434 637.5,-1434 637.5,-1434 631.5,-1434 625.5,-1428 625.5,-1422 625.5,-1422 625.5,-1392 625.5,-1392 625.5,-1386 631.5,-1380 637.5,-1380 637.5,-1380 683.5,-1380 683.5,-1380 689.5,-1380 695.5,-1386 695.5,-1392 695.5,-1392 695.5,-1422 695.5,-1422 695.5,-1428 689.5,-1434 683.5,-1434"/>
<text text-anchor="start" x="633.5" y="-1403.2" font-family="Helvetica,sans-Serif" font-size="16.00">utils.ts</text>
</a>
</g>
</g>
<!-- src/metadata/index.ts&#45;&gt;src/metadata/utils.ts -->
<g id="edge19" class="edge">
<title>src/metadata/index.ts&#45;&gt;src/metadata/utils.ts</title>
<path fill="none" stroke="#666666" stroke-width="2" stroke-opacity="0.458824" d="M460,-1244.19C460,-1294.26 460,-1396 460,-1396 460,-1396 605.12,-1396 605.12,-1396"/>
<polygon fill="#666666" fill-opacity="0.458824" stroke="#666666" stroke-width="2" stroke-opacity="0.458824" points="625.12,-1403 605.12,-1396 625.12,-1389 625.12,-1403"/>
</g>
<!-- src/lifecycle/before&#45;route.ts -->
<g id="node10" class="node">
<title>src/lifecycle/before&#45;route.ts</title>
<g id="a_node10"><a xlink:href="src/lifecycle/before-route.ts" xlink:title="before&#45;route.ts">
<path fill="#ddfeff" stroke="black" d="M338.5,-1068C338.5,-1068 226.5,-1068 226.5,-1068 220.5,-1068 214.5,-1062 214.5,-1056 214.5,-1056 214.5,-1026 214.5,-1026 214.5,-1020 220.5,-1014 226.5,-1014 226.5,-1014 338.5,-1014 338.5,-1014 344.5,-1014 350.5,-1020 350.5,-1026 350.5,-1026 350.5,-1056 350.5,-1056 350.5,-1062 344.5,-1068 338.5,-1068"/>
<text text-anchor="start" x="222.5" y="-1037.2" font-family="Helvetica,sans-Serif" font-size="16.00">before&#45;route.ts</text>
</a>
</g>
</g>
<!-- src/lifecycle/hydration&#45;end.ts -->
<g id="node11" class="node">
<title>src/lifecycle/hydration&#45;end.ts</title>
<g id="a_node11"><a xlink:href="src/lifecycle/hydration-end.ts" xlink:title="hydration&#45;end.ts">
<path fill="#ddfeff" stroke="black" d="M346,-1144C346,-1144 219,-1144 219,-1144 213,-1144 207,-1138 207,-1132 207,-1132 207,-1102 207,-1102 207,-1096 213,-1090 219,-1090 219,-1090 346,-1090 346,-1090 352,-1090 358,-1096 358,-1102 358,-1102 358,-1132 358,-1132 358,-1138 352,-1144 346,-1144"/>
<text text-anchor="start" x="215" y="-1113.2" font-family="Helvetica,sans-Serif" font-size="16.00">hydration&#45;end.ts</text>
</a>
</g>
</g>
<!-- src/lifecycle/index.ts -->
<g id="node12" class="node">
<title>src/lifecycle/index.ts</title>
<g id="a_node12"><a xlink:href="src/lifecycle/index.ts" xlink:title="index.ts">
<path fill="#ddfeff" stroke="black" d="M102.5,-1106C102.5,-1106 45.5,-1106 45.5,-1106 39.5,-1106 33.5,-1100 33.5,-1094 33.5,-1094 33.5,-1064 33.5,-1064 33.5,-1058 39.5,-1052 45.5,-1052 45.5,-1052 102.5,-1052 102.5,-1052 108.5,-1052 114.5,-1058 114.5,-1064 114.5,-1064 114.5,-1094 114.5,-1094 114.5,-1100 108.5,-1106 102.5,-1106"/>
<text text-anchor="start" x="41.5" y="-1075.2" font-family="Helvetica,sans-Serif" font-size="16.00">index.ts</text>
</a>
</g>
</g>
<!-- src/lifecycle/index.ts&#45;&gt;src/lifecycle/before&#45;render.ts -->
<g id="edge11" class="edge">
<title>src/lifecycle/index.ts&#45;&gt;src/lifecycle/before&#45;render.ts</title>
<path fill="none" stroke="#666666" stroke-width="2" stroke-opacity="0.458824" d="M61,-1051.98C61,-1018.27 61,-965 61,-965 61,-965 189.36,-965 189.36,-965"/>
<polygon fill="#666666" fill-opacity="0.458824" stroke="#666666" stroke-width="2" stroke-opacity="0.458824" points="209.36,-972 189.36,-965 209.36,-958 209.36,-972"/>
</g>
<!-- src/lifecycle/index.ts&#45;&gt;src/lifecycle/before&#45;route.ts -->
<g id="edge12" class="edge">
<title>src/lifecycle/index.ts&#45;&gt;src/lifecycle/before&#45;route.ts</title>
<path fill="none" stroke="#666666" stroke-width="2" stroke-opacity="0.458824" d="M114.7,-1060C114.7,-1060 194.41,-1060 194.41,-1060"/>
<polygon fill="#666666" fill-opacity="0.458824" stroke="#666666" stroke-width="2" stroke-opacity="0.458824" points="214.41,-1067 194.41,-1060 214.41,-1053 214.41,-1067"/>
</g>
<!-- src/lifecycle/index.ts&#45;&gt;src/lifecycle/hydration&#45;end.ts -->
<g id="edge13" class="edge">
<title>src/lifecycle/index.ts&#45;&gt;src/lifecycle/hydration&#45;end.ts</title>
<path fill="none" stroke="#666666" stroke-width="2" stroke-opacity="0.458824" d="M114.7,-1098C114.7,-1098 186.88,-1098 186.88,-1098"/>
<polygon fill="#666666" fill-opacity="0.458824" stroke="#666666" stroke-width="2" stroke-opacity="0.458824" points="206.88,-1105 186.88,-1098 206.88,-1091 206.88,-1105"/>
</g>
<!-- src/lifecycle/prerender&#45;start.ts -->
<g id="node13" class="node">
<title>src/lifecycle/prerender&#45;start.ts</title>
<g id="a_node13"><a xlink:href="src/lifecycle/prerender-start.ts" xlink:title="prerender&#45;start.ts">
<path fill="#ddfeff" stroke="black" d="M349,-1220C349,-1220 216,-1220 216,-1220 210,-1220 204,-1214 204,-1208 204,-1208 204,-1178 204,-1178 204,-1172 210,-1166 216,-1166 216,-1166 349,-1166 349,-1166 355,-1166 361,-1172 361,-1178 361,-1178 361,-1208 361,-1208 361,-1214 355,-1220 349,-1220"/>
<text text-anchor="start" x="212" y="-1189.2" font-family="Helvetica,sans-Serif" font-size="16.00">prerender&#45;start.ts</text>
</a>
</g>
</g>
<!-- src/lifecycle/index.ts&#45;&gt;src/lifecycle/prerender&#45;start.ts -->
<g id="edge14" class="edge">
<title>src/lifecycle/index.ts&#45;&gt;src/lifecycle/prerender&#45;start.ts</title>
<path fill="none" stroke="#666666" stroke-width="2" stroke-opacity="0.458824" d="M74,-1106.02C74,-1139.73 74,-1193 74,-1193 74,-1193 183.97,-1193 183.97,-1193"/>
<polygon fill="#666666" fill-opacity="0.458824" stroke="#666666" stroke-width="2" stroke-opacity="0.458824" points="203.97,-1200 183.97,-1193 203.97,-1186 203.97,-1200"/>
</g>
<!-- src/navigation/components/link.tsx -->
<g id="node19" class="node">
<title>src/navigation/components/link.tsx</title>
<g id="a_node19"><a xlink:href="src/navigation/components/link.tsx" xlink:title="link.tsx">
<path fill="#bbfeff" stroke="black" d="M307.5,-480C307.5,-480 257.5,-480 257.5,-480 251.5,-480 245.5,-474 245.5,-468 245.5,-468 245.5,-438 245.5,-438 245.5,-432 251.5,-426 257.5,-426 257.5,-426 307.5,-426 307.5,-426 313.5,-426 319.5,-432 319.5,-438 319.5,-438 319.5,-468 319.5,-468 319.5,-474 313.5,-480 307.5,-480"/>
<text text-anchor="start" x="253.5" y="-449.2" font-family="Helvetica,sans-Serif" font-size="16.00">link.tsx</text>
</a>
</g>
</g>
<!-- src/navigation/utils.ts -->
<g id="node20" class="node">
<title>src/navigation/utils.ts</title>
<g id="a_node20"><a xlink:href="src/navigation/utils.ts" xlink:title="utils.ts">
<path fill="#ddfeff" stroke="black" d="M496.5,-550C496.5,-550 450.5,-550 450.5,-550 444.5,-550 438.5,-544 438.5,-538 438.5,-538 438.5,-508 438.5,-508 438.5,-502 444.5,-496 450.5,-496 450.5,-496 496.5,-496 496.5,-496 502.5,-496 508.5,-502 508.5,-508 508.5,-508 508.5,-538 508.5,-538 508.5,-544 502.5,-550 496.5,-550"/>
<text text-anchor="start" x="446.5" y="-519.2" font-family="Helvetica,sans-Serif" font-size="16.00">utils.ts</text>
</a>
</g>
</g>
<!-- src/navigation/components/link.tsx&#45;&gt;src/navigation/utils.ts -->
<g id="edge20" class="edge">
<title>src/navigation/components/link.tsx&#45;&gt;src/navigation/utils.ts</title>
<path fill="none" stroke="#666666" stroke-width="2" stroke-opacity="0.458824" d="M295,-480.1C295,-494.19 295,-508.5 295,-508.5 295,-508.5 418.23,-508.5 418.23,-508.5"/>
<polygon fill="#666666" fill-opacity="0.458824" stroke="#666666" stroke-width="2" stroke-opacity="0.458824" points="438.23,-508.5 418.23,-517.5 428.23,-509 418.23,-509 418.23,-508.5 418.23,-508 428.23,-508 418.23,-499.5 438.23,-508.5 438.23,-508.5"/>
</g>
<!-- src/navigation/index.ts -->
<g id="node21" class="node">
<title>src/navigation/index.ts</title>
<g id="a_node21"><a xlink:href="src/navigation/index.ts" xlink:title="index.ts">
<path fill="#ddfeff" stroke="black" d="M102.5,-575C102.5,-575 45.5,-575 45.5,-575 39.5,-575 33.5,-569 33.5,-563 33.5,-563 33.5,-533 33.5,-533 33.5,-527 39.5,-521 45.5,-521 45.5,-521 102.5,-521 102.5,-521 108.5,-521 114.5,-527 114.5,-533 114.5,-533 114.5,-563 114.5,-563 114.5,-569 108.5,-575 102.5,-575"/>
<text text-anchor="start" x="41.5" y="-544.2" font-family="Helvetica,sans-Serif" font-size="16.00">index.ts</text>
</a>
</g>
</g>
<!-- src/navigation/index.ts&#45;&gt;src/navigation/components/link.tsx -->
<g id="edge21" class="edge">
<title>src/navigation/index.ts&#45;&gt;src/navigation/components/link.tsx</title>
<path fill="none" stroke="#666666" stroke-width="2" stroke-opacity="0.458824" d="M114.82,-527.25C172.52,-527.25 271,-527.25 271,-527.25 271,-527.25 271,-500.23 271,-500.23"/>
<polygon fill="#666666" fill-opacity="0.458824" stroke="#666666" stroke-width="2" stroke-opacity="0.458824" points="278,-480.23 271,-500.23 264,-480.23 278,-480.23"/>
</g>
<!-- src/navigation/index.ts&#45;&gt;src/navigation/utils.ts -->
<g id="edge24" class="edge">
<title>src/navigation/index.ts&#45;&gt;src/navigation/utils.ts</title>
<path fill="none" stroke="#666666" stroke-width="2" stroke-opacity="0.458824" d="M114.5,-533.5C114.5,-533.5 418.38,-533.5 418.38,-533.5"/>
<polygon fill="#666666" fill-opacity="0.458824" stroke="#666666" stroke-width="2" stroke-opacity="0.458824" points="438.38,-540.5 418.38,-533.5 438.38,-526.5 438.38,-540.5"/>
</g>
<!-- src/navigation/providers.tsx -->
<g id="node22" class="node">
<title>src/navigation/providers.tsx</title>
<g id="a_node22"><a xlink:href="src/navigation/providers.tsx" xlink:title="providers.tsx">
<path fill="#bbfeff" stroke="black" d="M331.5,-600C331.5,-600 233.5,-600 233.5,-600 227.5,-600 221.5,-594 221.5,-588 221.5,-588 221.5,-558 221.5,-558 221.5,-552 227.5,-546 233.5,-546 233.5,-546 331.5,-546 331.5,-546 337.5,-546 343.5,-552 343.5,-558 343.5,-558 343.5,-588 343.5,-588 343.5,-594 337.5,-600 331.5,-600"/>
<text text-anchor="start" x="229.5" y="-569.2" font-family="Helvetica,sans-Serif" font-size="16.00">providers.tsx</text>
</a>
</g>
</g>
<!-- src/navigation/index.ts&#45;&gt;src/navigation/providers.tsx -->
<g id="edge22" class="edge">
<title>src/navigation/index.ts&#45;&gt;src/navigation/providers.tsx</title>
<path fill="none" stroke="#666666" stroke-width="2" stroke-opacity="0.458824" d="M114.7,-560.5C114.7,-560.5 201.35,-560.5 201.35,-560.5"/>
<polygon fill="#666666" fill-opacity="0.458824" stroke="#666666" stroke-width="2" stroke-opacity="0.458824" points="221.35,-567.5 201.35,-560.5 221.35,-553.5 221.35,-567.5"/>
</g>
<!-- src/navigation/types.ts -->
<g id="node23" class="node">
<title>src/navigation/types.ts</title>
<g id="a_node23"><a xlink:href="src/navigation/types.ts" xlink:title="types.ts">
<path fill="#ddfeff" stroke="black" d="M310.5,-676C310.5,-676 254.5,-676 254.5,-676 248.5,-676 242.5,-670 242.5,-664 242.5,-664 242.5,-634 242.5,-634 242.5,-628 248.5,-622 254.5,-622 254.5,-622 310.5,-622 310.5,-622 316.5,-622 322.5,-628 322.5,-634 322.5,-634 322.5,-664 322.5,-664 322.5,-670 316.5,-676 310.5,-676"/>
<text text-anchor="start" x="250.5" y="-645.2" font-family="Helvetica,sans-Serif" font-size="16.00">types.ts</text>
</a>
</g>
</g>
<!-- src/navigation/index.ts&#45;&gt;src/navigation/types.ts -->
<g id="edge23" class="edge">
<title>src/navigation/index.ts&#45;&gt;src/navigation/types.ts</title>
<path fill="none" stroke="#666666" stroke-width="2" stroke-opacity="0.458824" d="M88,-575.07C88,-604.98 88,-649 88,-649 88,-649 222.2,-649 222.2,-649"/>
<polygon fill="#666666" fill-opacity="0.458824" stroke="#666666" stroke-width="2" stroke-opacity="0.458824" points="242.2,-656 222.2,-649 242.2,-642 242.2,-656"/>
</g>
<!-- src/navigation/providers.tsx&#45;&gt;src/navigation/utils.ts -->
<g id="edge25" class="edge">
<title>src/navigation/providers.tsx&#45;&gt;src/navigation/utils.ts</title>
<path fill="none" stroke="#666666" stroke-width="2" stroke-opacity="0.458824" d="M336,-545.85C336,-542.24 336,-539.75 336,-539.75 336,-539.75 418.45,-539.75 418.45,-539.75"/>
<polygon fill="#666666" fill-opacity="0.458824" stroke="#666666" stroke-width="2" stroke-opacity="0.458824" points="438.45,-539.75 418.45,-548.75 428.45,-540.25 418.45,-540.25 418.45,-539.75 418.45,-539.25 428.45,-539.25 418.45,-530.75 438.45,-539.75 438.45,-539.75"/>
</g>
<!-- src/telemetry/effects.ts -->
<g id="node24" class="node">
<title>src/telemetry/effects.ts</title>
<g id="a_node24"><a xlink:href="src/telemetry/effects.ts" xlink:title="effects.ts">
<path fill="#ddfeff" stroke="black" d="M315.5,-216C315.5,-216 249.5,-216 249.5,-216 243.5,-216 237.5,-210 237.5,-204 237.5,-204 237.5,-174 237.5,-174 237.5,-168 243.5,-162 249.5,-162 249.5,-162 315.5,-162 315.5,-162 321.5,-162 327.5,-168 327.5,-174 327.5,-174 327.5,-204 327.5,-204 327.5,-210 321.5,-216 315.5,-216"/>
<text text-anchor="start" x="245.5" y="-185.2" font-family="Helvetica,sans-Serif" font-size="16.00">effects.ts</text>
</a>
</g>
</g>
<!-- src/telemetry/hooks.ts -->
<g id="node25" class="node">
<title>src/telemetry/hooks.ts</title>
<g id="a_node25"><a xlink:href="src/telemetry/hooks.ts" xlink:title="hooks.ts">
<path fill="#ddfeff" stroke="black" d="M312,-292C312,-292 253,-292 253,-292 247,-292 241,-286 241,-280 241,-280 241,-250 241,-250 241,-244 247,-238 253,-238 253,-238 312,-238 312,-238 318,-238 324,-244 324,-250 324,-250 324,-280 324,-280 324,-286 318,-292 312,-292"/>
<text text-anchor="start" x="249" y="-261.2" font-family="Helvetica,sans-Serif" font-size="16.00">hooks.ts</text>
</a>
</g>
</g>
<!-- src/telemetry/index.ts -->
<g id="node26" class="node">
<title>src/telemetry/index.ts</title>
<g id="a_node26"><a xlink:href="src/telemetry/index.ts" xlink:title="index.ts">
<path fill="#ddfeff" stroke="black" d="M102.5,-292C102.5,-292 45.5,-292 45.5,-292 39.5,-292 33.5,-286 33.5,-280 33.5,-280 33.5,-250 33.5,-250 33.5,-244 39.5,-238 45.5,-238 45.5,-238 102.5,-238 102.5,-238 108.5,-238 114.5,-244 114.5,-250 114.5,-250 114.5,-280 114.5,-280 114.5,-286 108.5,-292 102.5,-292"/>
<text text-anchor="start" x="41.5" y="-261.2" font-family="Helvetica,sans-Serif" font-size="16.00">index.ts</text>
</a>
</g>
</g>
<!-- src/telemetry/index.ts&#45;&gt;src/telemetry/effects.ts -->
<g id="edge26" class="edge">
<title>src/telemetry/index.ts&#45;&gt;src/telemetry/effects.ts</title>
<path fill="none" stroke="#666666" stroke-width="2" stroke-opacity="0.458824" d="M74,-237.99C74,-216.15 74,-189 74,-189 74,-189 217.26,-189 217.26,-189"/>
<polygon fill="#666666" fill-opacity="0.458824" stroke="#666666" stroke-width="2" stroke-opacity="0.458824" points="237.26,-196 217.26,-189 237.26,-182 237.26,-196"/>
</g>
<!-- src/telemetry/index.ts&#45;&gt;src/telemetry/hooks.ts -->
<g id="edge27" class="edge">
<title>src/telemetry/index.ts&#45;&gt;src/telemetry/hooks.ts</title>
<path fill="none" stroke="#666666" stroke-width="2" stroke-opacity="0.458824" d="M114.7,-265C114.7,-265 220.84,-265 220.84,-265"/>
<polygon fill="#666666" fill-opacity="0.458824" stroke="#666666" stroke-width="2" stroke-opacity="0.458824" points="240.84,-272 220.84,-265 240.84,-258 240.84,-272"/>
</g>
<!-- src/telemetry/types.ts -->
<g id="node27" class="node">
<title>src/telemetry/types.ts</title>
<g id="a_node27"><a xlink:href="src/telemetry/types.ts" xlink:title="types.ts">
<path fill="#ddfeff" stroke="black" d="M310.5,-368C310.5,-368 254.5,-368 254.5,-368 248.5,-368 242.5,-362 242.5,-356 242.5,-356 242.5,-326 242.5,-326 242.5,-320 248.5,-314 254.5,-314 254.5,-314 310.5,-314 310.5,-314 316.5,-314 322.5,-320 322.5,-326 322.5,-326 322.5,-356 322.5,-356 322.5,-362 316.5,-368 310.5,-368"/>
<text text-anchor="start" x="250.5" y="-337.2" font-family="Helvetica,sans-Serif" font-size="16.00">types.ts</text>
</a>
</g>
</g>
<!-- src/telemetry/index.ts&#45;&gt;src/telemetry/types.ts -->
<g id="edge28" class="edge">
<title>src/telemetry/index.ts&#45;&gt;src/telemetry/types.ts</title>
<path fill="none" stroke="#666666" stroke-width="2" stroke-opacity="0.458824" d="M74,-292.01C74,-313.85 74,-341 74,-341 74,-341 222.3,-341 222.3,-341"/>
<polygon fill="#666666" fill-opacity="0.458824" stroke="#666666" stroke-width="2" stroke-opacity="0.458824" points="242.3,-348 222.3,-341 242.3,-334 242.3,-348"/>
</g>
<!-- src/types.ts -->
<g id="node28" class="node">
<title>src/types.ts</title>
<g id="a_node28"><a xlink:href="src/types.ts" xlink:title="types.ts">
<path fill="#ccffcc" stroke="black" d="M102,-146C102,-146 46,-146 46,-146 40,-146 34,-140 34,-134 34,-134 34,-104 34,-104 34,-98 40,-92 46,-92 46,-92 102,-92 102,-92 108,-92 114,-98 114,-104 114,-104 114,-134 114,-134 114,-140 108,-146 102,-146"/>
<text text-anchor="start" x="42" y="-115.2" font-family="Helvetica,sans-Serif" font-size="16.00">types.ts</text>
</a>
</g>
</g>
<!-- src/vite&#45;env.d.ts -->
<g id="node29" class="node">
<title>src/vite&#45;env.d.ts</title>
<g id="a_node29"><a xlink:href="src/vite-env.d.ts" xlink:title="vite&#45;env.d.ts">
<path fill="#ccffcc" stroke="black" d="M120,-70C120,-70 28,-70 28,-70 22,-70 16,-64 16,-58 16,-58 16,-28 16,-28 16,-22 22,-16 28,-16 28,-16 120,-16 120,-16 126,-16 132,-22 132,-28 132,-28 132,-58 132,-58 132,-64 126,-70 120,-70"/>
<text text-anchor="start" x="24" y="-39.2" font-family="Helvetica,sans-Serif" font-size="16.00">vite&#45;env.d.ts</text>
</a>
</g>
</g>
</g>
</svg>
