<?xml version="1.0" encoding="UTF-8" standalone="no"?>
<!DOCTYPE svg PUBLIC "-//W3C//DTD SVG 1.1//EN"
 "http://www.w3.org/Graphics/SVG/1.1/DTD/svg11.dtd">
<!-- Generated by graphviz version 2.43.0 (0)
 -->
<!-- Title: G Pages: 1 -->
<svg width="562pt" height="218pt"
 viewBox="0.00 0.00 562.20 218.34" xmlns="http://www.w3.org/2000/svg" xmlns:xlink="http://www.w3.org/1999/xlink">
<g id="graph0" class="graph" transform="scale(1 1) rotate(0) translate(21.6 196.74)">
<title>G</title>
<polygon fill="#111111" stroke="transparent" points="-21.6,21.6 -21.6,-196.74 540.6,-196.74 540.6,21.6 -21.6,21.6"/>
<!-- color&#45;scheme.ts -->
<g id="node1" class="node">
<title>color&#45;scheme.ts</title>
<path fill="none" stroke="#c6c5fe" d="M261.33,-175.14C261.33,-175.14 147.67,-175.14 147.67,-175.14 143.33,-175.14 139,-170.81 139,-166.47 139,-166.47 139,-157.81 139,-157.81 139,-153.47 143.33,-149.14 147.67,-149.14 147.67,-149.14 261.33,-149.14 261.33,-149.14 265.67,-149.14 270,-153.47 270,-157.81 270,-157.81 270,-166.47 270,-166.47 270,-170.81 265.67,-175.14 261.33,-175.14"/>
<text text-anchor="middle" x="204.5" y="-158.34" font-family="Arial" font-size="16.00" fill="#c6c5fe">color&#45;scheme.ts</text>
</g>
<!-- constants.ts -->
<g id="node2" class="node">
<title>constants.ts</title>
<path fill="none" stroke="#c6c5fe" d="M401.33,-90.14C401.33,-90.14 314.67,-90.14 314.67,-90.14 310.33,-90.14 306,-85.81 306,-81.47 306,-81.47 306,-72.81 306,-72.81 306,-68.47 310.33,-64.14 314.67,-64.14 314.67,-64.14 401.33,-64.14 401.33,-64.14 405.67,-64.14 410,-68.47 410,-72.81 410,-72.81 410,-81.47 410,-81.47 410,-85.81 405.67,-90.14 401.33,-90.14"/>
<text text-anchor="middle" x="358" y="-73.34" font-family="Arial" font-size="16.00" fill="#c6c5fe">constants.ts</text>
</g>
<!-- color&#45;scheme.ts&#45;&gt;constants.ts -->
<g id="edge1" class="edge">
<title>color&#45;scheme.ts&#45;&gt;constants.ts</title>
<path fill="none" stroke="#757575" d="M249.6,-149.07C256.57,-146.44 263.59,-143.46 270,-140.14 293.13,-128.17 316.91,-110.51 333.76,-96.93"/>
<polygon fill="#757575" stroke="#757575" points="336.38,-99.3 341.89,-90.25 331.94,-93.89 336.38,-99.3"/>
</g>
<!-- types.ts -->
<g id="node3" class="node">
<title>types.ts</title>
<path fill="none" stroke="#cfffac" d="M510.33,-69.14C510.33,-69.14 454.67,-69.14 454.67,-69.14 450.33,-69.14 446,-64.81 446,-60.47 446,-60.47 446,-51.81 446,-51.81 446,-47.47 450.33,-43.14 454.67,-43.14 454.67,-43.14 510.33,-43.14 510.33,-43.14 514.67,-43.14 519,-47.47 519,-51.81 519,-51.81 519,-60.47 519,-60.47 519,-64.81 514.67,-69.14 510.33,-69.14"/>
<text text-anchor="middle" x="482.5" y="-52.34" font-family="Arial" font-size="16.00" fill="#cfffac">types.ts</text>
</g>
<!-- color&#45;scheme.ts&#45;&gt;types.ts -->
<g id="edge2" class="edge">
<title>color&#45;scheme.ts&#45;&gt;types.ts</title>
<path fill="none" stroke="#757575" d="M260.63,-149.04C302.56,-138.17 361.16,-120.96 410,-99.14 425.15,-92.37 441.06,-83.05 454.02,-74.81"/>
<polygon fill="#757575" stroke="#757575" points="455.98,-77.71 462.47,-69.33 452.17,-71.84 455.98,-77.71"/>
</g>
<!-- constants.ts&#45;&gt;types.ts -->
<g id="edge3" class="edge">
<title>constants.ts&#45;&gt;types.ts</title>
<path fill="none" stroke="#757575" d="M410.24,-68.35C418.72,-66.9 427.47,-65.4 435.81,-63.97"/>
<polygon fill="#757575" stroke="#757575" points="436.46,-67.41 445.72,-62.27 435.28,-60.51 436.46,-67.41"/>
</g>
<!-- index.ts -->
<g id="node4" class="node">
<title>index.ts</title>
<path fill="none" stroke="#c6c5fe" d="M79.33,-90.14C79.33,-90.14 23.67,-90.14 23.67,-90.14 19.33,-90.14 15,-85.81 15,-81.47 15,-81.47 15,-72.81 15,-72.81 15,-68.47 19.33,-64.14 23.67,-64.14 23.67,-64.14 79.33,-64.14 79.33,-64.14 83.67,-64.14 88,-68.47 88,-72.81 88,-72.81 88,-81.47 88,-81.47 88,-85.81 83.67,-90.14 79.33,-90.14"/>
<text text-anchor="middle" x="51.5" y="-73.34" font-family="Arial" font-size="16.00" fill="#c6c5fe">index.ts</text>
</g>
<!-- index.ts&#45;&gt;color&#45;scheme.ts -->
<g id="edge4" class="edge">
<title>index.ts&#45;&gt;color&#45;scheme.ts</title>
<path fill="none" stroke="#757575" d="M88.09,-90.26C93.3,-92.85 98.44,-95.81 103,-99.14 122.59,-113.44 118.84,-126.66 139,-140.14 141.4,-141.74 143.92,-143.24 146.53,-144.64"/>
<polygon fill="#757575" stroke="#757575" points="145.11,-147.84 155.64,-149.01 148.14,-141.53 145.11,-147.84"/>
</g>
<!-- index.ts&#45;&gt;constants.ts -->
<g id="edge5" class="edge">
<title>index.ts&#45;&gt;constants.ts</title>
<path fill="none" stroke="#757575" d="M88.03,-77.14C138.92,-77.14 233.32,-77.14 295.65,-77.14"/>
<polygon fill="#757575" stroke="#757575" points="295.75,-80.64 305.75,-77.14 295.75,-73.64 295.75,-80.64"/>
</g>
<!-- index.ts&#45;&gt;types.ts -->
<g id="edge7" class="edge">
<title>index.ts&#45;&gt;types.ts</title>
<path fill="none" stroke="#757575" d="M65.06,-63.9C80.68,-48.49 108.97,-23.92 139,-14.14 243.3,19.82 373.61,-16.29 439.37,-39.6"/>
<polygon fill="#757575" stroke="#757575" points="438.38,-42.96 448.98,-43.08 440.77,-36.38 438.38,-42.96"/>
</g>
<!-- preflights.ts -->
<g id="node5" class="node">
<title>preflights.ts</title>
<path fill="none" stroke="#c6c5fe" d="M245.83,-131.14C245.83,-131.14 163.17,-131.14 163.17,-131.14 158.83,-131.14 154.5,-126.81 154.5,-122.47 154.5,-122.47 154.5,-113.81 154.5,-113.81 154.5,-109.47 158.83,-105.14 163.17,-105.14 163.17,-105.14 245.83,-105.14 245.83,-105.14 250.17,-105.14 254.5,-109.47 254.5,-113.81 254.5,-113.81 254.5,-122.47 254.5,-122.47 254.5,-126.81 250.17,-131.14 245.83,-131.14"/>
<text text-anchor="middle" x="204.5" y="-114.34" font-family="Arial" font-size="16.00" fill="#c6c5fe">preflights.ts</text>
</g>
<!-- index.ts&#45;&gt;preflights.ts -->
<g id="edge6" class="edge">
<title>index.ts&#45;&gt;preflights.ts</title>
<path fill="none" stroke="#757575" d="M88.28,-86.86C105.37,-91.49 126.24,-97.16 145.5,-102.39"/>
<polygon fill="#757575" stroke="#757575" points="144.83,-105.84 155.4,-105.08 146.67,-99.08 144.83,-105.84"/>
</g>
<!-- variants.ts -->
<g id="node6" class="node">
<title>variants.ts</title>
<path fill="none" stroke="#c6c5fe" d="M241.33,-49.14C241.33,-49.14 167.67,-49.14 167.67,-49.14 163.33,-49.14 159,-44.81 159,-40.47 159,-40.47 159,-31.81 159,-31.81 159,-27.47 163.33,-23.14 167.67,-23.14 167.67,-23.14 241.33,-23.14 241.33,-23.14 245.67,-23.14 250,-27.47 250,-31.81 250,-31.81 250,-40.47 250,-40.47 250,-44.81 245.67,-49.14 241.33,-49.14"/>
<text text-anchor="middle" x="204.5" y="-32.34" font-family="Arial" font-size="16.00" fill="#c6c5fe">variants.ts</text>
</g>
<!-- index.ts&#45;&gt;variants.ts -->
<g id="edge8" class="edge">
<title>index.ts&#45;&gt;variants.ts</title>
<path fill="none" stroke="#757575" d="M88.28,-67.42C106.42,-62.5 128.83,-56.41 149.06,-50.92"/>
<polygon fill="#757575" stroke="#757575" points="150.05,-54.28 158.78,-48.28 148.21,-47.52 150.05,-54.28"/>
</g>
<!-- preflights.ts&#45;&gt;constants.ts -->
<g id="edge9" class="edge">
<title>preflights.ts&#45;&gt;constants.ts</title>
<path fill="none" stroke="#757575" d="M253.85,-105.05C268.27,-101.15 284.22,-96.83 299.18,-92.79"/>
<polygon fill="#757575" stroke="#757575" points="300.11,-96.16 308.85,-90.17 298.28,-89.4 300.11,-96.16"/>
</g>
<!-- variants.ts&#45;&gt;constants.ts -->
<g id="edge10" class="edge">
<title>variants.ts&#45;&gt;constants.ts</title>
<path fill="none" stroke="#757575" d="M250.14,-48.22C265.39,-52.35 282.67,-57.02 298.83,-61.4"/>
<polygon fill="#757575" stroke="#757575" points="298.15,-64.84 308.72,-64.07 299.98,-58.08 298.15,-64.84"/>
</g>
<!-- variants.ts&#45;&gt;types.ts -->
<g id="edge11" class="edge">
<title>variants.ts&#45;&gt;types.ts</title>
<path fill="none" stroke="#757575" d="M250.15,-39.37C301.11,-43.07 384.03,-49.08 435.53,-52.81"/>
<polygon fill="#757575" stroke="#757575" points="435.48,-56.31 445.7,-53.55 435.98,-49.33 435.48,-56.31"/>
</g>
<!-- vite&#45;env.d.ts -->
<g id="node7" class="node">
<title>vite&#45;env.d.ts</title>
<path fill="none" stroke="#cfffac" d="M94.33,-134.14C94.33,-134.14 8.67,-134.14 8.67,-134.14 4.33,-134.14 0,-129.81 0,-125.47 0,-125.47 0,-116.81 0,-116.81 0,-112.47 4.33,-108.14 8.67,-108.14 8.67,-108.14 94.33,-108.14 94.33,-108.14 98.67,-108.14 103,-112.47 103,-116.81 103,-116.81 103,-125.47 103,-125.47 103,-129.81 98.67,-134.14 94.33,-134.14"/>
<text text-anchor="middle" x="51.5" y="-117.34" font-family="Arial" font-size="16.00" fill="#cfffac">vite&#45;env.d.ts</text>
</g>
</g>
</svg>
