<?xml version="1.0" encoding="UTF-8" standalone="no"?>
<!DOCTYPE svg PUBLIC "-//W3C//DTD SVG 1.1//EN"
 "http://www.w3.org/Graphics/SVG/1.1/DTD/svg11.dtd">
<!-- Generated by graphviz version 2.43.0 (0)
 -->
<!-- Title: dependency&#45;cruiser output Pages: 1 -->
<svg width="557pt" height="448pt"
 viewBox="0.00 0.00 557.00 448.00" xmlns="http://www.w3.org/2000/svg" xmlns:xlink="http://www.w3.org/1999/xlink">
<g id="graph0" class="graph" transform="scale(1 1) rotate(0) translate(4 444)">
<title>dependency&#45;cruiser output</title>
<polygon fill="white" stroke="transparent" points="-4,4 -4,-444 553,-444 553,4 -4,4"/>
<g id="clust1" class="cluster">
<title>cluster_src</title>
<path fill="#ffffff" stroke="black" stroke-width="2" d="M20,-8C20,-8 529,-8 529,-8 535,-8 541,-14 541,-20 541,-20 541,-420 541,-420 541,-426 535,-432 529,-432 529,-432 20,-432 20,-432 14,-432 8,-426 8,-420 8,-420 8,-20 8,-20 8,-14 14,-8 20,-8"/>
<text text-anchor="middle" x="274.5" y="-415.2" font-family="Helvetica,sans-Serif" font-weight="bold" font-size="16.00">src</text>
</g>
<!-- src/color&#45;scheme.ts -->
<g id="node1" class="node">
<title>src/color&#45;scheme.ts</title>
<g id="a_node1"><a xlink:href="src/color-scheme.ts" xlink:title="color&#45;scheme.ts">
<path fill="#ddfeff" stroke="black" d="M335,-70C335,-70 216,-70 216,-70 210,-70 204,-64 204,-58 204,-58 204,-28 204,-28 204,-22 210,-16 216,-16 216,-16 335,-16 335,-16 341,-16 347,-22 347,-28 347,-28 347,-58 347,-58 347,-64 341,-70 335,-70"/>
<text text-anchor="start" x="212" y="-39.2" font-family="Helvetica,sans-Serif" font-size="16.00">color&#45;scheme.ts</text>
</a>
</g>
</g>
<!-- src/constants.ts -->
<g id="node2" class="node">
<title>src/constants.ts</title>
<g id="a_node2"><a xlink:href="src/constants.ts" xlink:title="constants.ts">
<path fill="#ddfeff" stroke="black" d="M521,-183C521,-183 431,-183 431,-183 425,-183 419,-177 419,-171 419,-171 419,-141 419,-141 419,-135 425,-129 431,-129 431,-129 521,-129 521,-129 527,-129 533,-135 533,-141 533,-141 533,-171 533,-171 533,-177 527,-183 521,-183"/>
<text text-anchor="start" x="427" y="-152.2" font-family="Helvetica,sans-Serif" font-size="16.00">constants.ts</text>
</a>
</g>
</g>
<!-- src/color&#45;scheme.ts&#45;&gt;src/constants.ts -->
<g id="edge1" class="edge">
<title>src/color&#45;scheme.ts&#45;&gt;src/constants.ts</title>
<path fill="none" stroke="#666666" stroke-width="2" stroke-opacity="0.458824" d="M341,-70.15C341,-101.7 341,-149.5 341,-149.5 341,-149.5 398.75,-149.5 398.75,-149.5"/>
<polygon fill="#666666" fill-opacity="0.458824" stroke="#666666" stroke-width="2" stroke-opacity="0.458824" points="418.75,-149.5 398.75,-158.5 408.75,-150 398.75,-150 398.75,-149.5 398.75,-149 408.75,-149 398.75,-140.5 418.75,-149.5 418.75,-149.5"/>
</g>
<!-- src/extractors.ts -->
<g id="node3" class="node">
<title>src/extractors.ts</title>
<g id="a_node3"><a xlink:href="src/extractors.ts" xlink:title="extractors.ts">
<path fill="#ddfeff" stroke="black" d="M322.5,-170C322.5,-170 228.5,-170 228.5,-170 222.5,-170 216.5,-164 216.5,-158 216.5,-158 216.5,-128 216.5,-128 216.5,-122 222.5,-116 228.5,-116 228.5,-116 322.5,-116 322.5,-116 328.5,-116 334.5,-122 334.5,-128 334.5,-128 334.5,-158 334.5,-158 334.5,-164 328.5,-170 322.5,-170"/>
<text text-anchor="start" x="224.5" y="-139.2" font-family="Helvetica,sans-Serif" font-size="16.00">extractors.ts</text>
</a>
</g>
</g>
<!-- src/index.ts -->
<g id="node4" class="node">
<title>src/index.ts</title>
<g id="a_node4"><a xlink:href="src/index.ts" xlink:title="index.ts">
<path fill="#ddfeff" stroke="black" d="M102.5,-208C102.5,-208 45.5,-208 45.5,-208 39.5,-208 33.5,-202 33.5,-196 33.5,-196 33.5,-166 33.5,-166 33.5,-160 39.5,-154 45.5,-154 45.5,-154 102.5,-154 102.5,-154 108.5,-154 114.5,-160 114.5,-166 114.5,-166 114.5,-196 114.5,-196 114.5,-202 108.5,-208 102.5,-208"/>
<text text-anchor="start" x="41.5" y="-177.2" font-family="Helvetica,sans-Serif" font-size="16.00">index.ts</text>
</a>
</g>
</g>
<!-- src/index.ts&#45;&gt;src/color&#45;scheme.ts -->
<g id="edge2" class="edge">
<title>src/index.ts&#45;&gt;src/color&#45;scheme.ts</title>
<path fill="none" stroke="#666666" stroke-width="2" stroke-opacity="0.458824" d="M114.73,-159.33C155.12,-159.33 211,-159.33 211,-159.33 211,-159.33 211,-90.27 211,-90.27"/>
<polygon fill="#666666" fill-opacity="0.458824" stroke="#666666" stroke-width="2" stroke-opacity="0.458824" points="211,-70.27 220,-90.27 211.5,-80.27 211.5,-90.27 211,-90.27 210.5,-90.28 210.5,-80.28 202,-90.28 211,-70.27 211,-70.27"/>
</g>
<!-- src/index.ts&#45;&gt;src/constants.ts -->
<g id="edge3" class="edge">
<title>src/index.ts&#45;&gt;src/constants.ts</title>
<path fill="none" stroke="#666666" stroke-width="2" stroke-opacity="0.458824" d="M114.76,-174.33C114.76,-174.33 398.73,-174.33 398.73,-174.33"/>
<polygon fill="#666666" fill-opacity="0.458824" stroke="#666666" stroke-width="2" stroke-opacity="0.458824" points="418.73,-174.33 398.73,-183.33 408.73,-174.83 398.73,-174.83 398.73,-174.33 398.73,-173.83 408.73,-173.83 398.73,-165.33 418.73,-174.33 418.73,-174.33"/>
</g>
<!-- src/index.ts&#45;&gt;src/extractors.ts -->
<g id="edge4" class="edge">
<title>src/index.ts&#45;&gt;src/extractors.ts</title>
<path fill="none" stroke="#666666" stroke-width="2" stroke-opacity="0.458824" d="M114.78,-164.67C114.78,-164.67 196.45,-164.67 196.45,-164.67"/>
<polygon fill="#666666" fill-opacity="0.458824" stroke="#666666" stroke-width="2" stroke-opacity="0.458824" points="216.45,-164.67 196.45,-173.67 206.45,-165.17 196.45,-165.17 196.45,-164.67 196.45,-164.17 206.45,-164.17 196.45,-155.67 216.45,-164.67 216.45,-164.67"/>
</g>
<!-- src/preflights.ts -->
<g id="node5" class="node">
<title>src/preflights.ts</title>
<g id="a_node5"><a xlink:href="src/preflights.ts" xlink:title="preflights.ts">
<path fill="#ddfeff" stroke="black" d="M319.5,-246C319.5,-246 231.5,-246 231.5,-246 225.5,-246 219.5,-240 219.5,-234 219.5,-234 219.5,-204 219.5,-204 219.5,-198 225.5,-192 231.5,-192 231.5,-192 319.5,-192 319.5,-192 325.5,-192 331.5,-198 331.5,-204 331.5,-204 331.5,-234 331.5,-234 331.5,-240 325.5,-246 319.5,-246"/>
<text text-anchor="start" x="227.5" y="-215.2" font-family="Helvetica,sans-Serif" font-size="16.00">preflights.ts</text>
</a>
</g>
</g>
<!-- src/index.ts&#45;&gt;src/preflights.ts -->
<g id="edge5" class="edge">
<title>src/index.ts&#45;&gt;src/preflights.ts</title>
<path fill="none" stroke="#666666" stroke-width="2" stroke-opacity="0.458824" d="M114.78,-200C114.78,-200 199.13,-200 199.13,-200"/>
<polygon fill="#666666" fill-opacity="0.458824" stroke="#666666" stroke-width="2" stroke-opacity="0.458824" points="219.13,-200 199.13,-209 209.13,-200.5 199.13,-200.5 199.13,-200 199.13,-199.5 209.13,-199.5 199.13,-191 219.13,-200 219.13,-200"/>
</g>
<!-- src/types.ts -->
<g id="node6" class="node">
<title>src/types.ts</title>
<g id="a_node6"><a xlink:href="src/types.ts" xlink:title="types.ts">
<path fill="#ddfeff" stroke="black" d="M303.5,-322C303.5,-322 247.5,-322 247.5,-322 241.5,-322 235.5,-316 235.5,-310 235.5,-310 235.5,-280 235.5,-280 235.5,-274 241.5,-268 247.5,-268 247.5,-268 303.5,-268 303.5,-268 309.5,-268 315.5,-274 315.5,-280 315.5,-280 315.5,-310 315.5,-310 315.5,-316 309.5,-322 303.5,-322"/>
<text text-anchor="start" x="243.5" y="-291.2" font-family="Helvetica,sans-Serif" font-size="16.00">types.ts</text>
</a>
</g>
</g>
<!-- src/index.ts&#45;&gt;src/types.ts -->
<g id="edge6" class="edge">
<title>src/index.ts&#45;&gt;src/types.ts</title>
<path fill="none" stroke="#666666" stroke-width="2" stroke-opacity="0.458824" d="M88,-208.02C88,-241.73 88,-295 88,-295 88,-295 215.28,-295 215.28,-295"/>
<polygon fill="#666666" fill-opacity="0.458824" stroke="#666666" stroke-width="2" stroke-opacity="0.458824" points="235.28,-302 215.28,-295 235.28,-288 235.28,-302"/>
</g>
<!-- src/variants.ts -->
<g id="node7" class="node">
<title>src/variants.ts</title>
<g id="a_node7"><a xlink:href="src/variants.ts" xlink:title="variants.ts">
<path fill="#ddfeff" stroke="black" d="M314,-398C314,-398 237,-398 237,-398 231,-398 225,-392 225,-386 225,-386 225,-356 225,-356 225,-350 231,-344 237,-344 237,-344 314,-344 314,-344 320,-344 326,-350 326,-356 326,-356 326,-386 326,-386 326,-392 320,-398 314,-398"/>
<text text-anchor="start" x="233" y="-367.2" font-family="Helvetica,sans-Serif" font-size="16.00">variants.ts</text>
</a>
</g>
</g>
<!-- src/index.ts&#45;&gt;src/variants.ts -->
<g id="edge7" class="edge">
<title>src/index.ts&#45;&gt;src/variants.ts</title>
<path fill="none" stroke="#666666" stroke-width="2" stroke-opacity="0.458824" d="M61,-208.22C61,-260.76 61,-371 61,-371 61,-371 204.94,-371 204.94,-371"/>
<polygon fill="#666666" fill-opacity="0.458824" stroke="#666666" stroke-width="2" stroke-opacity="0.458824" points="224.94,-371 204.94,-380 214.94,-371.5 204.94,-371.5 204.94,-371 204.94,-370.5 214.94,-370.5 204.94,-362 224.94,-371 224.94,-371"/>
</g>
<!-- src/preflights.ts&#45;&gt;src/constants.ts -->
<g id="edge8" class="edge">
<title>src/preflights.ts&#45;&gt;src/constants.ts</title>
<path fill="none" stroke="#666666" stroke-width="2" stroke-opacity="0.458824" d="M276,-191.87C276,-184.58 276,-178.67 276,-178.67 276,-178.67 398.96,-178.67 398.96,-178.67"/>
<polygon fill="#666666" fill-opacity="0.458824" stroke="#666666" stroke-width="2" stroke-opacity="0.458824" points="418.96,-178.67 398.96,-187.67 408.96,-179.17 398.96,-179.17 398.96,-178.67 398.96,-178.17 408.96,-178.17 398.96,-169.67 418.96,-178.67 418.96,-178.67"/>
</g>
<!-- src/variants.ts&#45;&gt;src/constants.ts -->
<g id="edge9" class="edge">
<title>src/variants.ts&#45;&gt;src/constants.ts</title>
<path fill="none" stroke="#666666" stroke-width="2" stroke-opacity="0.458824" d="M326.09,-371C385.49,-371 476,-371 476,-371 476,-371 476,-203.23 476,-203.23"/>
<polygon fill="#666666" fill-opacity="0.458824" stroke="#666666" stroke-width="2" stroke-opacity="0.458824" points="476,-183.23 485,-203.23 476.5,-193.23 476.5,-203.23 476,-203.23 475.5,-203.23 475.5,-193.23 467,-203.23 476,-183.23 476,-183.23"/>
</g>
<!-- src/vite&#45;env.d.ts -->
<g id="node8" class="node">
<title>src/vite&#45;env.d.ts</title>
<g id="a_node8"><a xlink:href="src/vite-env.d.ts" xlink:title="vite&#45;env.d.ts">
<path fill="#ccffcc" stroke="black" d="M120,-120C120,-120 28,-120 28,-120 22,-120 16,-114 16,-108 16,-108 16,-78 16,-78 16,-72 22,-66 28,-66 28,-66 120,-66 120,-66 126,-66 132,-72 132,-78 132,-78 132,-108 132,-108 132,-114 126,-120 120,-120"/>
<text text-anchor="start" x="24" y="-89.2" font-family="Helvetica,sans-Serif" font-size="16.00">vite&#45;env.d.ts</text>
</a>
</g>
</g>
</g>
</svg>
