<?xml version="1.0" encoding="UTF-8" standalone="no"?>
<!DOCTYPE svg PUBLIC "-//W3C//DTD SVG 1.1//EN"
 "http://www.w3.org/Graphics/SVG/1.1/DTD/svg11.dtd">
<!-- Generated by graphviz version 2.43.0 (0)
 -->
<!-- Title: dependency&#45;cruiser output Pages: 1 -->
<svg width="522pt" height="448pt"
 viewBox="0.00 0.00 522.00 448.00" xmlns="http://www.w3.org/2000/svg" xmlns:xlink="http://www.w3.org/1999/xlink">
<g id="graph0" class="graph" transform="scale(1 1) rotate(0) translate(4 444)">
<title>dependency&#45;cruiser output</title>
<polygon fill="white" stroke="transparent" points="-4,4 -4,-444 518,-444 518,4 -4,4"/>
<g id="clust1" class="cluster">
<title>cluster_src</title>
<path fill="#ffffff" stroke="black" stroke-width="2" d="M20,-8C20,-8 494,-8 494,-8 500,-8 506,-14 506,-20 506,-20 506,-420 506,-420 506,-426 500,-432 494,-432 494,-432 20,-432 20,-432 14,-432 8,-426 8,-420 8,-420 8,-20 8,-20 8,-14 14,-8 20,-8"/>
<text text-anchor="middle" x="257" y="-415.2" font-family="Helvetica,sans-Serif" font-weight="bold" font-size="16.00">src</text>
</g>
<!-- src/color&#45;scheme.ts -->
<g id="node1" class="node">
<title>src/color&#45;scheme.ts</title>
<g id="a_node1"><a xlink:href="src/color-scheme.ts" xlink:title="color&#45;scheme.ts">
<path fill="#ddfeff" stroke="black" d="M300,-70C300,-70 181,-70 181,-70 175,-70 169,-64 169,-58 169,-58 169,-28 169,-28 169,-22 175,-16 181,-16 181,-16 300,-16 300,-16 306,-16 312,-22 312,-28 312,-28 312,-58 312,-58 312,-64 306,-70 300,-70"/>
<text text-anchor="start" x="177" y="-39.2" font-family="Helvetica,sans-Serif" font-size="16.00">color&#45;scheme.ts</text>
</a>
</g>
</g>
<!-- src/constants.ts -->
<g id="node2" class="node">
<title>src/constants.ts</title>
<g id="a_node2"><a xlink:href="src/constants.ts" xlink:title="constants.ts">
<path fill="#ddfeff" stroke="black" d="M486,-183C486,-183 396,-183 396,-183 390,-183 384,-177 384,-171 384,-171 384,-141 384,-141 384,-135 390,-129 396,-129 396,-129 486,-129 486,-129 492,-129 498,-135 498,-141 498,-141 498,-171 498,-171 498,-177 492,-183 486,-183"/>
<text text-anchor="start" x="392" y="-152.2" font-family="Helvetica,sans-Serif" font-size="16.00">constants.ts</text>
</a>
</g>
</g>
<!-- src/color&#45;scheme.ts&#45;&gt;src/constants.ts -->
<g id="edge1" class="edge">
<title>src/color&#45;scheme.ts&#45;&gt;src/constants.ts</title>
<path fill="none" stroke="#666666" stroke-width="2" stroke-opacity="0.458824" d="M306,-70.15C306,-101.7 306,-149.5 306,-149.5 306,-149.5 363.75,-149.5 363.75,-149.5"/>
<polygon fill="#666666" fill-opacity="0.458824" stroke="#666666" stroke-width="2" stroke-opacity="0.458824" points="383.75,-149.5 363.75,-158.5 373.75,-150 363.75,-150 363.75,-149.5 363.75,-149 373.75,-149 363.75,-140.5 383.75,-149.5 383.75,-149.5"/>
</g>
<!-- src/extractors.ts -->
<g id="node3" class="node">
<title>src/extractors.ts</title>
<g id="a_node3"><a xlink:href="src/extractors.ts" xlink:title="extractors.ts">
<path fill="#ddfeff" stroke="black" d="M287.5,-170C287.5,-170 193.5,-170 193.5,-170 187.5,-170 181.5,-164 181.5,-158 181.5,-158 181.5,-128 181.5,-128 181.5,-122 187.5,-116 193.5,-116 193.5,-116 287.5,-116 287.5,-116 293.5,-116 299.5,-122 299.5,-128 299.5,-128 299.5,-158 299.5,-158 299.5,-164 293.5,-170 287.5,-170"/>
<text text-anchor="start" x="189.5" y="-139.2" font-family="Helvetica,sans-Serif" font-size="16.00">extractors.ts</text>
</a>
</g>
</g>
<!-- src/index.ts -->
<g id="node4" class="node">
<title>src/index.ts</title>
<g id="a_node4"><a xlink:href="src/index.ts" xlink:title="index.ts">
<path fill="#ddfeff" stroke="black" d="M85,-208C85,-208 28,-208 28,-208 22,-208 16,-202 16,-196 16,-196 16,-166 16,-166 16,-160 22,-154 28,-154 28,-154 85,-154 85,-154 91,-154 97,-160 97,-166 97,-166 97,-196 97,-196 97,-202 91,-208 85,-208"/>
<text text-anchor="start" x="24" y="-177.2" font-family="Helvetica,sans-Serif" font-size="16.00">index.ts</text>
</a>
</g>
</g>
<!-- src/index.ts&#45;&gt;src/color&#45;scheme.ts -->
<g id="edge2" class="edge">
<title>src/index.ts&#45;&gt;src/color&#45;scheme.ts</title>
<path fill="none" stroke="#666666" stroke-width="2" stroke-opacity="0.458824" d="M97.29,-159.33C131.91,-159.33 176,-159.33 176,-159.33 176,-159.33 176,-90.27 176,-90.27"/>
<polygon fill="#666666" fill-opacity="0.458824" stroke="#666666" stroke-width="2" stroke-opacity="0.458824" points="176,-70.27 185,-90.27 176.5,-80.27 176.5,-90.27 176,-90.27 175.5,-90.28 175.5,-80.28 167,-90.28 176,-70.27 176,-70.27"/>
</g>
<!-- src/index.ts&#45;&gt;src/constants.ts -->
<g id="edge3" class="edge">
<title>src/index.ts&#45;&gt;src/constants.ts</title>
<path fill="none" stroke="#666666" stroke-width="2" stroke-opacity="0.458824" d="M97.28,-174.33C97.28,-174.33 363.88,-174.33 363.88,-174.33"/>
<polygon fill="#666666" fill-opacity="0.458824" stroke="#666666" stroke-width="2" stroke-opacity="0.458824" points="383.88,-174.33 363.88,-183.33 373.88,-174.83 363.88,-174.83 363.88,-174.33 363.88,-173.83 373.88,-173.83 363.88,-165.33 383.88,-174.33 383.88,-174.33"/>
</g>
<!-- src/index.ts&#45;&gt;src/extractors.ts -->
<g id="edge4" class="edge">
<title>src/index.ts&#45;&gt;src/extractors.ts</title>
<path fill="none" stroke="#666666" stroke-width="2" stroke-opacity="0.458824" d="M97.34,-164.67C97.34,-164.67 161.27,-164.67 161.27,-164.67"/>
<polygon fill="#666666" fill-opacity="0.458824" stroke="#666666" stroke-width="2" stroke-opacity="0.458824" points="181.27,-164.67 161.27,-173.67 171.27,-165.17 161.27,-165.17 161.27,-164.67 161.27,-164.17 171.27,-164.17 161.27,-155.67 181.27,-164.67 181.27,-164.67"/>
</g>
<!-- src/preflights.ts -->
<g id="node5" class="node">
<title>src/preflights.ts</title>
<g id="a_node5"><a xlink:href="src/preflights.ts" xlink:title="preflights.ts">
<path fill="#ddfeff" stroke="black" d="M284.5,-246C284.5,-246 196.5,-246 196.5,-246 190.5,-246 184.5,-240 184.5,-234 184.5,-234 184.5,-204 184.5,-204 184.5,-198 190.5,-192 196.5,-192 196.5,-192 284.5,-192 284.5,-192 290.5,-192 296.5,-198 296.5,-204 296.5,-204 296.5,-234 296.5,-234 296.5,-240 290.5,-246 284.5,-246"/>
<text text-anchor="start" x="192.5" y="-215.2" font-family="Helvetica,sans-Serif" font-size="16.00">preflights.ts</text>
</a>
</g>
</g>
<!-- src/index.ts&#45;&gt;src/preflights.ts -->
<g id="edge5" class="edge">
<title>src/index.ts&#45;&gt;src/preflights.ts</title>
<path fill="none" stroke="#666666" stroke-width="2" stroke-opacity="0.458824" d="M97.34,-200C97.34,-200 164.43,-200 164.43,-200"/>
<polygon fill="#666666" fill-opacity="0.458824" stroke="#666666" stroke-width="2" stroke-opacity="0.458824" points="184.43,-200 164.43,-209 174.43,-200.5 164.43,-200.5 164.43,-200 164.43,-199.5 174.43,-199.5 164.43,-191 184.43,-200 184.43,-200"/>
</g>
<!-- src/types.ts -->
<g id="node6" class="node">
<title>src/types.ts</title>
<g id="a_node6"><a xlink:href="src/types.ts" xlink:title="types.ts">
<path fill="#ddfeff" stroke="black" d="M268.5,-322C268.5,-322 212.5,-322 212.5,-322 206.5,-322 200.5,-316 200.5,-310 200.5,-310 200.5,-280 200.5,-280 200.5,-274 206.5,-268 212.5,-268 212.5,-268 268.5,-268 268.5,-268 274.5,-268 280.5,-274 280.5,-280 280.5,-280 280.5,-310 280.5,-310 280.5,-316 274.5,-322 268.5,-322"/>
<text text-anchor="start" x="208.5" y="-291.2" font-family="Helvetica,sans-Serif" font-size="16.00">types.ts</text>
</a>
</g>
</g>
<!-- src/index.ts&#45;&gt;src/types.ts -->
<g id="edge6" class="edge">
<title>src/index.ts&#45;&gt;src/types.ts</title>
<path fill="none" stroke="#666666" stroke-width="2" stroke-opacity="0.458824" d="M70,-208.02C70,-241.73 70,-295 70,-295 70,-295 180.09,-295 180.09,-295"/>
<polygon fill="#666666" fill-opacity="0.458824" stroke="#666666" stroke-width="2" stroke-opacity="0.458824" points="200.09,-302 180.09,-295 200.09,-288 200.09,-302"/>
</g>
<!-- src/variants.ts -->
<g id="node7" class="node">
<title>src/variants.ts</title>
<g id="a_node7"><a xlink:href="src/variants.ts" xlink:title="variants.ts">
<path fill="#ddfeff" stroke="black" d="M279,-398C279,-398 202,-398 202,-398 196,-398 190,-392 190,-386 190,-386 190,-356 190,-356 190,-350 196,-344 202,-344 202,-344 279,-344 279,-344 285,-344 291,-350 291,-356 291,-356 291,-386 291,-386 291,-392 285,-398 279,-398"/>
<text text-anchor="start" x="198" y="-367.2" font-family="Helvetica,sans-Serif" font-size="16.00">variants.ts</text>
</a>
</g>
</g>
<!-- src/index.ts&#45;&gt;src/variants.ts -->
<g id="edge7" class="edge">
<title>src/index.ts&#45;&gt;src/variants.ts</title>
<path fill="none" stroke="#666666" stroke-width="2" stroke-opacity="0.458824" d="M43,-208.22C43,-260.76 43,-371 43,-371 43,-371 169.9,-371 169.9,-371"/>
<polygon fill="#666666" fill-opacity="0.458824" stroke="#666666" stroke-width="2" stroke-opacity="0.458824" points="189.9,-371 169.9,-380 179.9,-371.5 169.9,-371.5 169.9,-371 169.9,-370.5 179.9,-370.5 169.9,-362 189.9,-371 189.9,-371"/>
</g>
<!-- src/preflights.ts&#45;&gt;src/constants.ts -->
<g id="edge8" class="edge">
<title>src/preflights.ts&#45;&gt;src/constants.ts</title>
<path fill="none" stroke="#666666" stroke-width="2" stroke-opacity="0.458824" d="M241,-191.87C241,-184.58 241,-178.67 241,-178.67 241,-178.67 363.96,-178.67 363.96,-178.67"/>
<polygon fill="#666666" fill-opacity="0.458824" stroke="#666666" stroke-width="2" stroke-opacity="0.458824" points="383.96,-178.67 363.96,-187.67 373.96,-179.17 363.96,-179.17 363.96,-178.67 363.96,-178.17 373.96,-178.17 363.96,-169.67 383.96,-178.67 383.96,-178.67"/>
</g>
<!-- src/variants.ts&#45;&gt;src/constants.ts -->
<g id="edge9" class="edge">
<title>src/variants.ts&#45;&gt;src/constants.ts</title>
<path fill="none" stroke="#666666" stroke-width="2" stroke-opacity="0.458824" d="M291.09,-371C350.49,-371 441,-371 441,-371 441,-371 441,-203.23 441,-203.23"/>
<polygon fill="#666666" fill-opacity="0.458824" stroke="#666666" stroke-width="2" stroke-opacity="0.458824" points="441,-183.23 450,-203.23 441.5,-193.23 441.5,-203.23 441,-203.23 440.5,-203.23 440.5,-193.23 432,-203.23 441,-183.23 441,-183.23"/>
</g>
</g>
</svg>
