<?xml version="1.0" encoding="UTF-8" standalone="no"?>
<!DOCTYPE svg PUBLIC "-//W3C//DTD SVG 1.1//EN"
 "http://www.w3.org/Graphics/SVG/1.1/DTD/svg11.dtd">
<!-- Generated by graphviz version 2.43.0 (0)
 -->
<!-- Title: dependency&#45;cruiser output Pages: 1 -->
<svg width="1281pt" height="1049pt"
 viewBox="0.00 0.00 1281.00 1049.00" xmlns="http://www.w3.org/2000/svg" xmlns:xlink="http://www.w3.org/1999/xlink">
<g id="graph0" class="graph" transform="scale(1 1) rotate(0) translate(4 1045)">
<title>dependency&#45;cruiser output</title>
<polygon fill="white" stroke="transparent" points="-4,4 -4,-1045 1277,-1045 1277,4 -4,4"/>
<g id="clust1" class="cluster">
<title>cluster_@bitcart</title>
<path fill="#ffffff" stroke="black" stroke-width="2" d="M521.5,-8C521.5,-8 979.5,-8 979.5,-8 985.5,-8 991.5,-14 991.5,-20 991.5,-20 991.5,-92 991.5,-92 991.5,-98 985.5,-104 979.5,-104 979.5,-104 521.5,-104 521.5,-104 515.5,-104 509.5,-98 509.5,-92 509.5,-92 509.5,-20 509.5,-20 509.5,-14 515.5,-8 521.5,-8"/>
<text text-anchor="middle" x="750.5" y="-87.2" font-family="Helvetica,sans-Serif" font-weight="bold" font-size="16.00">@bitcart</text>
</g>
<g id="clust2" class="cluster">
<title>cluster_node_modules</title>
<path fill="#ffffff" stroke="black" stroke-width="2" d="M226,-807C226,-807 1253,-807 1253,-807 1259,-807 1265,-813 1265,-819 1265,-819 1265,-1021 1265,-1021 1265,-1027 1259,-1033 1253,-1033 1253,-1033 226,-1033 226,-1033 220,-1033 214,-1027 214,-1021 214,-1021 214,-819 214,-819 214,-813 220,-807 226,-807"/>
<text text-anchor="middle" x="739.5" y="-1016.2" font-family="Helvetica,sans-Serif" font-weight="bold" font-size="16.00">node_modules</text>
</g>
<g id="clust3" class="cluster">
<title>cluster_src</title>
<path fill="#ffffff" stroke="black" stroke-width="2" d="M20,-112C20,-112 999,-112 999,-112 1005,-112 1011,-118 1011,-124 1011,-124 1011,-787 1011,-787 1011,-793 1005,-799 999,-799 999,-799 20,-799 20,-799 14,-799 8,-793 8,-787 8,-787 8,-124 8,-124 8,-118 14,-112 20,-112"/>
<text text-anchor="middle" x="509.5" y="-782.2" font-family="Helvetica,sans-Serif" font-weight="bold" font-size="16.00">src</text>
</g>
<g id="clust4" class="cluster">
<title>cluster_src/components</title>
<path fill="#ffffff" stroke="black" stroke-width="2" d="M51,-393C51,-393 840,-393 840,-393 846,-393 852,-399 852,-405 852,-405 852,-753 852,-753 852,-759 846,-765 840,-765 840,-765 51,-765 51,-765 45,-765 39,-759 39,-753 39,-753 39,-405 39,-405 39,-399 45,-393 51,-393"/>
<text text-anchor="middle" x="445.5" y="-748.2" font-family="Helvetica,sans-Serif" font-weight="bold" font-size="16.00">components</text>
</g>
<g id="clust5" class="cluster">
<title>cluster_src/components/controls</title>
<path fill="#ffffff" stroke="black" stroke-width="2" d="M679,-401C679,-401 832,-401 832,-401 838,-401 844,-407 844,-413 844,-413 844,-485 844,-485 844,-491 838,-497 832,-497 832,-497 679,-497 679,-497 673,-497 667,-491 667,-485 667,-485 667,-413 667,-413 667,-407 673,-401 679,-401"/>
<text text-anchor="middle" x="755.5" y="-480.2" font-family="Helvetica,sans-Serif" font-weight="bold" font-size="16.00">controls</text>
</g>
<g id="clust6" class="cluster">
<title>cluster_src/components/fields</title>
<path fill="#ffffff" stroke="black" stroke-width="2" d="M703,-505C703,-505 808,-505 808,-505 814,-505 820,-511 820,-517 820,-517 820,-719 820,-719 820,-725 814,-731 808,-731 808,-731 703,-731 703,-731 697,-731 691,-725 691,-719 691,-719 691,-517 691,-517 691,-511 697,-505 703,-505"/>
<text text-anchor="middle" x="755.5" y="-714.2" font-family="Helvetica,sans-Serif" font-weight="bold" font-size="16.00">fields</text>
</g>
<g id="clust7" class="cluster">
<title>cluster_src/contexts</title>
<path fill="#ffffff" stroke="black" stroke-width="2" d="M920,-537C920,-537 991,-537 991,-537 997,-537 1003,-543 1003,-549 1003,-549 1003,-621 1003,-621 1003,-627 997,-633 991,-633 991,-633 920,-633 920,-633 914,-633 908,-627 908,-621 908,-621 908,-549 908,-549 908,-543 914,-537 920,-537"/>
<text text-anchor="middle" x="955.5" y="-616.2" font-family="Helvetica,sans-Serif" font-weight="bold" font-size="16.00">contexts</text>
</g>
<g id="clust8" class="cluster">
<title>cluster_src/hooks</title>
<path fill="#ffffff" stroke="black" stroke-width="2" d="M28,-224C28,-224 351,-224 351,-224 357,-224 363,-230 363,-236 363,-236 363,-373 363,-373 363,-379 357,-385 351,-385 351,-385 28,-385 28,-385 22,-385 16,-379 16,-373 16,-373 16,-236 16,-236 16,-230 22,-224 28,-224"/>
<text text-anchor="middle" x="189.5" y="-368.2" font-family="Helvetica,sans-Serif" font-weight="bold" font-size="16.00">hooks</text>
</g>
<g id="clust9" class="cluster">
<title>cluster_src/validation</title>
<path fill="#ffffff" stroke="black" stroke-width="2" d="M50.5,-120C50.5,-120 350,-120 350,-120 356,-120 362,-126 362,-132 362,-132 362,-204 362,-204 362,-210 356,-216 350,-216 350,-216 50.5,-216 50.5,-216 44.5,-216 38.5,-210 38.5,-204 38.5,-204 38.5,-132 38.5,-132 38.5,-126 44.5,-120 50.5,-120"/>
<text text-anchor="middle" x="200.25" y="-199.2" font-family="Helvetica,sans-Serif" font-weight="bold" font-size="16.00">validation</text>
</g>
<!-- @bitcart/core -->
<g id="node1" class="node">
<title>@bitcart/core</title>
<g id="a_node1"><a xlink:title="core">
<polygon fill="#ffffcc" stroke="black" points="571.5,-70 521.5,-70 517.5,-66 517.5,-16 567.5,-16 571.5,-20 571.5,-70"/>
<polyline fill="none" stroke="black" points="567.5,-66 517.5,-66 "/>
<polyline fill="none" stroke="black" points="567.5,-66 567.5,-16 "/>
<polyline fill="none" stroke="black" points="567.5,-66 571.5,-70 "/>
<text text-anchor="start" x="527" y="-39.2" font-family="Helvetica,sans-Serif" font-size="16.00">core</text>
</a>
</g>
</g>
<!-- @bitcart/ui&#45;kit -->
<g id="node2" class="node">
<title>@bitcart/ui&#45;kit</title>
<g id="a_node2"><a xlink:title="ui&#45;kit">
<polygon fill="#ffffcc" stroke="black" points="983.5,-70 930.5,-70 926.5,-66 926.5,-16 979.5,-16 983.5,-20 983.5,-70"/>
<polyline fill="none" stroke="black" points="979.5,-66 926.5,-66 "/>
<polyline fill="none" stroke="black" points="979.5,-66 979.5,-16 "/>
<polyline fill="none" stroke="black" points="979.5,-66 983.5,-70 "/>
<text text-anchor="start" x="934.5" y="-39.2" font-family="Helvetica,sans-Serif" font-size="16.00">ui&#45;kit</text>
</a>
</g>
</g>
<!-- node_modules/@lingui/core -->
<g id="node3" class="node">
<title>node_modules/@lingui/core</title>
<g id="a_node3"><a xlink:href="https://www.npmjs.com/package/@lingui/core" xlink:title="@lingui+core@6.7.0_@babel+core@7.29.7_supports&#45;color@7.2.0__@babel+types@7.29.8">
<polygon fill="#f9e6e6" stroke="black" points="603,-869 490,-869 486,-865 486,-815 599,-815 603,-819 603,-869"/>
<polyline fill="none" stroke="black" points="599,-865 486,-865 "/>
<polyline fill="none" stroke="black" points="599,-865 599,-815 "/>
<polyline fill="none" stroke="black" points="599,-865 603,-869 "/>
<text text-anchor="start" x="494" y="-838.2" font-family="Helvetica,sans-Serif" font-size="16.00" fill="#c40b0a">@lingui/core</text>
</a>
</g>
</g>
<!-- node_modules/@tanstack/react&#45;form -->
<g id="node4" class="node">
<title>node_modules/@tanstack/react&#45;form</title>
<g id="a_node4"><a xlink:href="https://www.npmjs.com/package/@tanstack/react-form" xlink:title="@tanstack+react&#45;form@1.33.5_@tanstack+react&#45;start@1.168.54_crossws@0.4.12_srvx@1.0.5__e_fd0ccc551a412a15c0f7875851d35130">
<polygon fill="#f9e6e6" stroke="black" points="1257,-869 1071,-869 1067,-865 1067,-815 1253,-815 1257,-819 1257,-869"/>
<polyline fill="none" stroke="black" points="1253,-865 1067,-865 "/>
<polyline fill="none" stroke="black" points="1253,-865 1253,-815 "/>
<polyline fill="none" stroke="black" points="1253,-865 1257,-869 "/>
<text text-anchor="start" x="1075" y="-838.2" font-family="Helvetica,sans-Serif" font-size="16.00" fill="#c40b0a">@tanstack/react&#45;form</text>
</a>
</g>
</g>
<!-- node_modules/@testing&#45;library/react -->
<g id="node5" class="node">
<title>node_modules/@testing&#45;library/react</title>
<g id="a_node5"><a xlink:href="https://www.npmjs.com/package/@testing-library/react" xlink:title="@testing&#45;library+react@16.3.3_@testing&#45;library+dom@10.4.2_@types+react&#45;dom@19.3.0_@type_7c75ab20cc4ac7e43eae238a37408170">
<polygon fill="#f9e6e6" stroke="black" points="414,-999 226,-999 222,-995 222,-945 410,-945 414,-949 414,-999"/>
<polyline fill="none" stroke="black" points="410,-995 222,-995 "/>
<polyline fill="none" stroke="black" points="410,-995 410,-945 "/>
<polyline fill="none" stroke="black" points="410,-995 414,-999 "/>
<text text-anchor="start" x="230" y="-968.2" font-family="Helvetica,sans-Serif" font-size="16.00" fill="#c40b0a">@testing&#45;library/react</text>
</a>
</g>
</g>
<!-- node_modules/react -->
<g id="node6" class="node">
<title>node_modules/react</title>
<g id="a_node6"><a xlink:href="https://www.npmjs.com/package/react" xlink:title="react@19.3.0">
<polygon fill="#f9e6e6" stroke="black" points="983.5,-869 930.5,-869 926.5,-865 926.5,-815 979.5,-815 983.5,-819 983.5,-869"/>
<polyline fill="none" stroke="black" points="979.5,-865 926.5,-865 "/>
<polyline fill="none" stroke="black" points="979.5,-865 979.5,-815 "/>
<polyline fill="none" stroke="black" points="979.5,-865 983.5,-869 "/>
<text text-anchor="start" x="934.5" y="-838.2" font-family="Helvetica,sans-Serif" font-size="16.00" fill="#c40b0a">react</text>
</a>
</g>
</g>
<!-- node_modules/vitest -->
<g id="node7" class="node">
<title>node_modules/vitest</title>
<g id="a_node7"><a xlink:href="https://www.npmjs.com/package/vitest" xlink:title="vitest@4.1.11_@types+node@25.9.6_jsdom@29.1.1_msw@2.15.0_@types+node@25.9.6_typescript@_d2442a742163a568f616bab2f5ed9dfb">
<polygon fill="#f9e6e6" stroke="black" points="348.5,-934 291.5,-934 287.5,-930 287.5,-880 344.5,-880 348.5,-884 348.5,-934"/>
<polyline fill="none" stroke="black" points="344.5,-930 287.5,-930 "/>
<polyline fill="none" stroke="black" points="344.5,-930 344.5,-880 "/>
<polyline fill="none" stroke="black" points="344.5,-930 348.5,-934 "/>
<text text-anchor="start" x="295.5" y="-903.2" font-family="Helvetica,sans-Serif" font-size="16.00" fill="#c40b0a">vitest</text>
</a>
</g>
</g>
<!-- node_modules/zod -->
<g id="node8" class="node">
<title>node_modules/zod</title>
<g id="a_node8"><a xlink:href="https://www.npmjs.com/package/zod" xlink:title="zod@4.6.5">
<polygon fill="#f9e6e6" stroke="black" points="345,-869 295,-869 291,-865 291,-815 341,-815 345,-819 345,-869"/>
<polyline fill="none" stroke="black" points="341,-865 291,-865 "/>
<polyline fill="none" stroke="black" points="341,-865 341,-815 "/>
<polyline fill="none" stroke="black" points="341,-865 345,-869 "/>
<text text-anchor="start" x="303.5" y="-838.2" font-family="Helvetica,sans-Serif" font-size="16.00" fill="#c40b0a">zod</text>
</a>
</g>
</g>
<!-- src/components/controls/submit&#45;button.tsx -->
<g id="node9" class="node">
<title>src/components/controls/submit&#45;button.tsx</title>
<g id="a_node9"><a xlink:href="src/components/controls/submit-button.tsx" xlink:title="submit&#45;button.tsx">
<path fill="#bbfeff" stroke="black" d="M824,-463C824,-463 687,-463 687,-463 681,-463 675,-457 675,-451 675,-451 675,-421 675,-421 675,-415 681,-409 687,-409 687,-409 824,-409 824,-409 830,-409 836,-415 836,-421 836,-421 836,-451 836,-451 836,-457 830,-463 824,-463"/>
<text text-anchor="start" x="683" y="-432.2" font-family="Helvetica,sans-Serif" font-size="16.00">submit&#45;button.tsx</text>
</a>
</g>
</g>
<!-- src/components/controls/submit&#45;button.tsx&#45;&gt;@bitcart/ui&#45;kit -->
<g id="edge2" class="edge">
<title>src/components/controls/submit&#45;button.tsx&#45;&gt;@bitcart/ui&#45;kit</title>
<path fill="none" stroke="#666666" stroke-width="2" stroke-opacity="0.458824" d="M836.23,-410.12C845.65,-407.06 852,-405 852,-405 852,-405 913.29,-187.49 940.85,-89.67"/>
<polygon fill="#666666" fill-opacity="0.458824" stroke="#666666" stroke-width="2" stroke-opacity="0.458824" points="946.33,-70.21 949.57,-91.9 944.1,-79.97 941.39,-89.59 940.91,-89.46 940.43,-89.32 943.14,-79.7 932.25,-87.02 946.33,-70.21 946.33,-70.21"/>
</g>
<!-- src/components/controls/submit&#45;button.tsx&#45;&gt;node_modules/react -->
<g id="edge3" class="edge">
<title>src/components/controls/submit&#45;button.tsx&#45;&gt;node_modules/react</title>
<path fill="none" stroke="#666666" stroke-opacity="0.458824" d="M795.07,-463.06C821.57,-481.65 852,-503 852,-503 852,-503 912.05,-702.57 940,-795.46"/>
<polygon fill="#666666" fill-opacity="0.458824" stroke="#666666" stroke-opacity="0.458824" points="945.83,-814.83 931.44,-798.27 942.94,-805.26 940.06,-795.68 940.06,-795.68 940.06,-795.68 942.94,-805.26 948.68,-793.09 945.83,-814.83 945.83,-814.83"/>
</g>
<!-- src/contexts/form.ts -->
<g id="node10" class="node">
<title>src/contexts/form.ts</title>
<g id="a_node10"><a xlink:href="src/contexts/form.ts" xlink:title="form.ts">
<path fill="#ddfeff" stroke="black" d="M980,-599C980,-599 930,-599 930,-599 924,-599 918,-593 918,-587 918,-587 918,-557 918,-557 918,-551 924,-545 930,-545 930,-545 980,-545 980,-545 986,-545 992,-551 992,-557 992,-557 992,-587 992,-587 992,-593 986,-599 980,-599"/>
<text text-anchor="start" x="926" y="-568.2" font-family="Helvetica,sans-Serif" font-size="16.00">form.ts</text>
</a>
</g>
</g>
<!-- src/components/controls/submit&#45;button.tsx&#45;&gt;src/contexts/form.ts -->
<g id="edge1" class="edge">
<title>src/components/controls/submit&#45;button.tsx&#45;&gt;src/contexts/form.ts</title>
<path fill="none" stroke="#666666" stroke-width="2" stroke-opacity="0.458824" d="M795.99,-463.19C826.15,-483.96 867.99,-512.78 901.05,-535.54"/>
<polygon fill="#666666" fill-opacity="0.458824" stroke="#666666" stroke-width="2" stroke-opacity="0.458824" points="917.9,-547.14 896.32,-543.21 909.38,-541.88 901.15,-536.21 901.43,-535.8 901.71,-535.39 909.95,-541.06 906.53,-528.39 917.9,-547.14 917.9,-547.14"/>
</g>
<!-- src/contexts/form.ts&#45;&gt;node_modules/@tanstack/react&#45;form -->
<g id="edge17" class="edge">
<title>src/contexts/form.ts&#45;&gt;node_modules/@tanstack/react&#45;form</title>
<path fill="none" stroke="#666666" stroke-opacity="0.458824" d="M976.59,-599.12C1012.2,-646.03 1085.56,-742.63 1128.23,-798.85"/>
<polygon fill="#666666" fill-opacity="0.458824" stroke="#666666" stroke-opacity="0.458824" points="1140.42,-814.89 1121.16,-804.41 1134.37,-806.93 1128.32,-798.96 1128.32,-798.96 1128.32,-798.96 1134.37,-806.93 1135.49,-793.52 1140.42,-814.89 1140.42,-814.89"/>
</g>
<!-- src/components/fields/select.tsx -->
<g id="node11" class="node">
<title>src/components/fields/select.tsx</title>
<g id="a_node11"><a xlink:href="src/components/fields/select.tsx" xlink:title="select.tsx">
<path fill="#bbfeff" stroke="black" d="M790,-697C790,-697 721,-697 721,-697 715,-697 709,-691 709,-685 709,-685 709,-655 709,-655 709,-649 715,-643 721,-643 721,-643 790,-643 790,-643 796,-643 802,-649 802,-655 802,-655 802,-685 802,-685 802,-691 796,-697 790,-697"/>
<text text-anchor="start" x="717" y="-666.2" font-family="Helvetica,sans-Serif" font-size="16.00">select.tsx</text>
</a>
</g>
</g>
<!-- src/components/fields/select.tsx&#45;&gt;@bitcart/ui&#45;kit -->
<g id="edge5" class="edge">
<title>src/components/fields/select.tsx&#45;&gt;@bitcart/ui&#45;kit</title>
<path fill="none" stroke="#666666" stroke-width="2" stroke-opacity="0.458824" d="M802.01,-655.23C826.61,-647.24 852,-639 852,-639 852,-639 921.88,-230.68 945.96,-89.98"/>
<polygon fill="#666666" fill-opacity="0.458824" stroke="#666666" stroke-width="2" stroke-opacity="0.458824" points="949.35,-70.16 954.85,-91.39 948.16,-80.1 946.47,-89.96 945.98,-89.87 945.49,-89.79 947.17,-79.93 937.11,-88.35 949.35,-70.16 949.35,-70.16"/>
</g>
<!-- src/components/fields/select.tsx&#45;&gt;node_modules/react -->
<g id="edge6" class="edge">
<title>src/components/fields/select.tsx&#45;&gt;node_modules/react</title>
<path fill="none" stroke="#666666" stroke-opacity="0.458824" d="M787.79,-697.25C821.13,-726.28 874.1,-772.41 911.26,-804.78"/>
<polygon fill="#666666" fill-opacity="0.458824" stroke="#666666" stroke-opacity="0.458824" points="926.36,-817.93 905.36,-811.58 918.82,-811.36 911.28,-804.79 911.28,-804.79 911.28,-804.79 918.82,-811.36 917.19,-798 926.36,-817.93 926.36,-817.93"/>
</g>
<!-- src/components/fields/select.tsx&#45;&gt;src/contexts/form.ts -->
<g id="edge4" class="edge">
<title>src/components/fields/select.tsx&#45;&gt;src/contexts/form.ts</title>
<path fill="none" stroke="#666666" stroke-width="2" stroke-opacity="0.458824" d="M802.01,-655.23C826.61,-647.24 852,-639 852,-639 852,-639 876.05,-623.2 900.8,-606.95"/>
<polygon fill="#666666" fill-opacity="0.458824" stroke="#666666" stroke-width="2" stroke-opacity="0.458824" points="917.75,-595.81 905.98,-614.31 909.67,-601.72 901.31,-607.21 901.04,-606.79 900.76,-606.37 909.12,-600.88 896.09,-599.27 917.75,-595.81 917.75,-595.81"/>
</g>
<!-- src/components/fields/text.tsx -->
<g id="node12" class="node">
<title>src/components/fields/text.tsx</title>
<g id="a_node12"><a xlink:href="src/components/fields/text.tsx" xlink:title="text.tsx">
<path fill="#bbfeff" stroke="black" d="M782,-632C782,-632 729,-632 729,-632 723,-632 717,-626 717,-620 717,-620 717,-590 717,-590 717,-584 723,-578 729,-578 729,-578 782,-578 782,-578 788,-578 794,-584 794,-590 794,-590 794,-620 794,-620 794,-626 788,-632 782,-632"/>
<text text-anchor="start" x="725" y="-601.2" font-family="Helvetica,sans-Serif" font-size="16.00">text.tsx</text>
</a>
</g>
</g>
<!-- src/components/fields/text.tsx&#45;&gt;@bitcart/ui&#45;kit -->
<g id="edge8" class="edge">
<title>src/components/fields/text.tsx&#45;&gt;@bitcart/ui&#45;kit</title>
<path fill="none" stroke="#666666" stroke-width="2" stroke-opacity="0.458824" d="M794.24,-592.75C820.94,-584.08 852,-574 852,-574 852,-574 920.07,-219.64 944.99,-89.88"/>
<polygon fill="#666666" fill-opacity="0.458824" stroke="#666666" stroke-width="2" stroke-opacity="0.458824" points="948.8,-70.06 953.87,-91.4 947.41,-79.98 945.52,-89.8 945.03,-89.7 944.54,-89.61 946.42,-79.79 936.19,-88.01 948.8,-70.06 948.8,-70.06"/>
</g>
<!-- src/components/fields/text.tsx&#45;&gt;node_modules/react -->
<g id="edge9" class="edge">
<title>src/components/fields/text.tsx&#45;&gt;node_modules/react</title>
<path fill="none" stroke="#666666" stroke-opacity="0.458824" d="M779.16,-632.19C813.22,-673.06 877.93,-750.72 918.36,-799.23"/>
<polygon fill="#666666" fill-opacity="0.458824" stroke="#666666" stroke-opacity="0.458824" points="931.31,-814.77 911.59,-805.16 924.9,-807.08 918.5,-799.4 918.5,-799.4 918.5,-799.4 924.9,-807.08 925.42,-793.64 931.31,-814.77 931.31,-814.77"/>
</g>
<!-- src/components/fields/text.tsx&#45;&gt;src/contexts/form.ts -->
<g id="edge7" class="edge">
<title>src/components/fields/text.tsx&#45;&gt;src/contexts/form.ts</title>
<path fill="none" stroke="#666666" stroke-width="2" stroke-opacity="0.458824" d="M794.11,-598.72C823.45,-593.81 864.65,-586.93 897.88,-581.38"/>
<polygon fill="#666666" fill-opacity="0.458824" stroke="#666666" stroke-width="2" stroke-opacity="0.458824" points="917.86,-578.04 899.62,-590.21 908.08,-580.18 898.22,-581.83 898.13,-581.33 898.05,-580.84 907.91,-579.19 896.65,-572.46 917.86,-578.04 917.86,-578.04"/>
</g>
<!-- src/components/fields/textarea.tsx -->
<g id="node13" class="node">
<title>src/components/fields/textarea.tsx</title>
<g id="a_node13"><a xlink:href="src/components/fields/textarea.tsx" xlink:title="textarea.tsx">
<path fill="#bbfeff" stroke="black" d="M800,-567C800,-567 711,-567 711,-567 705,-567 699,-561 699,-555 699,-555 699,-525 699,-525 699,-519 705,-513 711,-513 711,-513 800,-513 800,-513 806,-513 812,-519 812,-525 812,-525 812,-555 812,-555 812,-561 806,-567 800,-567"/>
<text text-anchor="start" x="707" y="-536.2" font-family="Helvetica,sans-Serif" font-size="16.00">textarea.tsx</text>
</a>
</g>
</g>
<!-- src/components/fields/textarea.tsx&#45;&gt;@bitcart/ui&#45;kit -->
<g id="edge11" class="edge">
<title>src/components/fields/textarea.tsx&#45;&gt;@bitcart/ui&#45;kit</title>
<path fill="none" stroke="#666666" stroke-width="2" stroke-opacity="0.458824" d="M812.05,-521.97C833.06,-515.15 852,-509 852,-509 852,-509 917.85,-208.14 943.73,-89.91"/>
<polygon fill="#666666" fill-opacity="0.458824" stroke="#666666" stroke-width="2" stroke-opacity="0.458824" points="948.08,-70.07 952.59,-91.53 946.43,-79.94 944.29,-89.71 943.8,-89.61 943.31,-89.5 945.45,-79.73 935.01,-87.68 948.08,-70.07 948.08,-70.07"/>
</g>
<!-- src/components/fields/textarea.tsx&#45;&gt;node_modules/react -->
<g id="edge12" class="edge">
<title>src/components/fields/textarea.tsx&#45;&gt;node_modules/react</title>
<path fill="none" stroke="#666666" stroke-opacity="0.458824" d="M782.85,-567.04C811.12,-596.05 852,-638 852,-638 852,-638 901.43,-736.86 931.47,-796.94"/>
<polygon fill="#666666" fill-opacity="0.458824" stroke="#666666" stroke-opacity="0.458824" points="940.46,-814.91 923.46,-801.05 935.98,-805.97 931.51,-797.02 931.51,-797.02 931.51,-797.02 935.98,-805.97 939.56,-793 940.46,-814.91 940.46,-814.91"/>
</g>
<!-- src/components/fields/textarea.tsx&#45;&gt;src/contexts/form.ts -->
<g id="edge10" class="edge">
<title>src/components/fields/textarea.tsx&#45;&gt;src/contexts/form.ts</title>
<path fill="none" stroke="#666666" stroke-width="2" stroke-opacity="0.458824" d="M812.04,-549C838.91,-553.35 871.1,-558.57 898.02,-562.93"/>
<polygon fill="#666666" fill-opacity="0.458824" stroke="#666666" stroke-width="2" stroke-opacity="0.458824" points="917.85,-566.14 896.67,-571.83 907.9,-565.04 898.03,-563.44 898.11,-562.94 898.19,-562.45 908.06,-564.05 899.55,-554.06 917.85,-566.14 917.85,-566.14"/>
</g>
<!-- src/components/index.ts -->
<g id="node14" class="node">
<title>src/components/index.ts</title>
<g id="a_node14"><a xlink:href="src/components/index.ts" xlink:title="index.ts">
<path fill="#ddfeff" stroke="black" d="M573,-567C573,-567 516,-567 516,-567 510,-567 504,-561 504,-555 504,-555 504,-525 504,-525 504,-519 510,-513 516,-513 516,-513 573,-513 573,-513 579,-513 585,-519 585,-525 585,-525 585,-555 585,-555 585,-561 579,-567 573,-567"/>
<text text-anchor="start" x="512" y="-536.2" font-family="Helvetica,sans-Serif" font-size="16.00">index.ts</text>
</a>
</g>
</g>
<!-- src/components/index.ts&#45;&gt;src/components/controls/submit&#45;button.tsx -->
<g id="edge13" class="edge">
<title>src/components/index.ts&#45;&gt;src/components/controls/submit&#45;button.tsx</title>
<path fill="none" stroke="#666666" stroke-width="2" stroke-opacity="0.458824" d="M585.3,-520.19C612.66,-506.58 649.76,-488.12 682.25,-471.95"/>
<polygon fill="#666666" fill-opacity="0.458824" stroke="#666666" stroke-width="2" stroke-opacity="0.458824" points="703.36,-469.27 682.33,-471.91 697.12,-456.73 703.36,-469.27"/>
</g>
<!-- src/components/index.ts&#45;&gt;src/components/fields/select.tsx -->
<g id="edge14" class="edge">
<title>src/components/index.ts&#45;&gt;src/components/fields/select.tsx</title>
<path fill="none" stroke="#666666" stroke-width="2" stroke-opacity="0.458824" d="M578.7,-567.05C614.67,-596.36 667,-639 667,-639 667,-639 676.78,-642.47 689.8,-647.08"/>
<polygon fill="#666666" fill-opacity="0.458824" stroke="#666666" stroke-width="2" stroke-opacity="0.458824" points="706.62,-660.46 690.1,-647.19 711.29,-647.27 706.62,-660.46"/>
</g>
<!-- src/components/index.ts&#45;&gt;src/components/fields/text.tsx -->
<g id="edge15" class="edge">
<title>src/components/index.ts&#45;&gt;src/components/fields/text.tsx</title>
<path fill="none" stroke="#666666" stroke-width="2" stroke-opacity="0.458824" d="M585.3,-552.38C617.13,-562.28 662.17,-576.28 697.77,-587.36"/>
<polygon fill="#666666" fill-opacity="0.458824" stroke="#666666" stroke-width="2" stroke-opacity="0.458824" points="714.88,-600.01 697.86,-587.38 719.03,-586.64 714.88,-600.01"/>
</g>
<!-- src/components/index.ts&#45;&gt;src/components/fields/textarea.tsx -->
<g id="edge16" class="edge">
<title>src/components/index.ts&#45;&gt;src/components/fields/textarea.tsx</title>
<path fill="none" stroke="#666666" stroke-width="2" stroke-opacity="0.458824" d="M585.3,-540C611.63,-540 646.99,-540 678.58,-540"/>
<polygon fill="#666666" fill-opacity="0.458824" stroke="#666666" stroke-width="2" stroke-opacity="0.458824" points="698.66,-547 678.66,-540 698.66,-533 698.66,-547"/>
</g>
<!-- src/components/types.ts -->
<g id="node15" class="node">
<title>src/components/types.ts</title>
<g id="a_node15"><a xlink:href="src/components/types.ts" xlink:title="types.ts">
<path fill="#ccffcc" stroke="black" d="M115,-593C115,-593 59,-593 59,-593 53,-593 47,-587 47,-581 47,-581 47,-551 47,-551 47,-545 53,-539 59,-539 59,-539 115,-539 115,-539 121,-539 127,-545 127,-551 127,-551 127,-581 127,-581 127,-587 121,-593 115,-593"/>
<text text-anchor="start" x="55" y="-562.2" font-family="Helvetica,sans-Serif" font-size="16.00">types.ts</text>
</a>
</g>
</g>
<!-- src/hooks/form.spec.tsx -->
<g id="node16" class="node">
<title>src/hooks/form.spec.tsx</title>
<g id="a_node16"><a xlink:href="src/hooks/form.spec.tsx" xlink:title="form.spec.tsx">
<path fill="#bbfeff" stroke="black" d="M138,-351C138,-351 36,-351 36,-351 30,-351 24,-345 24,-339 24,-339 24,-309 24,-309 24,-303 30,-297 36,-297 36,-297 138,-297 138,-297 144,-297 150,-303 150,-309 150,-309 150,-339 150,-339 150,-345 144,-351 138,-351"/>
<text text-anchor="start" x="32" y="-320.2" font-family="Helvetica,sans-Serif" font-size="16.00">form.spec.tsx</text>
</a>
</g>
</g>
<!-- src/hooks/form.spec.tsx&#45;&gt;node_modules/@testing&#45;library/react -->
<g id="edge19" class="edge">
<title>src/hooks/form.spec.tsx&#45;&gt;node_modules/@testing&#45;library/react</title>
<path fill="none" stroke="#666666" stroke-opacity="0.458824" d="M113.22,-351.25C130.38,-369.8 150,-391 150,-391 150,-391 200.88,-828.22 221.15,-925.8"/>
<polygon fill="#666666" fill-opacity="0.458824" stroke="#666666" stroke-opacity="0.458824" points="227.05,-944.93 212.56,-928.46 224.1,-935.37 221.16,-925.81 221.16,-925.81 221.16,-925.81 224.1,-935.37 229.76,-923.16 227.05,-944.93 227.05,-944.93"/>
</g>
<!-- src/hooks/form.spec.tsx&#45;&gt;node_modules/vitest -->
<g id="edge20" class="edge">
<title>src/hooks/form.spec.tsx&#45;&gt;node_modules/vitest</title>
<path fill="none" stroke="#666666" stroke-opacity="0.458824" d="M113.22,-351.25C130.38,-369.8 150,-391 150,-391 150,-391 214,-876 214,-876 214,-876 241.6,-884.31 268.23,-892.32"/>
<polygon fill="#666666" fill-opacity="0.458824" stroke="#666666" stroke-opacity="0.458824" points="287.48,-898.12 265.74,-900.97 277.91,-895.23 268.33,-892.35 268.33,-892.35 268.33,-892.35 277.91,-895.23 270.93,-883.73 287.48,-898.12 287.48,-898.12"/>
</g>
<!-- src/hooks/form.spec.tsx&#45;&gt;node_modules/zod -->
<g id="edge21" class="edge">
<title>src/hooks/form.spec.tsx&#45;&gt;node_modules/zod</title>
<path fill="none" stroke="#666666" stroke-opacity="0.458824" d="M113.22,-351.25C130.38,-369.8 150,-391 150,-391 150,-391 214,-811 214,-811 214,-811 243.93,-820.01 271.53,-828.31"/>
<polygon fill="#666666" fill-opacity="0.458824" stroke="#666666" stroke-opacity="0.458824" points="290.74,-834.1 269,-836.95 281.17,-831.22 271.59,-828.33 271.59,-828.33 271.59,-828.33 281.17,-831.22 274.18,-819.71 290.74,-834.1 290.74,-834.1"/>
</g>
<!-- src/hooks/form.ts -->
<g id="node17" class="node">
<title>src/hooks/form.ts</title>
<g id="a_node17"><a xlink:href="src/hooks/form.ts" xlink:title="form.ts">
<path fill="#ddfeff" stroke="black" d="M343,-351C343,-351 293,-351 293,-351 287,-351 281,-345 281,-339 281,-339 281,-309 281,-309 281,-303 287,-297 293,-297 293,-297 343,-297 343,-297 349,-297 355,-303 355,-309 355,-309 355,-339 355,-339 355,-345 349,-351 343,-351"/>
<text text-anchor="start" x="289" y="-320.2" font-family="Helvetica,sans-Serif" font-size="16.00">form.ts</text>
</a>
</g>
</g>
<!-- src/hooks/form.spec.tsx&#45;&gt;src/hooks/form.ts -->
<g id="edge18" class="edge">
<title>src/hooks/form.spec.tsx&#45;&gt;src/hooks/form.ts</title>
<path fill="none" stroke="#666666" stroke-width="2" stroke-opacity="0.458824" d="M150.27,-324C184.77,-324 227.31,-324 260.79,-324"/>
<polygon fill="#666666" fill-opacity="0.458824" stroke="#666666" stroke-width="2" stroke-opacity="0.458824" points="280.81,-324 260.81,-333 270.81,-324.5 260.81,-324.5 260.81,-324 260.81,-323.5 270.81,-323.5 260.81,-315 280.81,-324 280.81,-324"/>
</g>
<!-- src/hooks/form.ts&#45;&gt;node_modules/@tanstack/react&#45;form -->
<g id="edge24" class="edge">
<title>src/hooks/form.ts&#45;&gt;node_modules/@tanstack/react&#45;form</title>
<path fill="none" stroke="#666666" stroke-opacity="0.458824" d="M343.22,-296.98C371.36,-265.57 414,-218 414,-218 414,-218 486,-6 486,-6 486,-6 1011,-6 1011,-6 1011,-6 1120.89,-618.43 1152.55,-794.93"/>
<polygon fill="#666666" fill-opacity="0.458824" stroke="#666666" stroke-opacity="0.458824" points="1156.09,-814.66 1143.7,-796.56 1154.33,-804.82 1152.56,-794.97 1152.56,-794.97 1152.56,-794.97 1154.33,-804.82 1161.42,-793.38 1156.09,-814.66 1156.09,-814.66"/>
</g>
<!-- src/hooks/form.ts&#45;&gt;src/contexts/form.ts -->
<g id="edge23" class="edge">
<title>src/hooks/form.ts&#45;&gt;src/contexts/form.ts</title>
<path fill="none" stroke="#666666" stroke-width="2" stroke-opacity="0.458824" d="M355.26,-332.55C431.82,-350.62 603,-391 603,-391 603,-391 852,-503 852,-503 852,-503 876.28,-519.43 901.15,-536.25"/>
<polygon fill="#666666" fill-opacity="0.458824" stroke="#666666" stroke-width="2" stroke-opacity="0.458824" points="917.75,-547.48 896.14,-543.73 909.19,-542.29 900.91,-536.69 901.19,-536.27 901.47,-535.86 909.75,-541.46 906.23,-528.82 917.75,-547.48 917.75,-547.48"/>
</g>
<!-- src/hooks/form.ts&#45;&gt;src/components/index.ts -->
<g id="edge22" class="edge">
<title>src/hooks/form.ts&#45;&gt;src/components/index.ts</title>
<path fill="none" stroke="#666666" stroke-width="2" stroke-opacity="0.458824" d="M347.43,-351.36C386.15,-388.6 455.76,-455.58 500.77,-498.89"/>
<polygon fill="#666666" fill-opacity="0.458824" stroke="#666666" stroke-width="2" stroke-opacity="0.458824" points="515.3,-512.87 494.65,-505.48 507.74,-506.29 500.54,-499.36 500.89,-499 501.23,-498.64 508.44,-505.57 507.13,-492.51 515.3,-512.87 515.3,-512.87"/>
</g>
<!-- src/hooks/index.ts -->
<g id="node18" class="node">
<title>src/hooks/index.ts</title>
<g id="a_node18"><a xlink:href="src/hooks/index.ts" xlink:title="index.ts">
<path fill="#ddfeff" stroke="black" d="M115.5,-286C115.5,-286 58.5,-286 58.5,-286 52.5,-286 46.5,-280 46.5,-274 46.5,-274 46.5,-244 46.5,-244 46.5,-238 52.5,-232 58.5,-232 58.5,-232 115.5,-232 115.5,-232 121.5,-232 127.5,-238 127.5,-244 127.5,-244 127.5,-274 127.5,-274 127.5,-280 121.5,-286 115.5,-286"/>
<text text-anchor="start" x="54.5" y="-255.2" font-family="Helvetica,sans-Serif" font-size="16.00">index.ts</text>
</a>
</g>
</g>
<!-- src/hooks/index.ts&#45;&gt;src/hooks/form.ts -->
<g id="edge25" class="edge">
<title>src/hooks/index.ts&#45;&gt;src/hooks/form.ts</title>
<path fill="none" stroke="#666666" stroke-width="2" stroke-opacity="0.458824" d="M127.63,-270.25C164.62,-280.75 220.17,-296.52 261.55,-308.26"/>
<polygon fill="#666666" fill-opacity="0.458824" stroke="#666666" stroke-width="2" stroke-opacity="0.458824" points="278.96,-320.48 261.63,-308.28 282.78,-307.01 278.96,-320.48"/>
</g>
<!-- src/validation/index.ts -->
<g id="node19" class="node">
<title>src/validation/index.ts</title>
<g id="a_node19"><a xlink:href="src/validation/index.ts" xlink:title="index.ts">
<path fill="#ddfeff" stroke="black" d="M115.5,-182C115.5,-182 58.5,-182 58.5,-182 52.5,-182 46.5,-176 46.5,-170 46.5,-170 46.5,-140 46.5,-140 46.5,-134 52.5,-128 58.5,-128 58.5,-128 115.5,-128 115.5,-128 121.5,-128 127.5,-134 127.5,-140 127.5,-140 127.5,-170 127.5,-170 127.5,-176 121.5,-182 115.5,-182"/>
<text text-anchor="start" x="54.5" y="-151.2" font-family="Helvetica,sans-Serif" font-size="16.00">index.ts</text>
</a>
</g>
</g>
<!-- src/validation/l10n.ts -->
<g id="node20" class="node">
<title>src/validation/l10n.ts</title>
<g id="a_node20"><a xlink:href="src/validation/l10n.ts" xlink:title="l10n.ts">
<path fill="#ddfeff" stroke="black" d="M342,-182C342,-182 294,-182 294,-182 288,-182 282,-176 282,-170 282,-170 282,-140 282,-140 282,-134 288,-128 294,-128 294,-128 342,-128 342,-128 348,-128 354,-134 354,-140 354,-140 354,-170 354,-170 354,-176 348,-182 342,-182"/>
<text text-anchor="start" x="290" y="-151.2" font-family="Helvetica,sans-Serif" font-size="16.00">l10n.ts</text>
</a>
</g>
</g>
<!-- src/validation/index.ts&#45;&gt;src/validation/l10n.ts -->
<g id="edge26" class="edge">
<title>src/validation/index.ts&#45;&gt;src/validation/l10n.ts</title>
<path fill="none" stroke="#666666" stroke-width="2" stroke-opacity="0.458824" d="M127.63,-155C164.69,-155 220.39,-155 261.8,-155"/>
<polygon fill="#666666" fill-opacity="0.458824" stroke="#666666" stroke-width="2" stroke-opacity="0.458824" points="281.98,-162 261.98,-155 281.98,-148 281.98,-162"/>
</g>
<!-- src/validation/l10n.ts&#45;&gt;@bitcart/core -->
<g id="edge27" class="edge">
<title>src/validation/l10n.ts&#45;&gt;@bitcart/core</title>
<path fill="none" stroke="#666666" stroke-width="2" stroke-opacity="0.458824" d="M354.08,-137.5C393.33,-117.92 456.97,-86.17 499.52,-64.94"/>
<polygon fill="#666666" fill-opacity="0.458824" stroke="#666666" stroke-width="2" stroke-opacity="0.458824" points="517.42,-56.01 503.54,-72.99 508.69,-60.92 499.74,-65.39 499.52,-64.94 499.3,-64.49 508.25,-60.03 495.5,-56.89 517.42,-56.01 517.42,-56.01"/>
</g>
<!-- src/validation/l10n.ts&#45;&gt;node_modules/@lingui/core -->
<g id="edge28" class="edge">
<title>src/validation/l10n.ts&#45;&gt;node_modules/@lingui/core</title>
<path fill="none" stroke="#666666" stroke-opacity="0.458824" d="M354.1,-179.76C381.17,-198.84 414,-222 414,-222 414,-222 486,-767 486,-767 486,-767 497.64,-782.18 510.45,-798.89"/>
<polygon fill="#666666" fill-opacity="0.458824" stroke="#666666" stroke-opacity="0.458824" points="522.74,-814.92 503.43,-804.53 516.66,-806.99 510.57,-799.05 510.57,-799.05 510.57,-799.05 516.66,-806.99 517.71,-793.58 522.74,-814.92 522.74,-814.92"/>
</g>
</g>
</svg>
