<?xml version="1.0" encoding="UTF-8" standalone="no"?>
<!DOCTYPE svg PUBLIC "-//W3C//DTD SVG 1.1//EN"
 "http://www.w3.org/Graphics/SVG/1.1/DTD/svg11.dtd">
<!-- Generated by graphviz version 2.43.0 (0)
 -->
<!-- Title: dependency&#45;cruiser output Pages: 1 -->
<svg width="1081pt" height="750pt"
 viewBox="0.00 0.00 1081.00 750.00" xmlns="http://www.w3.org/2000/svg" xmlns:xlink="http://www.w3.org/1999/xlink">
<g id="graph0" class="graph" transform="scale(1 1) rotate(0) translate(4 746)">
<title>dependency&#45;cruiser output</title>
<polygon fill="white" stroke="transparent" points="-4,4 -4,-746 1077,-746 1077,4 -4,4"/>
<g id="clust1" class="cluster">
<title>cluster_@bitcart</title>
<path fill="#ffffff" stroke="black" stroke-width="2" d="M721.5,-112C721.5,-112 789.5,-112 789.5,-112 795.5,-112 801.5,-118 801.5,-124 801.5,-124 801.5,-196 801.5,-196 801.5,-202 795.5,-208 789.5,-208 789.5,-208 721.5,-208 721.5,-208 715.5,-208 709.5,-202 709.5,-196 709.5,-196 709.5,-124 709.5,-124 709.5,-118 715.5,-112 721.5,-112"/>
<text text-anchor="middle" x="755.5" y="-191.2" font-family="Helvetica,sans-Serif" font-weight="bold" font-size="16.00">@bitcart</text>
</g>
<g id="clust2" class="cluster">
<title>cluster_node_modules</title>
<path fill="#ffffff" stroke="black" stroke-width="2" d="M730.5,-8C730.5,-8 1053,-8 1053,-8 1059,-8 1065,-14 1065,-20 1065,-20 1065,-92 1065,-92 1065,-98 1059,-104 1053,-104 1053,-104 730.5,-104 730.5,-104 724.5,-104 718.5,-98 718.5,-92 718.5,-92 718.5,-20 718.5,-20 718.5,-14 724.5,-8 730.5,-8"/>
<text text-anchor="middle" x="891.75" y="-87.2" font-family="Helvetica,sans-Serif" font-weight="bold" font-size="16.00">node_modules</text>
</g>
<g id="clust3" class="cluster">
<title>cluster_src</title>
<path fill="#ffffff" stroke="black" stroke-width="2" d="M20,-216C20,-216 799,-216 799,-216 805,-216 811,-222 811,-228 811,-228 811,-722 811,-722 811,-728 805,-734 799,-734 799,-734 20,-734 20,-734 14,-734 8,-728 8,-722 8,-722 8,-228 8,-228 8,-222 14,-216 20,-216"/>
<text text-anchor="middle" x="409.5" y="-717.2" font-family="Helvetica,sans-Serif" font-weight="bold" font-size="16.00">src</text>
</g>
<g id="clust4" class="cluster">
<title>cluster_src/components</title>
<path fill="#ffffff" stroke="black" stroke-width="2" d="M28.5,-328C28.5,-328 641,-328 641,-328 647,-328 653,-334 653,-340 653,-340 653,-688 653,-688 653,-694 647,-700 641,-700 641,-700 28.5,-700 28.5,-700 22.5,-700 16.5,-694 16.5,-688 16.5,-688 16.5,-340 16.5,-340 16.5,-334 22.5,-328 28.5,-328"/>
<text text-anchor="middle" x="334.75" y="-683.2" font-family="Helvetica,sans-Serif" font-weight="bold" font-size="16.00">components</text>
</g>
<g id="clust5" class="cluster">
<title>cluster_src/components/controls</title>
<path fill="#ffffff" stroke="black" stroke-width="2" d="M480,-336C480,-336 633,-336 633,-336 639,-336 645,-342 645,-348 645,-348 645,-420 645,-420 645,-426 639,-432 633,-432 633,-432 480,-432 480,-432 474,-432 468,-426 468,-420 468,-420 468,-348 468,-348 468,-342 474,-336 480,-336"/>
<text text-anchor="middle" x="556.5" y="-415.2" font-family="Helvetica,sans-Serif" font-weight="bold" font-size="16.00">controls</text>
</g>
<g id="clust6" class="cluster">
<title>cluster_src/components/fields</title>
<path fill="#ffffff" stroke="black" stroke-width="2" d="M504,-440C504,-440 609,-440 609,-440 615,-440 621,-446 621,-452 621,-452 621,-654 621,-654 621,-660 615,-666 609,-666 609,-666 504,-666 504,-666 498,-666 492,-660 492,-654 492,-654 492,-452 492,-452 492,-446 498,-440 504,-440"/>
<text text-anchor="middle" x="556.5" y="-649.2" font-family="Helvetica,sans-Serif" font-weight="bold" font-size="16.00">fields</text>
</g>
<g id="clust7" class="cluster">
<title>cluster_src/contexts</title>
<path fill="#ffffff" stroke="black" stroke-width="2" d="M720,-388C720,-388 791,-388 791,-388 797,-388 803,-394 803,-400 803,-400 803,-472 803,-472 803,-478 797,-484 791,-484 791,-484 720,-484 720,-484 714,-484 708,-478 708,-472 708,-472 708,-400 708,-400 708,-394 714,-388 720,-388"/>
<text text-anchor="middle" x="755.5" y="-467.2" font-family="Helvetica,sans-Serif" font-weight="bold" font-size="16.00">contexts</text>
</g>
<g id="clust8" class="cluster">
<title>cluster_src/hooks</title>
<path fill="#ffffff" stroke="black" stroke-width="2" d="M28,-224C28,-224 247,-224 247,-224 253,-224 259,-230 259,-236 259,-236 259,-308 259,-308 259,-314 253,-320 247,-320 247,-320 28,-320 28,-320 22,-320 16,-314 16,-308 16,-308 16,-236 16,-236 16,-230 22,-224 28,-224"/>
<text text-anchor="middle" x="137.5" y="-303.2" font-family="Helvetica,sans-Serif" font-weight="bold" font-size="16.00">hooks</text>
</g>
<!-- @bitcart/ui&#45;kit -->
<g id="node1" class="node">
<title>@bitcart/ui&#45;kit</title>
<g id="a_node1"><a xlink:title="ui&#45;kit">
<polygon fill="#ffffcc" stroke="black" points="783.5,-174 730.5,-174 726.5,-170 726.5,-120 779.5,-120 783.5,-124 783.5,-174"/>
<polyline fill="none" stroke="black" points="779.5,-170 726.5,-170 "/>
<polyline fill="none" stroke="black" points="779.5,-170 779.5,-120 "/>
<polyline fill="none" stroke="black" points="779.5,-170 783.5,-174 "/>
<text text-anchor="start" x="734.5" y="-143.2" font-family="Helvetica,sans-Serif" font-size="16.00">ui&#45;kit</text>
</a>
</g>
</g>
<!-- node_modules/@tanstack/react&#45;form -->
<g id="node2" class="node">
<title>node_modules/@tanstack/react&#45;form</title>
<g id="a_node2"><a xlink:href="https://www.npmjs.com/package/@tanstack/react-form" xlink:title="@tanstack+react&#45;form@1.33.3_@tanstack+react&#45;start@1.168.42_crossws@0.4.10_srvx@0.11.22__b30042d9b8c26490d1d4a45bed07c443">
<polygon fill="#f9e6e6" stroke="black" points="1057,-70 871,-70 867,-66 867,-16 1053,-16 1057,-20 1057,-70"/>
<polyline fill="none" stroke="black" points="1053,-66 867,-66 "/>
<polyline fill="none" stroke="black" points="1053,-66 1053,-16 "/>
<polyline fill="none" stroke="black" points="1053,-66 1057,-70 "/>
<text text-anchor="start" x="875" y="-39.2" font-family="Helvetica,sans-Serif" font-size="16.00" fill="#c40b0a">@tanstack/react&#45;form</text>
</a>
</g>
</g>
<!-- node_modules/react -->
<g id="node3" class="node">
<title>node_modules/react</title>
<g id="a_node3"><a xlink:href="https://www.npmjs.com/package/react" xlink:title="react@19.2.8">
<polygon fill="#f9e6e6" stroke="black" points="783.5,-70 730.5,-70 726.5,-66 726.5,-16 779.5,-16 783.5,-20 783.5,-70"/>
<polyline fill="none" stroke="black" points="779.5,-66 726.5,-66 "/>
<polyline fill="none" stroke="black" points="779.5,-66 779.5,-16 "/>
<polyline fill="none" stroke="black" points="779.5,-66 783.5,-70 "/>
<text text-anchor="start" x="734.5" y="-39.2" font-family="Helvetica,sans-Serif" font-size="16.00" fill="#c40b0a">react</text>
</a>
</g>
</g>
<!-- src/components/controls/submit&#45;button.tsx -->
<g id="node4" class="node">
<title>src/components/controls/submit&#45;button.tsx</title>
<g id="a_node4"><a xlink:href="src/components/controls/submit-button.tsx" xlink:title="submit&#45;button.tsx">
<path fill="#bbfeff" stroke="black" d="M625,-398C625,-398 488,-398 488,-398 482,-398 476,-392 476,-386 476,-386 476,-356 476,-356 476,-350 482,-344 488,-344 488,-344 625,-344 625,-344 631,-344 637,-350 637,-356 637,-356 637,-386 637,-386 637,-392 631,-398 625,-398"/>
<text text-anchor="start" x="484" y="-367.2" font-family="Helvetica,sans-Serif" font-size="16.00">submit&#45;button.tsx</text>
</a>
</g>
</g>
<!-- src/components/controls/submit&#45;button.tsx&#45;&gt;@bitcart/ui&#45;kit -->
<g id="edge2" class="edge">
<title>src/components/controls/submit&#45;button.tsx&#45;&gt;@bitcart/ui&#45;kit</title>
<path fill="none" stroke="#666666" stroke-width="2" stroke-opacity="0.458824" d="M637.24,-361.33C692.19,-361.33 755,-361.33 755,-361.33 755,-361.33 755,-194.15 755,-194.15"/>
<polygon fill="#666666" fill-opacity="0.458824" stroke="#666666" stroke-width="2" stroke-opacity="0.458824" points="755,-174.15 764,-194.15 755.5,-184.15 755.5,-194.15 755,-194.15 754.5,-194.15 754.5,-184.15 746,-194.15 755,-174.15 755,-174.15"/>
</g>
<!-- src/components/controls/submit&#45;button.tsx&#45;&gt;node_modules/react -->
<g id="edge3" class="edge">
<title>src/components/controls/submit&#45;button.tsx&#45;&gt;node_modules/react</title>
<path fill="none" stroke="#666666" stroke-opacity="0.458824" d="M557,-343.99C557,-262.85 557,-26.8 557,-26.8 557,-26.8 706.21,-26.8 706.21,-26.8"/>
<polygon fill="#666666" fill-opacity="0.458824" stroke="#666666" stroke-opacity="0.458824" points="726.21,-26.8 706.21,-35.8 716.21,-26.8 706.21,-26.8 706.21,-26.8 706.21,-26.8 716.21,-26.8 706.21,-17.8 726.21,-26.8 726.21,-26.8"/>
</g>
<!-- src/contexts/form.ts -->
<g id="node5" class="node">
<title>src/contexts/form.ts</title>
<g id="a_node5"><a xlink:href="src/contexts/form.ts" xlink:title="form.ts">
<path fill="#ddfeff" stroke="black" d="M780,-450C780,-450 730,-450 730,-450 724,-450 718,-444 718,-438 718,-438 718,-408 718,-408 718,-402 724,-396 730,-396 730,-396 780,-396 780,-396 786,-396 792,-402 792,-408 792,-408 792,-438 792,-438 792,-444 786,-450 780,-450"/>
<text text-anchor="start" x="726" y="-419.2" font-family="Helvetica,sans-Serif" font-size="16.00">form.ts</text>
</a>
</g>
</g>
<!-- src/components/controls/submit&#45;button.tsx&#45;&gt;src/contexts/form.ts -->
<g id="edge1" class="edge">
<title>src/components/controls/submit&#45;button.tsx&#45;&gt;src/contexts/form.ts</title>
<path fill="none" stroke="#666666" stroke-width="2" stroke-opacity="0.458824" d="M637.31,-378.67C680.14,-378.67 724,-378.67 724,-378.67 724,-378.67 724,-380.39 724,-380.39"/>
<polygon fill="#666666" fill-opacity="0.458824" stroke="#666666" stroke-width="2" stroke-opacity="0.458824" points="724,-395.93 715,-375.93 723.5,-385.93 723.5,-375.93 724,-375.93 724.5,-375.93 724.5,-385.93 733,-375.93 724,-395.93 724,-395.93"/>
</g>
<!-- src/contexts/form.ts&#45;&gt;node_modules/@tanstack/react&#45;form -->
<g id="edge17" class="edge">
<title>src/contexts/form.ts&#45;&gt;node_modules/@tanstack/react&#45;form</title>
<path fill="none" stroke="#666666" stroke-opacity="0.458824" d="M788,-395.98C788,-309.16 788,-43 788,-43 788,-43 846.85,-43 846.85,-43"/>
<polygon fill="#666666" fill-opacity="0.458824" stroke="#666666" stroke-opacity="0.458824" points="866.85,-43 846.85,-52 856.85,-43 846.85,-43 846.85,-43 846.85,-43 856.85,-43 846.85,-34 866.85,-43 866.85,-43"/>
</g>
<!-- src/components/fields/select.tsx -->
<g id="node6" class="node">
<title>src/components/fields/select.tsx</title>
<g id="a_node6"><a xlink:href="src/components/fields/select.tsx" xlink:title="select.tsx">
<path fill="#bbfeff" stroke="black" d="M591,-567C591,-567 522,-567 522,-567 516,-567 510,-561 510,-555 510,-555 510,-525 510,-525 510,-519 516,-513 522,-513 522,-513 591,-513 591,-513 597,-513 603,-519 603,-525 603,-525 603,-555 603,-555 603,-561 597,-567 591,-567"/>
<text text-anchor="start" x="518" y="-536.2" font-family="Helvetica,sans-Serif" font-size="16.00">select.tsx</text>
</a>
</g>
</g>
<!-- src/components/fields/select.tsx&#45;&gt;@bitcart/ui&#45;kit -->
<g id="edge5" class="edge">
<title>src/components/fields/select.tsx&#45;&gt;@bitcart/ui&#45;kit</title>
<path fill="none" stroke="#666666" stroke-width="2" stroke-opacity="0.458824" d="M603,-549C643.24,-549 695,-549 695,-549 695,-549 695,-147 695,-147 695,-147 706.41,-147 706.41,-147"/>
<polygon fill="#666666" fill-opacity="0.458824" stroke="#666666" stroke-width="2" stroke-opacity="0.458824" points="726.41,-147 706.41,-156 716.41,-147.5 706.41,-147.5 706.41,-147 706.41,-146.5 716.41,-146.5 706.41,-138 726.41,-147 726.41,-147"/>
</g>
<!-- src/components/fields/select.tsx&#45;&gt;node_modules/react -->
<g id="edge6" class="edge">
<title>src/components/fields/select.tsx&#45;&gt;node_modules/react</title>
<path fill="none" stroke="#666666" stroke-opacity="0.458824" d="M603.25,-531C631.07,-531 661,-531 661,-531 661,-531 661,-48.4 661,-48.4 661,-48.4 706.29,-48.4 706.29,-48.4"/>
<polygon fill="#666666" fill-opacity="0.458824" stroke="#666666" stroke-opacity="0.458824" points="726.29,-48.4 706.29,-57.4 716.29,-48.4 706.29,-48.4 706.29,-48.4 706.29,-48.4 716.29,-48.4 706.29,-39.4 726.29,-48.4 726.29,-48.4"/>
</g>
<!-- src/components/fields/select.tsx&#45;&gt;src/contexts/form.ts -->
<g id="edge4" class="edge">
<title>src/components/fields/select.tsx&#45;&gt;src/contexts/form.ts</title>
<path fill="none" stroke="#666666" stroke-width="2" stroke-opacity="0.458824" d="M599,-512.86C599,-478.3 599,-423 599,-423 599,-423 697.63,-423 697.63,-423"/>
<polygon fill="#666666" fill-opacity="0.458824" stroke="#666666" stroke-width="2" stroke-opacity="0.458824" points="717.63,-423 697.63,-432 707.63,-423.5 697.63,-423.5 697.63,-423 697.63,-422.5 707.63,-422.5 697.63,-414 717.63,-423 717.63,-423"/>
</g>
<!-- src/components/fields/text.tsx -->
<g id="node7" class="node">
<title>src/components/fields/text.tsx</title>
<g id="a_node7"><a xlink:href="src/components/fields/text.tsx" xlink:title="text.tsx">
<path fill="#bbfeff" stroke="black" d="M583,-502C583,-502 530,-502 530,-502 524,-502 518,-496 518,-490 518,-490 518,-460 518,-460 518,-454 524,-448 530,-448 530,-448 583,-448 583,-448 589,-448 595,-454 595,-460 595,-460 595,-490 595,-490 595,-496 589,-502 583,-502"/>
<text text-anchor="start" x="526" y="-471.2" font-family="Helvetica,sans-Serif" font-size="16.00">text.tsx</text>
</a>
</g>
</g>
<!-- src/components/fields/text.tsx&#45;&gt;@bitcart/ui&#45;kit -->
<g id="edge8" class="edge">
<title>src/components/fields/text.tsx&#45;&gt;@bitcart/ui&#45;kit</title>
<path fill="none" stroke="#666666" stroke-width="2" stroke-opacity="0.458824" d="M595.1,-484.67C632.63,-484.67 684,-484.67 684,-484.67 684,-484.67 684,-133.5 684,-133.5 684,-133.5 706.12,-133.5 706.12,-133.5"/>
<polygon fill="#666666" fill-opacity="0.458824" stroke="#666666" stroke-width="2" stroke-opacity="0.458824" points="726.12,-133.5 706.12,-142.5 716.12,-134 706.12,-134 706.12,-133.5 706.12,-133 716.12,-133 706.12,-124.5 726.12,-133.5 726.12,-133.5"/>
</g>
<!-- src/components/fields/text.tsx&#45;&gt;node_modules/react -->
<g id="edge9" class="edge">
<title>src/components/fields/text.tsx&#45;&gt;node_modules/react</title>
<path fill="none" stroke="#666666" stroke-opacity="0.458824" d="M595.19,-467.33C620.54,-467.33 649,-467.33 649,-467.33 649,-467.33 649,-37.6 649,-37.6 649,-37.6 706.31,-37.6 706.31,-37.6"/>
<polygon fill="#666666" fill-opacity="0.458824" stroke="#666666" stroke-opacity="0.458824" points="726.31,-37.6 706.31,-46.6 716.31,-37.6 706.31,-37.6 706.31,-37.6 706.31,-37.6 716.31,-37.6 706.31,-28.6 726.31,-37.6 726.31,-37.6"/>
</g>
<!-- src/components/fields/text.tsx&#45;&gt;src/contexts/form.ts -->
<g id="edge7" class="edge">
<title>src/components/fields/text.tsx&#45;&gt;src/contexts/form.ts</title>
<path fill="none" stroke="#666666" stroke-width="2" stroke-opacity="0.458824" d="M557,-447.65C557,-430.07 557,-410.5 557,-410.5 557,-410.5 697.76,-410.5 697.76,-410.5"/>
<polygon fill="#666666" fill-opacity="0.458824" stroke="#666666" stroke-width="2" stroke-opacity="0.458824" points="717.76,-410.5 697.76,-419.5 707.76,-411 697.76,-411 697.76,-410.5 697.76,-410 707.76,-410 697.76,-401.5 717.76,-410.5 717.76,-410.5"/>
</g>
<!-- src/components/fields/textarea.tsx -->
<g id="node8" class="node">
<title>src/components/fields/textarea.tsx</title>
<g id="a_node8"><a xlink:href="src/components/fields/textarea.tsx" xlink:title="textarea.tsx">
<path fill="#bbfeff" stroke="black" d="M601,-632C601,-632 512,-632 512,-632 506,-632 500,-626 500,-620 500,-620 500,-590 500,-590 500,-584 506,-578 512,-578 512,-578 601,-578 601,-578 607,-578 613,-584 613,-590 613,-590 613,-620 613,-620 613,-626 607,-632 601,-632"/>
<text text-anchor="start" x="508" y="-601.2" font-family="Helvetica,sans-Serif" font-size="16.00">textarea.tsx</text>
</a>
</g>
</g>
<!-- src/components/fields/textarea.tsx&#45;&gt;@bitcart/ui&#45;kit -->
<g id="edge11" class="edge">
<title>src/components/fields/textarea.tsx&#45;&gt;@bitcart/ui&#45;kit</title>
<path fill="none" stroke="#666666" stroke-width="2" stroke-opacity="0.458824" d="M613.4,-614C656.02,-614 707,-614 707,-614 707,-614 707,-160.5 707,-160.5 707,-160.5 708.92,-160.5 708.92,-160.5"/>
<polygon fill="#666666" fill-opacity="0.458824" stroke="#666666" stroke-width="2" stroke-opacity="0.458824" points="726.25,-160.5 706.25,-169.5 716.25,-161 706.25,-161 706.25,-160.5 706.25,-160 716.25,-160 706.25,-151.5 726.25,-160.5 726.25,-160.5"/>
</g>
<!-- src/components/fields/textarea.tsx&#45;&gt;node_modules/react -->
<g id="edge12" class="edge">
<title>src/components/fields/textarea.tsx&#45;&gt;node_modules/react</title>
<path fill="none" stroke="#666666" stroke-opacity="0.458824" d="M613.23,-596C642.44,-596 672,-596 672,-596 672,-596 672,-59.2 672,-59.2 672,-59.2 706.44,-59.2 706.44,-59.2"/>
<polygon fill="#666666" fill-opacity="0.458824" stroke="#666666" stroke-opacity="0.458824" points="726.44,-59.2 706.44,-68.2 716.44,-59.2 706.44,-59.2 706.44,-59.2 706.44,-59.2 716.44,-59.2 706.44,-50.2 726.44,-59.2 726.44,-59.2"/>
</g>
<!-- src/components/fields/textarea.tsx&#45;&gt;src/contexts/form.ts -->
<g id="edge10" class="edge">
<title>src/components/fields/textarea.tsx&#45;&gt;src/contexts/form.ts</title>
<path fill="none" stroke="#666666" stroke-width="2" stroke-opacity="0.458824" d="M608,-577.77C608,-529.85 608,-435.5 608,-435.5 608,-435.5 697.91,-435.5 697.91,-435.5"/>
<polygon fill="#666666" fill-opacity="0.458824" stroke="#666666" stroke-width="2" stroke-opacity="0.458824" points="717.91,-435.5 697.91,-444.5 707.91,-436 697.91,-436 697.91,-435.5 697.91,-435 707.91,-435 697.91,-426.5 717.91,-435.5 717.91,-435.5"/>
</g>
<!-- src/components/index.ts -->
<g id="node9" class="node">
<title>src/components/index.ts</title>
<g id="a_node9"><a xlink:href="src/components/index.ts" xlink:title="index.ts">
<path fill="#ddfeff" stroke="black" d="M392,-502C392,-502 335,-502 335,-502 329,-502 323,-496 323,-490 323,-490 323,-460 323,-460 323,-454 329,-448 335,-448 335,-448 392,-448 392,-448 398,-448 404,-454 404,-460 404,-460 404,-490 404,-490 404,-496 398,-502 392,-502"/>
<text text-anchor="start" x="331" y="-471.2" font-family="Helvetica,sans-Serif" font-size="16.00">index.ts</text>
</a>
</g>
</g>
<!-- src/components/index.ts&#45;&gt;src/components/controls/submit&#45;button.tsx -->
<g id="edge13" class="edge">
<title>src/components/index.ts&#45;&gt;src/components/controls/submit&#45;button.tsx</title>
<path fill="none" stroke="#666666" stroke-width="2" stroke-opacity="0.458824" d="M404.27,-458.8C440.58,-458.8 488,-458.8 488,-458.8 488,-458.8 488,-418.3 488,-418.3"/>
<polygon fill="#666666" fill-opacity="0.458824" stroke="#666666" stroke-width="2" stroke-opacity="0.458824" points="495,-398.3 488,-418.3 481,-398.3 495,-398.3"/>
</g>
<!-- src/components/index.ts&#45;&gt;src/components/fields/select.tsx -->
<g id="edge14" class="edge">
<title>src/components/index.ts&#45;&gt;src/components/fields/select.tsx</title>
<path fill="none" stroke="#666666" stroke-width="2" stroke-opacity="0.458824" d="M404.23,-480.4C448.8,-480.4 514,-480.4 514,-480.4 514,-480.4 514,-492.99 514,-492.99"/>
<polygon fill="#666666" fill-opacity="0.458824" stroke="#666666" stroke-width="2" stroke-opacity="0.458824" points="507,-512.99 514,-492.99 521,-512.99 507,-512.99"/>
</g>
<!-- src/components/index.ts&#45;&gt;src/components/fields/text.tsx -->
<g id="edge15" class="edge">
<title>src/components/index.ts&#45;&gt;src/components/fields/text.tsx</title>
<path fill="none" stroke="#666666" stroke-width="2" stroke-opacity="0.458824" d="M404.43,-469.6C404.43,-469.6 497.93,-469.6 497.93,-469.6"/>
<polygon fill="#666666" fill-opacity="0.458824" stroke="#666666" stroke-width="2" stroke-opacity="0.458824" points="517.93,-476.6 497.93,-469.6 517.93,-462.6 517.93,-476.6"/>
</g>
<!-- src/components/index.ts&#45;&gt;src/components/fields/textarea.tsx -->
<g id="edge16" class="edge">
<title>src/components/index.ts&#45;&gt;src/components/fields/textarea.tsx</title>
<path fill="none" stroke="#666666" stroke-width="2" stroke-opacity="0.458824" d="M404.05,-491.2C445.86,-491.2 505,-491.2 505,-491.2 505,-491.2 505,-557.74 505,-557.74"/>
<polygon fill="#666666" fill-opacity="0.458824" stroke="#666666" stroke-width="2" stroke-opacity="0.458824" points="498,-577.74 505,-557.74 512,-577.74 498,-577.74"/>
</g>
<!-- src/components/types.ts -->
<g id="node10" class="node">
<title>src/components/types.ts</title>
<g id="a_node10"><a xlink:href="src/components/types.ts" xlink:title="types.ts">
<path fill="#ccffcc" stroke="black" d="M92.5,-528C92.5,-528 36.5,-528 36.5,-528 30.5,-528 24.5,-522 24.5,-516 24.5,-516 24.5,-486 24.5,-486 24.5,-480 30.5,-474 36.5,-474 36.5,-474 92.5,-474 92.5,-474 98.5,-474 104.5,-480 104.5,-486 104.5,-486 104.5,-516 104.5,-516 104.5,-522 98.5,-528 92.5,-528"/>
<text text-anchor="start" x="32.5" y="-497.2" font-family="Helvetica,sans-Serif" font-size="16.00">types.ts</text>
</a>
</g>
</g>
<!-- src/hooks/form.ts -->
<g id="node11" class="node">
<title>src/hooks/form.ts</title>
<g id="a_node11"><a xlink:href="src/hooks/form.ts" xlink:title="form.ts">
<path fill="#ddfeff" stroke="black" d="M239,-286C239,-286 189,-286 189,-286 183,-286 177,-280 177,-274 177,-274 177,-244 177,-244 177,-238 183,-232 189,-232 189,-232 239,-232 239,-232 245,-232 251,-238 251,-244 251,-244 251,-274 251,-274 251,-280 245,-286 239,-286"/>
<text text-anchor="start" x="185" y="-255.2" font-family="Helvetica,sans-Serif" font-size="16.00">form.ts</text>
</a>
</g>
</g>
<!-- src/hooks/form.ts&#45;&gt;node_modules/@tanstack/react&#45;form -->
<g id="edge20" class="edge">
<title>src/hooks/form.ts&#45;&gt;node_modules/@tanstack/react&#45;form</title>
<path fill="none" stroke="#666666" stroke-opacity="0.458824" d="M251.09,-250C402.02,-250 962,-250 962,-250 962,-250 962,-90.06 962,-90.06"/>
<polygon fill="#666666" fill-opacity="0.458824" stroke="#666666" stroke-opacity="0.458824" points="962,-70.06 971,-90.06 962,-80.06 962,-90.06 962,-90.06 962,-90.06 962,-80.06 953,-90.06 962,-70.06 962,-70.06"/>
</g>
<!-- src/hooks/form.ts&#45;&gt;src/contexts/form.ts -->
<g id="edge19" class="edge">
<title>src/hooks/form.ts&#45;&gt;src/contexts/form.ts</title>
<path fill="none" stroke="#666666" stroke-width="2" stroke-opacity="0.458824" d="M251.28,-268C368.37,-268 721,-268 721,-268 721,-268 721,-375.65 721,-375.65"/>
<polygon fill="#666666" fill-opacity="0.458824" stroke="#666666" stroke-width="2" stroke-opacity="0.458824" points="721,-395.65 712,-375.65 720.5,-385.65 720.5,-375.65 721,-375.65 721.5,-375.65 721.5,-385.65 730,-375.65 721,-395.65 721,-395.65"/>
</g>
<!-- src/hooks/form.ts&#45;&gt;src/components/index.ts -->
<g id="edge18" class="edge">
<title>src/hooks/form.ts&#45;&gt;src/components/index.ts</title>
<path fill="none" stroke="#666666" stroke-width="2" stroke-opacity="0.458824" d="M214,-286.24C214,-341.38 214,-461 214,-461 214,-461 302.65,-461 302.65,-461"/>
<polygon fill="#666666" fill-opacity="0.458824" stroke="#666666" stroke-width="2" stroke-opacity="0.458824" points="322.65,-461 302.65,-470 312.65,-461.5 302.65,-461.5 302.65,-461 302.65,-460.5 312.65,-460.5 302.65,-452 322.65,-461 322.65,-461"/>
</g>
<!-- src/hooks/index.ts -->
<g id="node12" class="node">
<title>src/hooks/index.ts</title>
<g id="a_node12"><a xlink:href="src/hooks/index.ts" xlink:title="index.ts">
<path fill="#ddfeff" stroke="black" d="M93,-286C93,-286 36,-286 36,-286 30,-286 24,-280 24,-274 24,-274 24,-244 24,-244 24,-238 30,-232 36,-232 36,-232 93,-232 93,-232 99,-232 105,-238 105,-244 105,-244 105,-274 105,-274 105,-280 99,-286 93,-286"/>
<text text-anchor="start" x="32" y="-255.2" font-family="Helvetica,sans-Serif" font-size="16.00">index.ts</text>
</a>
</g>
</g>
<!-- src/hooks/index.ts&#45;&gt;src/hooks/form.ts -->
<g id="edge21" class="edge">
<title>src/hooks/index.ts&#45;&gt;src/hooks/form.ts</title>
<path fill="none" stroke="#666666" stroke-width="2" stroke-opacity="0.458824" d="M105.35,-259C105.35,-259 156.78,-259 156.78,-259"/>
<polygon fill="#666666" fill-opacity="0.458824" stroke="#666666" stroke-width="2" stroke-opacity="0.458824" points="176.78,-266 156.78,-259 176.78,-252 176.78,-266"/>
</g>
</g>
</svg>
