<?xml version="1.0" encoding="UTF-8" standalone="no"?>
<!DOCTYPE svg PUBLIC "-//W3C//DTD SVG 1.1//EN"
 "http://www.w3.org/Graphics/SVG/1.1/DTD/svg11.dtd">
<!-- Generated by graphviz version 2.43.0 (0)
 -->
<!-- Title: dependency&#45;cruiser output Pages: 1 -->
<svg width="825pt" height="470pt"
 viewBox="0.00 0.00 825.00 470.00" xmlns="http://www.w3.org/2000/svg" xmlns:xlink="http://www.w3.org/1999/xlink">
<g id="graph0" class="graph" transform="scale(1 1) rotate(0) translate(4 466)">
<title>dependency&#45;cruiser output</title>
<polygon fill="white" stroke="transparent" points="-4,4 -4,-466 821,-466 821,4 -4,4"/>
<g id="clust1" class="cluster">
<title>cluster_src</title>
<path fill="#ffffff" stroke="black" stroke-width="2" d="M20,-8C20,-8 800,-8 800,-8 806,-8 812,-14 812,-20 812,-20 812,-442 812,-442 812,-448 806,-454 800,-454 800,-454 20,-454 20,-454 14,-454 8,-448 8,-442 8,-442 8,-20 8,-20 8,-14 14,-8 20,-8"/>
<text text-anchor="middle" x="410" y="-437.2" font-family="Helvetica,sans-Serif" font-weight="bold" font-size="16.00">src</text>
</g>
<g id="clust2" class="cluster">
<title>cluster_src/components</title>
<path fill="#ffffff" stroke="black" stroke-width="2" d="M327,-26C327,-26 641,-26 641,-26 647,-26 653,-32 653,-38 653,-38 653,-408 653,-408 653,-414 647,-420 641,-420 641,-420 327,-420 327,-420 321,-420 315,-414 315,-408 315,-408 315,-38 315,-38 315,-32 321,-26 327,-26"/>
<text text-anchor="middle" x="484" y="-403.2" font-family="Helvetica,sans-Serif" font-weight="bold" font-size="16.00">components</text>
</g>
<g id="clust3" class="cluster">
<title>cluster_src/components/controls</title>
<path fill="#ffffff" stroke="black" stroke-width="2" d="M480,-34C480,-34 633,-34 633,-34 639,-34 645,-40 645,-46 645,-46 645,-118 645,-118 645,-124 639,-130 633,-130 633,-130 480,-130 480,-130 474,-130 468,-124 468,-118 468,-118 468,-46 468,-46 468,-40 474,-34 480,-34"/>
<text text-anchor="middle" x="556.5" y="-113.2" font-family="Helvetica,sans-Serif" font-weight="bold" font-size="16.00">controls</text>
</g>
<g id="clust4" class="cluster">
<title>cluster_src/components/fields</title>
<path fill="#ffffff" stroke="black" stroke-width="2" d="M504,-138C504,-138 609,-138 609,-138 615,-138 621,-144 621,-150 621,-150 621,-374 621,-374 621,-380 615,-386 609,-386 609,-386 504,-386 504,-386 498,-386 492,-380 492,-374 492,-374 492,-150 492,-150 492,-144 498,-138 504,-138"/>
<text text-anchor="middle" x="556.5" y="-369.2" font-family="Helvetica,sans-Serif" font-weight="bold" font-size="16.00">fields</text>
</g>
<g id="clust5" class="cluster">
<title>cluster_src/contexts</title>
<path fill="#ffffff" stroke="black" stroke-width="2" d="M721,-138C721,-138 792,-138 792,-138 798,-138 804,-144 804,-150 804,-150 804,-222 804,-222 804,-228 798,-234 792,-234 792,-234 721,-234 721,-234 715,-234 709,-228 709,-222 709,-222 709,-150 709,-150 709,-144 715,-138 721,-138"/>
<text text-anchor="middle" x="756.5" y="-217.2" font-family="Helvetica,sans-Serif" font-weight="bold" font-size="16.00">contexts</text>
</g>
<g id="clust6" class="cluster">
<title>cluster_src/hooks</title>
<path fill="#ffffff" stroke="black" stroke-width="2" d="M28,-77C28,-77 247,-77 247,-77 253,-77 259,-83 259,-89 259,-89 259,-161 259,-161 259,-167 253,-173 247,-173 247,-173 28,-173 28,-173 22,-173 16,-167 16,-161 16,-161 16,-89 16,-89 16,-83 22,-77 28,-77"/>
<text text-anchor="middle" x="137.5" y="-156.2" font-family="Helvetica,sans-Serif" font-weight="bold" font-size="16.00">hooks</text>
</g>
<!-- src/components/controls/submit&#45;button.tsx -->
<g id="node1" class="node">
<title>src/components/controls/submit&#45;button.tsx</title>
<g id="a_node1"><a xlink:href="src/components/controls/submit-button.tsx" xlink:title="submit&#45;button.tsx">
<path fill="#bbfeff" stroke="black" d="M625,-96C625,-96 488,-96 488,-96 482,-96 476,-90 476,-84 476,-84 476,-54 476,-54 476,-48 482,-42 488,-42 488,-42 625,-42 625,-42 631,-42 637,-48 637,-54 637,-54 637,-84 637,-84 637,-90 631,-96 625,-96"/>
<text text-anchor="start" x="484" y="-65.2" font-family="Helvetica,sans-Serif" font-size="16.00">submit&#45;button.tsx</text>
</a>
</g>
</g>
<!-- src/contexts/form.ts -->
<g id="node2" class="node">
<title>src/contexts/form.ts</title>
<g id="a_node2"><a xlink:href="src/contexts/form.ts" xlink:title="form.ts">
<path fill="#ddfeff" stroke="black" d="M781,-200C781,-200 731,-200 731,-200 725,-200 719,-194 719,-188 719,-188 719,-158 719,-158 719,-152 725,-146 731,-146 731,-146 781,-146 781,-146 787,-146 793,-152 793,-158 793,-158 793,-188 793,-188 793,-194 787,-200 781,-200"/>
<text text-anchor="start" x="727" y="-169.2" font-family="Helvetica,sans-Serif" font-size="16.00">form.ts</text>
</a>
</g>
</g>
<!-- src/components/controls/submit&#45;button.tsx&#45;&gt;src/contexts/form.ts -->
<g id="edge1" class="edge">
<title>src/components/controls/submit&#45;button.tsx&#45;&gt;src/contexts/form.ts</title>
<path fill="none" stroke="#666666" stroke-width="2" stroke-opacity="0.458824" d="M625,-96.22C625,-124.3 625,-164 625,-164 625,-164 698.81,-164 698.81,-164"/>
<polygon fill="#666666" fill-opacity="0.458824" stroke="#666666" stroke-width="2" stroke-opacity="0.458824" points="718.81,-164 698.81,-173 708.81,-164.5 698.81,-164.5 698.81,-164 698.81,-163.5 708.81,-163.5 698.81,-155 718.81,-164 718.81,-164"/>
</g>
<!-- src/components/fields/select.tsx -->
<g id="node3" class="node">
<title>src/components/fields/select.tsx</title>
<g id="a_node3"><a xlink:href="src/components/fields/select.tsx" xlink:title="select.tsx">
<path fill="#bbfeff" stroke="black" d="M591,-352C591,-352 522,-352 522,-352 516,-352 510,-346 510,-340 510,-340 510,-310 510,-310 510,-304 516,-298 522,-298 522,-298 591,-298 591,-298 597,-298 603,-304 603,-310 603,-310 603,-340 603,-340 603,-346 597,-352 591,-352"/>
<text text-anchor="start" x="518" y="-321.2" font-family="Helvetica,sans-Serif" font-size="16.00">select.tsx</text>
</a>
</g>
</g>
<!-- src/components/fields/select.tsx&#45;&gt;src/contexts/form.ts -->
<g id="edge2" class="edge">
<title>src/components/fields/select.tsx&#45;&gt;src/contexts/form.ts</title>
<path fill="none" stroke="#666666" stroke-width="2" stroke-opacity="0.458824" d="M603.13,-325C665.69,-325 769,-325 769,-325 769,-325 769,-220.17 769,-220.17"/>
<polygon fill="#666666" fill-opacity="0.458824" stroke="#666666" stroke-width="2" stroke-opacity="0.458824" points="769,-200.17 778,-220.17 769.5,-210.17 769.5,-220.17 769,-220.17 768.5,-220.17 768.5,-210.17 760,-220.17 769,-200.17 769,-200.17"/>
</g>
<!-- src/components/fields/text.tsx -->
<g id="node4" class="node">
<title>src/components/fields/text.tsx</title>
<g id="a_node4"><a xlink:href="src/components/fields/text.tsx" xlink:title="text.tsx">
<path fill="#bbfeff" stroke="black" d="M583,-276C583,-276 530,-276 530,-276 524,-276 518,-270 518,-264 518,-264 518,-234 518,-234 518,-228 524,-222 530,-222 530,-222 583,-222 583,-222 589,-222 595,-228 595,-234 595,-234 595,-264 595,-264 595,-270 589,-276 583,-276"/>
<text text-anchor="start" x="526" y="-245.2" font-family="Helvetica,sans-Serif" font-size="16.00">text.tsx</text>
</a>
</g>
</g>
<!-- src/components/fields/text.tsx&#45;&gt;src/contexts/form.ts -->
<g id="edge3" class="edge">
<title>src/components/fields/text.tsx&#45;&gt;src/contexts/form.ts</title>
<path fill="none" stroke="#666666" stroke-width="2" stroke-opacity="0.458824" d="M595.35,-249C650.27,-249 744,-249 744,-249 744,-249 744,-220.01 744,-220.01"/>
<polygon fill="#666666" fill-opacity="0.458824" stroke="#666666" stroke-width="2" stroke-opacity="0.458824" points="744,-200.01 753,-220.01 744.5,-210.01 744.5,-220.01 744,-220.01 743.5,-220.01 743.5,-210.01 735,-220.01 744,-200.01 744,-200.01"/>
</g>
<!-- src/components/fields/textarea.tsx -->
<g id="node5" class="node">
<title>src/components/fields/textarea.tsx</title>
<g id="a_node5"><a xlink:href="src/components/fields/textarea.tsx" xlink:title="textarea.tsx">
<path fill="#bbfeff" stroke="black" d="M601,-200C601,-200 512,-200 512,-200 506,-200 500,-194 500,-188 500,-188 500,-158 500,-158 500,-152 506,-146 512,-146 512,-146 601,-146 601,-146 607,-146 613,-152 613,-158 613,-158 613,-188 613,-188 613,-194 607,-200 601,-200"/>
<text text-anchor="start" x="508" y="-169.2" font-family="Helvetica,sans-Serif" font-size="16.00">textarea.tsx</text>
</a>
</g>
</g>
<!-- src/components/fields/textarea.tsx&#45;&gt;src/contexts/form.ts -->
<g id="edge4" class="edge">
<title>src/components/fields/textarea.tsx&#45;&gt;src/contexts/form.ts</title>
<path fill="none" stroke="#666666" stroke-width="2" stroke-opacity="0.458824" d="M613.14,-182C613.14,-182 698.78,-182 698.78,-182"/>
<polygon fill="#666666" fill-opacity="0.458824" stroke="#666666" stroke-width="2" stroke-opacity="0.458824" points="718.78,-182 698.78,-191 708.78,-182.5 698.78,-182.5 698.78,-182 698.78,-181.5 708.78,-181.5 698.78,-173 718.78,-182 718.78,-182"/>
</g>
<!-- src/components/index.ts -->
<g id="node6" class="node">
<title>src/components/index.ts</title>
<g id="a_node6"><a xlink:href="src/components/index.ts" xlink:title="index.ts">
<path fill="#ddfeff" stroke="black" d="M392,-200C392,-200 335,-200 335,-200 329,-200 323,-194 323,-188 323,-188 323,-158 323,-158 323,-152 329,-146 335,-146 335,-146 392,-146 392,-146 398,-146 404,-152 404,-158 404,-158 404,-188 404,-188 404,-194 398,-200 392,-200"/>
<text text-anchor="start" x="331" y="-169.2" font-family="Helvetica,sans-Serif" font-size="16.00">index.ts</text>
</a>
</g>
</g>
<!-- src/components/index.ts&#45;&gt;src/components/controls/submit&#45;button.tsx -->
<g id="edge5" class="edge">
<title>src/components/index.ts&#45;&gt;src/components/controls/submit&#45;button.tsx</title>
<path fill="none" stroke="#666666" stroke-width="2" stroke-opacity="0.458824" d="M404.27,-164C440.58,-164 488,-164 488,-164 488,-164 488,-116.22 488,-116.22"/>
<polygon fill="#666666" fill-opacity="0.458824" stroke="#666666" stroke-width="2" stroke-opacity="0.458824" points="495,-96.22 488,-116.22 481,-96.22 495,-96.22"/>
</g>
<!-- src/components/index.ts&#45;&gt;src/components/fields/select.tsx -->
<g id="edge6" class="edge">
<title>src/components/index.ts&#45;&gt;src/components/fields/select.tsx</title>
<path fill="none" stroke="#666666" stroke-width="2" stroke-opacity="0.458824" d="M350,-200.17C350,-243.9 350,-325 350,-325 350,-325 489.9,-325 489.9,-325"/>
<polygon fill="#666666" fill-opacity="0.458824" stroke="#666666" stroke-width="2" stroke-opacity="0.458824" points="509.9,-332 489.9,-325 509.9,-318 509.9,-332"/>
</g>
<!-- src/components/index.ts&#45;&gt;src/components/fields/text.tsx -->
<g id="edge7" class="edge">
<title>src/components/index.ts&#45;&gt;src/components/fields/text.tsx</title>
<path fill="none" stroke="#666666" stroke-width="2" stroke-opacity="0.458824" d="M377,-200.01C377,-221.85 377,-249 377,-249 377,-249 497.99,-249 497.99,-249"/>
<polygon fill="#666666" fill-opacity="0.458824" stroke="#666666" stroke-width="2" stroke-opacity="0.458824" points="517.99,-256 497.99,-249 517.99,-242 517.99,-256"/>
</g>
<!-- src/components/index.ts&#45;&gt;src/components/fields/textarea.tsx -->
<g id="edge8" class="edge">
<title>src/components/index.ts&#45;&gt;src/components/fields/textarea.tsx</title>
<path fill="none" stroke="#666666" stroke-width="2" stroke-opacity="0.458824" d="M404.43,-182C404.43,-182 479.89,-182 479.89,-182"/>
<polygon fill="#666666" fill-opacity="0.458824" stroke="#666666" stroke-width="2" stroke-opacity="0.458824" points="499.89,-189 479.89,-182 499.89,-175 499.89,-189"/>
</g>
<!-- src/components/types.ts -->
<g id="node7" class="node">
<title>src/components/types.ts</title>
<g id="a_node7"><a xlink:href="src/components/types.ts" xlink:title="types.ts">
<path fill="#ccffcc" stroke="black" d="M391.5,-109C391.5,-109 335.5,-109 335.5,-109 329.5,-109 323.5,-103 323.5,-97 323.5,-97 323.5,-67 323.5,-67 323.5,-61 329.5,-55 335.5,-55 335.5,-55 391.5,-55 391.5,-55 397.5,-55 403.5,-61 403.5,-67 403.5,-67 403.5,-97 403.5,-97 403.5,-103 397.5,-109 391.5,-109"/>
<text text-anchor="start" x="331.5" y="-78.2" font-family="Helvetica,sans-Serif" font-size="16.00">types.ts</text>
</a>
</g>
</g>
<!-- src/hooks/form.ts -->
<g id="node8" class="node">
<title>src/hooks/form.ts</title>
<g id="a_node8"><a xlink:href="src/hooks/form.ts" xlink:title="form.ts">
<path fill="#ddfeff" stroke="black" d="M239,-139C239,-139 189,-139 189,-139 183,-139 177,-133 177,-127 177,-127 177,-97 177,-97 177,-91 183,-85 189,-85 189,-85 239,-85 239,-85 245,-85 251,-91 251,-97 251,-97 251,-127 251,-127 251,-133 245,-139 239,-139"/>
<text text-anchor="start" x="185" y="-108.2" font-family="Helvetica,sans-Serif" font-size="16.00">form.ts</text>
</a>
</g>
</g>
<!-- src/hooks/form.ts&#45;&gt;src/contexts/form.ts -->
<g id="edge10" class="edge">
<title>src/hooks/form.ts&#45;&gt;src/contexts/form.ts</title>
<path fill="none" stroke="#666666" stroke-width="2" stroke-opacity="0.458824" d="M251.25,-119C373.71,-119 756,-119 756,-119 756,-119 756,-125.68 756,-125.68"/>
<polygon fill="#666666" fill-opacity="0.458824" stroke="#666666" stroke-width="2" stroke-opacity="0.458824" points="756,-145.68 747,-125.68 755.5,-135.68 755.5,-125.68 756,-125.68 756.5,-125.68 756.5,-135.68 765,-125.68 756,-145.68 756,-145.68"/>
</g>
<!-- src/hooks/form.ts&#45;&gt;src/components/index.ts -->
<g id="edge9" class="edge">
<title>src/hooks/form.ts&#45;&gt;src/components/index.ts</title>
<path fill="none" stroke="#666666" stroke-width="2" stroke-opacity="0.458824" d="M251.08,-129C295.5,-129 364,-129 364,-129 364,-129 364,-130.69 364,-130.69"/>
<polygon fill="#666666" fill-opacity="0.458824" stroke="#666666" stroke-width="2" stroke-opacity="0.458824" points="364,-145.89 355,-125.89 363.5,-135.89 363.5,-125.89 364,-125.89 364.5,-125.89 364.5,-135.89 373,-125.89 364,-145.89 364,-145.89"/>
</g>
<!-- src/hooks/index.ts -->
<g id="node9" class="node">
<title>src/hooks/index.ts</title>
<g id="a_node9"><a xlink:href="src/hooks/index.ts" xlink:title="index.ts">
<path fill="#ddfeff" stroke="black" d="M93,-139C93,-139 36,-139 36,-139 30,-139 24,-133 24,-127 24,-127 24,-97 24,-97 24,-91 30,-85 36,-85 36,-85 93,-85 93,-85 99,-85 105,-91 105,-97 105,-97 105,-127 105,-127 105,-133 99,-139 93,-139"/>
<text text-anchor="start" x="32" y="-108.2" font-family="Helvetica,sans-Serif" font-size="16.00">index.ts</text>
</a>
</g>
</g>
<!-- src/hooks/index.ts&#45;&gt;src/hooks/form.ts -->
<g id="edge11" class="edge">
<title>src/hooks/index.ts&#45;&gt;src/hooks/form.ts</title>
<path fill="none" stroke="#666666" stroke-width="2" stroke-opacity="0.458824" d="M105.35,-112C105.35,-112 156.78,-112 156.78,-112"/>
<polygon fill="#666666" fill-opacity="0.458824" stroke="#666666" stroke-width="2" stroke-opacity="0.458824" points="176.78,-119 156.78,-112 176.78,-105 176.78,-119"/>
</g>
</g>
</svg>
