<?xml version="1.0" encoding="UTF-8" standalone="no"?>
<!DOCTYPE svg PUBLIC "-//W3C//DTD SVG 1.1//EN"
 "http://www.w3.org/Graphics/SVG/1.1/DTD/svg11.dtd">
<!-- Generated by graphviz version 2.43.0 (0)
 -->
<!-- Title: G Pages: 1 -->
<svg width="1049pt" height="201pt"
 viewBox="0.00 0.00 1049.20 201.20" xmlns="http://www.w3.org/2000/svg" xmlns:xlink="http://www.w3.org/1999/xlink">
<g id="graph0" class="graph" transform="scale(1 1) rotate(0) translate(21.6 179.6)">
<title>G</title>
<polygon fill="#111111" stroke="transparent" points="-21.6,21.6 -21.6,-179.6 1027.6,-179.6 1027.6,21.6 -21.6,21.6"/>
<!-- components/controls/submit&#45;button.tsx -->
<g id="node1" class="node">
<title>components/controls/submit&#45;button.tsx</title>
<path fill="none" stroke="#cfffac" d="M795.33,-158C795.33,-158 517.67,-158 517.67,-158 513.33,-158 509,-153.67 509,-149.33 509,-149.33 509,-140.67 509,-140.67 509,-136.33 513.33,-132 517.67,-132 517.67,-132 795.33,-132 795.33,-132 799.67,-132 804,-136.33 804,-140.67 804,-140.67 804,-149.33 804,-149.33 804,-153.67 799.67,-158 795.33,-158"/>
<text text-anchor="middle" x="656.5" y="-141.2" font-family="Arial" font-size="16.00" fill="#cfffac">components/controls/submit&#45;button.tsx</text>
</g>
<!-- components/fields/select.tsx -->
<g id="node2" class="node">
<title>components/fields/select.tsx</title>
<path fill="none" stroke="#c6c5fe" d="M758.33,-114C758.33,-114 554.67,-114 554.67,-114 550.33,-114 546,-109.67 546,-105.33 546,-105.33 546,-96.67 546,-96.67 546,-92.33 550.33,-88 554.67,-88 554.67,-88 758.33,-88 758.33,-88 762.67,-88 767,-92.33 767,-96.67 767,-96.67 767,-105.33 767,-105.33 767,-109.67 762.67,-114 758.33,-114"/>
<text text-anchor="middle" x="656.5" y="-97.2" font-family="Arial" font-size="16.00" fill="#c6c5fe">components/fields/select.tsx</text>
</g>
<!-- components/types.ts -->
<g id="node3" class="node">
<title>components/types.ts</title>
<path fill="none" stroke="#cfffac" d="M997.33,-114C997.33,-114 848.67,-114 848.67,-114 844.33,-114 840,-109.67 840,-105.33 840,-105.33 840,-96.67 840,-96.67 840,-92.33 844.33,-88 848.67,-88 848.67,-88 997.33,-88 997.33,-88 1001.67,-88 1006,-92.33 1006,-96.67 1006,-96.67 1006,-105.33 1006,-105.33 1006,-109.67 1001.67,-114 997.33,-114"/>
<text text-anchor="middle" x="923" y="-97.2" font-family="Arial" font-size="16.00" fill="#cfffac">components/types.ts</text>
</g>
<!-- components/fields/select.tsx&#45;&gt;components/types.ts -->
<g id="edge1" class="edge">
<title>components/fields/select.tsx&#45;&gt;components/types.ts</title>
<path fill="none" stroke="#757575" d="M767.37,-101C788.14,-101 809.66,-101 829.81,-101"/>
<polygon fill="#757575" stroke="#757575" points="829.89,-104.5 839.89,-101 829.89,-97.5 829.89,-104.5"/>
</g>
<!-- components/fields/text.tsx -->
<g id="node4" class="node">
<title>components/fields/text.tsx</title>
<path fill="none" stroke="#cfffac" d="M749.83,-70C749.83,-70 563.17,-70 563.17,-70 558.83,-70 554.5,-65.67 554.5,-61.33 554.5,-61.33 554.5,-52.67 554.5,-52.67 554.5,-48.33 558.83,-44 563.17,-44 563.17,-44 749.83,-44 749.83,-44 754.17,-44 758.5,-48.33 758.5,-52.67 758.5,-52.67 758.5,-61.33 758.5,-61.33 758.5,-65.67 754.17,-70 749.83,-70"/>
<text text-anchor="middle" x="656.5" y="-53.2" font-family="Arial" font-size="16.00" fill="#cfffac">components/fields/text.tsx</text>
</g>
<!-- components/fields/textarea.tsx -->
<g id="node5" class="node">
<title>components/fields/textarea.tsx</title>
<path fill="none" stroke="#cfffac" d="M765.83,-26C765.83,-26 547.17,-26 547.17,-26 542.83,-26 538.5,-21.67 538.5,-17.33 538.5,-17.33 538.5,-8.67 538.5,-8.67 538.5,-4.33 542.83,0 547.17,0 547.17,0 765.83,0 765.83,0 770.17,0 774.5,-4.33 774.5,-8.67 774.5,-8.67 774.5,-17.33 774.5,-17.33 774.5,-21.67 770.17,-26 765.83,-26"/>
<text text-anchor="middle" x="656.5" y="-9.2" font-family="Arial" font-size="16.00" fill="#cfffac">components/fields/textarea.tsx</text>
</g>
<!-- components/index.ts -->
<g id="node6" class="node">
<title>components/index.ts</title>
<path fill="none" stroke="#c6c5fe" d="M464.33,-92C464.33,-92 315.67,-92 315.67,-92 311.33,-92 307,-87.67 307,-83.33 307,-83.33 307,-74.67 307,-74.67 307,-70.33 311.33,-66 315.67,-66 315.67,-66 464.33,-66 464.33,-66 468.67,-66 473,-70.33 473,-74.67 473,-74.67 473,-83.33 473,-83.33 473,-87.67 468.67,-92 464.33,-92"/>
<text text-anchor="middle" x="390" y="-75.2" font-family="Arial" font-size="16.00" fill="#c6c5fe">components/index.ts</text>
</g>
<!-- components/index.ts&#45;&gt;components/controls/submit&#45;button.tsx -->
<g id="edge2" class="edge">
<title>components/index.ts&#45;&gt;components/controls/submit&#45;button.tsx</title>
<path fill="none" stroke="#757575" d="M421,-92.17C444.53,-102 478.31,-115.06 509,-123 519.2,-125.64 529.89,-127.99 540.64,-130.09"/>
<polygon fill="#757575" stroke="#757575" points="540.05,-133.54 550.53,-131.95 541.34,-126.66 540.05,-133.54"/>
</g>
<!-- components/index.ts&#45;&gt;components/fields/select.tsx -->
<g id="edge3" class="edge">
<title>components/index.ts&#45;&gt;components/fields/select.tsx</title>
<path fill="none" stroke="#757575" d="M473.24,-85.84C493.01,-87.48 514.52,-89.27 535.62,-91.03"/>
<polygon fill="#757575" stroke="#757575" points="535.34,-94.52 545.6,-91.86 535.92,-87.54 535.34,-94.52"/>
</g>
<!-- components/index.ts&#45;&gt;components/fields/text.tsx -->
<g id="edge4" class="edge">
<title>components/index.ts&#45;&gt;components/fields/text.tsx</title>
<path fill="none" stroke="#757575" d="M473.24,-72.16C495.66,-70.29 520.34,-68.24 544.09,-66.27"/>
<polygon fill="#757575" stroke="#757575" points="544.53,-69.74 554.21,-65.42 543.95,-62.77 544.53,-69.74"/>
</g>
<!-- components/index.ts&#45;&gt;components/fields/textarea.tsx -->
<g id="edge5" class="edge">
<title>components/index.ts&#45;&gt;components/fields/textarea.tsx</title>
<path fill="none" stroke="#757575" d="M448.18,-65.93C456.64,-63.34 465.14,-60.37 473,-57 490.23,-49.61 491.38,-41.41 509,-35 515.5,-32.64 522.24,-30.53 529.12,-28.65"/>
<polygon fill="#757575" stroke="#757575" points="530.44,-31.92 539.26,-26.05 528.71,-25.14 530.44,-31.92"/>
</g>
<!-- contexts/form.ts -->
<g id="node7" class="node">
<title>contexts/form.ts</title>
<path fill="none" stroke="#cfffac" d="M446.83,-48C446.83,-48 333.17,-48 333.17,-48 328.83,-48 324.5,-43.67 324.5,-39.33 324.5,-39.33 324.5,-30.67 324.5,-30.67 324.5,-26.33 328.83,-22 333.17,-22 333.17,-22 446.83,-22 446.83,-22 451.17,-22 455.5,-26.33 455.5,-30.67 455.5,-30.67 455.5,-39.33 455.5,-39.33 455.5,-43.67 451.17,-48 446.83,-48"/>
<text text-anchor="middle" x="390" y="-31.2" font-family="Arial" font-size="16.00" fill="#cfffac">contexts/form.ts</text>
</g>
<!-- hooks/form.ts -->
<g id="node8" class="node">
<title>hooks/form.ts</title>
<path fill="none" stroke="#c6c5fe" d="M262.33,-70C262.33,-70 165.67,-70 165.67,-70 161.33,-70 157,-65.67 157,-61.33 157,-61.33 157,-52.67 157,-52.67 157,-48.33 161.33,-44 165.67,-44 165.67,-44 262.33,-44 262.33,-44 266.67,-44 271,-48.33 271,-52.67 271,-52.67 271,-61.33 271,-61.33 271,-65.67 266.67,-70 262.33,-70"/>
<text text-anchor="middle" x="214" y="-53.2" font-family="Arial" font-size="16.00" fill="#c6c5fe">hooks/form.ts</text>
</g>
<!-- hooks/form.ts&#45;&gt;components/index.ts -->
<g id="edge6" class="edge">
<title>hooks/form.ts&#45;&gt;components/index.ts</title>
<path fill="none" stroke="#757575" d="M271.01,-64.08C279.31,-65.13 288.05,-66.24 296.85,-67.35"/>
<polygon fill="#757575" stroke="#757575" points="296.44,-70.83 306.8,-68.61 297.32,-63.88 296.44,-70.83"/>
</g>
<!-- hooks/form.ts&#45;&gt;contexts/form.ts -->
<g id="edge7" class="edge">
<title>hooks/form.ts&#45;&gt;contexts/form.ts</title>
<path fill="none" stroke="#757575" d="M271.01,-49.92C284.82,-48.17 299.82,-46.28 314.35,-44.44"/>
<polygon fill="#757575" stroke="#757575" points="314.83,-47.91 324.31,-43.18 313.95,-40.96 314.83,-47.91"/>
</g>
<!-- hooks/index.ts -->
<g id="node9" class="node">
<title>hooks/index.ts</title>
<path fill="none" stroke="#c6c5fe" d="M112.33,-70C112.33,-70 8.67,-70 8.67,-70 4.33,-70 0,-65.67 0,-61.33 0,-61.33 0,-52.67 0,-52.67 0,-48.33 4.33,-44 8.67,-44 8.67,-44 112.33,-44 112.33,-44 116.67,-44 121,-48.33 121,-52.67 121,-52.67 121,-61.33 121,-61.33 121,-65.67 116.67,-70 112.33,-70"/>
<text text-anchor="middle" x="60.5" y="-53.2" font-family="Arial" font-size="16.00" fill="#c6c5fe">hooks/index.ts</text>
</g>
<!-- hooks/index.ts&#45;&gt;hooks/form.ts -->
<g id="edge8" class="edge">
<title>hooks/index.ts&#45;&gt;hooks/form.ts</title>
<path fill="none" stroke="#757575" d="M121.38,-57C129.61,-57 138.1,-57 146.45,-57"/>
<polygon fill="#757575" stroke="#757575" points="146.52,-60.5 156.52,-57 146.52,-53.5 146.52,-60.5"/>
</g>
<!-- vite&#45;env.d.ts -->
<g id="node10" class="node">
<title>vite&#45;env.d.ts</title>
<path fill="none" stroke="#cfffac" d="M103.33,-114C103.33,-114 17.67,-114 17.67,-114 13.33,-114 9,-109.67 9,-105.33 9,-105.33 9,-96.67 9,-96.67 9,-92.33 13.33,-88 17.67,-88 17.67,-88 103.33,-88 103.33,-88 107.67,-88 112,-92.33 112,-96.67 112,-96.67 112,-105.33 112,-105.33 112,-109.67 107.67,-114 103.33,-114"/>
<text text-anchor="middle" x="60.5" y="-97.2" font-family="Arial" font-size="16.00" fill="#cfffac">vite&#45;env.d.ts</text>
</g>
</g>
</svg>
