<?xml version="1.0" encoding="UTF-8" standalone="no"?>
<!DOCTYPE svg PUBLIC "-//W3C//DTD SVG 1.1//EN"
 "http://www.w3.org/Graphics/SVG/1.1/DTD/svg11.dtd">
<!-- Generated by graphviz version 2.43.0 (0)
 -->
<!-- Title: dependency&#45;cruiser output Pages: 1 -->
<svg width="852pt" height="470pt"
 viewBox="0.00 0.00 852.00 470.00" xmlns="http://www.w3.org/2000/svg" xmlns:xlink="http://www.w3.org/1999/xlink">
<g id="graph0" class="graph" transform="scale(1 1) rotate(0) translate(4 466)">
<title>dependency&#45;cruiser output</title>
<polygon fill="white" stroke="transparent" points="-4,4 -4,-466 848,-466 848,4 -4,4"/>
<g id="clust1" class="cluster">
<title>cluster_src</title>
<path fill="#ffffff" stroke="black" stroke-width="2" d="M20,-8C20,-8 827,-8 827,-8 833,-8 839,-14 839,-20 839,-20 839,-442 839,-442 839,-448 833,-454 827,-454 827,-454 20,-454 20,-454 14,-454 8,-448 8,-442 8,-442 8,-20 8,-20 8,-14 14,-8 20,-8"/>
<text text-anchor="middle" x="423.5" y="-437.2" font-family="Helvetica,sans-Serif" font-weight="bold" font-size="16.00">src</text>
</g>
<g id="clust2" class="cluster">
<title>cluster_src/components</title>
<path fill="#ffffff" stroke="black" stroke-width="2" d="M354,-26C354,-26 668,-26 668,-26 674,-26 680,-32 680,-38 680,-38 680,-408 680,-408 680,-414 674,-420 668,-420 668,-420 354,-420 354,-420 348,-420 342,-414 342,-408 342,-408 342,-38 342,-38 342,-32 348,-26 354,-26"/>
<text text-anchor="middle" x="511" y="-403.2" font-family="Helvetica,sans-Serif" font-weight="bold" font-size="16.00">components</text>
</g>
<g id="clust3" class="cluster">
<title>cluster_src/components/controls</title>
<path fill="#ffffff" stroke="black" stroke-width="2" d="M507,-34C507,-34 660,-34 660,-34 666,-34 672,-40 672,-46 672,-46 672,-118 672,-118 672,-124 666,-130 660,-130 660,-130 507,-130 507,-130 501,-130 495,-124 495,-118 495,-118 495,-46 495,-46 495,-40 501,-34 507,-34"/>
<text text-anchor="middle" x="583.5" y="-113.2" font-family="Helvetica,sans-Serif" font-weight="bold" font-size="16.00">controls</text>
</g>
<g id="clust4" class="cluster">
<title>cluster_src/components/fields</title>
<path fill="#ffffff" stroke="black" stroke-width="2" d="M531,-138C531,-138 636,-138 636,-138 642,-138 648,-144 648,-150 648,-150 648,-374 648,-374 648,-380 642,-386 636,-386 636,-386 531,-386 531,-386 525,-386 519,-380 519,-374 519,-374 519,-150 519,-150 519,-144 525,-138 531,-138"/>
<text text-anchor="middle" x="583.5" y="-369.2" font-family="Helvetica,sans-Serif" font-weight="bold" font-size="16.00">fields</text>
</g>
<g id="clust5" class="cluster">
<title>cluster_src/contexts</title>
<path fill="#ffffff" stroke="black" stroke-width="2" d="M748,-138C748,-138 819,-138 819,-138 825,-138 831,-144 831,-150 831,-150 831,-222 831,-222 831,-228 825,-234 819,-234 819,-234 748,-234 748,-234 742,-234 736,-228 736,-222 736,-222 736,-150 736,-150 736,-144 742,-138 748,-138"/>
<text text-anchor="middle" x="783.5" y="-217.2" font-family="Helvetica,sans-Serif" font-weight="bold" font-size="16.00">contexts</text>
</g>
<g id="clust6" class="cluster">
<title>cluster_src/hooks</title>
<path fill="#ffffff" stroke="black" stroke-width="2" d="M37.5,-124C37.5,-124 274,-124 274,-124 280,-124 286,-130 286,-136 286,-136 286,-208 286,-208 286,-214 280,-220 274,-220 274,-220 37.5,-220 37.5,-220 31.5,-220 25.5,-214 25.5,-208 25.5,-208 25.5,-136 25.5,-136 25.5,-130 31.5,-124 37.5,-124"/>
<text text-anchor="middle" x="155.75" y="-203.2" font-family="Helvetica,sans-Serif" font-weight="bold" font-size="16.00">hooks</text>
</g>
<!-- src/components/controls/submit&#45;button.tsx -->
<g id="node1" class="node">
<title>src/components/controls/submit&#45;button.tsx</title>
<g id="a_node1"><a xlink:href="src/components/controls/submit-button.tsx" xlink:title="submit&#45;button.tsx">
<path fill="#bbfeff" stroke="black" d="M652,-96C652,-96 515,-96 515,-96 509,-96 503,-90 503,-84 503,-84 503,-54 503,-54 503,-48 509,-42 515,-42 515,-42 652,-42 652,-42 658,-42 664,-48 664,-54 664,-54 664,-84 664,-84 664,-90 658,-96 652,-96"/>
<text text-anchor="start" x="511" y="-65.2" font-family="Helvetica,sans-Serif" font-size="16.00">submit&#45;button.tsx</text>
</a>
</g>
</g>
<!-- src/contexts/form.ts -->
<g id="node2" class="node">
<title>src/contexts/form.ts</title>
<g id="a_node2"><a xlink:href="src/contexts/form.ts" xlink:title="form.ts">
<path fill="#ddfeff" stroke="black" d="M808,-200C808,-200 758,-200 758,-200 752,-200 746,-194 746,-188 746,-188 746,-158 746,-158 746,-152 752,-146 758,-146 758,-146 808,-146 808,-146 814,-146 820,-152 820,-158 820,-158 820,-188 820,-188 820,-194 814,-200 808,-200"/>
<text text-anchor="start" x="754" y="-169.2" font-family="Helvetica,sans-Serif" font-size="16.00">form.ts</text>
</a>
</g>
</g>
<!-- src/components/controls/submit&#45;button.tsx&#45;&gt;src/contexts/form.ts -->
<g id="edge1" class="edge">
<title>src/components/controls/submit&#45;button.tsx&#45;&gt;src/contexts/form.ts</title>
<path fill="none" stroke="#666666" stroke-width="2" stroke-opacity="0.458824" d="M652,-96.22C652,-124.3 652,-164 652,-164 652,-164 725.81,-164 725.81,-164"/>
<polygon fill="#666666" fill-opacity="0.458824" stroke="#666666" stroke-width="2" stroke-opacity="0.458824" points="745.81,-164 725.81,-173 735.81,-164.5 725.81,-164.5 725.81,-164 725.81,-163.5 735.81,-163.5 725.81,-155 745.81,-164 745.81,-164"/>
</g>
<!-- src/components/fields/select.tsx -->
<g id="node3" class="node">
<title>src/components/fields/select.tsx</title>
<g id="a_node3"><a xlink:href="src/components/fields/select.tsx" xlink:title="select.tsx">
<path fill="#bbfeff" stroke="black" d="M618,-352C618,-352 549,-352 549,-352 543,-352 537,-346 537,-340 537,-340 537,-310 537,-310 537,-304 543,-298 549,-298 549,-298 618,-298 618,-298 624,-298 630,-304 630,-310 630,-310 630,-340 630,-340 630,-346 624,-352 618,-352"/>
<text text-anchor="start" x="545" y="-321.2" font-family="Helvetica,sans-Serif" font-size="16.00">select.tsx</text>
</a>
</g>
</g>
<!-- src/components/fields/select.tsx&#45;&gt;src/contexts/form.ts -->
<g id="edge2" class="edge">
<title>src/components/fields/select.tsx&#45;&gt;src/contexts/form.ts</title>
<path fill="none" stroke="#666666" stroke-width="2" stroke-opacity="0.458824" d="M630.13,-325C692.69,-325 796,-325 796,-325 796,-325 796,-220.17 796,-220.17"/>
<polygon fill="#666666" fill-opacity="0.458824" stroke="#666666" stroke-width="2" stroke-opacity="0.458824" points="796,-200.17 805,-220.17 796.5,-210.17 796.5,-220.17 796,-220.17 795.5,-220.17 795.5,-210.17 787,-220.17 796,-200.17 796,-200.17"/>
</g>
<!-- src/components/fields/text.tsx -->
<g id="node4" class="node">
<title>src/components/fields/text.tsx</title>
<g id="a_node4"><a xlink:href="src/components/fields/text.tsx" xlink:title="text.tsx">
<path fill="#bbfeff" stroke="black" d="M610,-276C610,-276 557,-276 557,-276 551,-276 545,-270 545,-264 545,-264 545,-234 545,-234 545,-228 551,-222 557,-222 557,-222 610,-222 610,-222 616,-222 622,-228 622,-234 622,-234 622,-264 622,-264 622,-270 616,-276 610,-276"/>
<text text-anchor="start" x="553" y="-245.2" font-family="Helvetica,sans-Serif" font-size="16.00">text.tsx</text>
</a>
</g>
</g>
<!-- src/components/fields/text.tsx&#45;&gt;src/contexts/form.ts -->
<g id="edge3" class="edge">
<title>src/components/fields/text.tsx&#45;&gt;src/contexts/form.ts</title>
<path fill="none" stroke="#666666" stroke-width="2" stroke-opacity="0.458824" d="M622.35,-249C677.27,-249 771,-249 771,-249 771,-249 771,-220.01 771,-220.01"/>
<polygon fill="#666666" fill-opacity="0.458824" stroke="#666666" stroke-width="2" stroke-opacity="0.458824" points="771,-200.01 780,-220.01 771.5,-210.01 771.5,-220.01 771,-220.01 770.5,-220.01 770.5,-210.01 762,-220.01 771,-200.01 771,-200.01"/>
</g>
<!-- src/components/fields/textarea.tsx -->
<g id="node5" class="node">
<title>src/components/fields/textarea.tsx</title>
<g id="a_node5"><a xlink:href="src/components/fields/textarea.tsx" xlink:title="textarea.tsx">
<path fill="#bbfeff" stroke="black" d="M628,-200C628,-200 539,-200 539,-200 533,-200 527,-194 527,-188 527,-188 527,-158 527,-158 527,-152 533,-146 539,-146 539,-146 628,-146 628,-146 634,-146 640,-152 640,-158 640,-158 640,-188 640,-188 640,-194 634,-200 628,-200"/>
<text text-anchor="start" x="535" y="-169.2" font-family="Helvetica,sans-Serif" font-size="16.00">textarea.tsx</text>
</a>
</g>
</g>
<!-- src/components/fields/textarea.tsx&#45;&gt;src/contexts/form.ts -->
<g id="edge4" class="edge">
<title>src/components/fields/textarea.tsx&#45;&gt;src/contexts/form.ts</title>
<path fill="none" stroke="#666666" stroke-width="2" stroke-opacity="0.458824" d="M640.14,-182C640.14,-182 725.78,-182 725.78,-182"/>
<polygon fill="#666666" fill-opacity="0.458824" stroke="#666666" stroke-width="2" stroke-opacity="0.458824" points="745.78,-182 725.78,-191 735.78,-182.5 725.78,-182.5 725.78,-182 725.78,-181.5 735.78,-181.5 725.78,-173 745.78,-182 745.78,-182"/>
</g>
<!-- src/components/index.ts -->
<g id="node6" class="node">
<title>src/components/index.ts</title>
<g id="a_node6"><a xlink:href="src/components/index.ts" xlink:title="index.ts">
<path fill="#ddfeff" stroke="black" d="M419,-200C419,-200 362,-200 362,-200 356,-200 350,-194 350,-188 350,-188 350,-158 350,-158 350,-152 356,-146 362,-146 362,-146 419,-146 419,-146 425,-146 431,-152 431,-158 431,-158 431,-188 431,-188 431,-194 425,-200 419,-200"/>
<text text-anchor="start" x="358" y="-169.2" font-family="Helvetica,sans-Serif" font-size="16.00">index.ts</text>
</a>
</g>
</g>
<!-- src/components/index.ts&#45;&gt;src/components/controls/submit&#45;button.tsx -->
<g id="edge5" class="edge">
<title>src/components/index.ts&#45;&gt;src/components/controls/submit&#45;button.tsx</title>
<path fill="none" stroke="#666666" stroke-width="2" stroke-opacity="0.458824" d="M431.27,-164C467.58,-164 515,-164 515,-164 515,-164 515,-116.22 515,-116.22"/>
<polygon fill="#666666" fill-opacity="0.458824" stroke="#666666" stroke-width="2" stroke-opacity="0.458824" points="522,-96.22 515,-116.22 508,-96.22 522,-96.22"/>
</g>
<!-- src/components/index.ts&#45;&gt;src/components/fields/select.tsx -->
<g id="edge6" class="edge">
<title>src/components/index.ts&#45;&gt;src/components/fields/select.tsx</title>
<path fill="none" stroke="#666666" stroke-width="2" stroke-opacity="0.458824" d="M377,-200.17C377,-243.9 377,-325 377,-325 377,-325 516.9,-325 516.9,-325"/>
<polygon fill="#666666" fill-opacity="0.458824" stroke="#666666" stroke-width="2" stroke-opacity="0.458824" points="536.9,-332 516.9,-325 536.9,-318 536.9,-332"/>
</g>
<!-- src/components/index.ts&#45;&gt;src/components/fields/text.tsx -->
<g id="edge7" class="edge">
<title>src/components/index.ts&#45;&gt;src/components/fields/text.tsx</title>
<path fill="none" stroke="#666666" stroke-width="2" stroke-opacity="0.458824" d="M404,-200.01C404,-221.85 404,-249 404,-249 404,-249 524.99,-249 524.99,-249"/>
<polygon fill="#666666" fill-opacity="0.458824" stroke="#666666" stroke-width="2" stroke-opacity="0.458824" points="544.99,-256 524.99,-249 544.99,-242 544.99,-256"/>
</g>
<!-- src/components/index.ts&#45;&gt;src/components/fields/textarea.tsx -->
<g id="edge8" class="edge">
<title>src/components/index.ts&#45;&gt;src/components/fields/textarea.tsx</title>
<path fill="none" stroke="#666666" stroke-width="2" stroke-opacity="0.458824" d="M431.43,-182C431.43,-182 506.89,-182 506.89,-182"/>
<polygon fill="#666666" fill-opacity="0.458824" stroke="#666666" stroke-width="2" stroke-opacity="0.458824" points="526.89,-189 506.89,-182 526.89,-175 526.89,-189"/>
</g>
<!-- src/components/types.ts -->
<g id="node7" class="node">
<title>src/components/types.ts</title>
<g id="a_node7"><a xlink:href="src/components/types.ts" xlink:title="types.ts">
<path fill="#ccffcc" stroke="black" d="M418.5,-109C418.5,-109 362.5,-109 362.5,-109 356.5,-109 350.5,-103 350.5,-97 350.5,-97 350.5,-67 350.5,-67 350.5,-61 356.5,-55 362.5,-55 362.5,-55 418.5,-55 418.5,-55 424.5,-55 430.5,-61 430.5,-67 430.5,-67 430.5,-97 430.5,-97 430.5,-103 424.5,-109 418.5,-109"/>
<text text-anchor="start" x="358.5" y="-78.2" font-family="Helvetica,sans-Serif" font-size="16.00">types.ts</text>
</a>
</g>
</g>
<!-- src/hooks/form.ts -->
<g id="node8" class="node">
<title>src/hooks/form.ts</title>
<g id="a_node8"><a xlink:href="src/hooks/form.ts" xlink:title="form.ts">
<path fill="#ddfeff" stroke="black" d="M266,-186C266,-186 216,-186 216,-186 210,-186 204,-180 204,-174 204,-174 204,-144 204,-144 204,-138 210,-132 216,-132 216,-132 266,-132 266,-132 272,-132 278,-138 278,-144 278,-144 278,-174 278,-174 278,-180 272,-186 266,-186"/>
<text text-anchor="start" x="212" y="-155.2" font-family="Helvetica,sans-Serif" font-size="16.00">form.ts</text>
</a>
</g>
</g>
<!-- src/hooks/form.ts&#45;&gt;src/contexts/form.ts -->
<g id="edge10" class="edge">
<title>src/hooks/form.ts&#45;&gt;src/contexts/form.ts</title>
<path fill="none" stroke="#666666" stroke-width="2" stroke-opacity="0.458824" d="M278.25,-139C400.71,-139 783,-139 783,-139 783,-139 783,-139.69 783,-139.69"/>
<polygon fill="#666666" fill-opacity="0.458824" stroke="#666666" stroke-width="2" stroke-opacity="0.458824" points="783,-145.88 774,-125.88 782.5,-135.88 782.5,-125.88 783,-125.88 783.5,-125.88 783.5,-135.88 792,-125.88 783,-145.88 783,-145.88"/>
</g>
<!-- src/hooks/form.ts&#45;&gt;src/components/index.ts -->
<g id="edge9" class="edge">
<title>src/hooks/form.ts&#45;&gt;src/components/index.ts</title>
<path fill="none" stroke="#666666" stroke-width="2" stroke-opacity="0.458824" d="M278.34,-166C278.34,-166 329.97,-166 329.97,-166"/>
<polygon fill="#666666" fill-opacity="0.458824" stroke="#666666" stroke-width="2" stroke-opacity="0.458824" points="349.97,-166 329.97,-175 339.97,-166.5 329.97,-166.5 329.97,-166 329.97,-165.5 339.97,-165.5 329.97,-157 349.97,-166 349.97,-166"/>
</g>
<!-- src/hooks/index.ts -->
<g id="node9" class="node">
<title>src/hooks/index.ts</title>
<g id="a_node9"><a xlink:href="src/hooks/index.ts" xlink:title="index.ts">
<path fill="#ddfeff" stroke="black" d="M102.5,-186C102.5,-186 45.5,-186 45.5,-186 39.5,-186 33.5,-180 33.5,-174 33.5,-174 33.5,-144 33.5,-144 33.5,-138 39.5,-132 45.5,-132 45.5,-132 102.5,-132 102.5,-132 108.5,-132 114.5,-138 114.5,-144 114.5,-144 114.5,-174 114.5,-174 114.5,-180 108.5,-186 102.5,-186"/>
<text text-anchor="start" x="41.5" y="-155.2" font-family="Helvetica,sans-Serif" font-size="16.00">index.ts</text>
</a>
</g>
</g>
<!-- src/hooks/index.ts&#45;&gt;src/hooks/form.ts -->
<g id="edge11" class="edge">
<title>src/hooks/index.ts&#45;&gt;src/hooks/form.ts</title>
<path fill="none" stroke="#666666" stroke-width="2" stroke-opacity="0.458824" d="M114.85,-159C114.85,-159 183.99,-159 183.99,-159"/>
<polygon fill="#666666" fill-opacity="0.458824" stroke="#666666" stroke-width="2" stroke-opacity="0.458824" points="203.99,-166 183.99,-159 203.99,-152 203.99,-166"/>
</g>
<!-- src/vite&#45;env.d.ts -->
<g id="node10" class="node">
<title>src/vite&#45;env.d.ts</title>
<g id="a_node10"><a xlink:href="src/vite-env.d.ts" xlink:title="vite&#45;env.d.ts">
<path fill="#ccffcc" stroke="black" d="M120,-97C120,-97 28,-97 28,-97 22,-97 16,-91 16,-85 16,-85 16,-55 16,-55 16,-49 22,-43 28,-43 28,-43 120,-43 120,-43 126,-43 132,-49 132,-55 132,-55 132,-85 132,-85 132,-91 126,-97 120,-97"/>
<text text-anchor="start" x="24" y="-66.2" font-family="Helvetica,sans-Serif" font-size="16.00">vite&#45;env.d.ts</text>
</a>
</g>
</g>
</g>
</svg>
