<?xml version="1.0" encoding="UTF-8" standalone="no"?>
<!DOCTYPE svg PUBLIC "-//W3C//DTD SVG 1.1//EN"
 "http://www.w3.org/Graphics/SVG/1.1/DTD/svg11.dtd">
<!-- Generated by graphviz version 2.43.0 (0)
 -->
<!-- Title: dependency&#45;cruiser output Pages: 1 -->
<svg width="680pt" height="419pt"
 viewBox="0.00 0.00 680.00 419.00" xmlns="http://www.w3.org/2000/svg" xmlns:xlink="http://www.w3.org/1999/xlink">
<g id="graph0" class="graph" transform="scale(1 1) rotate(0) translate(4 415)">
<title>dependency&#45;cruiser output</title>
<polygon fill="white" stroke="transparent" points="-4,4 -4,-415 676,-415 676,4 -4,4"/>
<g id="clust1" class="cluster">
<title>cluster_@bitcart</title>
<path fill="#ffffff" stroke="black" stroke-width="2" d="M546,-8C546,-8 614,-8 614,-8 620,-8 626,-14 626,-20 626,-20 626,-92 626,-92 626,-98 620,-104 614,-104 614,-104 546,-104 546,-104 540,-104 534,-98 534,-92 534,-92 534,-20 534,-20 534,-14 540,-8 546,-8"/>
<text text-anchor="middle" x="580" y="-87.2" font-family="Helvetica,sans-Serif" font-weight="bold" font-size="16.00">@bitcart</text>
</g>
<g id="clust2" class="cluster">
<title>cluster_node_modules</title>
<path fill="#ffffff" stroke="black" stroke-width="2" d="M244,-177C244,-177 652,-177 652,-177 658,-177 664,-183 664,-189 664,-189 664,-391 664,-391 664,-397 658,-403 652,-403 652,-403 244,-403 244,-403 238,-403 232,-397 232,-391 232,-391 232,-189 232,-189 232,-183 238,-177 244,-177"/>
<text text-anchor="middle" x="448" y="-386.2" font-family="Helvetica,sans-Serif" font-weight="bold" font-size="16.00">node_modules</text>
</g>
<g id="clust3" class="cluster">
<title>cluster_src</title>
<path fill="#ffffff" stroke="black" stroke-width="2" d="M20,-8C20,-8 399,-8 399,-8 405,-8 411,-14 411,-20 411,-20 411,-157 411,-157 411,-163 405,-169 399,-169 399,-169 20,-169 20,-169 14,-169 8,-163 8,-157 8,-157 8,-20 8,-20 8,-14 14,-8 20,-8"/>
<text text-anchor="middle" x="209.5" y="-152.2" font-family="Helvetica,sans-Serif" font-weight="bold" font-size="16.00">src</text>
</g>
<!-- @bitcart/core -->
<g id="node1" class="node">
<title>@bitcart/core</title>
<g id="a_node1"><a xlink:title="core">
<polygon fill="#ffffcc" stroke="black" points="607,-70 557,-70 553,-66 553,-16 603,-16 607,-20 607,-70"/>
<polyline fill="none" stroke="black" points="603,-66 553,-66 "/>
<polyline fill="none" stroke="black" points="603,-66 603,-16 "/>
<polyline fill="none" stroke="black" points="603,-66 607,-70 "/>
<text text-anchor="start" x="562.5" y="-39.2" font-family="Helvetica,sans-Serif" font-size="16.00">core</text>
</a>
</g>
</g>
<!-- node_modules/@mantine/hooks -->
<g id="node2" class="node">
<title>node_modules/@mantine/hooks</title>
<g id="a_node2"><a xlink:href="https://www.npmjs.com/package/@mantine/hooks" xlink:title="@mantine+hooks@9.5.1_react@19.2.8">
<polygon fill="#f9e6e6" stroke="black" points="656,-239 508,-239 504,-235 504,-185 652,-185 656,-189 656,-239"/>
<polyline fill="none" stroke="black" points="652,-235 504,-235 "/>
<polyline fill="none" stroke="black" points="652,-235 652,-185 "/>
<polyline fill="none" stroke="black" points="652,-235 656,-239 "/>
<text text-anchor="start" x="512" y="-208.2" font-family="Helvetica,sans-Serif" font-size="16.00" fill="#c40b0a">@mantine/hooks</text>
</a>
</g>
</g>
<!-- node_modules/@testing&#45;library/react -->
<g id="node3" class="node">
<title>node_modules/@testing&#45;library/react</title>
<g id="a_node3"><a xlink:href="https://www.npmjs.com/package/@testing-library/react" xlink:title="@testing&#45;library+react@16.3.2_@testing&#45;library+dom@10.4.1_@types+react&#45;dom@19.2.4_@type_2a46ce64b8cc64b21842ce81a682d490">
<polygon fill="#f9e6e6" stroke="black" points="432,-369 244,-369 240,-365 240,-315 428,-315 432,-319 432,-369"/>
<polyline fill="none" stroke="black" points="428,-365 240,-365 "/>
<polyline fill="none" stroke="black" points="428,-365 428,-315 "/>
<polyline fill="none" stroke="black" points="428,-365 432,-369 "/>
<text text-anchor="start" x="248" y="-338.2" font-family="Helvetica,sans-Serif" font-size="16.00" fill="#c40b0a">@testing&#45;library/react</text>
</a>
</g>
</g>
<!-- node_modules/react&#45;dom -->
<g id="node4" class="node">
<title>node_modules/react&#45;dom</title>
<g id="a_node4"><a xlink:href="https://www.npmjs.com/package/react-dom" xlink:title="react&#45;dom@19.2.8_react@19.2.8">
<polygon fill="#f9e6e6" stroke="black" points="385.5,-304 290.5,-304 286.5,-300 286.5,-250 381.5,-250 385.5,-254 385.5,-304"/>
<polyline fill="none" stroke="black" points="381.5,-300 286.5,-300 "/>
<polyline fill="none" stroke="black" points="381.5,-300 381.5,-250 "/>
<polyline fill="none" stroke="black" points="381.5,-300 385.5,-304 "/>
<text text-anchor="start" x="294.5" y="-273.2" font-family="Helvetica,sans-Serif" font-size="16.00" fill="#c40b0a">react&#45;dom</text>
</a>
</g>
</g>
<!-- node_modules/react -->
<g id="node5" class="node">
<title>node_modules/react</title>
<g id="a_node5"><a xlink:href="https://www.npmjs.com/package/react" xlink:title="react@19.2.8">
<polygon fill="#f9e6e6" stroke="black" points="608.5,-369 555.5,-369 551.5,-365 551.5,-315 604.5,-315 608.5,-319 608.5,-369"/>
<polyline fill="none" stroke="black" points="604.5,-365 551.5,-365 "/>
<polyline fill="none" stroke="black" points="604.5,-365 604.5,-315 "/>
<polyline fill="none" stroke="black" points="604.5,-365 608.5,-369 "/>
<text text-anchor="start" x="559.5" y="-338.2" font-family="Helvetica,sans-Serif" font-size="16.00" fill="#c40b0a">react</text>
</a>
</g>
</g>
<!-- node_modules/remeda -->
<g id="node6" class="node">
<title>node_modules/remeda</title>
<g id="a_node6"><a xlink:href="https://www.npmjs.com/package/remeda" xlink:title="remeda@2.39.0">
<polygon fill="#f9e6e6" stroke="black" points="619,-304 545,-304 541,-300 541,-250 615,-250 619,-254 619,-304"/>
<polyline fill="none" stroke="black" points="615,-300 541,-300 "/>
<polyline fill="none" stroke="black" points="615,-300 615,-250 "/>
<polyline fill="none" stroke="black" points="615,-300 619,-304 "/>
<text text-anchor="start" x="549" y="-273.2" font-family="Helvetica,sans-Serif" font-size="16.00" fill="#c40b0a">remeda</text>
</a>
</g>
</g>
<!-- node_modules/vitest -->
<g id="node7" class="node">
<title>node_modules/vitest</title>
<g id="a_node7"><a xlink:href="https://www.npmjs.com/package/vitest" xlink:title="vitest@4.1.10_@types+node@25.9.5_jsdom@29.1.1_vite@8.2.0_@types+node@25.9.5_esbuild@0.2_bc4a46a9dd61971f37d49f245bcacc13">
<polygon fill="#f9e6e6" stroke="black" points="366.5,-239 309.5,-239 305.5,-235 305.5,-185 362.5,-185 366.5,-189 366.5,-239"/>
<polyline fill="none" stroke="black" points="362.5,-235 305.5,-235 "/>
<polyline fill="none" stroke="black" points="362.5,-235 362.5,-185 "/>
<polyline fill="none" stroke="black" points="362.5,-235 366.5,-239 "/>
<text text-anchor="start" x="313.5" y="-208.2" font-family="Helvetica,sans-Serif" font-size="16.00" fill="#c40b0a">vitest</text>
</a>
</g>
</g>
<!-- src/client&#45;locale.ts -->
<g id="node8" class="node">
<title>src/client&#45;locale.ts</title>
<g id="a_node8"><a xlink:href="src/client-locale.ts" xlink:title="client&#45;locale.ts">
<path fill="#ddfeff" stroke="black" d="M391,-70C391,-70 281,-70 281,-70 275,-70 269,-64 269,-58 269,-58 269,-28 269,-28 269,-22 275,-16 281,-16 281,-16 391,-16 391,-16 397,-16 403,-22 403,-28 403,-28 403,-58 403,-58 403,-64 397,-70 391,-70"/>
<text text-anchor="start" x="277" y="-39.2" font-family="Helvetica,sans-Serif" font-size="16.00">client&#45;locale.ts</text>
</a>
</g>
</g>
<!-- src/client&#45;locale.ts&#45;&gt;@bitcart/core -->
<g id="edge1" class="edge">
<title>src/client&#45;locale.ts&#45;&gt;@bitcart/core</title>
<path fill="none" stroke="#666666" stroke-width="2" stroke-opacity="0.458824" d="M403.32,-43C403.32,-43 532.96,-43 532.96,-43"/>
<polygon fill="#666666" fill-opacity="0.458824" stroke="#666666" stroke-width="2" stroke-opacity="0.458824" points="552.96,-43 532.96,-52 542.96,-43.5 532.96,-43.5 532.96,-43 532.96,-42.5 542.96,-42.5 532.96,-34 552.96,-43 552.96,-43"/>
</g>
<!-- src/client&#45;locale.ts&#45;&gt;node_modules/@mantine/hooks -->
<g id="edge2" class="edge">
<title>src/client&#45;locale.ts&#45;&gt;node_modules/@mantine/hooks</title>
<path fill="none" stroke="#666666" stroke-opacity="0.458824" d="M398,-70.15C398,-117.93 398,-212 398,-212 398,-212 483.87,-212 483.87,-212"/>
<polygon fill="#666666" fill-opacity="0.458824" stroke="#666666" stroke-opacity="0.458824" points="503.87,-212 483.87,-221 493.87,-212 483.87,-212 483.87,-212 483.87,-212 493.87,-212 483.87,-203 503.87,-212 503.87,-212"/>
</g>
<!-- src/client&#45;locale.ts&#45;&gt;node_modules/react -->
<g id="edge3" class="edge">
<title>src/client&#45;locale.ts&#45;&gt;node_modules/react</title>
<path fill="none" stroke="#666666" stroke-opacity="0.458824" d="M392,-70.33C392,-137.95 392,-307.67 392,-307.67 392,-307.67 590,-307.67 590,-307.67 590,-307.67 590,-308.39 590,-308.39"/>
<polygon fill="#666666" fill-opacity="0.458824" stroke="#666666" stroke-opacity="0.458824" points="590,-314.95 581,-294.95 590,-304.95 590,-294.95 590,-294.95 590,-294.95 590,-304.95 599,-294.95 590,-314.95 590,-314.95"/>
</g>
<!-- src/index.ts -->
<g id="node9" class="node">
<title>src/index.ts</title>
<g id="a_node9"><a xlink:href="src/index.ts" xlink:title="index.ts">
<path fill="#ddfeff" stroke="black" d="M120.5,-70C120.5,-70 63.5,-70 63.5,-70 57.5,-70 51.5,-64 51.5,-58 51.5,-58 51.5,-28 51.5,-28 51.5,-22 57.5,-16 63.5,-16 63.5,-16 120.5,-16 120.5,-16 126.5,-16 132.5,-22 132.5,-28 132.5,-28 132.5,-58 132.5,-58 132.5,-64 126.5,-70 120.5,-70"/>
<text text-anchor="start" x="59.5" y="-39.2" font-family="Helvetica,sans-Serif" font-size="16.00">index.ts</text>
</a>
</g>
</g>
<!-- src/index.ts&#45;&gt;src/client&#45;locale.ts -->
<g id="edge4" class="edge">
<title>src/index.ts&#45;&gt;src/client&#45;locale.ts</title>
<path fill="none" stroke="#666666" stroke-width="2" stroke-opacity="0.458824" d="M132.57,-34C132.57,-34 248.58,-34 248.58,-34"/>
<polygon fill="#666666" fill-opacity="0.458824" stroke="#666666" stroke-width="2" stroke-opacity="0.458824" points="268.58,-41 248.58,-34 268.58,-27 268.58,-41"/>
</g>
<!-- src/is&#45;client.ts -->
<g id="node10" class="node">
<title>src/is&#45;client.ts</title>
<g id="a_node10"><a xlink:href="src/is-client.ts" xlink:title="is&#45;client.ts">
<path fill="#ddfeff" stroke="black" d="M373.5,-135C373.5,-135 298.5,-135 298.5,-135 292.5,-135 286.5,-129 286.5,-123 286.5,-123 286.5,-93 286.5,-93 286.5,-87 292.5,-81 298.5,-81 298.5,-81 373.5,-81 373.5,-81 379.5,-81 385.5,-87 385.5,-93 385.5,-93 385.5,-123 385.5,-123 385.5,-129 379.5,-135 373.5,-135"/>
<text text-anchor="start" x="294.5" y="-104.2" font-family="Helvetica,sans-Serif" font-size="16.00">is&#45;client.ts</text>
</a>
</g>
</g>
<!-- src/index.ts&#45;&gt;src/is&#45;client.ts -->
<g id="edge5" class="edge">
<title>src/index.ts&#45;&gt;src/is&#45;client.ts</title>
<path fill="none" stroke="#666666" stroke-width="2" stroke-opacity="0.458824" d="M132.67,-52C182.39,-52 260,-52 260,-52 260,-52 260,-94.5 260,-94.5 260,-94.5 266.15,-94.5 266.15,-94.5"/>
<polygon fill="#666666" fill-opacity="0.458824" stroke="#666666" stroke-width="2" stroke-opacity="0.458824" points="286.15,-101.5 266.15,-94.5 286.15,-87.5 286.15,-101.5"/>
</g>
<!-- src/is&#45;client.ts&#45;&gt;node_modules/react -->
<g id="edge11" class="edge">
<title>src/is&#45;client.ts&#45;&gt;node_modules/react</title>
<path fill="none" stroke="#666666" stroke-opacity="0.458824" d="M385.53,-108C422.98,-108 468,-108 468,-108 468,-108 468,-342 468,-342 468,-342 531.45,-342 531.45,-342"/>
<polygon fill="#666666" fill-opacity="0.458824" stroke="#666666" stroke-opacity="0.458824" points="551.45,-342 531.45,-351 541.45,-342 531.45,-342 531.45,-342 531.45,-342 541.45,-342 531.45,-333 551.45,-342 551.45,-342"/>
</g>
<!-- src/is&#45;client.ts&#45;&gt;node_modules/remeda -->
<g id="edge12" class="edge">
<title>src/is&#45;client.ts&#45;&gt;node_modules/remeda</title>
<path fill="none" stroke="#666666" stroke-opacity="0.458824" d="M376,-135.29C376,-175.13 376,-244.5 376,-244.5 376,-244.5 580,-244.5 580,-244.5 580,-244.5 580,-245.04 580,-245.04"/>
<polygon fill="#666666" fill-opacity="0.458824" stroke="#666666" stroke-opacity="0.458824" points="580,-249.87 571,-229.87 580,-239.87 580,-229.87 580,-229.87 580,-229.87 580,-239.87 589,-229.87 580,-249.87 580,-249.87"/>
</g>
<!-- src/is&#45;client.spec.tsx -->
<g id="node11" class="node">
<title>src/is&#45;client.spec.tsx</title>
<g id="a_node11"><a xlink:href="src/is-client.spec.tsx" xlink:title="is&#45;client.spec.tsx">
<path fill="#bbfeff" stroke="black" d="M156,-135C156,-135 28,-135 28,-135 22,-135 16,-129 16,-123 16,-123 16,-93 16,-93 16,-87 22,-81 28,-81 28,-81 156,-81 156,-81 162,-81 168,-87 168,-93 168,-93 168,-123 168,-123 168,-129 162,-135 156,-135"/>
<text text-anchor="start" x="24" y="-104.2" font-family="Helvetica,sans-Serif" font-size="16.00">is&#45;client.spec.tsx</text>
</a>
</g>
</g>
<!-- src/is&#45;client.spec.tsx&#45;&gt;node_modules/@testing&#45;library/react -->
<g id="edge7" class="edge">
<title>src/is&#45;client.spec.tsx&#45;&gt;node_modules/@testing&#45;library/react</title>
<path fill="none" stroke="#666666" stroke-opacity="0.458824" d="M168.22,-121.5C208.63,-121.5 250,-121.5 250,-121.5 250,-121.5 250,-294.96 250,-294.96"/>
<polygon fill="#666666" fill-opacity="0.458824" stroke="#666666" stroke-opacity="0.458824" points="250,-314.96 241,-294.96 250,-304.96 250,-294.96 250,-294.96 250,-294.96 250,-304.96 259,-294.96 250,-314.96 250,-314.96"/>
</g>
<!-- src/is&#45;client.spec.tsx&#45;&gt;node_modules/react&#45;dom -->
<g id="edge8" class="edge">
<title>src/is&#45;client.spec.tsx&#45;&gt;node_modules/react&#45;dom</title>
<path fill="none" stroke="#666666" stroke-opacity="0.458824" d="M92,-135.15C92,-182.93 92,-277 92,-277 92,-277 266.33,-277 266.33,-277"/>
<polygon fill="#666666" fill-opacity="0.458824" stroke="#666666" stroke-opacity="0.458824" points="286.33,-277 266.33,-286 276.33,-277 266.33,-277 266.33,-277 266.33,-277 276.33,-277 266.33,-268 286.33,-277 286.33,-277"/>
</g>
<!-- src/is&#45;client.spec.tsx&#45;&gt;node_modules/react -->
<g id="edge9" class="edge">
<title>src/is&#45;client.spec.tsx&#45;&gt;node_modules/react</title>
<path fill="none" stroke="#666666" stroke-opacity="0.458824" d="M54,-135C54,-190.31 54,-311.33 54,-311.33 54,-311.33 571,-311.33 571,-311.33 571,-311.33 571,-311.66 571,-311.66"/>
<polygon fill="#666666" fill-opacity="0.458824" stroke="#666666" stroke-opacity="0.458824" points="571,-314.62 562,-294.61 571,-304.62 571,-294.62 571,-294.62 571,-294.62 571,-304.62 580,-294.62 571,-314.62 571,-314.62"/>
</g>
<!-- src/is&#45;client.spec.tsx&#45;&gt;node_modules/vitest -->
<g id="edge10" class="edge">
<title>src/is&#45;client.spec.tsx&#45;&gt;node_modules/vitest</title>
<path fill="none" stroke="#666666" stroke-opacity="0.458824" d="M130,-135.05C130,-165.87 130,-212 130,-212 130,-212 285.16,-212 285.16,-212"/>
<polygon fill="#666666" fill-opacity="0.458824" stroke="#666666" stroke-opacity="0.458824" points="305.16,-212 285.16,-221 295.16,-212 285.16,-212 285.16,-212 285.16,-212 295.16,-212 285.16,-203 305.16,-212 305.16,-212"/>
</g>
<!-- src/is&#45;client.spec.tsx&#45;&gt;src/is&#45;client.ts -->
<g id="edge6" class="edge">
<title>src/is&#45;client.spec.tsx&#45;&gt;src/is&#45;client.ts</title>
<path fill="none" stroke="#666666" stroke-width="2" stroke-opacity="0.458824" d="M168.2,-108C168.2,-108 266.14,-108 266.14,-108"/>
<polygon fill="#666666" fill-opacity="0.458824" stroke="#666666" stroke-width="2" stroke-opacity="0.458824" points="286.14,-108 266.14,-117 276.14,-108.5 266.14,-108.5 266.14,-108 266.14,-107.5 276.14,-107.5 266.14,-99 286.14,-108 286.14,-108"/>
</g>
</g>
</svg>
