<?xml version="1.0" encoding="UTF-8" standalone="no"?>
<!DOCTYPE svg PUBLIC "-//W3C//DTD SVG 1.1//EN"
 "http://www.w3.org/Graphics/SVG/1.1/DTD/svg11.dtd">
<!-- Generated by graphviz version 2.43.0 (0)
 -->
<!-- Title: dependency&#45;cruiser output Pages: 1 -->
<svg width="1154pt" height="536pt"
 viewBox="0.00 0.00 1154.00 536.00" xmlns="http://www.w3.org/2000/svg" xmlns:xlink="http://www.w3.org/1999/xlink">
<g id="graph0" class="graph" transform="scale(1 1) rotate(0) translate(4 532)">
<title>dependency&#45;cruiser output</title>
<polygon fill="white" stroke="transparent" points="-4,4 -4,-532 1150,-532 1150,4 -4,4"/>
<g id="clust1" class="cluster">
<title>cluster_src</title>
<path fill="#ffffff" stroke="black" stroke-width="2" d="M20,-8C20,-8 1126,-8 1126,-8 1132,-8 1138,-14 1138,-20 1138,-20 1138,-508 1138,-508 1138,-514 1132,-520 1126,-520 1126,-520 20,-520 20,-520 14,-520 8,-514 8,-508 8,-508 8,-20 8,-20 8,-14 14,-8 20,-8"/>
<text text-anchor="middle" x="573" y="-503.2" font-family="Helvetica,sans-Serif" font-weight="bold" font-size="16.00">src</text>
</g>
<g id="clust2" class="cluster">
<title>cluster_src/common</title>
<path fill="#ffffff" stroke="black" stroke-width="2" d="M870,-278C870,-278 1118,-278 1118,-278 1124,-278 1130,-284 1130,-290 1130,-290 1130,-466 1130,-466 1130,-472 1124,-478 1118,-478 1118,-478 870,-478 870,-478 864,-478 858,-472 858,-466 858,-466 858,-290 858,-290 858,-284 864,-278 870,-278"/>
<text text-anchor="middle" x="994" y="-461.2" font-family="Helvetica,sans-Serif" font-weight="bold" font-size="16.00">common</text>
</g>
<g id="clust3" class="cluster">
<title>cluster_src/common/constants</title>
<path fill="#ffffff" stroke="black" stroke-width="2" d="M1023,-286C1023,-286 1110,-286 1110,-286 1116,-286 1122,-292 1122,-298 1122,-298 1122,-370 1122,-370 1122,-376 1116,-382 1110,-382 1110,-382 1023,-382 1023,-382 1017,-382 1011,-376 1011,-370 1011,-370 1011,-298 1011,-298 1011,-292 1017,-286 1023,-286"/>
<text text-anchor="middle" x="1066.5" y="-365.2" font-family="Helvetica,sans-Serif" font-weight="bold" font-size="16.00">constants</text>
</g>
<g id="clust4" class="cluster">
<title>cluster_src/e2e</title>
<path fill="#ffffff" stroke="black" stroke-width="2" d="M28,-120C28,-120 798,-120 798,-120 804,-120 810,-126 810,-132 810,-132 810,-474 810,-474 810,-480 804,-486 798,-486 798,-486 28,-486 28,-486 22,-486 16,-480 16,-474 16,-474 16,-132 16,-132 16,-126 22,-120 28,-120"/>
<text text-anchor="middle" x="413" y="-469.2" font-family="Helvetica,sans-Serif" font-weight="bold" font-size="16.00">e2e</text>
</g>
<g id="clust5" class="cluster">
<title>cluster_src/e2e/test&#45;templates</title>
<path fill="#ffffff" stroke="black" stroke-width="2" d="M181,-280C181,-280 443,-280 443,-280 449,-280 455,-286 455,-292 455,-292 455,-440 455,-440 455,-446 449,-452 443,-452 443,-452 181,-452 181,-452 175,-452 169,-446 169,-440 169,-440 169,-292 169,-292 169,-286 175,-280 181,-280"/>
<text text-anchor="middle" x="312" y="-435.2" font-family="Helvetica,sans-Serif" font-weight="bold" font-size="16.00">test&#45;templates</text>
</g>
<g id="clust6" class="cluster">
<title>cluster_src/e2e/utils</title>
<path fill="#ffffff" stroke="black" stroke-width="2" d="M523,-128C523,-128 790,-128 790,-128 796,-128 802,-134 802,-140 802,-140 802,-440 802,-440 802,-446 796,-452 790,-452 790,-452 523,-452 523,-452 517,-452 511,-446 511,-440 511,-440 511,-140 511,-140 511,-134 517,-128 523,-128"/>
<text text-anchor="middle" x="656.5" y="-435.2" font-family="Helvetica,sans-Serif" font-weight="bold" font-size="16.00">utils</text>
</g>
<g id="clust7" class="cluster">
<title>cluster_src/unit</title>
<path fill="#ffffff" stroke="black" stroke-width="2" d="M28,-16C28,-16 101,-16 101,-16 107,-16 113,-22 113,-28 113,-28 113,-100 113,-100 113,-106 107,-112 101,-112 101,-112 28,-112 28,-112 22,-112 16,-106 16,-100 16,-100 16,-28 16,-28 16,-22 22,-16 28,-16"/>
<text text-anchor="middle" x="64.5" y="-95.2" font-family="Helvetica,sans-Serif" font-weight="bold" font-size="16.00">unit</text>
</g>
<!-- src/common/constants/test&#45;ids.ts -->
<g id="node1" class="node">
<title>src/common/constants/test&#45;ids.ts</title>
<g id="a_node1"><a xlink:href="src/common/constants/test-ids.ts" xlink:title="test&#45;ids.ts">
<path fill="#ddfeff" stroke="black" d="M1102,-348C1102,-348 1031,-348 1031,-348 1025,-348 1019,-342 1019,-336 1019,-336 1019,-306 1019,-306 1019,-300 1025,-294 1031,-294 1031,-294 1102,-294 1102,-294 1108,-294 1114,-300 1114,-306 1114,-306 1114,-336 1114,-336 1114,-342 1108,-348 1102,-348"/>
<text text-anchor="start" x="1027" y="-317.2" font-family="Helvetica,sans-Serif" font-size="16.00">test&#45;ids.ts</text>
</a>
</g>
</g>
<!-- src/common/index.ts -->
<g id="node2" class="node">
<title>src/common/index.ts</title>
<g id="a_node2"><a xlink:href="src/common/index.ts" xlink:title="index.ts">
<path fill="#ddfeff" stroke="black" d="M935,-435C935,-435 878,-435 878,-435 872,-435 866,-429 866,-423 866,-423 866,-393 866,-393 866,-387 872,-381 878,-381 878,-381 935,-381 935,-381 941,-381 947,-387 947,-393 947,-393 947,-423 947,-423 947,-429 941,-435 935,-435"/>
<text text-anchor="start" x="874" y="-404.2" font-family="Helvetica,sans-Serif" font-size="16.00">index.ts</text>
</a>
</g>
</g>
<!-- src/common/index.ts&#45;&gt;src/common/constants/test&#45;ids.ts -->
<g id="edge1" class="edge">
<title>src/common/index.ts&#45;&gt;src/common/constants/test&#45;ids.ts</title>
<path fill="none" stroke="#666666" stroke-width="2" stroke-opacity="0.458824" d="M947.25,-385.5C980.84,-385.5 1023,-385.5 1023,-385.5 1023,-385.5 1023,-368.35 1023,-368.35"/>
<polygon fill="#666666" fill-opacity="0.458824" stroke="#666666" stroke-width="2" stroke-opacity="0.458824" points="1030,-348.35 1023,-368.35 1016,-348.35 1030,-348.35"/>
</g>
<!-- src/common/types.ts -->
<g id="node3" class="node">
<title>src/common/types.ts</title>
<g id="a_node3"><a xlink:href="src/common/types.ts" xlink:title="types.ts">
<path fill="#ddfeff" stroke="black" d="M1094.5,-444C1094.5,-444 1038.5,-444 1038.5,-444 1032.5,-444 1026.5,-438 1026.5,-432 1026.5,-432 1026.5,-402 1026.5,-402 1026.5,-396 1032.5,-390 1038.5,-390 1038.5,-390 1094.5,-390 1094.5,-390 1100.5,-390 1106.5,-396 1106.5,-402 1106.5,-402 1106.5,-432 1106.5,-432 1106.5,-438 1100.5,-444 1094.5,-444"/>
<text text-anchor="start" x="1034.5" y="-413.2" font-family="Helvetica,sans-Serif" font-size="16.00">types.ts</text>
</a>
</g>
</g>
<!-- src/common/index.ts&#45;&gt;src/common/types.ts -->
<g id="edge2" class="edge">
<title>src/common/index.ts&#45;&gt;src/common/types.ts</title>
<path fill="none" stroke="#666666" stroke-width="2" stroke-opacity="0.458824" d="M947.29,-412.5C947.29,-412.5 1006.34,-412.5 1006.34,-412.5"/>
<polygon fill="#666666" fill-opacity="0.458824" stroke="#666666" stroke-width="2" stroke-opacity="0.458824" points="1026.34,-419.5 1006.34,-412.5 1026.34,-405.5 1026.34,-419.5"/>
</g>
<!-- src/e2e/index.ts -->
<g id="node4" class="node">
<title>src/e2e/index.ts</title>
<g id="a_node4"><a xlink:href="src/e2e/index.ts" xlink:title="index.ts">
<path fill="#ddfeff" stroke="black" d="M93,-272C93,-272 36,-272 36,-272 30,-272 24,-266 24,-260 24,-260 24,-230 24,-230 24,-224 30,-218 36,-218 36,-218 93,-218 93,-218 99,-218 105,-224 105,-230 105,-230 105,-260 105,-260 105,-266 99,-272 93,-272"/>
<text text-anchor="start" x="32" y="-241.2" font-family="Helvetica,sans-Serif" font-size="16.00">index.ts</text>
</a>
</g>
</g>
<!-- src/e2e/test&#45;templates/index.ts -->
<g id="node5" class="node">
<title>src/e2e/test&#45;templates/index.ts</title>
<g id="a_node5"><a xlink:href="src/e2e/test-templates/index.ts" xlink:title="index.ts">
<path fill="#ddfeff" stroke="black" d="M246,-348C246,-348 189,-348 189,-348 183,-348 177,-342 177,-336 177,-336 177,-306 177,-306 177,-300 183,-294 189,-294 189,-294 246,-294 246,-294 252,-294 258,-300 258,-306 258,-306 258,-336 258,-336 258,-342 252,-348 246,-348"/>
<text text-anchor="start" x="185" y="-317.2" font-family="Helvetica,sans-Serif" font-size="16.00">index.ts</text>
</a>
</g>
</g>
<!-- src/e2e/index.ts&#45;&gt;src/e2e/test&#45;templates/index.ts -->
<g id="edge3" class="edge">
<title>src/e2e/index.ts&#45;&gt;src/e2e/test&#45;templates/index.ts</title>
<path fill="none" stroke="#666666" stroke-width="2" stroke-opacity="0.458824" d="M78,-272.01C78,-293.85 78,-321 78,-321 78,-321 156.78,-321 156.78,-321"/>
<polygon fill="#666666" fill-opacity="0.458824" stroke="#666666" stroke-width="2" stroke-opacity="0.458824" points="176.78,-328 156.78,-321 176.78,-314 176.78,-328"/>
</g>
<!-- src/e2e/types.ts -->
<g id="node6" class="node">
<title>src/e2e/types.ts</title>
<g id="a_node6"><a xlink:href="src/e2e/types.ts" xlink:title="types.ts">
<path fill="#ddfeff" stroke="black" d="M245.5,-272C245.5,-272 189.5,-272 189.5,-272 183.5,-272 177.5,-266 177.5,-260 177.5,-260 177.5,-230 177.5,-230 177.5,-224 183.5,-218 189.5,-218 189.5,-218 245.5,-218 245.5,-218 251.5,-218 257.5,-224 257.5,-230 257.5,-230 257.5,-260 257.5,-260 257.5,-266 251.5,-272 245.5,-272"/>
<text text-anchor="start" x="185.5" y="-241.2" font-family="Helvetica,sans-Serif" font-size="16.00">types.ts</text>
</a>
</g>
</g>
<!-- src/e2e/index.ts&#45;&gt;src/e2e/types.ts -->
<g id="edge4" class="edge">
<title>src/e2e/index.ts&#45;&gt;src/e2e/types.ts</title>
<path fill="none" stroke="#666666" stroke-width="2" stroke-opacity="0.458824" d="M105.1,-245C105.1,-245 157.24,-245 157.24,-245"/>
<polygon fill="#666666" fill-opacity="0.458824" stroke="#666666" stroke-width="2" stroke-opacity="0.458824" points="177.24,-252 157.24,-245 177.24,-238 177.24,-252"/>
</g>
<!-- src/e2e/utils/index.ts -->
<g id="node7" class="node">
<title>src/e2e/utils/index.ts</title>
<g id="a_node7"><a xlink:href="src/e2e/utils/index.ts" xlink:title="index.ts">
<path fill="#ddfeff" stroke="black" d="M588,-342C588,-342 531,-342 531,-342 525,-342 519,-336 519,-330 519,-330 519,-300 519,-300 519,-294 525,-288 531,-288 531,-288 588,-288 588,-288 594,-288 600,-294 600,-300 600,-300 600,-330 600,-330 600,-336 594,-342 588,-342"/>
<text text-anchor="start" x="527" y="-311.2" font-family="Helvetica,sans-Serif" font-size="16.00">index.ts</text>
</a>
</g>
</g>
<!-- src/e2e/index.ts&#45;&gt;src/e2e/utils/index.ts -->
<g id="edge5" class="edge">
<title>src/e2e/index.ts&#45;&gt;src/e2e/utils/index.ts</title>
<path fill="none" stroke="#666666" stroke-width="2" stroke-opacity="0.458824" d="M51,-272.23C51,-276.75 51,-280 51,-280 51,-280 546,-280 546,-280 546,-280 546,-280.78 546,-280.78"/>
<polygon fill="#666666" fill-opacity="0.458824" stroke="#666666" stroke-width="2" stroke-opacity="0.458824" points="539,-287.77 546,-267.77 553,-287.77 539,-287.77"/>
</g>
<!-- src/e2e/test&#45;templates/i18n.ts -->
<g id="node8" class="node">
<title>src/e2e/test&#45;templates/i18n.ts</title>
<g id="a_node8"><a xlink:href="src/e2e/test-templates/i18n.ts" xlink:title="i18n.ts">
<path fill="#ddfeff" stroke="black" d="M412.5,-342C412.5,-342 364.5,-342 364.5,-342 358.5,-342 352.5,-336 352.5,-330 352.5,-330 352.5,-300 352.5,-300 352.5,-294 358.5,-288 364.5,-288 364.5,-288 412.5,-288 412.5,-288 418.5,-288 424.5,-294 424.5,-300 424.5,-300 424.5,-330 424.5,-330 424.5,-336 418.5,-342 412.5,-342"/>
<text text-anchor="start" x="360.5" y="-311.2" font-family="Helvetica,sans-Serif" font-size="16.00">i18n.ts</text>
</a>
</g>
</g>
<!-- src/e2e/test&#45;templates/index.ts&#45;&gt;src/e2e/test&#45;templates/i18n.ts -->
<g id="edge8" class="edge">
<title>src/e2e/test&#45;templates/index.ts&#45;&gt;src/e2e/test&#45;templates/i18n.ts</title>
<path fill="none" stroke="#666666" stroke-width="2" stroke-opacity="0.458824" d="M258.02,-310C258.02,-310 332.34,-310 332.34,-310"/>
<polygon fill="#666666" fill-opacity="0.458824" stroke="#666666" stroke-width="2" stroke-opacity="0.458824" points="352.34,-317 332.34,-310 352.34,-303 352.34,-317"/>
</g>
<!-- src/e2e/test&#45;templates/ui&#45;themes.ts -->
<g id="node9" class="node">
<title>src/e2e/test&#45;templates/ui&#45;themes.ts</title>
<g id="a_node9"><a xlink:href="src/e2e/test-templates/ui-themes.ts" xlink:title="ui&#45;themes.ts">
<path fill="#ddfeff" stroke="black" d="M435,-418C435,-418 342,-418 342,-418 336,-418 330,-412 330,-406 330,-406 330,-376 330,-376 330,-370 336,-364 342,-364 342,-364 435,-364 435,-364 441,-364 447,-370 447,-376 447,-376 447,-406 447,-406 447,-412 441,-418 435,-418"/>
<text text-anchor="start" x="338" y="-387.2" font-family="Helvetica,sans-Serif" font-size="16.00">ui&#45;themes.ts</text>
</a>
</g>
</g>
<!-- src/e2e/test&#45;templates/index.ts&#45;&gt;src/e2e/test&#45;templates/ui&#45;themes.ts -->
<g id="edge9" class="edge">
<title>src/e2e/test&#45;templates/index.ts&#45;&gt;src/e2e/test&#45;templates/ui&#45;themes.ts</title>
<path fill="none" stroke="#666666" stroke-width="2" stroke-opacity="0.458824" d="M258.27,-326C294.58,-326 342,-326 342,-326 342,-326 342,-343.81 342,-343.81"/>
<polygon fill="#666666" fill-opacity="0.458824" stroke="#666666" stroke-width="2" stroke-opacity="0.458824" points="335,-363.81 342,-343.81 349,-363.81 335,-363.81"/>
</g>
<!-- src/e2e/utils/i18n.ts -->
<g id="node10" class="node">
<title>src/e2e/utils/i18n.ts</title>
<g id="a_node10"><a xlink:href="src/e2e/utils/i18n.ts" xlink:title="i18n.ts">
<path fill="#ddfeff" stroke="black" d="M757,-190C757,-190 709,-190 709,-190 703,-190 697,-184 697,-178 697,-178 697,-148 697,-148 697,-142 703,-136 709,-136 709,-136 757,-136 757,-136 763,-136 769,-142 769,-148 769,-148 769,-178 769,-178 769,-184 763,-190 757,-190"/>
<text text-anchor="start" x="705" y="-159.2" font-family="Helvetica,sans-Serif" font-size="16.00">i18n.ts</text>
</a>
</g>
</g>
<!-- src/e2e/utils/index.ts&#45;&gt;src/e2e/utils/i18n.ts -->
<g id="edge12" class="edge">
<title>src/e2e/utils/index.ts&#45;&gt;src/e2e/utils/i18n.ts</title>
<path fill="none" stroke="#666666" stroke-width="2" stroke-opacity="0.458824" d="M573,-287.83C573,-244.1 573,-163 573,-163 573,-163 676.69,-163 676.69,-163"/>
<polygon fill="#666666" fill-opacity="0.458824" stroke="#666666" stroke-width="2" stroke-opacity="0.458824" points="696.69,-170 676.69,-163 696.69,-156 696.69,-170"/>
</g>
<!-- src/e2e/utils/navigation.ts -->
<g id="node11" class="node">
<title>src/e2e/utils/navigation.ts</title>
<g id="a_node11"><a xlink:href="src/e2e/utils/navigation.ts" xlink:title="navigation.ts">
<path fill="#ddfeff" stroke="black" d="M782,-266C782,-266 684,-266 684,-266 678,-266 672,-260 672,-254 672,-254 672,-224 672,-224 672,-218 678,-212 684,-212 684,-212 782,-212 782,-212 788,-212 794,-218 794,-224 794,-224 794,-254 794,-254 794,-260 788,-266 782,-266"/>
<text text-anchor="start" x="680" y="-235.2" font-family="Helvetica,sans-Serif" font-size="16.00">navigation.ts</text>
</a>
</g>
</g>
<!-- src/e2e/utils/index.ts&#45;&gt;src/e2e/utils/navigation.ts -->
<g id="edge13" class="edge">
<title>src/e2e/utils/index.ts&#45;&gt;src/e2e/utils/navigation.ts</title>
<path fill="none" stroke="#666666" stroke-width="2" stroke-opacity="0.458824" d="M600.3,-306C635.25,-306 680,-306 680,-306 680,-306 680,-286.25 680,-286.25"/>
<polygon fill="#666666" fill-opacity="0.458824" stroke="#666666" stroke-width="2" stroke-opacity="0.458824" points="687,-266.25 680,-286.25 673,-266.25 687,-266.25"/>
</g>
<!-- src/e2e/utils/shared.ts -->
<g id="node12" class="node">
<title>src/e2e/utils/shared.ts</title>
<g id="a_node12"><a xlink:href="src/e2e/utils/shared.ts" xlink:title="shared.ts">
<path fill="#ddfeff" stroke="black" d="M766.5,-342C766.5,-342 699.5,-342 699.5,-342 693.5,-342 687.5,-336 687.5,-330 687.5,-330 687.5,-300 687.5,-300 687.5,-294 693.5,-288 699.5,-288 699.5,-288 766.5,-288 766.5,-288 772.5,-288 778.5,-294 778.5,-300 778.5,-300 778.5,-330 778.5,-330 778.5,-336 772.5,-342 766.5,-342"/>
<text text-anchor="start" x="695.5" y="-311.2" font-family="Helvetica,sans-Serif" font-size="16.00">shared.ts</text>
</a>
</g>
</g>
<!-- src/e2e/utils/index.ts&#45;&gt;src/e2e/utils/shared.ts -->
<g id="edge14" class="edge">
<title>src/e2e/utils/index.ts&#45;&gt;src/e2e/utils/shared.ts</title>
<path fill="none" stroke="#666666" stroke-width="2" stroke-opacity="0.458824" d="M600.18,-324C600.18,-324 667.38,-324 667.38,-324"/>
<polygon fill="#666666" fill-opacity="0.458824" stroke="#666666" stroke-width="2" stroke-opacity="0.458824" points="687.38,-331 667.38,-324 687.38,-317 687.38,-331"/>
</g>
<!-- src/e2e/utils/ssr.ts -->
<g id="node13" class="node">
<title>src/e2e/utils/ssr.ts</title>
<g id="a_node13"><a xlink:href="src/e2e/utils/ssr.ts" xlink:title="ssr.ts">
<path fill="#ddfeff" stroke="black" d="M750,-418C750,-418 716,-418 716,-418 710,-418 704,-412 704,-406 704,-406 704,-376 704,-376 704,-370 710,-364 716,-364 716,-364 750,-364 750,-364 756,-364 762,-370 762,-376 762,-376 762,-406 762,-406 762,-412 756,-418 750,-418"/>
<text text-anchor="start" x="712" y="-387.2" font-family="Helvetica,sans-Serif" font-size="16.00">ssr.ts</text>
</a>
</g>
</g>
<!-- src/e2e/utils/index.ts&#45;&gt;src/e2e/utils/ssr.ts -->
<g id="edge15" class="edge">
<title>src/e2e/utils/index.ts&#45;&gt;src/e2e/utils/ssr.ts</title>
<path fill="none" stroke="#666666" stroke-width="2" stroke-opacity="0.458824" d="M560,-342.01C560,-363.85 560,-391 560,-391 560,-391 683.65,-391 683.65,-391"/>
<polygon fill="#666666" fill-opacity="0.458824" stroke="#666666" stroke-width="2" stroke-opacity="0.458824" points="703.65,-398 683.65,-391 703.65,-384 703.65,-398"/>
</g>
<!-- src/e2e/test&#45;templates/i18n.ts&#45;&gt;src/common/index.ts -->
<g id="edge7" class="edge">
<title>src/e2e/test&#45;templates/i18n.ts&#45;&gt;src/common/index.ts</title>
<path fill="none" stroke="#666666" stroke-width="2" stroke-opacity="0.458824" d="M424.77,-315C451.42,-315 483,-315 483,-315 483,-315 483,-423.67 483,-423.67 483,-423.67 845.89,-423.67 845.89,-423.67"/>
<polygon fill="#666666" fill-opacity="0.458824" stroke="#666666" stroke-width="2" stroke-opacity="0.458824" points="865.89,-423.67 845.89,-432.67 855.89,-424.17 845.89,-424.17 845.89,-423.67 845.89,-423.17 855.89,-423.17 845.89,-414.67 865.89,-423.67 865.89,-423.67"/>
</g>
<!-- src/e2e/test&#45;templates/i18n.ts&#45;&gt;src/e2e/utils/index.ts -->
<g id="edge6" class="edge">
<title>src/e2e/test&#45;templates/i18n.ts&#45;&gt;src/e2e/utils/index.ts</title>
<path fill="none" stroke="#666666" stroke-width="2" stroke-opacity="0.458824" d="M424.76,-301.5C424.76,-301.5 498.79,-301.5 498.79,-301.5"/>
<polygon fill="#666666" fill-opacity="0.458824" stroke="#666666" stroke-width="2" stroke-opacity="0.458824" points="518.79,-301.5 498.79,-310.5 508.79,-302 498.79,-302 498.79,-301.5 498.79,-301 508.79,-301 498.79,-292.5 518.79,-301.5 518.79,-301.5"/>
</g>
<!-- src/e2e/test&#45;templates/ui&#45;themes.ts&#45;&gt;src/common/index.ts -->
<g id="edge11" class="edge">
<title>src/e2e/test&#45;templates/ui&#45;themes.ts&#45;&gt;src/common/index.ts</title>
<path fill="none" stroke="#666666" stroke-width="2" stroke-opacity="0.458824" d="M389,-418.04C389,-424.38 389,-429.33 389,-429.33 389,-429.33 845.89,-429.33 845.89,-429.33"/>
<polygon fill="#666666" fill-opacity="0.458824" stroke="#666666" stroke-width="2" stroke-opacity="0.458824" points="865.89,-429.33 845.89,-438.33 855.89,-429.83 845.89,-429.83 845.89,-429.33 845.89,-428.83 855.89,-428.83 845.89,-420.33 865.89,-429.33 865.89,-429.33"/>
</g>
<!-- src/e2e/test&#45;templates/ui&#45;themes.ts&#45;&gt;src/e2e/utils/index.ts -->
<g id="edge10" class="edge">
<title>src/e2e/test&#45;templates/ui&#45;themes.ts&#45;&gt;src/e2e/utils/index.ts</title>
<path fill="none" stroke="#666666" stroke-width="2" stroke-opacity="0.458824" d="M436,-363.77C436,-346.93 436,-328.5 436,-328.5 436,-328.5 498.72,-328.5 498.72,-328.5"/>
<polygon fill="#666666" fill-opacity="0.458824" stroke="#666666" stroke-width="2" stroke-opacity="0.458824" points="518.72,-328.5 498.72,-337.5 508.72,-329 498.72,-329 498.72,-328.5 498.72,-328 508.72,-328 498.72,-319.5 518.72,-328.5 518.72,-328.5"/>
</g>
<!-- src/e2e/utils/navigation.ts&#45;&gt;src/common/index.ts -->
<g id="edge16" class="edge">
<title>src/e2e/utils/navigation.ts&#45;&gt;src/common/index.ts</title>
<path fill="none" stroke="#666666" stroke-width="2" stroke-opacity="0.458824" d="M787,-266.24C787,-310.54 787,-393.33 787,-393.33 787,-393.33 845.71,-393.33 845.71,-393.33"/>
<polygon fill="#666666" fill-opacity="0.458824" stroke="#666666" stroke-width="2" stroke-opacity="0.458824" points="865.71,-393.33 845.71,-402.33 855.71,-393.83 845.71,-393.83 845.71,-393.33 845.71,-392.83 855.71,-392.83 845.71,-384.33 865.71,-393.33 865.71,-393.33"/>
</g>
<!-- src/e2e/utils/ssr.ts&#45;&gt;src/common/index.ts -->
<g id="edge17" class="edge">
<title>src/e2e/utils/ssr.ts&#45;&gt;src/common/index.ts</title>
<path fill="none" stroke="#666666" stroke-width="2" stroke-opacity="0.458824" d="M762.04,-405.67C762.04,-405.67 845.98,-405.67 845.98,-405.67"/>
<polygon fill="#666666" fill-opacity="0.458824" stroke="#666666" stroke-width="2" stroke-opacity="0.458824" points="865.98,-405.67 845.98,-414.67 855.98,-406.17 845.98,-406.17 845.98,-405.67 845.98,-405.17 855.98,-405.17 845.98,-396.67 865.98,-405.67 865.98,-405.67"/>
</g>
<!-- src/unit/index.ts -->
<g id="node14" class="node">
<title>src/unit/index.ts</title>
<g id="a_node14"><a xlink:href="src/unit/index.ts" xlink:title="index.ts">
<path fill="#ccffcc" stroke="black" d="M93,-78C93,-78 36,-78 36,-78 30,-78 24,-72 24,-66 24,-66 24,-36 24,-36 24,-30 30,-24 36,-24 36,-24 93,-24 93,-24 99,-24 105,-30 105,-36 105,-36 105,-66 105,-66 105,-72 99,-78 93,-78"/>
<text text-anchor="start" x="32" y="-47.2" font-family="Helvetica,sans-Serif" font-size="16.00">index.ts</text>
</a>
</g>
</g>
</g>
</svg>
