<?xml version="1.0" encoding="UTF-8" standalone="no"?>
<!DOCTYPE svg PUBLIC "-//W3C//DTD SVG 1.1//EN"
 "http://www.w3.org/Graphics/SVG/1.1/DTD/svg11.dtd">
<!-- Generated by graphviz version 2.43.0 (0)
 -->
<!-- Title: dependency&#45;cruiser output Pages: 1 -->
<svg width="872pt" height="678pt"
 viewBox="0.00 0.00 872.00 678.00" xmlns="http://www.w3.org/2000/svg" xmlns:xlink="http://www.w3.org/1999/xlink">
<g id="graph0" class="graph" transform="scale(1 1) rotate(0) translate(4 674)">
<title>dependency&#45;cruiser output</title>
<polygon fill="white" stroke="transparent" points="-4,4 -4,-674 868,-674 868,4 -4,4"/>
<g id="clust1" class="cluster">
<title>cluster_src</title>
<path fill="#ffffff" stroke="black" stroke-width="2" d="M20,-8C20,-8 844,-8 844,-8 850,-8 856,-14 856,-20 856,-20 856,-650 856,-650 856,-656 850,-662 844,-662 844,-662 20,-662 20,-662 14,-662 8,-656 8,-650 8,-650 8,-20 8,-20 8,-14 14,-8 20,-8"/>
<text text-anchor="middle" x="432" y="-645.2" font-family="Helvetica,sans-Serif" font-weight="bold" font-size="16.00">src</text>
</g>
<g id="clust2" class="cluster">
<title>cluster_src/common</title>
<path fill="#ffffff" stroke="black" stroke-width="2" d="M223.5,-532C223.5,-532 506,-532 506,-532 512,-532 518,-538 518,-544 518,-544 518,-616 518,-616 518,-622 512,-628 506,-628 506,-628 223.5,-628 223.5,-628 217.5,-628 211.5,-622 211.5,-616 211.5,-616 211.5,-544 211.5,-544 211.5,-538 217.5,-532 223.5,-532"/>
<text text-anchor="middle" x="364.75" y="-611.2" font-family="Helvetica,sans-Serif" font-weight="bold" font-size="16.00">common</text>
</g>
<g id="clust3" class="cluster">
<title>cluster_src/e2e</title>
<path fill="#ffffff" stroke="black" stroke-width="2" d="M28,-120C28,-120 836,-120 836,-120 842,-120 848,-126 848,-132 848,-132 848,-512 848,-512 848,-518 842,-524 836,-524 836,-524 28,-524 28,-524 22,-524 16,-518 16,-512 16,-512 16,-132 16,-132 16,-126 22,-120 28,-120"/>
<text text-anchor="middle" x="432" y="-507.2" font-family="Helvetica,sans-Serif" font-weight="bold" font-size="16.00">e2e</text>
</g>
<g id="clust4" class="cluster">
<title>cluster_src/e2e/common&#45;cases</title>
<path fill="#ffffff" stroke="black" stroke-width="2" d="M181,-128C181,-128 494.5,-128 494.5,-128 500.5,-128 506.5,-134 506.5,-140 506.5,-140 506.5,-364 506.5,-364 506.5,-370 500.5,-376 494.5,-376 494.5,-376 181,-376 181,-376 175,-376 169,-370 169,-364 169,-364 169,-140 169,-140 169,-134 175,-128 181,-128"/>
<text text-anchor="middle" x="337.75" y="-359.2" font-family="Helvetica,sans-Serif" font-weight="bold" font-size="16.00">common&#45;cases</text>
</g>
<g id="clust5" class="cluster">
<title>cluster_src/e2e/utils</title>
<path fill="#ffffff" stroke="black" stroke-width="2" d="M426,-384C426,-384 650,-384 650,-384 656,-384 662,-390 662,-396 662,-396 662,-468 662,-468 662,-474 656,-480 650,-480 650,-480 426,-480 426,-480 420,-480 414,-474 414,-468 414,-468 414,-396 414,-396 414,-390 420,-384 426,-384"/>
<text text-anchor="middle" x="538" y="-463.2" font-family="Helvetica,sans-Serif" font-weight="bold" font-size="16.00">utils</text>
</g>
<g id="clust6" class="cluster">
<title>cluster_src/unit</title>
<path fill="#ffffff" stroke="black" stroke-width="2" d="M28,-16C28,-16 101,-16 101,-16 107,-16 113,-22 113,-28 113,-28 113,-100 113,-100 113,-106 107,-112 101,-112 101,-112 28,-112 28,-112 22,-112 16,-106 16,-100 16,-100 16,-28 16,-28 16,-22 22,-16 28,-16"/>
<text text-anchor="middle" x="64.5" y="-95.2" font-family="Helvetica,sans-Serif" font-weight="bold" font-size="16.00">unit</text>
</g>
<!-- src/common/index.ts -->
<g id="node1" class="node">
<title>src/common/index.ts</title>
<g id="a_node1"><a xlink:href="src/common/index.ts" xlink:title="index.ts">
<path fill="#ddfeff" stroke="black" d="M288.5,-594C288.5,-594 231.5,-594 231.5,-594 225.5,-594 219.5,-588 219.5,-582 219.5,-582 219.5,-552 219.5,-552 219.5,-546 225.5,-540 231.5,-540 231.5,-540 288.5,-540 288.5,-540 294.5,-540 300.5,-546 300.5,-552 300.5,-552 300.5,-582 300.5,-582 300.5,-588 294.5,-594 288.5,-594"/>
<text text-anchor="start" x="227.5" y="-563.2" font-family="Helvetica,sans-Serif" font-size="16.00">index.ts</text>
</a>
</g>
</g>
<!-- src/common/test&#45;ids.ts -->
<g id="node2" class="node">
<title>src/common/test&#45;ids.ts</title>
<g id="a_node2"><a xlink:href="src/common/test-ids.ts" xlink:title="test&#45;ids.ts">
<path fill="#ddfeff" stroke="black" d="M498,-594C498,-594 427,-594 427,-594 421,-594 415,-588 415,-582 415,-582 415,-552 415,-552 415,-546 421,-540 427,-540 427,-540 498,-540 498,-540 504,-540 510,-546 510,-552 510,-552 510,-582 510,-582 510,-588 504,-594 498,-594"/>
<text text-anchor="start" x="423" y="-563.2" font-family="Helvetica,sans-Serif" font-size="16.00">test&#45;ids.ts</text>
</a>
</g>
</g>
<!-- src/common/index.ts&#45;&gt;src/common/test&#45;ids.ts -->
<g id="edge1" class="edge">
<title>src/common/index.ts&#45;&gt;src/common/test&#45;ids.ts</title>
<path fill="none" stroke="#666666" stroke-width="2" stroke-opacity="0.458824" d="M300.98,-567C300.98,-567 394.83,-567 394.83,-567"/>
<polygon fill="#666666" fill-opacity="0.458824" stroke="#666666" stroke-width="2" stroke-opacity="0.458824" points="414.83,-574 394.83,-567 414.83,-560 414.83,-574"/>
</g>
<!-- src/e2e/common&#45;cases/dark&#45;mode.ts -->
<g id="node3" class="node">
<title>src/e2e/common&#45;cases/dark&#45;mode.ts</title>
<g id="a_node3"><a xlink:href="src/e2e/common-cases/dark-mode.ts" xlink:title="dark&#45;mode.ts">
<path fill="#ccffcc" stroke="black" d="M310,-342C310,-342 210,-342 210,-342 204,-342 198,-336 198,-330 198,-330 198,-300 198,-300 198,-294 204,-288 210,-288 210,-288 310,-288 310,-288 316,-288 322,-294 322,-300 322,-300 322,-330 322,-330 322,-336 316,-342 310,-342"/>
<text text-anchor="start" x="206" y="-311.2" font-family="Helvetica,sans-Serif" font-size="16.00">dark&#45;mode.ts</text>
</a>
</g>
</g>
<!-- src/e2e/common&#45;cases/i18n.ts -->
<g id="node4" class="node">
<title>src/e2e/common&#45;cases/i18n.ts</title>
<g id="a_node4"><a xlink:href="src/e2e/common-cases/i18n.ts" xlink:title="i18n.ts">
<path fill="#ddfeff" stroke="black" d="M486.5,-190C486.5,-190 438.5,-190 438.5,-190 432.5,-190 426.5,-184 426.5,-178 426.5,-178 426.5,-148 426.5,-148 426.5,-142 432.5,-136 438.5,-136 438.5,-136 486.5,-136 486.5,-136 492.5,-136 498.5,-142 498.5,-148 498.5,-148 498.5,-178 498.5,-178 498.5,-184 492.5,-190 486.5,-190"/>
<text text-anchor="start" x="434.5" y="-159.2" font-family="Helvetica,sans-Serif" font-size="16.00">i18n.ts</text>
</a>
</g>
</g>
<!-- src/e2e/common&#45;cases/index.ts -->
<g id="node5" class="node">
<title>src/e2e/common&#45;cases/index.ts</title>
<g id="a_node5"><a xlink:href="src/e2e/common-cases/index.ts" xlink:title="index.ts">
<path fill="#ddfeff" stroke="black" d="M288.5,-190C288.5,-190 231.5,-190 231.5,-190 225.5,-190 219.5,-184 219.5,-178 219.5,-178 219.5,-148 219.5,-148 219.5,-142 225.5,-136 231.5,-136 231.5,-136 288.5,-136 288.5,-136 294.5,-136 300.5,-142 300.5,-148 300.5,-148 300.5,-178 300.5,-178 300.5,-184 294.5,-190 288.5,-190"/>
<text text-anchor="start" x="227.5" y="-159.2" font-family="Helvetica,sans-Serif" font-size="16.00">index.ts</text>
</a>
</g>
</g>
<!-- src/e2e/common&#45;cases/index.ts&#45;&gt;src/e2e/common&#45;cases/i18n.ts -->
<g id="edge2" class="edge">
<title>src/e2e/common&#45;cases/index.ts&#45;&gt;src/e2e/common&#45;cases/i18n.ts</title>
<path fill="none" stroke="#666666" stroke-width="2" stroke-opacity="0.458824" d="M300.98,-163C300.98,-163 406.33,-163 406.33,-163"/>
<polygon fill="#666666" fill-opacity="0.458824" stroke="#666666" stroke-width="2" stroke-opacity="0.458824" points="426.33,-170 406.33,-163 426.33,-156 426.33,-170"/>
</g>
<!-- src/e2e/common&#45;cases/locale&#45;switching.ts -->
<g id="node6" class="node">
<title>src/e2e/common&#45;cases/locale&#45;switching.ts</title>
<g id="a_node6"><a xlink:href="src/e2e/common-cases/locale-switching.ts" xlink:title="locale&#45;switching.ts">
<path fill="#ddfeff" stroke="black" d="M331,-266C331,-266 189,-266 189,-266 183,-266 177,-260 177,-254 177,-254 177,-224 177,-224 177,-218 183,-212 189,-212 189,-212 331,-212 331,-212 337,-212 343,-218 343,-224 343,-224 343,-254 343,-254 343,-260 337,-266 331,-266"/>
<text text-anchor="start" x="185" y="-235.2" font-family="Helvetica,sans-Serif" font-size="16.00">locale&#45;switching.ts</text>
</a>
</g>
</g>
<!-- src/e2e/common&#45;cases/locale&#45;switching.ts&#45;&gt;src/common/test&#45;ids.ts -->
<g id="edge4" class="edge">
<title>src/e2e/common&#45;cases/locale&#45;switching.ts&#45;&gt;src/common/test&#45;ids.ts</title>
<path fill="none" stroke="#666666" stroke-width="2" stroke-opacity="0.458824" d="M343.23,-239C381.7,-239 419,-239 419,-239 419,-239 419,-519.88 419,-519.88"/>
<polygon fill="#666666" fill-opacity="0.458824" stroke="#666666" stroke-width="2" stroke-opacity="0.458824" points="419,-539.88 410,-519.88 418.5,-529.88 418.5,-519.88 419,-519.88 419.5,-519.88 419.5,-529.88 428,-519.88 419,-539.88 419,-539.88"/>
</g>
<!-- src/e2e/utils/index.ts -->
<g id="node7" class="node">
<title>src/e2e/utils/index.ts</title>
<g id="a_node7"><a xlink:href="src/e2e/utils/index.ts" xlink:title="index.ts">
<path fill="#ddfeff" stroke="black" d="M491,-446C491,-446 434,-446 434,-446 428,-446 422,-440 422,-434 422,-434 422,-404 422,-404 422,-398 428,-392 434,-392 434,-392 491,-392 491,-392 497,-392 503,-398 503,-404 503,-404 503,-434 503,-434 503,-440 497,-446 491,-446"/>
<text text-anchor="start" x="430" y="-415.2" font-family="Helvetica,sans-Serif" font-size="16.00">index.ts</text>
</a>
</g>
</g>
<!-- src/e2e/common&#45;cases/locale&#45;switching.ts&#45;&gt;src/e2e/utils/index.ts -->
<g id="edge3" class="edge">
<title>src/e2e/common&#45;cases/locale&#45;switching.ts&#45;&gt;src/e2e/utils/index.ts</title>
<path fill="none" stroke="#666666" stroke-width="2" stroke-opacity="0.458824" d="M333,-266.1C333,-314.31 333,-410 333,-410 333,-410 401.88,-410 401.88,-410"/>
<polygon fill="#666666" fill-opacity="0.458824" stroke="#666666" stroke-width="2" stroke-opacity="0.458824" points="421.88,-410 401.88,-419 411.88,-410.5 401.88,-410.5 401.88,-410 401.88,-409.5 411.88,-409.5 401.88,-401 421.88,-410 421.88,-410"/>
</g>
<!-- src/e2e/utils/i18n.ts -->
<g id="node10" class="node">
<title>src/e2e/utils/i18n.ts</title>
<g id="a_node10"><a xlink:href="src/e2e/utils/i18n.ts" xlink:title="i18n.ts">
<path fill="#ddfeff" stroke="black" d="M642,-446C642,-446 594,-446 594,-446 588,-446 582,-440 582,-434 582,-434 582,-404 582,-404 582,-398 588,-392 594,-392 594,-392 642,-392 642,-392 648,-392 654,-398 654,-404 654,-404 654,-434 654,-434 654,-440 648,-446 642,-446"/>
<text text-anchor="start" x="590" y="-415.2" font-family="Helvetica,sans-Serif" font-size="16.00">i18n.ts</text>
</a>
</g>
</g>
<!-- src/e2e/utils/index.ts&#45;&gt;src/e2e/utils/i18n.ts -->
<g id="edge9" class="edge">
<title>src/e2e/utils/index.ts&#45;&gt;src/e2e/utils/i18n.ts</title>
<path fill="none" stroke="#666666" stroke-width="2" stroke-opacity="0.458824" d="M503.36,-419C503.36,-419 561.92,-419 561.92,-419"/>
<polygon fill="#666666" fill-opacity="0.458824" stroke="#666666" stroke-width="2" stroke-opacity="0.458824" points="581.92,-426 561.92,-419 581.92,-412 581.92,-426"/>
</g>
<!-- src/e2e/constants.ts -->
<g id="node8" class="node">
<title>src/e2e/constants.ts</title>
<g id="a_node8"><a xlink:href="src/e2e/constants.ts" xlink:title="constants.ts">
<path fill="#ddfeff" stroke="black" d="M828,-468C828,-468 738,-468 738,-468 732,-468 726,-462 726,-456 726,-456 726,-426 726,-426 726,-420 732,-414 738,-414 738,-414 828,-414 828,-414 834,-414 840,-420 840,-426 840,-426 840,-456 840,-456 840,-462 834,-468 828,-468"/>
<text text-anchor="start" x="734" y="-437.2" font-family="Helvetica,sans-Serif" font-size="16.00">constants.ts</text>
</a>
</g>
</g>
<!-- src/e2e/index.ts -->
<g id="node9" class="node">
<title>src/e2e/index.ts</title>
<g id="a_node9"><a xlink:href="src/e2e/index.ts" xlink:title="index.ts">
<path fill="#ddfeff" stroke="black" d="M93,-446C93,-446 36,-446 36,-446 30,-446 24,-440 24,-434 24,-434 24,-404 24,-404 24,-398 30,-392 36,-392 36,-392 93,-392 93,-392 99,-392 105,-398 105,-404 105,-404 105,-434 105,-434 105,-440 99,-446 93,-446"/>
<text text-anchor="start" x="32" y="-415.2" font-family="Helvetica,sans-Serif" font-size="16.00">index.ts</text>
</a>
</g>
</g>
<!-- src/e2e/index.ts&#45;&gt;src/e2e/common&#45;cases/index.ts -->
<g id="edge5" class="edge">
<title>src/e2e/index.ts&#45;&gt;src/e2e/common&#45;cases/index.ts</title>
<path fill="none" stroke="#666666" stroke-width="2" stroke-opacity="0.458824" d="M65,-391.6C65,-325.56 65,-163 65,-163 65,-163 199.12,-163 199.12,-163"/>
<polygon fill="#666666" fill-opacity="0.458824" stroke="#666666" stroke-width="2" stroke-opacity="0.458824" points="219.12,-170 199.12,-163 219.12,-156 219.12,-170"/>
</g>
<!-- src/e2e/index.ts&#45;&gt;src/e2e/utils/index.ts -->
<g id="edge7" class="edge">
<title>src/e2e/index.ts&#45;&gt;src/e2e/utils/index.ts</title>
<path fill="none" stroke="#666666" stroke-width="2" stroke-opacity="0.458824" d="M105.22,-428C105.22,-428 401.83,-428 401.83,-428"/>
<polygon fill="#666666" fill-opacity="0.458824" stroke="#666666" stroke-width="2" stroke-opacity="0.458824" points="421.83,-435 401.83,-428 421.83,-421 421.83,-435"/>
</g>
<!-- src/e2e/index.ts&#45;&gt;src/e2e/constants.ts -->
<g id="edge6" class="edge">
<title>src/e2e/index.ts&#45;&gt;src/e2e/constants.ts</title>
<path fill="none" stroke="#666666" stroke-width="2" stroke-opacity="0.458824" d="M65,-446.21C65,-452.3 65,-457 65,-457 65,-457 705.76,-457 705.76,-457"/>
<polygon fill="#666666" fill-opacity="0.458824" stroke="#666666" stroke-width="2" stroke-opacity="0.458824" points="725.76,-464 705.76,-457 725.76,-450 725.76,-464"/>
</g>
<!-- src/e2e/utils/i18n.ts&#45;&gt;src/e2e/constants.ts -->
<g id="edge8" class="edge">
<title>src/e2e/utils/i18n.ts&#45;&gt;src/e2e/constants.ts</title>
<path fill="none" stroke="#666666" stroke-width="2" stroke-opacity="0.458824" d="M654.21,-430C654.21,-430 705.8,-430 705.8,-430"/>
<polygon fill="#666666" fill-opacity="0.458824" stroke="#666666" stroke-width="2" stroke-opacity="0.458824" points="725.8,-430 705.8,-439 715.8,-430.5 705.8,-430.5 705.8,-430 705.8,-429.5 715.8,-429.5 705.8,-421 725.8,-430 725.8,-430"/>
</g>
<!-- src/unit/index.ts -->
<g id="node11" class="node">
<title>src/unit/index.ts</title>
<g id="a_node11"><a xlink:href="src/unit/index.ts" xlink:title="index.ts">
<path fill="#ccffcc" stroke="black" d="M93,-78C93,-78 36,-78 36,-78 30,-78 24,-72 24,-66 24,-66 24,-36 24,-36 24,-30 30,-24 36,-24 36,-24 93,-24 93,-24 99,-24 105,-30 105,-36 105,-36 105,-66 105,-66 105,-72 99,-78 93,-78"/>
<text text-anchor="start" x="32" y="-47.2" font-family="Helvetica,sans-Serif" font-size="16.00">index.ts</text>
</a>
</g>
</g>
</g>
</svg>
