<?xml version="1.0" encoding="UTF-8" standalone="no"?>
<!DOCTYPE svg PUBLIC "-//W3C//DTD SVG 1.1//EN"
 "http://www.w3.org/Graphics/SVG/1.1/DTD/svg11.dtd">
<!-- Generated by graphviz version 2.43.0 (0)
 -->
<!-- Title: G Pages: 1 -->
<svg width="694pt" height="245pt"
 viewBox="0.00 0.00 694.20 245.20" xmlns="http://www.w3.org/2000/svg" xmlns:xlink="http://www.w3.org/1999/xlink">
<g id="graph0" class="graph" transform="scale(1 1) rotate(0) translate(21.6 223.6)">
<title>G</title>
<polygon fill="#111111" stroke="transparent" points="-21.6,21.6 -21.6,-223.6 672.6,-223.6 672.6,21.6 -21.6,21.6"/>
<!-- constants.ts -->
<g id="node1" class="node">
<title>constants.ts</title>
<path fill="none" stroke="#cfffac" d="M96.83,-26C96.83,-26 10.17,-26 10.17,-26 5.83,-26 1.5,-21.67 1.5,-17.33 1.5,-17.33 1.5,-8.67 1.5,-8.67 1.5,-4.33 5.83,0 10.17,0 10.17,0 96.83,0 96.83,0 101.17,0 105.5,-4.33 105.5,-8.67 105.5,-8.67 105.5,-17.33 105.5,-17.33 105.5,-21.67 101.17,-26 96.83,-26"/>
<text text-anchor="middle" x="53.5" y="-9.2" font-family="Arial" font-size="16.00" fill="#cfffac">constants.ts</text>
</g>
<!-- types.ts -->
<g id="node2" class="node">
<title>types.ts</title>
<path fill="none" stroke="#cfffac" d="M81.33,-70C81.33,-70 25.67,-70 25.67,-70 21.33,-70 17,-65.67 17,-61.33 17,-61.33 17,-52.67 17,-52.67 17,-48.33 21.33,-44 25.67,-44 25.67,-44 81.33,-44 81.33,-44 85.67,-44 90,-48.33 90,-52.67 90,-52.67 90,-61.33 90,-61.33 90,-65.67 85.67,-70 81.33,-70"/>
<text text-anchor="middle" x="53.5" y="-53.2" font-family="Arial" font-size="16.00" fill="#cfffac">types.ts</text>
</g>
<!-- utils/i18n/display.ts -->
<g id="node3" class="node">
<title>utils/i18n/display.ts</title>
<path fill="none" stroke="#c6c5fe" d="M464.33,-156C464.33,-156 329.67,-156 329.67,-156 325.33,-156 321,-151.67 321,-147.33 321,-147.33 321,-138.67 321,-138.67 321,-134.33 325.33,-130 329.67,-130 329.67,-130 464.33,-130 464.33,-130 468.67,-130 473,-134.33 473,-138.67 473,-138.67 473,-147.33 473,-147.33 473,-151.67 468.67,-156 464.33,-156"/>
<text text-anchor="middle" x="397" y="-139.2" font-family="Arial" font-size="16.00" fill="#c6c5fe">utils/i18n/display.ts</text>
</g>
<!-- utils/i18n/types.ts -->
<g id="node4" class="node">
<title>utils/i18n/types.ts</title>
<path fill="none" stroke="#cfffac" d="M642.33,-135C642.33,-135 517.67,-135 517.67,-135 513.33,-135 509,-130.67 509,-126.33 509,-126.33 509,-117.67 509,-117.67 509,-113.33 513.33,-109 517.67,-109 517.67,-109 642.33,-109 642.33,-109 646.67,-109 651,-113.33 651,-117.67 651,-117.67 651,-126.33 651,-126.33 651,-130.67 646.67,-135 642.33,-135"/>
<text text-anchor="middle" x="580" y="-118.2" font-family="Arial" font-size="16.00" fill="#cfffac">utils/i18n/types.ts</text>
</g>
<!-- utils/i18n/display.ts&#45;&gt;utils/i18n/types.ts -->
<g id="edge1" class="edge">
<title>utils/i18n/display.ts&#45;&gt;utils/i18n/types.ts</title>
<path fill="none" stroke="#757575" d="M473.19,-134.28C481.7,-133.29 490.41,-132.28 498.98,-131.28"/>
<polygon fill="#757575" stroke="#757575" points="499.44,-134.75 508.97,-130.12 498.64,-127.8 499.44,-134.75"/>
</g>
<!-- utils/i18n/index.ts -->
<g id="node5" class="node">
<title>utils/i18n/index.ts</title>
<path fill="none" stroke="#c6c5fe" d="M276.33,-136C276.33,-136 151.67,-136 151.67,-136 147.33,-136 143,-131.67 143,-127.33 143,-127.33 143,-118.67 143,-118.67 143,-114.33 147.33,-110 151.67,-110 151.67,-110 276.33,-110 276.33,-110 280.67,-110 285,-114.33 285,-118.67 285,-118.67 285,-127.33 285,-127.33 285,-131.67 280.67,-136 276.33,-136"/>
<text text-anchor="middle" x="214" y="-119.2" font-family="Arial" font-size="16.00" fill="#c6c5fe">utils/i18n/index.ts</text>
</g>
<!-- utils/i18n/index.ts&#45;&gt;utils/i18n/display.ts -->
<g id="edge2" class="edge">
<title>utils/i18n/index.ts&#45;&gt;utils/i18n/display.ts</title>
<path fill="none" stroke="#757575" d="M285.24,-130.76C293.59,-131.68 302.19,-132.63 310.73,-133.58"/>
<polygon fill="#757575" stroke="#757575" points="310.38,-137.06 320.71,-134.68 311.15,-130.1 310.38,-137.06"/>
</g>
<!-- utils/i18n/index.ts&#45;&gt;utils/i18n/types.ts -->
<g id="edge3" class="edge">
<title>utils/i18n/index.ts&#45;&gt;utils/i18n/types.ts</title>
<path fill="none" stroke="#757575" d="M285.13,-121.49C297.1,-121.29 309.4,-121.11 321,-121 380.5,-120.44 447.73,-120.73 498.64,-121.14"/>
<polygon fill="#757575" stroke="#757575" points="498.89,-124.64 508.92,-121.22 498.95,-117.64 498.89,-124.64"/>
</g>
<!-- utils/index.ts -->
<g id="node6" class="node">
<title>utils/index.ts</title>
<path fill="none" stroke="#c6c5fe" d="M98.33,-114C98.33,-114 8.67,-114 8.67,-114 4.33,-114 0,-109.67 0,-105.33 0,-105.33 0,-96.67 0,-96.67 0,-92.33 4.33,-88 8.67,-88 8.67,-88 98.33,-88 98.33,-88 102.67,-88 107,-92.33 107,-96.67 107,-96.67 107,-105.33 107,-105.33 107,-109.67 102.67,-114 98.33,-114"/>
<text text-anchor="middle" x="53.5" y="-97.2" font-family="Arial" font-size="16.00" fill="#c6c5fe">utils/index.ts</text>
</g>
<!-- utils/index.ts&#45;&gt;utils/i18n/index.ts -->
<g id="edge4" class="edge">
<title>utils/index.ts&#45;&gt;utils/i18n/index.ts</title>
<path fill="none" stroke="#757575" d="M107.28,-108.33C115.5,-109.47 124.15,-110.67 132.81,-111.87"/>
<polygon fill="#757575" stroke="#757575" points="132.58,-115.37 142.97,-113.28 133.54,-108.44 132.58,-115.37"/>
</g>
<!-- utils/text.ts -->
<g id="node7" class="node">
<title>utils/text.ts</title>
<path fill="none" stroke="#cfffac" d="M252.33,-92C252.33,-92 175.67,-92 175.67,-92 171.33,-92 167,-87.67 167,-83.33 167,-83.33 167,-74.67 167,-74.67 167,-70.33 171.33,-66 175.67,-66 175.67,-66 252.33,-66 252.33,-66 256.67,-66 261,-70.33 261,-74.67 261,-74.67 261,-83.33 261,-83.33 261,-87.67 256.67,-92 252.33,-92"/>
<text text-anchor="middle" x="214" y="-75.2" font-family="Arial" font-size="16.00" fill="#cfffac">utils/text.ts</text>
</g>
<!-- utils/index.ts&#45;&gt;utils/text.ts -->
<g id="edge5" class="edge">
<title>utils/index.ts&#45;&gt;utils/text.ts</title>
<path fill="none" stroke="#757575" d="M107.28,-93.67C123.09,-91.48 140.48,-89.07 156.52,-86.84"/>
<polygon fill="#757575" stroke="#757575" points="157.41,-90.25 166.83,-85.41 156.45,-83.32 157.41,-90.25"/>
</g>
<!-- vite&#45;env.d.ts -->
<g id="node8" class="node">
<title>vite&#45;env.d.ts</title>
<path fill="none" stroke="#cfffac" d="M96.33,-158C96.33,-158 10.67,-158 10.67,-158 6.33,-158 2,-153.67 2,-149.33 2,-149.33 2,-140.67 2,-140.67 2,-136.33 6.33,-132 10.67,-132 10.67,-132 96.33,-132 96.33,-132 100.67,-132 105,-136.33 105,-140.67 105,-140.67 105,-149.33 105,-149.33 105,-153.67 100.67,-158 96.33,-158"/>
<text text-anchor="middle" x="53.5" y="-141.2" font-family="Arial" font-size="16.00" fill="#cfffac">vite&#45;env.d.ts</text>
</g>
<!-- zod/index.ts -->
<g id="node9" class="node">
<title>zod/index.ts</title>
<path fill="none" stroke="#c6c5fe" d="M96.83,-202C96.83,-202 10.17,-202 10.17,-202 5.83,-202 1.5,-197.67 1.5,-193.33 1.5,-193.33 1.5,-184.67 1.5,-184.67 1.5,-180.33 5.83,-176 10.17,-176 10.17,-176 96.83,-176 96.83,-176 101.17,-176 105.5,-180.33 105.5,-184.67 105.5,-184.67 105.5,-193.33 105.5,-193.33 105.5,-197.67 101.17,-202 96.83,-202"/>
<text text-anchor="middle" x="53.5" y="-185.2" font-family="Arial" font-size="16.00" fill="#c6c5fe">zod/index.ts</text>
</g>
<!-- zod/utils.ts -->
<g id="node10" class="node">
<title>zod/utils.ts</title>
<path fill="none" stroke="#cfffac" d="M252.33,-202C252.33,-202 175.67,-202 175.67,-202 171.33,-202 167,-197.67 167,-193.33 167,-193.33 167,-184.67 167,-184.67 167,-180.33 171.33,-176 175.67,-176 175.67,-176 252.33,-176 252.33,-176 256.67,-176 261,-180.33 261,-184.67 261,-184.67 261,-193.33 261,-193.33 261,-197.67 256.67,-202 252.33,-202"/>
<text text-anchor="middle" x="214" y="-185.2" font-family="Arial" font-size="16.00" fill="#cfffac">zod/utils.ts</text>
</g>
<!-- zod/index.ts&#45;&gt;zod/utils.ts -->
<g id="edge6" class="edge">
<title>zod/index.ts&#45;&gt;zod/utils.ts</title>
<path fill="none" stroke="#757575" d="M105.52,-189C121.86,-189 140.04,-189 156.73,-189"/>
<polygon fill="#757575" stroke="#757575" points="156.9,-192.5 166.9,-189 156.9,-185.5 156.9,-192.5"/>
</g>
</g>
</svg>
