<?xml version="1.0" encoding="UTF-8" standalone="no"?>
<!DOCTYPE svg PUBLIC "-//W3C//DTD SVG 1.1//EN"
 "http://www.w3.org/Graphics/SVG/1.1/DTD/svg11.dtd">
<!-- Generated by graphviz version 2.43.0 (0)
 -->
<!-- Title: dependency&#45;cruiser output Pages: 1 -->
<svg width="658pt" height="584pt"
 viewBox="0.00 0.00 658.00 584.00" xmlns="http://www.w3.org/2000/svg" xmlns:xlink="http://www.w3.org/1999/xlink">
<g id="graph0" class="graph" transform="scale(1 1) rotate(0) translate(4 580)">
<title>dependency&#45;cruiser output</title>
<polygon fill="white" stroke="transparent" points="-4,4 -4,-580 654,-580 654,4 -4,4"/>
<g id="clust1" class="cluster">
<title>cluster_src</title>
<path fill="#ffffff" stroke="black" stroke-width="2" d="M20,-8C20,-8 630,-8 630,-8 636,-8 642,-14 642,-20 642,-20 642,-556 642,-556 642,-562 636,-568 630,-568 630,-568 20,-568 20,-568 14,-568 8,-562 8,-556 8,-556 8,-20 8,-20 8,-14 14,-8 20,-8"/>
<text text-anchor="middle" x="325" y="-551.2" font-family="Helvetica,sans-Serif" font-weight="bold" font-size="16.00">src</text>
</g>
<g id="clust2" class="cluster">
<title>cluster_src/utils</title>
<path fill="#ffffff" stroke="black" stroke-width="2" d="M28,-258C28,-258 452,-258 452,-258 458,-258 464,-264 464,-270 464,-270 464,-522 464,-522 464,-528 458,-534 452,-534 452,-534 28,-534 28,-534 22,-534 16,-528 16,-522 16,-522 16,-270 16,-270 16,-264 22,-258 28,-258"/>
<text text-anchor="middle" x="240" y="-517.2" font-family="Helvetica,sans-Serif" font-weight="bold" font-size="16.00">utils</text>
</g>
<g id="clust3" class="cluster">
<title>cluster_src/utils/i18n</title>
<path fill="#ffffff" stroke="black" stroke-width="2" d="M194,-266C194,-266 444,-266 444,-266 450,-266 456,-272 456,-278 456,-278 456,-426 456,-426 456,-432 450,-438 444,-438 444,-438 194,-438 194,-438 188,-438 182,-432 182,-426 182,-426 182,-278 182,-278 182,-272 188,-266 194,-266"/>
<text text-anchor="middle" x="319" y="-421.2" font-family="Helvetica,sans-Serif" font-weight="bold" font-size="16.00">i18n</text>
</g>
<g id="clust4" class="cluster">
<title>cluster_src/zod</title>
<path fill="#ffffff" stroke="black" stroke-width="2" d="M28,-78C28,-78 280,-78 280,-78 286,-78 292,-84 292,-90 292,-90 292,-238 292,-238 292,-244 286,-250 280,-250 280,-250 28,-250 28,-250 22,-250 16,-244 16,-238 16,-238 16,-90 16,-90 16,-84 22,-78 28,-78"/>
<text text-anchor="middle" x="154" y="-233.2" font-family="Helvetica,sans-Serif" font-weight="bold" font-size="16.00">zod</text>
</g>
<!-- src/constants.ts -->
<g id="node1" class="node">
<title>src/constants.ts</title>
<g id="a_node1"><a xlink:href="src/constants.ts" xlink:title="constants.ts">
<path fill="#ddfeff" stroke="black" d="M622,-328C622,-328 532,-328 532,-328 526,-328 520,-322 520,-316 520,-316 520,-286 520,-286 520,-280 526,-274 532,-274 532,-274 622,-274 622,-274 628,-274 634,-280 634,-286 634,-286 634,-316 634,-316 634,-322 628,-328 622,-328"/>
<text text-anchor="start" x="528" y="-297.2" font-family="Helvetica,sans-Serif" font-size="16.00">constants.ts</text>
</a>
</g>
</g>
<!-- src/types.ts -->
<g id="node2" class="node">
<title>src/types.ts</title>
<g id="a_node2"><a xlink:href="src/types.ts" xlink:title="types.ts">
<path fill="#ccffcc" stroke="black" d="M92.5,-70C92.5,-70 36.5,-70 36.5,-70 30.5,-70 24.5,-64 24.5,-58 24.5,-58 24.5,-28 24.5,-28 24.5,-22 30.5,-16 36.5,-16 36.5,-16 92.5,-16 92.5,-16 98.5,-16 104.5,-22 104.5,-28 104.5,-28 104.5,-58 104.5,-58 104.5,-64 98.5,-70 92.5,-70"/>
<text text-anchor="start" x="32.5" y="-39.2" font-family="Helvetica,sans-Serif" font-size="16.00">types.ts</text>
</a>
</g>
</g>
<!-- src/utils/i18n/display.ts -->
<g id="node3" class="node">
<title>src/utils/i18n/display.ts</title>
<g id="a_node3"><a xlink:href="src/utils/i18n/display.ts" xlink:title="display.ts">
<path fill="#ddfeff" stroke="black" d="M436,-328C436,-328 368,-328 368,-328 362,-328 356,-322 356,-316 356,-316 356,-286 356,-286 356,-280 362,-274 368,-274 368,-274 436,-274 436,-274 442,-274 448,-280 448,-286 448,-286 448,-316 448,-316 448,-322 442,-328 436,-328"/>
<text text-anchor="start" x="364" y="-297.2" font-family="Helvetica,sans-Serif" font-size="16.00">display.ts</text>
</a>
</g>
</g>
<!-- src/utils/i18n/display.ts&#45;&gt;src/constants.ts -->
<g id="edge1" class="edge">
<title>src/utils/i18n/display.ts&#45;&gt;src/constants.ts</title>
<path fill="none" stroke="#666666" stroke-width="2" stroke-opacity="0.458824" d="M448.44,-301C448.44,-301 499.71,-301 499.71,-301"/>
<polygon fill="#666666" fill-opacity="0.458824" stroke="#666666" stroke-width="2" stroke-opacity="0.458824" points="519.71,-301 499.71,-310 509.71,-301.5 499.71,-301.5 499.71,-301 499.71,-300.5 509.71,-300.5 499.71,-292 519.71,-301 519.71,-301"/>
</g>
<!-- src/utils/i18n/index.ts -->
<g id="node4" class="node">
<title>src/utils/i18n/index.ts</title>
<g id="a_node4"><a xlink:href="src/utils/i18n/index.ts" xlink:title="index.ts">
<path fill="#ddfeff" stroke="black" d="M259,-404C259,-404 202,-404 202,-404 196,-404 190,-398 190,-392 190,-392 190,-362 190,-362 190,-356 196,-350 202,-350 202,-350 259,-350 259,-350 265,-350 271,-356 271,-362 271,-362 271,-392 271,-392 271,-398 265,-404 259,-404"/>
<text text-anchor="start" x="198" y="-373.2" font-family="Helvetica,sans-Serif" font-size="16.00">index.ts</text>
</a>
</g>
</g>
<!-- src/utils/i18n/index.ts&#45;&gt;src/utils/i18n/display.ts -->
<g id="edge2" class="edge">
<title>src/utils/i18n/index.ts&#45;&gt;src/utils/i18n/display.ts</title>
<path fill="none" stroke="#666666" stroke-width="2" stroke-opacity="0.458824" d="M231,-349.99C231,-328.15 231,-301 231,-301 231,-301 335.72,-301 335.72,-301"/>
<polygon fill="#666666" fill-opacity="0.458824" stroke="#666666" stroke-width="2" stroke-opacity="0.458824" points="355.72,-308 335.72,-301 355.72,-294 355.72,-308"/>
</g>
<!-- src/utils/i18n/types.ts -->
<g id="node5" class="node">
<title>src/utils/i18n/types.ts</title>
<g id="a_node5"><a xlink:href="src/utils/i18n/types.ts" xlink:title="types.ts">
<path fill="#ddfeff" stroke="black" d="M430,-404C430,-404 374,-404 374,-404 368,-404 362,-398 362,-392 362,-392 362,-362 362,-362 362,-356 368,-350 374,-350 374,-350 430,-350 430,-350 436,-350 442,-356 442,-362 442,-362 442,-392 442,-392 442,-398 436,-404 430,-404"/>
<text text-anchor="start" x="370" y="-373.2" font-family="Helvetica,sans-Serif" font-size="16.00">types.ts</text>
</a>
</g>
</g>
<!-- src/utils/i18n/index.ts&#45;&gt;src/utils/i18n/types.ts -->
<g id="edge3" class="edge">
<title>src/utils/i18n/index.ts&#45;&gt;src/utils/i18n/types.ts</title>
<path fill="none" stroke="#666666" stroke-width="2" stroke-opacity="0.458824" d="M271.14,-377C271.14,-377 341.94,-377 341.94,-377"/>
<polygon fill="#666666" fill-opacity="0.458824" stroke="#666666" stroke-width="2" stroke-opacity="0.458824" points="361.94,-384 341.94,-377 361.94,-370 361.94,-384"/>
</g>
<!-- src/utils/index.ts -->
<g id="node6" class="node">
<title>src/utils/index.ts</title>
<g id="a_node6"><a xlink:href="src/utils/index.ts" xlink:title="index.ts">
<path fill="#ddfeff" stroke="black" d="M93,-452C93,-452 36,-452 36,-452 30,-452 24,-446 24,-440 24,-440 24,-410 24,-410 24,-404 30,-398 36,-398 36,-398 93,-398 93,-398 99,-398 105,-404 105,-410 105,-410 105,-440 105,-440 105,-446 99,-452 93,-452"/>
<text text-anchor="start" x="32" y="-421.2" font-family="Helvetica,sans-Serif" font-size="16.00">index.ts</text>
</a>
</g>
</g>
<!-- src/utils/index.ts&#45;&gt;src/utils/i18n/index.ts -->
<g id="edge4" class="edge">
<title>src/utils/index.ts&#45;&gt;src/utils/i18n/index.ts</title>
<path fill="none" stroke="#666666" stroke-width="2" stroke-opacity="0.458824" d="M105.36,-418C151.43,-418 220,-418 220,-418 220,-418 220,-416.61 220,-416.61"/>
<polygon fill="#666666" fill-opacity="0.458824" stroke="#666666" stroke-width="2" stroke-opacity="0.458824" points="227,-404.12 220,-424.12 213,-404.12 227,-404.12"/>
</g>
<!-- src/utils/text.ts -->
<g id="node7" class="node">
<title>src/utils/text.ts</title>
<g id="a_node7"><a xlink:href="src/utils/text.ts" xlink:title="text.ts">
<path fill="#ddfeff" stroke="black" d="M252.5,-500C252.5,-500 208.5,-500 208.5,-500 202.5,-500 196.5,-494 196.5,-488 196.5,-488 196.5,-458 196.5,-458 196.5,-452 202.5,-446 208.5,-446 208.5,-446 252.5,-446 252.5,-446 258.5,-446 264.5,-452 264.5,-458 264.5,-458 264.5,-488 264.5,-488 264.5,-494 258.5,-500 252.5,-500"/>
<text text-anchor="start" x="204.5" y="-469.2" font-family="Helvetica,sans-Serif" font-size="16.00">text.ts</text>
</a>
</g>
</g>
<!-- src/utils/index.ts&#45;&gt;src/utils/text.ts -->
<g id="edge5" class="edge">
<title>src/utils/index.ts&#45;&gt;src/utils/text.ts</title>
<path fill="none" stroke="#666666" stroke-width="2" stroke-opacity="0.458824" d="M105.22,-432C157.63,-432 242,-432 242,-432 242,-432 242,-433.39 242,-433.39"/>
<polygon fill="#666666" fill-opacity="0.458824" stroke="#666666" stroke-width="2" stroke-opacity="0.458824" points="235,-445.88 242,-425.88 249,-445.88 235,-445.88"/>
</g>
<!-- src/zod/index.ts -->
<g id="node8" class="node">
<title>src/zod/index.ts</title>
<g id="a_node8"><a xlink:href="src/zod/index.ts" xlink:title="index.ts">
<path fill="#ddfeff" stroke="black" d="M93,-181C93,-181 36,-181 36,-181 30,-181 24,-175 24,-169 24,-169 24,-139 24,-139 24,-133 30,-127 36,-127 36,-127 93,-127 93,-127 99,-127 105,-133 105,-139 105,-139 105,-169 105,-169 105,-175 99,-181 93,-181"/>
<text text-anchor="start" x="32" y="-150.2" font-family="Helvetica,sans-Serif" font-size="16.00">index.ts</text>
</a>
</g>
</g>
<!-- src/zod/schemas.ts -->
<g id="node9" class="node">
<title>src/zod/schemas.ts</title>
<g id="a_node9"><a xlink:href="src/zod/schemas.ts" xlink:title="schemas.ts">
<path fill="#ddfeff" stroke="black" d="M272,-140C272,-140 189,-140 189,-140 183,-140 177,-134 177,-128 177,-128 177,-98 177,-98 177,-92 183,-86 189,-86 189,-86 272,-86 272,-86 278,-86 284,-92 284,-98 284,-98 284,-128 284,-128 284,-134 278,-140 272,-140"/>
<text text-anchor="start" x="185" y="-109.2" font-family="Helvetica,sans-Serif" font-size="16.00">schemas.ts</text>
</a>
</g>
</g>
<!-- src/zod/index.ts&#45;&gt;src/zod/schemas.ts -->
<g id="edge6" class="edge">
<title>src/zod/index.ts&#45;&gt;src/zod/schemas.ts</title>
<path fill="none" stroke="#666666" stroke-width="2" stroke-opacity="0.458824" d="M105.11,-133.5C105.11,-133.5 156.83,-133.5 156.83,-133.5"/>
<polygon fill="#666666" fill-opacity="0.458824" stroke="#666666" stroke-width="2" stroke-opacity="0.458824" points="176.83,-140.5 156.83,-133.5 176.83,-126.5 176.83,-140.5"/>
</g>
<!-- src/zod/utils.ts -->
<g id="node10" class="node">
<title>src/zod/utils.ts</title>
<g id="a_node10"><a xlink:href="src/zod/utils.ts" xlink:title="utils.ts">
<path fill="#ddfeff" stroke="black" d="M253.5,-216C253.5,-216 207.5,-216 207.5,-216 201.5,-216 195.5,-210 195.5,-204 195.5,-204 195.5,-174 195.5,-174 195.5,-168 201.5,-162 207.5,-162 207.5,-162 253.5,-162 253.5,-162 259.5,-162 265.5,-168 265.5,-174 265.5,-174 265.5,-204 265.5,-204 265.5,-210 259.5,-216 253.5,-216"/>
<text text-anchor="start" x="203.5" y="-185.2" font-family="Helvetica,sans-Serif" font-size="16.00">utils.ts</text>
</a>
</g>
</g>
<!-- src/zod/index.ts&#45;&gt;src/zod/utils.ts -->
<g id="edge7" class="edge">
<title>src/zod/index.ts&#45;&gt;src/zod/utils.ts</title>
<path fill="none" stroke="#666666" stroke-width="2" stroke-opacity="0.458824" d="M105.11,-171.5C105.11,-171.5 175.37,-171.5 175.37,-171.5"/>
<polygon fill="#666666" fill-opacity="0.458824" stroke="#666666" stroke-width="2" stroke-opacity="0.458824" points="195.37,-178.5 175.37,-171.5 195.37,-164.5 195.37,-178.5"/>
</g>
</g>
</svg>
