<?xml version="1.0" encoding="UTF-8" standalone="no"?>
<!DOCTYPE svg PUBLIC "-//W3C//DTD SVG 1.1//EN"
 "http://www.w3.org/Graphics/SVG/1.1/DTD/svg11.dtd">
<!-- Generated by graphviz version 2.43.0 (0)
 -->
<!-- Title: dependency&#45;cruiser output Pages: 1 -->
<svg width="489pt" height="666pt"
 viewBox="0.00 0.00 489.00 666.00" xmlns="http://www.w3.org/2000/svg" xmlns:xlink="http://www.w3.org/1999/xlink">
<g id="graph0" class="graph" transform="scale(1 1) rotate(0) translate(4 662)">
<title>dependency&#45;cruiser output</title>
<polygon fill="white" stroke="transparent" points="-4,4 -4,-662 485,-662 485,4 -4,4"/>
<g id="clust1" class="cluster">
<title>cluster_src</title>
<path fill="#ffffff" stroke="black" stroke-width="2" d="M20,-8C20,-8 461,-8 461,-8 467,-8 473,-14 473,-20 473,-20 473,-638 473,-638 473,-644 467,-650 461,-650 461,-650 20,-650 20,-650 14,-650 8,-644 8,-638 8,-638 8,-20 8,-20 8,-14 14,-8 20,-8"/>
<text text-anchor="middle" x="240.5" y="-633.2" font-family="Helvetica,sans-Serif" font-weight="bold" font-size="16.00">src</text>
</g>
<g id="clust2" class="cluster">
<title>cluster_src/utils</title>
<path fill="#ffffff" stroke="black" stroke-width="2" d="M37.5,-340C37.5,-340 453,-340 453,-340 459,-340 465,-346 465,-352 465,-352 465,-604 465,-604 465,-610 459,-616 453,-616 453,-616 37.5,-616 37.5,-616 31.5,-616 25.5,-610 25.5,-604 25.5,-604 25.5,-352 25.5,-352 25.5,-346 31.5,-340 37.5,-340"/>
<text text-anchor="middle" x="245.25" y="-599.2" font-family="Helvetica,sans-Serif" font-weight="bold" font-size="16.00">utils</text>
</g>
<g id="clust3" class="cluster">
<title>cluster_src/utils/i18n</title>
<path fill="#ffffff" stroke="black" stroke-width="2" d="M208,-348C208,-348 445,-348 445,-348 451,-348 457,-354 457,-360 457,-360 457,-508 457,-508 457,-514 451,-520 445,-520 445,-520 208,-520 208,-520 202,-520 196,-514 196,-508 196,-508 196,-360 196,-360 196,-354 202,-348 208,-348"/>
<text text-anchor="middle" x="326.5" y="-503.2" font-family="Helvetica,sans-Serif" font-weight="bold" font-size="16.00">i18n</text>
</g>
<g id="clust4" class="cluster">
<title>cluster_src/zod</title>
<path fill="#ffffff" stroke="black" stroke-width="2" d="M37.5,-236C37.5,-236 275.5,-236 275.5,-236 281.5,-236 287.5,-242 287.5,-248 287.5,-248 287.5,-320 287.5,-320 287.5,-326 281.5,-332 275.5,-332 275.5,-332 37.5,-332 37.5,-332 31.5,-332 25.5,-326 25.5,-320 25.5,-320 25.5,-248 25.5,-248 25.5,-242 31.5,-236 37.5,-236"/>
<text text-anchor="middle" x="156.5" y="-315.2" font-family="Helvetica,sans-Serif" font-weight="bold" font-size="16.00">zod</text>
</g>
<!-- src/constants.ts -->
<g id="node1" class="node">
<title>src/constants.ts</title>
<g id="a_node1"><a xlink:href="src/constants.ts" xlink:title="constants.ts">
<path fill="#ccffcc" stroke="black" d="M119,-222C119,-222 29,-222 29,-222 23,-222 17,-216 17,-210 17,-210 17,-180 17,-180 17,-174 23,-168 29,-168 29,-168 119,-168 119,-168 125,-168 131,-174 131,-180 131,-180 131,-210 131,-210 131,-216 125,-222 119,-222"/>
<text text-anchor="start" x="25" y="-191.2" font-family="Helvetica,sans-Serif" font-size="16.00">constants.ts</text>
</a>
</g>
</g>
<!-- src/types.ts -->
<g id="node2" class="node">
<title>src/types.ts</title>
<g id="a_node2"><a xlink:href="src/types.ts" xlink:title="types.ts">
<path fill="#ccffcc" stroke="black" d="M102,-146C102,-146 46,-146 46,-146 40,-146 34,-140 34,-134 34,-134 34,-104 34,-104 34,-98 40,-92 46,-92 46,-92 102,-92 102,-92 108,-92 114,-98 114,-104 114,-104 114,-134 114,-134 114,-140 108,-146 102,-146"/>
<text text-anchor="start" x="42" y="-115.2" font-family="Helvetica,sans-Serif" font-size="16.00">types.ts</text>
</a>
</g>
</g>
<!-- src/utils/i18n/display.ts -->
<g id="node3" class="node">
<title>src/utils/i18n/display.ts</title>
<g id="a_node3"><a xlink:href="src/utils/i18n/display.ts" xlink:title="display.ts">
<path fill="#ddfeff" stroke="black" d="M437,-410C437,-410 369,-410 369,-410 363,-410 357,-404 357,-398 357,-398 357,-368 357,-368 357,-362 363,-356 369,-356 369,-356 437,-356 437,-356 443,-356 449,-362 449,-368 449,-368 449,-398 449,-398 449,-404 443,-410 437,-410"/>
<text text-anchor="start" x="365" y="-379.2" font-family="Helvetica,sans-Serif" font-size="16.00">display.ts</text>
</a>
</g>
</g>
<!-- src/utils/i18n/index.ts -->
<g id="node4" class="node">
<title>src/utils/i18n/index.ts</title>
<g id="a_node4"><a xlink:href="src/utils/i18n/index.ts" xlink:title="index.ts">
<path fill="#ddfeff" stroke="black" d="M273,-486C273,-486 216,-486 216,-486 210,-486 204,-480 204,-474 204,-474 204,-444 204,-444 204,-438 210,-432 216,-432 216,-432 273,-432 273,-432 279,-432 285,-438 285,-444 285,-444 285,-474 285,-474 285,-480 279,-486 273,-486"/>
<text text-anchor="start" x="212" y="-455.2" font-family="Helvetica,sans-Serif" font-size="16.00">index.ts</text>
</a>
</g>
</g>
<!-- src/utils/i18n/index.ts&#45;&gt;src/utils/i18n/display.ts -->
<g id="edge1" class="edge">
<title>src/utils/i18n/index.ts&#45;&gt;src/utils/i18n/display.ts</title>
<path fill="none" stroke="#666666" stroke-width="2" stroke-opacity="0.458824" d="M245,-431.99C245,-410.15 245,-383 245,-383 245,-383 336.88,-383 336.88,-383"/>
<polygon fill="#666666" fill-opacity="0.458824" stroke="#666666" stroke-width="2" stroke-opacity="0.458824" points="356.88,-390 336.88,-383 356.88,-376 356.88,-390"/>
</g>
<!-- src/utils/i18n/types.ts -->
<g id="node5" class="node">
<title>src/utils/i18n/types.ts</title>
<g id="a_node5"><a xlink:href="src/utils/i18n/types.ts" xlink:title="types.ts">
<path fill="#ddfeff" stroke="black" d="M431,-486C431,-486 375,-486 375,-486 369,-486 363,-480 363,-474 363,-474 363,-444 363,-444 363,-438 369,-432 375,-432 375,-432 431,-432 431,-432 437,-432 443,-438 443,-444 443,-444 443,-474 443,-474 443,-480 437,-486 431,-486"/>
<text text-anchor="start" x="371" y="-455.2" font-family="Helvetica,sans-Serif" font-size="16.00">types.ts</text>
</a>
</g>
</g>
<!-- src/utils/i18n/index.ts&#45;&gt;src/utils/i18n/types.ts -->
<g id="edge2" class="edge">
<title>src/utils/i18n/index.ts&#45;&gt;src/utils/i18n/types.ts</title>
<path fill="none" stroke="#666666" stroke-width="2" stroke-opacity="0.458824" d="M285.32,-459C285.32,-459 342.87,-459 342.87,-459"/>
<polygon fill="#666666" fill-opacity="0.458824" stroke="#666666" stroke-width="2" stroke-opacity="0.458824" points="362.87,-466 342.87,-459 362.87,-452 362.87,-466"/>
</g>
<!-- src/utils/index.ts -->
<g id="node6" class="node">
<title>src/utils/index.ts</title>
<g id="a_node6"><a xlink:href="src/utils/index.ts" xlink:title="index.ts">
<path fill="#ddfeff" stroke="black" d="M102.5,-534C102.5,-534 45.5,-534 45.5,-534 39.5,-534 33.5,-528 33.5,-522 33.5,-522 33.5,-492 33.5,-492 33.5,-486 39.5,-480 45.5,-480 45.5,-480 102.5,-480 102.5,-480 108.5,-480 114.5,-486 114.5,-492 114.5,-492 114.5,-522 114.5,-522 114.5,-528 108.5,-534 102.5,-534"/>
<text text-anchor="start" x="41.5" y="-503.2" font-family="Helvetica,sans-Serif" font-size="16.00">index.ts</text>
</a>
</g>
</g>
<!-- src/utils/index.ts&#45;&gt;src/utils/i18n/index.ts -->
<g id="edge3" class="edge">
<title>src/utils/index.ts&#45;&gt;src/utils/i18n/index.ts</title>
<path fill="none" stroke="#666666" stroke-width="2" stroke-opacity="0.458824" d="M114.79,-500C162.19,-500 234,-500 234,-500 234,-500 234,-498.61 234,-498.61"/>
<polygon fill="#666666" fill-opacity="0.458824" stroke="#666666" stroke-width="2" stroke-opacity="0.458824" points="241,-486.12 234,-506.12 227,-486.12 241,-486.12"/>
</g>
<!-- src/utils/text.ts -->
<g id="node7" class="node">
<title>src/utils/text.ts</title>
<g id="a_node7"><a xlink:href="src/utils/text.ts" xlink:title="text.ts">
<path fill="#ddfeff" stroke="black" d="M266.5,-582C266.5,-582 222.5,-582 222.5,-582 216.5,-582 210.5,-576 210.5,-570 210.5,-570 210.5,-540 210.5,-540 210.5,-534 216.5,-528 222.5,-528 222.5,-528 266.5,-528 266.5,-528 272.5,-528 278.5,-534 278.5,-540 278.5,-540 278.5,-570 278.5,-570 278.5,-576 272.5,-582 266.5,-582"/>
<text text-anchor="start" x="218.5" y="-551.2" font-family="Helvetica,sans-Serif" font-size="16.00">text.ts</text>
</a>
</g>
</g>
<!-- src/utils/index.ts&#45;&gt;src/utils/text.ts -->
<g id="edge4" class="edge">
<title>src/utils/index.ts&#45;&gt;src/utils/text.ts</title>
<path fill="none" stroke="#666666" stroke-width="2" stroke-opacity="0.458824" d="M114.84,-514C168.5,-514 256,-514 256,-514 256,-514 256,-515.39 256,-515.39"/>
<polygon fill="#666666" fill-opacity="0.458824" stroke="#666666" stroke-width="2" stroke-opacity="0.458824" points="249,-527.88 256,-507.88 263,-527.88 249,-527.88"/>
</g>
<!-- src/vite&#45;env.d.ts -->
<g id="node8" class="node">
<title>src/vite&#45;env.d.ts</title>
<g id="a_node8"><a xlink:href="src/vite-env.d.ts" xlink:title="vite&#45;env.d.ts">
<path fill="#ccffcc" stroke="black" d="M120,-70C120,-70 28,-70 28,-70 22,-70 16,-64 16,-58 16,-58 16,-28 16,-28 16,-22 22,-16 28,-16 28,-16 120,-16 120,-16 126,-16 132,-22 132,-28 132,-28 132,-58 132,-58 132,-64 126,-70 120,-70"/>
<text text-anchor="start" x="24" y="-39.2" font-family="Helvetica,sans-Serif" font-size="16.00">vite&#45;env.d.ts</text>
</a>
</g>
</g>
<!-- src/zod/index.ts -->
<g id="node9" class="node">
<title>src/zod/index.ts</title>
<g id="a_node9"><a xlink:href="src/zod/index.ts" xlink:title="index.ts">
<path fill="#ddfeff" stroke="black" d="M102.5,-298C102.5,-298 45.5,-298 45.5,-298 39.5,-298 33.5,-292 33.5,-286 33.5,-286 33.5,-256 33.5,-256 33.5,-250 39.5,-244 45.5,-244 45.5,-244 102.5,-244 102.5,-244 108.5,-244 114.5,-250 114.5,-256 114.5,-256 114.5,-286 114.5,-286 114.5,-292 108.5,-298 102.5,-298"/>
<text text-anchor="start" x="41.5" y="-267.2" font-family="Helvetica,sans-Serif" font-size="16.00">index.ts</text>
</a>
</g>
</g>
<!-- src/zod/utils.ts -->
<g id="node10" class="node">
<title>src/zod/utils.ts</title>
<g id="a_node10"><a xlink:href="src/zod/utils.ts" xlink:title="utils.ts">
<path fill="#ddfeff" stroke="black" d="M267.5,-298C267.5,-298 221.5,-298 221.5,-298 215.5,-298 209.5,-292 209.5,-286 209.5,-286 209.5,-256 209.5,-256 209.5,-250 215.5,-244 221.5,-244 221.5,-244 267.5,-244 267.5,-244 273.5,-244 279.5,-250 279.5,-256 279.5,-256 279.5,-286 279.5,-286 279.5,-292 273.5,-298 267.5,-298"/>
<text text-anchor="start" x="217.5" y="-267.2" font-family="Helvetica,sans-Serif" font-size="16.00">utils.ts</text>
</a>
</g>
</g>
<!-- src/zod/index.ts&#45;&gt;src/zod/utils.ts -->
<g id="edge5" class="edge">
<title>src/zod/index.ts&#45;&gt;src/zod/utils.ts</title>
<path fill="none" stroke="#666666" stroke-width="2" stroke-opacity="0.458824" d="M114.84,-271C114.84,-271 189.47,-271 189.47,-271"/>
<polygon fill="#666666" fill-opacity="0.458824" stroke="#666666" stroke-width="2" stroke-opacity="0.458824" points="209.47,-278 189.47,-271 209.47,-264 209.47,-278"/>
</g>
</g>
</svg>
