<?xml version="1.0" encoding="UTF-8" standalone="no"?>
<!DOCTYPE svg PUBLIC "-//W3C//DTD SVG 1.1//EN"
 "http://www.w3.org/Graphics/SVG/1.1/DTD/svg11.dtd">
<!-- Generated by graphviz version 2.43.0 (0)
 -->
<!-- Title: dependency&#45;cruiser output Pages: 1 -->
<svg width="685pt" height="660pt"
 viewBox="0.00 0.00 685.00 660.00" xmlns="http://www.w3.org/2000/svg" xmlns:xlink="http://www.w3.org/1999/xlink">
<g id="graph0" class="graph" transform="scale(1 1) rotate(0) translate(4 656)">
<title>dependency&#45;cruiser output</title>
<polygon fill="white" stroke="transparent" points="-4,4 -4,-656 681,-656 681,4 -4,4"/>
<g id="clust1" class="cluster">
<title>cluster_src</title>
<path fill="#ffffff" stroke="black" stroke-width="2" d="M20,-8C20,-8 657,-8 657,-8 663,-8 669,-14 669,-20 669,-20 669,-632 669,-632 669,-638 663,-644 657,-644 657,-644 20,-644 20,-644 14,-644 8,-638 8,-632 8,-632 8,-20 8,-20 8,-14 14,-8 20,-8"/>
<text text-anchor="middle" x="338.5" y="-627.2" font-family="Helvetica,sans-Serif" font-weight="bold" font-size="16.00">src</text>
</g>
<g id="clust2" class="cluster">
<title>cluster_src/utils</title>
<path fill="#ffffff" stroke="black" stroke-width="2" d="M37.5,-334C37.5,-334 479,-334 479,-334 485,-334 491,-340 491,-346 491,-346 491,-598 491,-598 491,-604 485,-610 479,-610 479,-610 37.5,-610 37.5,-610 31.5,-610 25.5,-604 25.5,-598 25.5,-598 25.5,-346 25.5,-346 25.5,-340 31.5,-334 37.5,-334"/>
<text text-anchor="middle" x="258.25" y="-593.2" font-family="Helvetica,sans-Serif" font-weight="bold" font-size="16.00">utils</text>
</g>
<g id="clust3" class="cluster">
<title>cluster_src/utils/i18n</title>
<path fill="#ffffff" stroke="black" stroke-width="2" d="M221,-342C221,-342 471,-342 471,-342 477,-342 483,-348 483,-354 483,-354 483,-502 483,-502 483,-508 477,-514 471,-514 471,-514 221,-514 221,-514 215,-514 209,-508 209,-502 209,-502 209,-354 209,-354 209,-348 215,-342 221,-342"/>
<text text-anchor="middle" x="346" y="-497.2" font-family="Helvetica,sans-Serif" font-weight="bold" font-size="16.00">i18n</text>
</g>
<g id="clust4" class="cluster">
<title>cluster_src/zod</title>
<path fill="#ffffff" stroke="black" stroke-width="2" d="M37.5,-154C37.5,-154 307,-154 307,-154 313,-154 319,-160 319,-166 319,-166 319,-314 319,-314 319,-320 313,-326 307,-326 307,-326 37.5,-326 37.5,-326 31.5,-326 25.5,-320 25.5,-314 25.5,-314 25.5,-166 25.5,-166 25.5,-160 31.5,-154 37.5,-154"/>
<text text-anchor="middle" x="172.25" y="-309.2" font-family="Helvetica,sans-Serif" font-weight="bold" font-size="16.00">zod</text>
</g>
<!-- src/constants.ts -->
<g id="node1" class="node">
<title>src/constants.ts</title>
<g id="a_node1"><a xlink:href="src/constants.ts" xlink:title="constants.ts">
<path fill="#ddfeff" stroke="black" d="M649,-404C649,-404 559,-404 559,-404 553,-404 547,-398 547,-392 547,-392 547,-362 547,-362 547,-356 553,-350 559,-350 559,-350 649,-350 649,-350 655,-350 661,-356 661,-362 661,-362 661,-392 661,-392 661,-398 655,-404 649,-404"/>
<text text-anchor="start" x="555" y="-373.2" font-family="Helvetica,sans-Serif" font-size="16.00">constants.ts</text>
</a>
</g>
</g>
<!-- src/types.ts -->
<g id="node2" class="node">
<title>src/types.ts</title>
<g id="a_node2"><a xlink:href="src/types.ts" xlink:title="types.ts">
<path fill="#ccffcc" stroke="black" d="M102,-146C102,-146 46,-146 46,-146 40,-146 34,-140 34,-134 34,-134 34,-104 34,-104 34,-98 40,-92 46,-92 46,-92 102,-92 102,-92 108,-92 114,-98 114,-104 114,-104 114,-134 114,-134 114,-140 108,-146 102,-146"/>
<text text-anchor="start" x="42" y="-115.2" font-family="Helvetica,sans-Serif" font-size="16.00">types.ts</text>
</a>
</g>
</g>
<!-- src/utils/i18n/display.ts -->
<g id="node3" class="node">
<title>src/utils/i18n/display.ts</title>
<g id="a_node3"><a xlink:href="src/utils/i18n/display.ts" xlink:title="display.ts">
<path fill="#ddfeff" stroke="black" d="M463,-404C463,-404 395,-404 395,-404 389,-404 383,-398 383,-392 383,-392 383,-362 383,-362 383,-356 389,-350 395,-350 395,-350 463,-350 463,-350 469,-350 475,-356 475,-362 475,-362 475,-392 475,-392 475,-398 469,-404 463,-404"/>
<text text-anchor="start" x="391" y="-373.2" font-family="Helvetica,sans-Serif" font-size="16.00">display.ts</text>
</a>
</g>
</g>
<!-- src/utils/i18n/display.ts&#45;&gt;src/constants.ts -->
<g id="edge1" class="edge">
<title>src/utils/i18n/display.ts&#45;&gt;src/constants.ts</title>
<path fill="none" stroke="#666666" stroke-width="2" stroke-opacity="0.458824" d="M475.44,-377C475.44,-377 526.71,-377 526.71,-377"/>
<polygon fill="#666666" fill-opacity="0.458824" stroke="#666666" stroke-width="2" stroke-opacity="0.458824" points="546.71,-377 526.71,-386 536.71,-377.5 526.71,-377.5 526.71,-377 526.71,-376.5 536.71,-376.5 526.71,-368 546.71,-377 546.71,-377"/>
</g>
<!-- src/utils/i18n/index.ts -->
<g id="node4" class="node">
<title>src/utils/i18n/index.ts</title>
<g id="a_node4"><a xlink:href="src/utils/i18n/index.ts" xlink:title="index.ts">
<path fill="#ddfeff" stroke="black" d="M286,-480C286,-480 229,-480 229,-480 223,-480 217,-474 217,-468 217,-468 217,-438 217,-438 217,-432 223,-426 229,-426 229,-426 286,-426 286,-426 292,-426 298,-432 298,-438 298,-438 298,-468 298,-468 298,-474 292,-480 286,-480"/>
<text text-anchor="start" x="225" y="-449.2" font-family="Helvetica,sans-Serif" font-size="16.00">index.ts</text>
</a>
</g>
</g>
<!-- src/utils/i18n/index.ts&#45;&gt;src/utils/i18n/display.ts -->
<g id="edge2" class="edge">
<title>src/utils/i18n/index.ts&#45;&gt;src/utils/i18n/display.ts</title>
<path fill="none" stroke="#666666" stroke-width="2" stroke-opacity="0.458824" d="M258,-425.99C258,-404.15 258,-377 258,-377 258,-377 362.72,-377 362.72,-377"/>
<polygon fill="#666666" fill-opacity="0.458824" stroke="#666666" stroke-width="2" stroke-opacity="0.458824" points="382.72,-384 362.72,-377 382.72,-370 382.72,-384"/>
</g>
<!-- src/utils/i18n/types.ts -->
<g id="node5" class="node">
<title>src/utils/i18n/types.ts</title>
<g id="a_node5"><a xlink:href="src/utils/i18n/types.ts" xlink:title="types.ts">
<path fill="#ddfeff" stroke="black" d="M457,-480C457,-480 401,-480 401,-480 395,-480 389,-474 389,-468 389,-468 389,-438 389,-438 389,-432 395,-426 401,-426 401,-426 457,-426 457,-426 463,-426 469,-432 469,-438 469,-438 469,-468 469,-468 469,-474 463,-480 457,-480"/>
<text text-anchor="start" x="397" y="-449.2" font-family="Helvetica,sans-Serif" font-size="16.00">types.ts</text>
</a>
</g>
</g>
<!-- src/utils/i18n/index.ts&#45;&gt;src/utils/i18n/types.ts -->
<g id="edge3" class="edge">
<title>src/utils/i18n/index.ts&#45;&gt;src/utils/i18n/types.ts</title>
<path fill="none" stroke="#666666" stroke-width="2" stroke-opacity="0.458824" d="M298.14,-453C298.14,-453 368.94,-453 368.94,-453"/>
<polygon fill="#666666" fill-opacity="0.458824" stroke="#666666" stroke-width="2" stroke-opacity="0.458824" points="388.94,-460 368.94,-453 388.94,-446 388.94,-460"/>
</g>
<!-- src/utils/index.ts -->
<g id="node6" class="node">
<title>src/utils/index.ts</title>
<g id="a_node6"><a xlink:href="src/utils/index.ts" xlink:title="index.ts">
<path fill="#ddfeff" stroke="black" d="M102.5,-528C102.5,-528 45.5,-528 45.5,-528 39.5,-528 33.5,-522 33.5,-516 33.5,-516 33.5,-486 33.5,-486 33.5,-480 39.5,-474 45.5,-474 45.5,-474 102.5,-474 102.5,-474 108.5,-474 114.5,-480 114.5,-486 114.5,-486 114.5,-516 114.5,-516 114.5,-522 108.5,-528 102.5,-528"/>
<text text-anchor="start" x="41.5" y="-497.2" font-family="Helvetica,sans-Serif" font-size="16.00">index.ts</text>
</a>
</g>
</g>
<!-- src/utils/index.ts&#45;&gt;src/utils/i18n/index.ts -->
<g id="edge4" class="edge">
<title>src/utils/index.ts&#45;&gt;src/utils/i18n/index.ts</title>
<path fill="none" stroke="#666666" stroke-width="2" stroke-opacity="0.458824" d="M114.56,-494C165.69,-494 247,-494 247,-494 247,-494 247,-492.61 247,-492.61"/>
<polygon fill="#666666" fill-opacity="0.458824" stroke="#666666" stroke-width="2" stroke-opacity="0.458824" points="254,-480.12 247,-500.12 240,-480.12 254,-480.12"/>
</g>
<!-- src/utils/text.ts -->
<g id="node7" class="node">
<title>src/utils/text.ts</title>
<g id="a_node7"><a xlink:href="src/utils/text.ts" xlink:title="text.ts">
<path fill="#ddfeff" stroke="black" d="M279.5,-576C279.5,-576 235.5,-576 235.5,-576 229.5,-576 223.5,-570 223.5,-564 223.5,-564 223.5,-534 223.5,-534 223.5,-528 229.5,-522 235.5,-522 235.5,-522 279.5,-522 279.5,-522 285.5,-522 291.5,-528 291.5,-534 291.5,-534 291.5,-564 291.5,-564 291.5,-570 285.5,-576 279.5,-576"/>
<text text-anchor="start" x="231.5" y="-545.2" font-family="Helvetica,sans-Serif" font-size="16.00">text.ts</text>
</a>
</g>
</g>
<!-- src/utils/index.ts&#45;&gt;src/utils/text.ts -->
<g id="edge5" class="edge">
<title>src/utils/index.ts&#45;&gt;src/utils/text.ts</title>
<path fill="none" stroke="#666666" stroke-width="2" stroke-opacity="0.458824" d="M114.88,-508C172.06,-508 269,-508 269,-508 269,-508 269,-509.39 269,-509.39"/>
<polygon fill="#666666" fill-opacity="0.458824" stroke="#666666" stroke-width="2" stroke-opacity="0.458824" points="262,-521.88 269,-501.88 276,-521.88 262,-521.88"/>
</g>
<!-- src/vite&#45;env.d.ts -->
<g id="node8" class="node">
<title>src/vite&#45;env.d.ts</title>
<g id="a_node8"><a xlink:href="src/vite-env.d.ts" xlink:title="vite&#45;env.d.ts">
<path fill="#ccffcc" stroke="black" d="M120,-70C120,-70 28,-70 28,-70 22,-70 16,-64 16,-58 16,-58 16,-28 16,-28 16,-22 22,-16 28,-16 28,-16 120,-16 120,-16 126,-16 132,-22 132,-28 132,-28 132,-58 132,-58 132,-64 126,-70 120,-70"/>
<text text-anchor="start" x="24" y="-39.2" font-family="Helvetica,sans-Serif" font-size="16.00">vite&#45;env.d.ts</text>
</a>
</g>
</g>
<!-- src/zod/index.ts -->
<g id="node9" class="node">
<title>src/zod/index.ts</title>
<g id="a_node9"><a xlink:href="src/zod/index.ts" xlink:title="index.ts">
<path fill="#ddfeff" stroke="black" d="M102.5,-257C102.5,-257 45.5,-257 45.5,-257 39.5,-257 33.5,-251 33.5,-245 33.5,-245 33.5,-215 33.5,-215 33.5,-209 39.5,-203 45.5,-203 45.5,-203 102.5,-203 102.5,-203 108.5,-203 114.5,-209 114.5,-215 114.5,-215 114.5,-245 114.5,-245 114.5,-251 108.5,-257 102.5,-257"/>
<text text-anchor="start" x="41.5" y="-226.2" font-family="Helvetica,sans-Serif" font-size="16.00">index.ts</text>
</a>
</g>
</g>
<!-- src/zod/schemas.ts -->
<g id="node10" class="node">
<title>src/zod/schemas.ts</title>
<g id="a_node10"><a xlink:href="src/zod/schemas.ts" xlink:title="schemas.ts">
<path fill="#ddfeff" stroke="black" d="M299,-216C299,-216 216,-216 216,-216 210,-216 204,-210 204,-204 204,-204 204,-174 204,-174 204,-168 210,-162 216,-162 216,-162 299,-162 299,-162 305,-162 311,-168 311,-174 311,-174 311,-204 311,-204 311,-210 305,-216 299,-216"/>
<text text-anchor="start" x="212" y="-185.2" font-family="Helvetica,sans-Serif" font-size="16.00">schemas.ts</text>
</a>
</g>
</g>
<!-- src/zod/index.ts&#45;&gt;src/zod/schemas.ts -->
<g id="edge6" class="edge">
<title>src/zod/index.ts&#45;&gt;src/zod/schemas.ts</title>
<path fill="none" stroke="#666666" stroke-width="2" stroke-opacity="0.458824" d="M114.72,-209.5C114.72,-209.5 184,-209.5 184,-209.5"/>
<polygon fill="#666666" fill-opacity="0.458824" stroke="#666666" stroke-width="2" stroke-opacity="0.458824" points="204,-216.5 184,-209.5 204,-202.5 204,-216.5"/>
</g>
<!-- src/zod/utils.ts -->
<g id="node11" class="node">
<title>src/zod/utils.ts</title>
<g id="a_node11"><a xlink:href="src/zod/utils.ts" xlink:title="utils.ts">
<path fill="#ddfeff" stroke="black" d="M280.5,-292C280.5,-292 234.5,-292 234.5,-292 228.5,-292 222.5,-286 222.5,-280 222.5,-280 222.5,-250 222.5,-250 222.5,-244 228.5,-238 234.5,-238 234.5,-238 280.5,-238 280.5,-238 286.5,-238 292.5,-244 292.5,-250 292.5,-250 292.5,-280 292.5,-280 292.5,-286 286.5,-292 280.5,-292"/>
<text text-anchor="start" x="230.5" y="-261.2" font-family="Helvetica,sans-Serif" font-size="16.00">utils.ts</text>
</a>
</g>
</g>
<!-- src/zod/index.ts&#45;&gt;src/zod/utils.ts -->
<g id="edge7" class="edge">
<title>src/zod/index.ts&#45;&gt;src/zod/utils.ts</title>
<path fill="none" stroke="#666666" stroke-width="2" stroke-opacity="0.458824" d="M114.72,-247.5C114.72,-247.5 202.45,-247.5 202.45,-247.5"/>
<polygon fill="#666666" fill-opacity="0.458824" stroke="#666666" stroke-width="2" stroke-opacity="0.458824" points="222.45,-254.5 202.45,-247.5 222.45,-240.5 222.45,-254.5"/>
</g>
</g>
</svg>
