<?xml version="1.0" encoding="UTF-8" standalone="no"?>
<!DOCTYPE svg PUBLIC "-//W3C//DTD SVG 1.1//EN"
 "http://www.w3.org/Graphics/SVG/1.1/DTD/svg11.dtd">
<!-- Generated by graphviz version 2.43.0 (0)
 -->
<!-- Title: G Pages: 1 -->
<svg width="1786pt" height="2145pt"
 viewBox="0.00 0.00 1786.20 2145.04" xmlns="http://www.w3.org/2000/svg" xmlns:xlink="http://www.w3.org/1999/xlink">
<g id="graph0" class="graph" transform="scale(1 1) rotate(0) translate(21.6 2123.44)">
<title>G</title>
<polygon fill="#111111" stroke="transparent" points="-21.6,21.6 -21.6,-2123.44 1764.6,-2123.44 1764.6,21.6 -21.6,21.6"/>
<!-- components/atoms/accordion.tsx -->
<g id="node1" class="node">
<title>components/atoms/accordion.tsx</title>
<path fill="none" stroke="#cfffac" d="M495.83,-1771.84C495.83,-1771.84 259.17,-1771.84 259.17,-1771.84 254.83,-1771.84 250.5,-1767.51 250.5,-1763.17 250.5,-1763.17 250.5,-1754.51 250.5,-1754.51 250.5,-1750.17 254.83,-1745.84 259.17,-1745.84 259.17,-1745.84 495.83,-1745.84 495.83,-1745.84 500.17,-1745.84 504.5,-1750.17 504.5,-1754.51 504.5,-1754.51 504.5,-1763.17 504.5,-1763.17 504.5,-1767.51 500.17,-1771.84 495.83,-1771.84"/>
<text text-anchor="middle" x="377.5" y="-1755.04" font-family="Arial" font-size="16.00" fill="#cfffac">components/atoms/accordion.tsx</text>
</g>
<!-- components/atoms/alert&#45;variants.tsx -->
<g id="node2" class="node">
<title>components/atoms/alert&#45;variants.tsx</title>
<path fill="none" stroke="#cfffac" d="M894.83,-1727.84C894.83,-1727.84 634.17,-1727.84 634.17,-1727.84 629.83,-1727.84 625.5,-1723.51 625.5,-1719.17 625.5,-1719.17 625.5,-1710.51 625.5,-1710.51 625.5,-1706.17 629.83,-1701.84 634.17,-1701.84 634.17,-1701.84 894.83,-1701.84 894.83,-1701.84 899.17,-1701.84 903.5,-1706.17 903.5,-1710.51 903.5,-1710.51 903.5,-1719.17 903.5,-1719.17 903.5,-1723.51 899.17,-1727.84 894.83,-1727.84"/>
<text text-anchor="middle" x="764.5" y="-1711.04" font-family="Arial" font-size="16.00" fill="#cfffac">components/atoms/alert&#45;variants.tsx</text>
</g>
<!-- components/atoms/alert.tsx -->
<g id="node3" class="node">
<title>components/atoms/alert.tsx</title>
<path fill="none" stroke="#c6c5fe" d="M476.33,-1727.84C476.33,-1727.84 278.67,-1727.84 278.67,-1727.84 274.33,-1727.84 270,-1723.51 270,-1719.17 270,-1719.17 270,-1710.51 270,-1710.51 270,-1706.17 274.33,-1701.84 278.67,-1701.84 278.67,-1701.84 476.33,-1701.84 476.33,-1701.84 480.67,-1701.84 485,-1706.17 485,-1710.51 485,-1710.51 485,-1719.17 485,-1719.17 485,-1723.51 480.67,-1727.84 476.33,-1727.84"/>
<text text-anchor="middle" x="377.5" y="-1711.04" font-family="Arial" font-size="16.00" fill="#c6c5fe">components/atoms/alert.tsx</text>
</g>
<!-- components/atoms/alert.tsx&#45;&gt;components/atoms/alert&#45;variants.tsx -->
<g id="edge1" class="edge">
<title>components/atoms/alert.tsx&#45;&gt;components/atoms/alert&#45;variants.tsx</title>
<path fill="none" stroke="#757575" d="M485.23,-1714.84C525.49,-1714.84 572.04,-1714.84 615.41,-1714.84"/>
<polygon fill="#757575" stroke="#757575" points="615.48,-1718.34 625.48,-1714.84 615.48,-1711.34 615.48,-1718.34"/>
</g>
<!-- components/atoms/badge&#45;variants.tsx -->
<g id="node4" class="node">
<title>components/atoms/badge&#45;variants.tsx</title>
<path fill="none" stroke="#cfffac" d="M901.33,-1683.84C901.33,-1683.84 627.67,-1683.84 627.67,-1683.84 623.33,-1683.84 619,-1679.51 619,-1675.17 619,-1675.17 619,-1666.51 619,-1666.51 619,-1662.17 623.33,-1657.84 627.67,-1657.84 627.67,-1657.84 901.33,-1657.84 901.33,-1657.84 905.67,-1657.84 910,-1662.17 910,-1666.51 910,-1666.51 910,-1675.17 910,-1675.17 910,-1679.51 905.67,-1683.84 901.33,-1683.84"/>
<text text-anchor="middle" x="764.5" y="-1667.04" font-family="Arial" font-size="16.00" fill="#cfffac">components/atoms/badge&#45;variants.tsx</text>
</g>
<!-- components/atoms/badge.tsx -->
<g id="node5" class="node">
<title>components/atoms/badge.tsx</title>
<path fill="none" stroke="#c6c5fe" d="M483.33,-1683.84C483.33,-1683.84 271.67,-1683.84 271.67,-1683.84 267.33,-1683.84 263,-1679.51 263,-1675.17 263,-1675.17 263,-1666.51 263,-1666.51 263,-1662.17 267.33,-1657.84 271.67,-1657.84 271.67,-1657.84 483.33,-1657.84 483.33,-1657.84 487.67,-1657.84 492,-1662.17 492,-1666.51 492,-1666.51 492,-1675.17 492,-1675.17 492,-1679.51 487.67,-1683.84 483.33,-1683.84"/>
<text text-anchor="middle" x="377.5" y="-1667.04" font-family="Arial" font-size="16.00" fill="#c6c5fe">components/atoms/badge.tsx</text>
</g>
<!-- components/atoms/badge.tsx&#45;&gt;components/atoms/badge&#45;variants.tsx -->
<g id="edge2" class="edge">
<title>components/atoms/badge.tsx&#45;&gt;components/atoms/badge&#45;variants.tsx</title>
<path fill="none" stroke="#757575" d="M492.19,-1670.84C528.63,-1670.84 569.63,-1670.84 608.5,-1670.84"/>
<polygon fill="#757575" stroke="#757575" points="608.86,-1674.34 618.86,-1670.84 608.86,-1667.34 608.86,-1674.34"/>
</g>
<!-- components/atoms/button&#45;variants.tsx -->
<g id="node6" class="node">
<title>components/atoms/button&#45;variants.tsx</title>
<path fill="none" stroke="#cfffac" d="M1689.83,-942.84C1689.83,-942.84 1416.17,-942.84 1416.17,-942.84 1411.83,-942.84 1407.5,-938.51 1407.5,-934.17 1407.5,-934.17 1407.5,-925.51 1407.5,-925.51 1407.5,-921.17 1411.83,-916.84 1416.17,-916.84 1416.17,-916.84 1689.83,-916.84 1689.83,-916.84 1694.17,-916.84 1698.5,-921.17 1698.5,-925.51 1698.5,-925.51 1698.5,-934.17 1698.5,-934.17 1698.5,-938.51 1694.17,-942.84 1689.83,-942.84"/>
<text text-anchor="middle" x="1553" y="-926.04" font-family="Arial" font-size="16.00" fill="#cfffac">components/atoms/button&#45;variants.tsx</text>
</g>
<!-- components/atoms/button.tsx -->
<g id="node7" class="node">
<title>components/atoms/button.tsx</title>
<path fill="none" stroke="#c6c5fe" d="M1261.33,-901.84C1261.33,-901.84 1049.67,-901.84 1049.67,-901.84 1045.33,-901.84 1041,-897.51 1041,-893.17 1041,-893.17 1041,-884.51 1041,-884.51 1041,-880.17 1045.33,-875.84 1049.67,-875.84 1049.67,-875.84 1261.33,-875.84 1261.33,-875.84 1265.67,-875.84 1270,-880.17 1270,-884.51 1270,-884.51 1270,-893.17 1270,-893.17 1270,-897.51 1265.67,-901.84 1261.33,-901.84"/>
<text text-anchor="middle" x="1155.5" y="-885.04" font-family="Arial" font-size="16.00" fill="#c6c5fe">components/atoms/button.tsx</text>
</g>
<!-- components/atoms/button.tsx&#45;&gt;components/atoms/button&#45;variants.tsx -->
<g id="edge3" class="edge">
<title>components/atoms/button.tsx&#45;&gt;components/atoms/button&#45;variants.tsx</title>
<path fill="none" stroke="#757575" d="M1270.1,-900.62C1315.7,-905.34 1368.63,-910.83 1416.24,-915.77"/>
<polygon fill="#757575" stroke="#757575" points="1416,-919.26 1426.31,-916.81 1416.72,-912.3 1416,-919.26"/>
</g>
<!-- components/atoms/calendar&#45;day&#45;button.tsx -->
<g id="node8" class="node">
<title>components/atoms/calendar&#45;day&#45;button.tsx</title>
<path fill="none" stroke="#c6c5fe" d="M919.83,-983.84C919.83,-983.84 609.17,-983.84 609.17,-983.84 604.83,-983.84 600.5,-979.51 600.5,-975.17 600.5,-975.17 600.5,-966.51 600.5,-966.51 600.5,-962.17 604.83,-957.84 609.17,-957.84 609.17,-957.84 919.83,-957.84 919.83,-957.84 924.17,-957.84 928.5,-962.17 928.5,-966.51 928.5,-966.51 928.5,-975.17 928.5,-975.17 928.5,-979.51 924.17,-983.84 919.83,-983.84"/>
<text text-anchor="middle" x="764.5" y="-967.04" font-family="Arial" font-size="16.00" fill="#c6c5fe">components/atoms/calendar&#45;day&#45;button.tsx</text>
</g>
<!-- components/atoms/calendar&#45;day&#45;button.tsx&#45;&gt;components/atoms/button.tsx -->
<g id="edge4" class="edge">
<title>components/atoms/calendar&#45;day&#45;button.tsx&#45;&gt;components/atoms/button.tsx</title>
<path fill="none" stroke="#757575" d="M827.57,-957.76C897.02,-943.12 1009.37,-919.43 1082.59,-904"/>
<polygon fill="#757575" stroke="#757575" points="1083.59,-907.36 1092.65,-901.88 1082.15,-900.52 1083.59,-907.36"/>
</g>
<!-- components/atoms/card.tsx -->
<g id="node9" class="node">
<title>components/atoms/card.tsx</title>
<path fill="none" stroke="#cfffac" d="M863.33,-1027.84C863.33,-1027.84 665.67,-1027.84 665.67,-1027.84 661.33,-1027.84 657,-1023.51 657,-1019.17 657,-1019.17 657,-1010.51 657,-1010.51 657,-1006.17 661.33,-1001.84 665.67,-1001.84 665.67,-1001.84 863.33,-1001.84 863.33,-1001.84 867.67,-1001.84 872,-1006.17 872,-1010.51 872,-1010.51 872,-1019.17 872,-1019.17 872,-1023.51 867.67,-1027.84 863.33,-1027.84"/>
<text text-anchor="middle" x="764.5" y="-1011.04" font-family="Arial" font-size="16.00" fill="#cfffac">components/atoms/card.tsx</text>
</g>
<!-- components/atoms/checkbox.tsx -->
<g id="node10" class="node">
<title>components/atoms/checkbox.tsx</title>
<path fill="none" stroke="#cfffac" d="M495.33,-1487.84C495.33,-1487.84 259.67,-1487.84 259.67,-1487.84 255.33,-1487.84 251,-1483.51 251,-1479.17 251,-1479.17 251,-1470.51 251,-1470.51 251,-1466.17 255.33,-1461.84 259.67,-1461.84 259.67,-1461.84 495.33,-1461.84 495.33,-1461.84 499.67,-1461.84 504,-1466.17 504,-1470.51 504,-1470.51 504,-1479.17 504,-1479.17 504,-1483.51 499.67,-1487.84 495.33,-1487.84"/>
<text text-anchor="middle" x="377.5" y="-1471.04" font-family="Arial" font-size="16.00" fill="#cfffac">components/atoms/checkbox.tsx</text>
</g>
<!-- components/atoms/collapsible.tsx -->
<g id="node11" class="node">
<title>components/atoms/collapsible.tsx</title>
<path fill="none" stroke="#cfffac" d="M498.83,-1443.84C498.83,-1443.84 256.17,-1443.84 256.17,-1443.84 251.83,-1443.84 247.5,-1439.51 247.5,-1435.17 247.5,-1435.17 247.5,-1426.51 247.5,-1426.51 247.5,-1422.17 251.83,-1417.84 256.17,-1417.84 256.17,-1417.84 498.83,-1417.84 498.83,-1417.84 503.17,-1417.84 507.5,-1422.17 507.5,-1426.51 507.5,-1426.51 507.5,-1435.17 507.5,-1435.17 507.5,-1439.51 503.17,-1443.84 498.83,-1443.84"/>
<text text-anchor="middle" x="377.5" y="-1427.04" font-family="Arial" font-size="16.00" fill="#cfffac">components/atoms/collapsible.tsx</text>
</g>
<!-- components/atoms/command.tsx -->
<g id="node12" class="node">
<title>components/atoms/command.tsx</title>
<path fill="none" stroke="#cfffac" d="M883.33,-576.84C883.33,-576.84 645.67,-576.84 645.67,-576.84 641.33,-576.84 637,-572.51 637,-568.17 637,-568.17 637,-559.51 637,-559.51 637,-555.17 641.33,-550.84 645.67,-550.84 645.67,-550.84 883.33,-550.84 883.33,-550.84 887.67,-550.84 892,-555.17 892,-559.51 892,-559.51 892,-568.17 892,-568.17 892,-572.51 887.67,-576.84 883.33,-576.84"/>
<text text-anchor="middle" x="764.5" y="-560.04" font-family="Arial" font-size="16.00" fill="#cfffac">components/atoms/command.tsx</text>
</g>
<!-- components/atoms/dialog.tsx -->
<g id="node13" class="node">
<title>components/atoms/dialog.tsx</title>
<path fill="none" stroke="#cfffac" d="M1260.33,-494.84C1260.33,-494.84 1050.67,-494.84 1050.67,-494.84 1046.33,-494.84 1042,-490.51 1042,-486.17 1042,-486.17 1042,-477.51 1042,-477.51 1042,-473.17 1046.33,-468.84 1050.67,-468.84 1050.67,-468.84 1260.33,-468.84 1260.33,-468.84 1264.67,-468.84 1269,-473.17 1269,-477.51 1269,-477.51 1269,-486.17 1269,-486.17 1269,-490.51 1264.67,-494.84 1260.33,-494.84"/>
<text text-anchor="middle" x="1155.5" y="-478.04" font-family="Arial" font-size="16.00" fill="#cfffac">components/atoms/dialog.tsx</text>
</g>
<!-- components/atoms/drawer.tsx -->
<g id="node14" class="node">
<title>components/atoms/drawer.tsx</title>
<path fill="none" stroke="#cfffac" d="M871.83,-1128.84C871.83,-1128.84 657.17,-1128.84 657.17,-1128.84 652.83,-1128.84 648.5,-1124.51 648.5,-1120.17 648.5,-1120.17 648.5,-1111.51 648.5,-1111.51 648.5,-1107.17 652.83,-1102.84 657.17,-1102.84 657.17,-1102.84 871.83,-1102.84 871.83,-1102.84 876.17,-1102.84 880.5,-1107.17 880.5,-1111.51 880.5,-1111.51 880.5,-1120.17 880.5,-1120.17 880.5,-1124.51 876.17,-1128.84 871.83,-1128.84"/>
<text text-anchor="middle" x="764.5" y="-1112.04" font-family="Arial" font-size="16.00" fill="#cfffac">components/atoms/drawer.tsx</text>
</g>
<!-- components/atoms/dropdown&#45;menu.tsx -->
<g id="node15" class="node">
<title>components/atoms/dropdown&#45;menu.tsx</title>
<path fill="none" stroke="#cfffac" d="M1296.83,-371.84C1296.83,-371.84 1014.17,-371.84 1014.17,-371.84 1009.83,-371.84 1005.5,-367.51 1005.5,-363.17 1005.5,-363.17 1005.5,-354.51 1005.5,-354.51 1005.5,-350.17 1009.83,-345.84 1014.17,-345.84 1014.17,-345.84 1296.83,-345.84 1296.83,-345.84 1301.17,-345.84 1305.5,-350.17 1305.5,-354.51 1305.5,-354.51 1305.5,-363.17 1305.5,-363.17 1305.5,-367.51 1301.17,-371.84 1296.83,-371.84"/>
<text text-anchor="middle" x="1155.5" y="-355.04" font-family="Arial" font-size="16.00" fill="#cfffac">components/atoms/dropdown&#45;menu.tsx</text>
</g>
<!-- components/atoms/empty.tsx -->
<g id="node16" class="node">
<title>components/atoms/empty.tsx</title>
<path fill="none" stroke="#cfffac" d="M482.33,-1235.84C482.33,-1235.84 272.67,-1235.84 272.67,-1235.84 268.33,-1235.84 264,-1231.51 264,-1227.17 264,-1227.17 264,-1218.51 264,-1218.51 264,-1214.17 268.33,-1209.84 272.67,-1209.84 272.67,-1209.84 482.33,-1209.84 482.33,-1209.84 486.67,-1209.84 491,-1214.17 491,-1218.51 491,-1218.51 491,-1227.17 491,-1227.17 491,-1231.51 486.67,-1235.84 482.33,-1235.84"/>
<text text-anchor="middle" x="377.5" y="-1219.04" font-family="Arial" font-size="16.00" fill="#cfffac">components/atoms/empty.tsx</text>
</g>
<!-- components/atoms/field&#45;variants.tsx -->
<g id="node17" class="node">
<title>components/atoms/field&#45;variants.tsx</title>
<path fill="none" stroke="#cfffac" d="M893.83,-1399.84C893.83,-1399.84 635.17,-1399.84 635.17,-1399.84 630.83,-1399.84 626.5,-1395.51 626.5,-1391.17 626.5,-1391.17 626.5,-1382.51 626.5,-1382.51 626.5,-1378.17 630.83,-1373.84 635.17,-1373.84 635.17,-1373.84 893.83,-1373.84 893.83,-1373.84 898.17,-1373.84 902.5,-1378.17 902.5,-1382.51 902.5,-1382.51 902.5,-1391.17 902.5,-1391.17 902.5,-1395.51 898.17,-1399.84 893.83,-1399.84"/>
<text text-anchor="middle" x="764.5" y="-1383.04" font-family="Arial" font-size="16.00" fill="#cfffac">components/atoms/field&#45;variants.tsx</text>
</g>
<!-- components/atoms/field.tsx -->
<g id="node18" class="node">
<title>components/atoms/field.tsx</title>
<path fill="none" stroke="#c6c5fe" d="M475.83,-1399.84C475.83,-1399.84 279.17,-1399.84 279.17,-1399.84 274.83,-1399.84 270.5,-1395.51 270.5,-1391.17 270.5,-1391.17 270.5,-1382.51 270.5,-1382.51 270.5,-1378.17 274.83,-1373.84 279.17,-1373.84 279.17,-1373.84 475.83,-1373.84 475.83,-1373.84 480.17,-1373.84 484.5,-1378.17 484.5,-1382.51 484.5,-1382.51 484.5,-1391.17 484.5,-1391.17 484.5,-1395.51 480.17,-1399.84 475.83,-1399.84"/>
<text text-anchor="middle" x="377.5" y="-1383.04" font-family="Arial" font-size="16.00" fill="#c6c5fe">components/atoms/field.tsx</text>
</g>
<!-- components/atoms/field.tsx&#45;&gt;components/atoms/field&#45;variants.tsx -->
<g id="edge5" class="edge">
<title>components/atoms/field.tsx&#45;&gt;components/atoms/field&#45;variants.tsx</title>
<path fill="none" stroke="#757575" d="M484.72,-1386.84C525.3,-1386.84 572.32,-1386.84 616.06,-1386.84"/>
<polygon fill="#757575" stroke="#757575" points="616.21,-1390.34 626.21,-1386.84 616.21,-1383.34 616.21,-1390.34"/>
</g>
<!-- components/atoms/label.tsx -->
<g id="node19" class="node">
<title>components/atoms/label.tsx</title>
<path fill="none" stroke="#cfffac" d="M864.83,-1525.84C864.83,-1525.84 664.17,-1525.84 664.17,-1525.84 659.83,-1525.84 655.5,-1521.51 655.5,-1517.17 655.5,-1517.17 655.5,-1508.51 655.5,-1508.51 655.5,-1504.17 659.83,-1499.84 664.17,-1499.84 664.17,-1499.84 864.83,-1499.84 864.83,-1499.84 869.17,-1499.84 873.5,-1504.17 873.5,-1508.51 873.5,-1508.51 873.5,-1517.17 873.5,-1517.17 873.5,-1521.51 869.17,-1525.84 864.83,-1525.84"/>
<text text-anchor="middle" x="764.5" y="-1509.04" font-family="Arial" font-size="16.00" fill="#cfffac">components/atoms/label.tsx</text>
</g>
<!-- components/atoms/field.tsx&#45;&gt;components/atoms/label.tsx -->
<g id="edge6" class="edge">
<title>components/atoms/field.tsx&#45;&gt;components/atoms/label.tsx</title>
<path fill="none" stroke="#757575" d="M484.91,-1388.84C505.76,-1392.5 526.79,-1398.7 545,-1408.84 567.07,-1421.14 560.17,-1438.55 581,-1452.84 611.66,-1473.88 650.23,-1487.97 684.01,-1497.18"/>
<polygon fill="#757575" stroke="#757575" points="683.3,-1500.61 693.86,-1499.77 685.07,-1493.84 683.3,-1500.61"/>
</g>
<!-- components/atoms/separator.tsx -->
<g id="node20" class="node">
<title>components/atoms/separator.tsx</title>
<path fill="none" stroke="#cfffac" d="M881.33,-1241.84C881.33,-1241.84 647.67,-1241.84 647.67,-1241.84 643.33,-1241.84 639,-1237.51 639,-1233.17 639,-1233.17 639,-1224.51 639,-1224.51 639,-1220.17 643.33,-1215.84 647.67,-1215.84 647.67,-1215.84 881.33,-1215.84 881.33,-1215.84 885.67,-1215.84 890,-1220.17 890,-1224.51 890,-1224.51 890,-1233.17 890,-1233.17 890,-1237.51 885.67,-1241.84 881.33,-1241.84"/>
<text text-anchor="middle" x="764.5" y="-1225.04" font-family="Arial" font-size="16.00" fill="#cfffac">components/atoms/separator.tsx</text>
</g>
<!-- components/atoms/field.tsx&#45;&gt;components/atoms/separator.tsx -->
<g id="edge7" class="edge">
<title>components/atoms/field.tsx&#45;&gt;components/atoms/separator.tsx</title>
<path fill="none" stroke="#757575" d="M417.17,-1373.84C451.12,-1362.2 501.69,-1344.33 545,-1326.84 609.87,-1300.65 683.87,-1266.55 726.96,-1246.25"/>
<polygon fill="#757575" stroke="#757575" points="728.65,-1249.33 736.19,-1241.89 725.66,-1243 728.65,-1249.33"/>
</g>
<!-- components/atoms/input&#45;group&#45;variants.tsx -->
<g id="node21" class="node">
<title>components/atoms/input&#45;group&#45;variants.tsx</title>
<path fill="none" stroke="#cfffac" d="M1310.83,-1443.84C1310.83,-1443.84 1000.17,-1443.84 1000.17,-1443.84 995.83,-1443.84 991.5,-1439.51 991.5,-1435.17 991.5,-1435.17 991.5,-1426.51 991.5,-1426.51 991.5,-1422.17 995.83,-1417.84 1000.17,-1417.84 1000.17,-1417.84 1310.83,-1417.84 1310.83,-1417.84 1315.17,-1417.84 1319.5,-1422.17 1319.5,-1426.51 1319.5,-1426.51 1319.5,-1435.17 1319.5,-1435.17 1319.5,-1439.51 1315.17,-1443.84 1310.83,-1443.84"/>
<text text-anchor="middle" x="1155.5" y="-1427.04" font-family="Arial" font-size="16.00" fill="#cfffac">components/atoms/input&#45;group&#45;variants.tsx</text>
</g>
<!-- components/atoms/input&#45;group.tsx -->
<g id="node22" class="node">
<title>components/atoms/input&#45;group.tsx</title>
<path fill="none" stroke="#c6c5fe" d="M888.83,-1443.84C888.83,-1443.84 640.17,-1443.84 640.17,-1443.84 635.83,-1443.84 631.5,-1439.51 631.5,-1435.17 631.5,-1435.17 631.5,-1426.51 631.5,-1426.51 631.5,-1422.17 635.83,-1417.84 640.17,-1417.84 640.17,-1417.84 888.83,-1417.84 888.83,-1417.84 893.17,-1417.84 897.5,-1422.17 897.5,-1426.51 897.5,-1426.51 897.5,-1435.17 897.5,-1435.17 897.5,-1439.51 893.17,-1443.84 888.83,-1443.84"/>
<text text-anchor="middle" x="764.5" y="-1427.04" font-family="Arial" font-size="16.00" fill="#c6c5fe">components/atoms/input&#45;group.tsx</text>
</g>
<!-- components/atoms/input&#45;group.tsx&#45;&gt;components/atoms/button.tsx -->
<g id="edge8" class="edge">
<title>components/atoms/input&#45;group.tsx&#45;&gt;components/atoms/button.tsx</title>
<path fill="none" stroke="#757575" d="M897.83,-1431.99C915.95,-1427.44 933.34,-1420.14 948,-1408.84 953.38,-1404.7 1106.88,-1011.13 1145.67,-911.54"/>
<polygon fill="#757575" stroke="#757575" points="1148.97,-912.69 1149.34,-902.1 1142.45,-910.15 1148.97,-912.69"/>
</g>
<!-- components/atoms/input&#45;group.tsx&#45;&gt;components/atoms/input&#45;group&#45;variants.tsx -->
<g id="edge9" class="edge">
<title>components/atoms/input&#45;group.tsx&#45;&gt;components/atoms/input&#45;group&#45;variants.tsx</title>
<path fill="none" stroke="#757575" d="M897.74,-1430.84C924.52,-1430.84 953.05,-1430.84 981.01,-1430.84"/>
<polygon fill="#757575" stroke="#757575" points="981.27,-1434.34 991.27,-1430.84 981.27,-1427.34 981.27,-1434.34"/>
</g>
<!-- components/atoms/input.tsx -->
<g id="node23" class="node">
<title>components/atoms/input.tsx</title>
<path fill="none" stroke="#cfffac" d="M1256.33,-1358.84C1256.33,-1358.84 1054.67,-1358.84 1054.67,-1358.84 1050.33,-1358.84 1046,-1354.51 1046,-1350.17 1046,-1350.17 1046,-1341.51 1046,-1341.51 1046,-1337.17 1050.33,-1332.84 1054.67,-1332.84 1054.67,-1332.84 1256.33,-1332.84 1256.33,-1332.84 1260.67,-1332.84 1265,-1337.17 1265,-1341.51 1265,-1341.51 1265,-1350.17 1265,-1350.17 1265,-1354.51 1260.67,-1358.84 1256.33,-1358.84"/>
<text text-anchor="middle" x="1155.5" y="-1342.04" font-family="Arial" font-size="16.00" fill="#cfffac">components/atoms/input.tsx</text>
</g>
<!-- components/atoms/input&#45;group.tsx&#45;&gt;components/atoms/input.tsx -->
<g id="edge10" class="edge">
<title>components/atoms/input&#45;group.tsx&#45;&gt;components/atoms/input.tsx</title>
<path fill="none" stroke="#757575" d="M897.05,-1417.8C914.26,-1415.27 931.61,-1412.3 948,-1408.84 1004.36,-1396.94 1067.47,-1376.63 1108.92,-1362.29"/>
<polygon fill="#757575" stroke="#757575" points="1110.16,-1365.56 1118.45,-1358.96 1107.86,-1358.95 1110.16,-1365.56"/>
</g>
<!-- components/atoms/textarea.tsx -->
<g id="node24" class="node">
<title>components/atoms/textarea.tsx</title>
<path fill="none" stroke="#cfffac" d="M1267.83,-1544.84C1267.83,-1544.84 1043.17,-1544.84 1043.17,-1544.84 1038.83,-1544.84 1034.5,-1540.51 1034.5,-1536.17 1034.5,-1536.17 1034.5,-1527.51 1034.5,-1527.51 1034.5,-1523.17 1038.83,-1518.84 1043.17,-1518.84 1043.17,-1518.84 1267.83,-1518.84 1267.83,-1518.84 1272.17,-1518.84 1276.5,-1523.17 1276.5,-1527.51 1276.5,-1527.51 1276.5,-1536.17 1276.5,-1536.17 1276.5,-1540.51 1272.17,-1544.84 1267.83,-1544.84"/>
<text text-anchor="middle" x="1155.5" y="-1528.04" font-family="Arial" font-size="16.00" fill="#cfffac">components/atoms/textarea.tsx</text>
</g>
<!-- components/atoms/input&#45;group.tsx&#45;&gt;components/atoms/textarea.tsx -->
<g id="edge11" class="edge">
<title>components/atoms/input&#45;group.tsx&#45;&gt;components/atoms/textarea.tsx</title>
<path fill="none" stroke="#757575" d="M815.96,-1443.94C887.37,-1462.48 1017.74,-1496.33 1094.17,-1516.18"/>
<polygon fill="#757575" stroke="#757575" points="1093.57,-1519.64 1104.13,-1518.76 1095.33,-1512.86 1093.57,-1519.64"/>
</g>
<!-- components/atoms/navigation&#45;menu.tsx -->
<g id="node25" class="node">
<title>components/atoms/navigation&#45;menu.tsx</title>
<path fill="none" stroke="#cfffac" d="M1696.33,-226.84C1696.33,-226.84 1409.67,-226.84 1409.67,-226.84 1405.33,-226.84 1401,-222.51 1401,-218.17 1401,-218.17 1401,-209.51 1401,-209.51 1401,-205.17 1405.33,-200.84 1409.67,-200.84 1409.67,-200.84 1696.33,-200.84 1696.33,-200.84 1700.67,-200.84 1705,-205.17 1705,-209.51 1705,-209.51 1705,-218.17 1705,-218.17 1705,-222.51 1700.67,-226.84 1696.33,-226.84"/>
<text text-anchor="middle" x="1553" y="-210.04" font-family="Arial" font-size="16.00" fill="#cfffac">components/atoms/navigation&#45;menu.tsx</text>
</g>
<!-- components/atoms/popover.tsx -->
<g id="node26" class="node">
<title>components/atoms/popover.tsx</title>
<path fill="none" stroke="#cfffac" d="M489.83,-901.84C489.83,-901.84 265.17,-901.84 265.17,-901.84 260.83,-901.84 256.5,-897.51 256.5,-893.17 256.5,-893.17 256.5,-884.51 256.5,-884.51 256.5,-880.17 260.83,-875.84 265.17,-875.84 265.17,-875.84 489.83,-875.84 489.83,-875.84 494.17,-875.84 498.5,-880.17 498.5,-884.51 498.5,-884.51 498.5,-893.17 498.5,-893.17 498.5,-897.51 494.17,-901.84 489.83,-901.84"/>
<text text-anchor="middle" x="377.5" y="-885.04" font-family="Arial" font-size="16.00" fill="#cfffac">components/atoms/popover.tsx</text>
</g>
<!-- components/atoms/select.tsx -->
<g id="node27" class="node">
<title>components/atoms/select.tsx</title>
<path fill="none" stroke="#cfffac" d="M869.33,-657.84C869.33,-657.84 659.67,-657.84 659.67,-657.84 655.33,-657.84 651,-653.51 651,-649.17 651,-649.17 651,-640.51 651,-640.51 651,-636.17 655.33,-631.84 659.67,-631.84 659.67,-631.84 869.33,-631.84 869.33,-631.84 873.67,-631.84 878,-636.17 878,-640.51 878,-640.51 878,-649.17 878,-649.17 878,-653.51 873.67,-657.84 869.33,-657.84"/>
<text text-anchor="middle" x="764.5" y="-641.04" font-family="Arial" font-size="16.00" fill="#cfffac">components/atoms/select.tsx</text>
</g>
<!-- components/atoms/skeleton.tsx -->
<g id="node28" class="node">
<title>components/atoms/skeleton.tsx</title>
<path fill="none" stroke="#cfffac" d="M491.33,-819.84C491.33,-819.84 263.67,-819.84 263.67,-819.84 259.33,-819.84 255,-815.51 255,-811.17 255,-811.17 255,-802.51 255,-802.51 255,-798.17 259.33,-793.84 263.67,-793.84 263.67,-793.84 491.33,-793.84 491.33,-793.84 495.67,-793.84 500,-798.17 500,-802.51 500,-802.51 500,-811.17 500,-811.17 500,-815.51 495.67,-819.84 491.33,-819.84"/>
<text text-anchor="middle" x="377.5" y="-803.04" font-family="Arial" font-size="16.00" fill="#cfffac">components/atoms/skeleton.tsx</text>
</g>
<!-- components/index.ts -->
<g id="node29" class="node">
<title>components/index.ts</title>
<path fill="none" stroke="#c6c5fe" d="M161.33,-901.84C161.33,-901.84 12.67,-901.84 12.67,-901.84 8.33,-901.84 4,-897.51 4,-893.17 4,-893.17 4,-884.51 4,-884.51 4,-880.17 8.33,-875.84 12.67,-875.84 12.67,-875.84 161.33,-875.84 161.33,-875.84 165.67,-875.84 170,-880.17 170,-884.51 170,-884.51 170,-893.17 170,-893.17 170,-897.51 165.67,-901.84 161.33,-901.84"/>
<text text-anchor="middle" x="87" y="-885.04" font-family="Arial" font-size="16.00" fill="#c6c5fe">components/index.ts</text>
</g>
<!-- components/index.ts&#45;&gt;components/atoms/accordion.tsx -->
<g id="edge12" class="edge">
<title>components/index.ts&#45;&gt;components/atoms/accordion.tsx</title>
<path fill="none" stroke="#757575" d="M87.83,-901.91C86.81,-999.5 85.45,-1613.71 210,-1736.84 218.83,-1745.57 229.33,-1752 240.69,-1756.66"/>
<polygon fill="#757575" stroke="#757575" points="239.84,-1760.07 250.43,-1760.17 242.21,-1753.49 239.84,-1760.07"/>
</g>
<!-- components/index.ts&#45;&gt;components/atoms/alert.tsx -->
<g id="edge13" class="edge">
<title>components/index.ts&#45;&gt;components/atoms/alert.tsx</title>
<path fill="none" stroke="#757575" d="M87.94,-902.14C87.77,-997.51 91.7,-1576.8 210,-1692.84 223.65,-1706.23 241.23,-1714.2 259.83,-1718.66"/>
<polygon fill="#757575" stroke="#757575" points="259.14,-1722.09 269.64,-1720.67 260.55,-1715.23 259.14,-1722.09"/>
</g>
<!-- components/index.ts&#45;&gt;components/atoms/badge.tsx -->
<g id="edge14" class="edge">
<title>components/index.ts&#45;&gt;components/atoms/badge.tsx</title>
<path fill="none" stroke="#757575" d="M88.11,-901.88C89.17,-992.99 100.07,-1533.84 210,-1643.84 221.83,-1655.68 236.67,-1663.57 252.6,-1668.7"/>
<polygon fill="#757575" stroke="#757575" points="252.06,-1672.18 262.63,-1671.54 253.97,-1665.45 252.06,-1672.18"/>
</g>
<!-- components/index.ts&#45;&gt;components/atoms/button&#45;variants.tsx -->
<g id="edge15" class="edge">
<title>components/index.ts&#45;&gt;components/atoms/button&#45;variants.tsx</title>
<path fill="none" stroke="#757575" d="M88.1,-902.07C89.08,-991.03 99.53,-1501.27 210,-1595.84 304.35,-1676.61 1230.06,-1631.49 1327,-1553.84 1525.22,-1395.07 1548.9,-1046.76 1551.65,-953.31"/>
<polygon fill="#757575" stroke="#757575" points="1555.16,-953.29 1551.9,-943.2 1548.16,-953.12 1555.16,-953.29"/>
</g>
<!-- components/index.ts&#45;&gt;components/atoms/button.tsx -->
<g id="edge16" class="edge">
<title>components/index.ts&#45;&gt;components/atoms/button.tsx</title>
<path fill="none" stroke="#757575" d="M93.87,-875.69C108.37,-845.09 149.16,-769.53 210,-740.84 359.33,-670.41 788.06,-785.84 948,-826.84 1002.04,-840.7 1063.16,-859.43 1104.79,-872.67"/>
<polygon fill="#757575" stroke="#757575" points="1103.82,-876.04 1114.41,-875.75 1105.95,-869.37 1103.82,-876.04"/>
</g>
<!-- components/index.ts&#45;&gt;components/atoms/calendar&#45;day&#45;button.tsx -->
<g id="edge17" class="edge">
<title>components/index.ts&#45;&gt;components/atoms/calendar&#45;day&#45;button.tsx</title>
<path fill="none" stroke="#757575" d="M105.87,-902.02C128.68,-918 170,-944.1 210,-954.84 346.87,-991.6 509.66,-991.33 623.13,-984.49"/>
<polygon fill="#757575" stroke="#757575" points="623.5,-987.97 633.26,-983.85 623.07,-980.98 623.5,-987.97"/>
</g>
<!-- components/index.ts&#45;&gt;components/atoms/card.tsx -->
<g id="edge18" class="edge">
<title>components/index.ts&#45;&gt;components/atoms/card.tsx</title>
<path fill="none" stroke="#757575" d="M99.18,-901.92C118.93,-923.96 162.43,-967.82 210,-985.84 286.98,-1015 508.3,-1018.13 646.63,-1017.01"/>
<polygon fill="#757575" stroke="#757575" points="646.89,-1020.51 656.86,-1016.92 646.83,-1013.51 646.89,-1020.51"/>
</g>
<!-- components/index.ts&#45;&gt;components/atoms/checkbox.tsx -->
<g id="edge19" class="edge">
<title>components/index.ts&#45;&gt;components/atoms/checkbox.tsx</title>
<path fill="none" stroke="#757575" d="M88.85,-901.93C94.11,-979.16 125,-1374.51 210,-1452.84 219.05,-1461.18 229.63,-1467.36 241,-1471.88"/>
<polygon fill="#757575" stroke="#757575" points="240.13,-1475.28 250.73,-1475.29 242.45,-1468.68 240.13,-1475.28"/>
</g>
<!-- components/index.ts&#45;&gt;components/atoms/collapsible.tsx -->
<g id="edge20" class="edge">
<title>components/index.ts&#45;&gt;components/atoms/collapsible.tsx</title>
<path fill="none" stroke="#757575" d="M89.12,-902.11C95.62,-976.14 131.13,-1337.42 210,-1408.84 218.19,-1416.26 227.61,-1421.96 237.7,-1426.29"/>
<polygon fill="#757575" stroke="#757575" points="236.56,-1429.61 247.15,-1429.9 239.06,-1423.07 236.56,-1429.61"/>
</g>
<!-- components/index.ts&#45;&gt;components/atoms/command.tsx -->
<g id="edge21" class="edge">
<title>components/index.ts&#45;&gt;components/atoms/command.tsx</title>
<path fill="none" stroke="#757575" d="M88.37,-875.75C90.56,-826.29 105.66,-649.89 210,-576.84 274.79,-531.49 484.97,-539.07 626.87,-550.27"/>
<polygon fill="#757575" stroke="#757575" points="626.72,-553.77 636.97,-551.08 627.28,-546.79 626.72,-553.77"/>
</g>
<!-- components/index.ts&#45;&gt;components/atoms/dialog.tsx -->
<g id="edge22" class="edge">
<title>components/index.ts&#45;&gt;components/atoms/dialog.tsx</title>
<path fill="none" stroke="#757575" d="M89.62,-875.46C98.03,-808.24 139.19,-508.49 210,-454.84 222.69,-445.23 896.6,-456.79 948,-459.84 977.99,-461.62 1010.34,-464.57 1040.33,-467.74"/>
<polygon fill="#757575" stroke="#757575" points="1040.08,-471.24 1050.4,-468.83 1040.83,-464.28 1040.08,-471.24"/>
</g>
<!-- components/index.ts&#45;&gt;components/atoms/drawer.tsx -->
<g id="edge23" class="edge">
<title>components/index.ts&#45;&gt;components/atoms/drawer.tsx</title>
<path fill="none" stroke="#757575" d="M92.04,-901.96C103.68,-937.24 140.95,-1034.18 210,-1074.84 245.92,-1095.99 486.13,-1107.28 638.07,-1112.38"/>
<polygon fill="#757575" stroke="#757575" points="638.29,-1115.88 648.4,-1112.72 638.52,-1108.89 638.29,-1115.88"/>
</g>
<!-- components/index.ts&#45;&gt;components/atoms/dropdown&#45;menu.tsx -->
<g id="edge24" class="edge">
<title>components/index.ts&#45;&gt;components/atoms/dropdown&#45;menu.tsx</title>
<path fill="none" stroke="#757575" d="M89.04,-875.69C95.11,-802.3 128.68,-444.41 210,-378.84 269.41,-330.93 741.76,-342.12 995.15,-351.79"/>
<polygon fill="#757575" stroke="#757575" points="995.06,-355.29 1005.18,-352.18 995.32,-348.3 995.06,-355.29"/>
</g>
<!-- components/index.ts&#45;&gt;components/atoms/empty.tsx -->
<g id="edge25" class="edge">
<title>components/index.ts&#45;&gt;components/atoms/empty.tsx</title>
<path fill="none" stroke="#757575" d="M88.65,-901.92C91.82,-950.59 109.98,-1122.45 210,-1200.84 222.83,-1210.89 237.99,-1217.61 253.86,-1221.96"/>
<polygon fill="#757575" stroke="#757575" points="253.28,-1225.42 263.82,-1224.37 254.92,-1218.61 253.28,-1225.42"/>
</g>
<!-- components/index.ts&#45;&gt;components/atoms/field.tsx -->
<g id="edge26" class="edge">
<title>components/index.ts&#45;&gt;components/atoms/field.tsx</title>
<path fill="none" stroke="#757575" d="M89.5,-902.18C97.66,-972.05 138.83,-1294.98 210,-1359.84 224.1,-1372.69 241.81,-1380.75 260.37,-1385.62"/>
<polygon fill="#757575" stroke="#757575" points="259.61,-1389.04 270.14,-1387.89 261.19,-1382.22 259.61,-1389.04"/>
</g>
<!-- components/index.ts&#45;&gt;components/atoms/label.tsx -->
<g id="edge29" class="edge">
<title>components/index.ts&#45;&gt;components/atoms/label.tsx</title>
<path fill="none" stroke="#757575" d="M88.36,-902.06C90.97,-985.64 109.64,-1439.95 210,-1522.84 278.9,-1579.75 539.8,-1548.7 677.37,-1527.45"/>
<polygon fill="#757575" stroke="#757575" points="678.12,-1530.88 687.47,-1525.88 677.05,-1523.96 678.12,-1530.88"/>
</g>
<!-- components/index.ts&#45;&gt;components/atoms/separator.tsx -->
<g id="edge33" class="edge">
<title>components/index.ts&#45;&gt;components/atoms/separator.tsx</title>
<path fill="none" stroke="#757575" d="M87.63,-901.91C86.93,-955.65 92.25,-1160.72 210,-1244.84 243.19,-1268.55 475.67,-1253.79 628.59,-1241.15"/>
<polygon fill="#757575" stroke="#757575" points="629.32,-1244.6 639,-1240.28 628.74,-1237.62 629.32,-1244.6"/>
</g>
<!-- components/index.ts&#45;&gt;components/atoms/input&#45;group.tsx -->
<g id="edge27" class="edge">
<title>components/index.ts&#45;&gt;components/atoms/input&#45;group.tsx</title>
<path fill="none" stroke="#757575" d="M88.48,-902.05C91.74,-983.59 113.5,-1417.78 210,-1496.84 267.59,-1544.02 471.35,-1507.72 545,-1496.84 608.23,-1487.5 678.53,-1463.73 721.88,-1447.42"/>
<polygon fill="#757575" stroke="#757575" points="723.14,-1450.68 731.24,-1443.86 720.65,-1444.14 723.14,-1450.68"/>
</g>
<!-- components/index.ts&#45;&gt;components/atoms/input.tsx -->
<g id="edge28" class="edge">
<title>components/index.ts&#45;&gt;components/atoms/input.tsx</title>
<path fill="none" stroke="#757575" d="M89.56,-901.87C97.85,-968.68 139.05,-1271.81 210,-1326.84 273.68,-1376.23 796.35,-1360.98 1035.66,-1351.23"/>
<polygon fill="#757575" stroke="#757575" points="1035.95,-1354.72 1045.79,-1350.82 1035.66,-1347.73 1035.95,-1354.72"/>
</g>
<!-- components/index.ts&#45;&gt;components/atoms/textarea.tsx -->
<g id="edge35" class="edge">
<title>components/index.ts&#45;&gt;components/atoms/textarea.tsx</title>
<path fill="none" stroke="#757575" d="M88.23,-901.86C90.06,-987.24 104.94,-1466.3 210,-1553.84 339.49,-1661.74 869.86,-1582.2 1073.94,-1546.65"/>
<polygon fill="#757575" stroke="#757575" points="1074.75,-1550.06 1084,-1544.89 1073.54,-1543.17 1074.75,-1550.06"/>
</g>
<!-- components/index.ts&#45;&gt;components/atoms/navigation&#45;menu.tsx -->
<g id="edge30" class="edge">
<title>components/index.ts&#45;&gt;components/atoms/navigation&#45;menu.tsx</title>
<path fill="none" stroke="#757575" d="M87.84,-875.67C86.98,-781.28 86.91,-208.3 210,-102.84 304.91,-21.53 1177.63,-153.51 1462.52,-199.18"/>
<polygon fill="#757575" stroke="#757575" points="1461.97,-202.64 1472.4,-200.77 1463.08,-195.73 1461.97,-202.64"/>
</g>
<!-- components/index.ts&#45;&gt;components/atoms/popover.tsx -->
<g id="edge31" class="edge">
<title>components/index.ts&#45;&gt;components/atoms/popover.tsx</title>
<path fill="none" stroke="#757575" d="M170.29,-888.84C193.96,-888.84 220.38,-888.84 246.2,-888.84"/>
<polygon fill="#757575" stroke="#757575" points="246.44,-892.34 256.44,-888.84 246.44,-885.34 246.44,-892.34"/>
</g>
<!-- components/index.ts&#45;&gt;components/atoms/select.tsx -->
<g id="edge32" class="edge">
<title>components/index.ts&#45;&gt;components/atoms/select.tsx</title>
<path fill="none" stroke="#757575" d="M92.51,-875.46C104.93,-840.86 143.27,-748.35 210,-707.84 228.19,-696.8 483.01,-671.16 640.48,-656.22"/>
<polygon fill="#757575" stroke="#757575" points="641.08,-659.67 650.71,-655.25 640.42,-652.7 641.08,-659.67"/>
</g>
<!-- components/index.ts&#45;&gt;components/atoms/skeleton.tsx -->
<g id="edge34" class="edge">
<title>components/index.ts&#45;&gt;components/atoms/skeleton.tsx</title>
<path fill="none" stroke="#757575" d="M112.04,-875.72C136.13,-863.12 174.62,-844.48 210,-833.84 225.94,-829.05 243.01,-825.05 259.92,-821.73"/>
<polygon fill="#757575" stroke="#757575" points="260.68,-825.15 269.85,-819.86 259.38,-818.27 260.68,-825.15"/>
</g>
<!-- components/molecules/accordion.tsx -->
<g id="node30" class="node">
<title>components/molecules/accordion.tsx</title>
<path fill="none" stroke="#cfffac" d="M510.83,-775.84C510.83,-775.84 244.17,-775.84 244.17,-775.84 239.83,-775.84 235.5,-771.51 235.5,-767.17 235.5,-767.17 235.5,-758.51 235.5,-758.51 235.5,-754.17 239.83,-749.84 244.17,-749.84 244.17,-749.84 510.83,-749.84 510.83,-749.84 515.17,-749.84 519.5,-754.17 519.5,-758.51 519.5,-758.51 519.5,-767.17 519.5,-767.17 519.5,-771.51 515.17,-775.84 510.83,-775.84"/>
<text text-anchor="middle" x="377.5" y="-759.04" font-family="Arial" font-size="16.00" fill="#cfffac">components/molecules/accordion.tsx</text>
</g>
<!-- components/index.ts&#45;&gt;components/molecules/accordion.tsx -->
<g id="edge36" class="edge">
<title>components/index.ts&#45;&gt;components/molecules/accordion.tsx</title>
<path fill="none" stroke="#757575" d="M98.82,-875.59C118.35,-852.72 161.94,-806.22 210,-784.84 215.08,-782.58 220.32,-780.54 225.68,-778.69"/>
<polygon fill="#757575" stroke="#757575" points="226.98,-781.94 235.44,-775.56 224.85,-775.28 226.98,-781.94"/>
</g>
<!-- components/molecules/button&#45;group.tsx -->
<g id="node31" class="node">
<title>components/molecules/button&#45;group.tsx</title>
<path fill="none" stroke="#c6c5fe" d="M521.33,-1191.84C521.33,-1191.84 233.67,-1191.84 233.67,-1191.84 229.33,-1191.84 225,-1187.51 225,-1183.17 225,-1183.17 225,-1174.51 225,-1174.51 225,-1170.17 229.33,-1165.84 233.67,-1165.84 233.67,-1165.84 521.33,-1165.84 521.33,-1165.84 525.67,-1165.84 530,-1170.17 530,-1174.51 530,-1174.51 530,-1183.17 530,-1183.17 530,-1187.51 525.67,-1191.84 521.33,-1191.84"/>
<text text-anchor="middle" x="377.5" y="-1175.04" font-family="Arial" font-size="16.00" fill="#c6c5fe">components/molecules/button&#45;group.tsx</text>
</g>
<!-- components/index.ts&#45;&gt;components/molecules/button&#45;group.tsx -->
<g id="edge37" class="edge">
<title>components/index.ts&#45;&gt;components/molecules/button&#45;group.tsx</title>
<path fill="none" stroke="#757575" d="M89.55,-901.92C95.54,-946.18 121.47,-1091.27 210,-1156.84 211.9,-1158.25 213.85,-1159.59 215.85,-1160.87"/>
<polygon fill="#757575" stroke="#757575" points="214.43,-1164.09 224.84,-1166.07 217.93,-1158.03 214.43,-1164.09"/>
</g>
<!-- components/molecules/calendar.tsx -->
<g id="node32" class="node">
<title>components/molecules/calendar.tsx</title>
<path fill="none" stroke="#c6c5fe" d="M506.33,-945.84C506.33,-945.84 248.67,-945.84 248.67,-945.84 244.33,-945.84 240,-941.51 240,-937.17 240,-937.17 240,-928.51 240,-928.51 240,-924.17 244.33,-919.84 248.67,-919.84 248.67,-919.84 506.33,-919.84 506.33,-919.84 510.67,-919.84 515,-924.17 515,-928.51 515,-928.51 515,-937.17 515,-937.17 515,-941.51 510.67,-945.84 506.33,-945.84"/>
<text text-anchor="middle" x="377.5" y="-929.04" font-family="Arial" font-size="16.00" fill="#c6c5fe">components/molecules/calendar.tsx</text>
</g>
<!-- components/index.ts&#45;&gt;components/molecules/calendar.tsx -->
<g id="edge38" class="edge">
<title>components/index.ts&#45;&gt;components/molecules/calendar.tsx</title>
<path fill="none" stroke="#757575" d="M156.94,-901.86C174.24,-904.96 192.78,-908.15 210,-910.84 226.74,-913.45 244.45,-916.01 261.84,-918.41"/>
<polygon fill="#757575" stroke="#757575" points="261.65,-921.92 272.03,-919.8 262.6,-914.98 261.65,-921.92"/>
</g>
<!-- components/molecules/command&#45;input.tsx -->
<g id="node33" class="node">
<title>components/molecules/command&#45;input.tsx</title>
<path fill="none" stroke="#cfffac" d="M531.33,-655.84C531.33,-655.84 223.67,-655.84 223.67,-655.84 219.33,-655.84 215,-651.51 215,-647.17 215,-647.17 215,-638.51 215,-638.51 215,-634.17 219.33,-629.84 223.67,-629.84 223.67,-629.84 531.33,-629.84 531.33,-629.84 535.67,-629.84 540,-634.17 540,-638.51 540,-638.51 540,-647.17 540,-647.17 540,-651.51 535.67,-655.84 531.33,-655.84"/>
<text text-anchor="middle" x="377.5" y="-639.04" font-family="Arial" font-size="16.00" fill="#cfffac">components/molecules/command&#45;input.tsx</text>
</g>
<!-- components/index.ts&#45;&gt;components/molecules/command&#45;input.tsx -->
<g id="edge39" class="edge">
<title>components/index.ts&#45;&gt;components/molecules/command&#45;input.tsx</title>
<path fill="none" stroke="#757575" d="M91.01,-875.81C100.69,-837.15 134.82,-722.57 210,-669.84 215.19,-666.2 220.7,-662.98 226.43,-660.14"/>
<polygon fill="#757575" stroke="#757575" points="227.94,-663.3 235.6,-655.98 225.04,-656.92 227.94,-663.3"/>
</g>
<!-- components/molecules/dialog&#45;content.tsx -->
<g id="node34" class="node">
<title>components/molecules/dialog&#45;content.tsx</title>
<path fill="none" stroke="#c6c5fe" d="M913.33,-494.84C913.33,-494.84 615.67,-494.84 615.67,-494.84 611.33,-494.84 607,-490.51 607,-486.17 607,-486.17 607,-477.51 607,-477.51 607,-473.17 611.33,-468.84 615.67,-468.84 615.67,-468.84 913.33,-468.84 913.33,-468.84 917.67,-468.84 922,-473.17 922,-477.51 922,-477.51 922,-486.17 922,-486.17 922,-490.51 917.67,-494.84 913.33,-494.84"/>
<text text-anchor="middle" x="764.5" y="-478.04" font-family="Arial" font-size="16.00" fill="#c6c5fe">components/molecules/dialog&#45;content.tsx</text>
</g>
<!-- components/index.ts&#45;&gt;components/molecules/dialog&#45;content.tsx -->
<g id="edge40" class="edge">
<title>components/index.ts&#45;&gt;components/molecules/dialog&#45;content.tsx</title>
<path fill="none" stroke="#757575" d="M90.04,-875.47C99.99,-812.15 145.58,-543.51 210,-494.84 274.08,-446.43 490.37,-455.68 632.83,-467.94"/>
<polygon fill="#757575" stroke="#757575" points="632.69,-471.45 642.96,-468.83 633.3,-464.47 632.69,-471.45"/>
</g>
<!-- components/molecules/drawer&#45;content.tsx -->
<g id="node35" class="node">
<title>components/molecules/drawer&#45;content.tsx</title>
<path fill="none" stroke="#c6c5fe" d="M528.83,-1147.84C528.83,-1147.84 226.17,-1147.84 226.17,-1147.84 221.83,-1147.84 217.5,-1143.51 217.5,-1139.17 217.5,-1139.17 217.5,-1130.51 217.5,-1130.51 217.5,-1126.17 221.83,-1121.84 226.17,-1121.84 226.17,-1121.84 528.83,-1121.84 528.83,-1121.84 533.17,-1121.84 537.5,-1126.17 537.5,-1130.51 537.5,-1130.51 537.5,-1139.17 537.5,-1139.17 537.5,-1143.51 533.17,-1147.84 528.83,-1147.84"/>
<text text-anchor="middle" x="377.5" y="-1131.04" font-family="Arial" font-size="16.00" fill="#c6c5fe">components/molecules/drawer&#45;content.tsx</text>
</g>
<!-- components/index.ts&#45;&gt;components/molecules/drawer&#45;content.tsx -->
<g id="edge41" class="edge">
<title>components/index.ts&#45;&gt;components/molecules/drawer&#45;content.tsx</title>
<path fill="none" stroke="#757575" d="M91.01,-901.87C100.69,-940.53 134.82,-1055.11 210,-1107.84 215.19,-1111.48 220.7,-1114.7 226.43,-1117.54"/>
<polygon fill="#757575" stroke="#757575" points="225.04,-1120.76 235.6,-1121.7 227.94,-1114.38 225.04,-1120.76"/>
</g>
<!-- components/molecules/locale&#45;selector.tsx -->
<g id="node36" class="node">
<title>components/molecules/locale&#45;selector.tsx</title>
<path fill="none" stroke="#c6c5fe" d="M914.33,-412.84C914.33,-412.84 614.67,-412.84 614.67,-412.84 610.33,-412.84 606,-408.51 606,-404.17 606,-404.17 606,-395.51 606,-395.51 606,-391.17 610.33,-386.84 614.67,-386.84 614.67,-386.84 914.33,-386.84 914.33,-386.84 918.67,-386.84 923,-391.17 923,-395.51 923,-395.51 923,-404.17 923,-404.17 923,-408.51 918.67,-412.84 914.33,-412.84"/>
<text text-anchor="middle" x="764.5" y="-396.04" font-family="Arial" font-size="16.00" fill="#c6c5fe">components/molecules/locale&#45;selector.tsx</text>
</g>
<!-- components/index.ts&#45;&gt;components/molecules/locale&#45;selector.tsx -->
<g id="edge42" class="edge">
<title>components/index.ts&#45;&gt;components/molecules/locale&#45;selector.tsx</title>
<path fill="none" stroke="#757575" d="M89.4,-875.51C97.03,-805.75 135.94,-483.58 210,-423.84 267.99,-377.07 458.46,-378.11 599.86,-386.23"/>
<polygon fill="#757575" stroke="#757575" points="599.76,-389.73 609.95,-386.83 600.17,-382.74 599.76,-389.73"/>
</g>
<!-- components/molecules/navigation&#45;menu.tsx -->
<g id="node37" class="node">
<title>components/molecules/navigation&#45;menu.tsx</title>
<path fill="none" stroke="#c6c5fe" d="M1313.33,-269.84C1313.33,-269.84 997.67,-269.84 997.67,-269.84 993.33,-269.84 989,-265.51 989,-261.17 989,-261.17 989,-252.51 989,-252.51 989,-248.17 993.33,-243.84 997.67,-243.84 997.67,-243.84 1313.33,-243.84 1313.33,-243.84 1317.67,-243.84 1322,-248.17 1322,-252.51 1322,-252.51 1322,-261.17 1322,-261.17 1322,-265.51 1317.67,-269.84 1313.33,-269.84"/>
<text text-anchor="middle" x="1155.5" y="-253.04" font-family="Arial" font-size="16.00" fill="#c6c5fe">components/molecules/navigation&#45;menu.tsx</text>
</g>
<!-- components/index.ts&#45;&gt;components/molecules/navigation&#45;menu.tsx -->
<g id="edge43" class="edge">
<title>components/index.ts&#45;&gt;components/molecules/navigation&#45;menu.tsx</title>
<path fill="none" stroke="#757575" d="M88.83,-875.75C93.97,-799.39 124.06,-412.49 210,-339.84 241.35,-313.34 907.31,-307.28 948,-301.84 998.4,-295.1 1054.74,-282.47 1095.83,-272.3"/>
<polygon fill="#757575" stroke="#757575" points="1096.81,-275.66 1105.67,-269.84 1095.12,-268.87 1096.81,-275.66"/>
</g>
<!-- components/molecules/search&#45;field.tsx -->
<g id="node38" class="node">
<title>components/molecules/search&#45;field.tsx</title>
<path fill="none" stroke="#c6c5fe" d="M517.33,-1317.84C517.33,-1317.84 237.67,-1317.84 237.67,-1317.84 233.33,-1317.84 229,-1313.51 229,-1309.17 229,-1309.17 229,-1300.51 229,-1300.51 229,-1296.17 233.33,-1291.84 237.67,-1291.84 237.67,-1291.84 517.33,-1291.84 517.33,-1291.84 521.67,-1291.84 526,-1296.17 526,-1300.51 526,-1300.51 526,-1309.17 526,-1309.17 526,-1313.51 521.67,-1317.84 517.33,-1317.84"/>
<text text-anchor="middle" x="377.5" y="-1301.04" font-family="Arial" font-size="16.00" fill="#c6c5fe">components/molecules/search&#45;field.tsx</text>
</g>
<!-- components/index.ts&#45;&gt;components/molecules/search&#45;field.tsx -->
<g id="edge44" class="edge">
<title>components/index.ts&#45;&gt;components/molecules/search&#45;field.tsx</title>
<path fill="none" stroke="#757575" d="M87.6,-902.16C86.71,-957.98 91.23,-1174.96 210,-1277.84 213.75,-1281.08 217.72,-1284.02 221.89,-1286.67"/>
<polygon fill="#757575" stroke="#757575" points="220.26,-1289.77 230.68,-1291.72 223.75,-1283.7 220.26,-1289.77"/>
</g>
<!-- components/molecules/select.tsx -->
<g id="node39" class="node">
<title>components/molecules/select.tsx</title>
<path fill="none" stroke="#c6c5fe" d="M496.83,-611.84C496.83,-611.84 258.17,-611.84 258.17,-611.84 253.83,-611.84 249.5,-607.51 249.5,-603.17 249.5,-603.17 249.5,-594.51 249.5,-594.51 249.5,-590.17 253.83,-585.84 258.17,-585.84 258.17,-585.84 496.83,-585.84 496.83,-585.84 501.17,-585.84 505.5,-590.17 505.5,-594.51 505.5,-594.51 505.5,-603.17 505.5,-603.17 505.5,-607.51 501.17,-611.84 496.83,-611.84"/>
<text text-anchor="middle" x="377.5" y="-595.04" font-family="Arial" font-size="16.00" fill="#c6c5fe">components/molecules/select.tsx</text>
</g>
<!-- components/index.ts&#45;&gt;components/molecules/select.tsx -->
<g id="edge45" class="edge">
<title>components/index.ts&#45;&gt;components/molecules/select.tsx</title>
<path fill="none" stroke="#757575" d="M89.55,-875.76C95.54,-831.5 121.47,-686.41 210,-620.84 219.06,-614.13 229.18,-608.94 239.84,-604.98"/>
<polygon fill="#757575" stroke="#757575" points="240.96,-608.29 249.33,-601.79 238.74,-601.65 240.96,-608.29"/>
</g>
<!-- components/molecules/theme&#45;toggle/index.ts -->
<g id="node40" class="node">
<title>components/molecules/theme&#45;toggle/index.ts</title>
<path fill="none" stroke="#c6c5fe" d="M1318.33,-55.84C1318.33,-55.84 992.67,-55.84 992.67,-55.84 988.33,-55.84 984,-51.51 984,-47.17 984,-47.17 984,-38.51 984,-38.51 984,-34.17 988.33,-29.84 992.67,-29.84 992.67,-29.84 1318.33,-29.84 1318.33,-29.84 1322.67,-29.84 1327,-34.17 1327,-38.51 1327,-38.51 1327,-47.17 1327,-47.17 1327,-51.51 1322.67,-55.84 1318.33,-55.84"/>
<text text-anchor="middle" x="1155.5" y="-39.04" font-family="Arial" font-size="16.00" fill="#c6c5fe">components/molecules/theme&#45;toggle/index.ts</text>
</g>
<!-- components/index.ts&#45;&gt;components/molecules/theme&#45;toggle/index.ts -->
<g id="edge46" class="edge">
<title>components/index.ts&#45;&gt;components/molecules/theme&#45;toggle/index.ts</title>
<path fill="none" stroke="#757575" d="M87.78,-875.78C86.47,-779.65 83.52,-182.07 210,-69.84 329.71,36.38 815.66,-3.64 1039.99,-28.68"/>
<polygon fill="#757575" stroke="#757575" points="1039.82,-32.18 1050.15,-29.82 1040.6,-25.22 1039.82,-32.18"/>
</g>
<!-- components/molecules/toaster.tsx -->
<g id="node41" class="node">
<title>components/molecules/toaster.tsx</title>
<path fill="none" stroke="#cfffac" d="M886.83,-178.84C886.83,-178.84 642.17,-178.84 642.17,-178.84 637.83,-178.84 633.5,-174.51 633.5,-170.17 633.5,-170.17 633.5,-161.51 633.5,-161.51 633.5,-157.17 637.83,-152.84 642.17,-152.84 642.17,-152.84 886.83,-152.84 886.83,-152.84 891.17,-152.84 895.5,-157.17 895.5,-161.51 895.5,-161.51 895.5,-170.17 895.5,-170.17 895.5,-174.51 891.17,-178.84 886.83,-178.84"/>
<text text-anchor="middle" x="764.5" y="-162.04" font-family="Arial" font-size="16.00" fill="#cfffac">components/molecules/toaster.tsx</text>
</g>
<!-- components/index.ts&#45;&gt;components/molecules/toaster.tsx -->
<g id="edge47" class="edge">
<title>components/index.ts&#45;&gt;components/molecules/toaster.tsx</title>
<path fill="none" stroke="#757575" d="M88.15,-875.75C89.43,-787.73 101.49,-282.84 210,-187.84 240.4,-161.22 469.43,-160.07 623.19,-162.42"/>
<polygon fill="#757575" stroke="#757575" points="623.15,-165.92 633.21,-162.58 623.27,-158.92 623.15,-165.92"/>
</g>
<!-- components/organisms/command&#45;dialog.tsx -->
<g id="node42" class="node">
<title>components/organisms/command&#45;dialog.tsx</title>
<path fill="none" stroke="#c6c5fe" d="M536.33,-529.84C536.33,-529.84 218.67,-529.84 218.67,-529.84 214.33,-529.84 210,-525.51 210,-521.17 210,-521.17 210,-512.51 210,-512.51 210,-508.17 214.33,-503.84 218.67,-503.84 218.67,-503.84 536.33,-503.84 536.33,-503.84 540.67,-503.84 545,-508.17 545,-512.51 545,-512.51 545,-521.17 545,-521.17 545,-525.51 540.67,-529.84 536.33,-529.84"/>
<text text-anchor="middle" x="377.5" y="-513.04" font-family="Arial" font-size="16.00" fill="#c6c5fe">components/organisms/command&#45;dialog.tsx</text>
</g>
<!-- components/index.ts&#45;&gt;components/organisms/command&#45;dialog.tsx -->
<g id="edge48" class="edge">
<title>components/index.ts&#45;&gt;components/organisms/command&#45;dialog.tsx</title>
<path fill="none" stroke="#757575" d="M88.2,-875.61C89.73,-823.83 102.73,-633.43 210,-543.84 214.04,-540.47 218.33,-537.43 222.83,-534.71"/>
<polygon fill="#757575" stroke="#757575" points="224.61,-537.72 231.69,-529.84 221.24,-531.58 224.61,-537.72"/>
</g>
<!-- components/organisms/feature&#45;gallery.tsx -->
<g id="node43" class="node">
<title>components/organisms/feature&#45;gallery.tsx</title>
<path fill="none" stroke="#c6c5fe" d="M527.33,-1065.84C527.33,-1065.84 227.67,-1065.84 227.67,-1065.84 223.33,-1065.84 219,-1061.51 219,-1057.17 219,-1057.17 219,-1048.51 219,-1048.51 219,-1044.17 223.33,-1039.84 227.67,-1039.84 227.67,-1039.84 527.33,-1039.84 527.33,-1039.84 531.67,-1039.84 536,-1044.17 536,-1048.51 536,-1048.51 536,-1057.17 536,-1057.17 536,-1061.51 531.67,-1065.84 527.33,-1065.84"/>
<text text-anchor="middle" x="377.5" y="-1049.04" font-family="Arial" font-size="16.00" fill="#c6c5fe">components/organisms/feature&#45;gallery.tsx</text>
</g>
<!-- components/index.ts&#45;&gt;components/organisms/feature&#45;gallery.tsx -->
<g id="edge49" class="edge">
<title>components/index.ts&#45;&gt;components/organisms/feature&#45;gallery.tsx</title>
<path fill="none" stroke="#757575" d="M95.44,-902.08C111.97,-930.14 154.72,-995.5 210,-1025.84 217.47,-1029.94 225.4,-1033.46 233.58,-1036.47"/>
<polygon fill="#757575" stroke="#757575" points="232.69,-1039.87 243.28,-1039.79 234.95,-1033.24 232.69,-1039.87"/>
</g>
<!-- components/organisms/website&#45;footer.tsx -->
<g id="node44" class="node">
<title>components/organisms/website&#45;footer.tsx</title>
<path fill="none" stroke="#cfffac" d="M913.33,-292.84C913.33,-292.84 615.67,-292.84 615.67,-292.84 611.33,-292.84 607,-288.51 607,-284.17 607,-284.17 607,-275.51 607,-275.51 607,-271.17 611.33,-266.84 615.67,-266.84 615.67,-266.84 913.33,-266.84 913.33,-266.84 917.67,-266.84 922,-271.17 922,-275.51 922,-275.51 922,-284.17 922,-284.17 922,-288.51 917.67,-292.84 913.33,-292.84"/>
<text text-anchor="middle" x="764.5" y="-276.04" font-family="Arial" font-size="16.00" fill="#cfffac">components/organisms/website&#45;footer.tsx</text>
</g>
<!-- components/index.ts&#45;&gt;components/organisms/website&#45;footer.tsx -->
<g id="edge50" class="edge">
<title>components/index.ts&#45;&gt;components/organisms/website&#45;footer.tsx</title>
<path fill="none" stroke="#757575" d="M88.67,-875.82C93.01,-797.24 119.82,-387.14 210,-309.84 238.95,-285.03 444.19,-279.44 596.35,-278.78"/>
<polygon fill="#757575" stroke="#757575" points="596.76,-282.28 606.75,-278.74 596.73,-275.28 596.76,-282.28"/>
</g>
<!-- components/organisms/website&#45;header.tsx -->
<g id="node45" class="node">
<title>components/organisms/website&#45;header.tsx</title>
<path fill="none" stroke="#c6c5fe" d="M917.83,-248.84C917.83,-248.84 611.17,-248.84 611.17,-248.84 606.83,-248.84 602.5,-244.51 602.5,-240.17 602.5,-240.17 602.5,-231.51 602.5,-231.51 602.5,-227.17 606.83,-222.84 611.17,-222.84 611.17,-222.84 917.83,-222.84 917.83,-222.84 922.17,-222.84 926.5,-227.17 926.5,-231.51 926.5,-231.51 926.5,-240.17 926.5,-240.17 926.5,-244.51 922.17,-248.84 917.83,-248.84"/>
<text text-anchor="middle" x="764.5" y="-232.04" font-family="Arial" font-size="16.00" fill="#c6c5fe">components/organisms/website&#45;header.tsx</text>
</g>
<!-- components/index.ts&#45;&gt;components/organisms/website&#45;header.tsx -->
<g id="edge51" class="edge">
<title>components/index.ts&#45;&gt;components/organisms/website&#45;header.tsx</title>
<path fill="none" stroke="#757575" d="M88.23,-875.8C90.03,-790.3 104.8,-310.52 210,-222.84 279.24,-165.13 544.12,-198.96 680.81,-221.17"/>
<polygon fill="#757575" stroke="#757575" points="680.39,-224.65 690.83,-222.82 681.53,-217.74 680.39,-224.65"/>
</g>
<!-- components/templates/error&#45;page.tsx -->
<g id="node46" class="node">
<title>components/templates/error&#45;page.tsx</title>
<path fill="none" stroke="#c6c5fe" d="M898.33,-861.84C898.33,-861.84 630.67,-861.84 630.67,-861.84 626.33,-861.84 622,-857.51 622,-853.17 622,-853.17 622,-844.51 622,-844.51 622,-840.17 626.33,-835.84 630.67,-835.84 630.67,-835.84 898.33,-835.84 898.33,-835.84 902.67,-835.84 907,-840.17 907,-844.51 907,-844.51 907,-853.17 907,-853.17 907,-857.51 902.67,-861.84 898.33,-861.84"/>
<text text-anchor="middle" x="764.5" y="-845.04" font-family="Arial" font-size="16.00" fill="#c6c5fe">components/templates/error&#45;page.tsx</text>
</g>
<!-- components/index.ts&#45;&gt;components/templates/error&#45;page.tsx -->
<g id="edge52" class="edge">
<title>components/index.ts&#45;&gt;components/templates/error&#45;page.tsx</title>
<path fill="none" stroke="#757575" d="M150.13,-875.83C169.25,-872.31 190.42,-868.91 210,-866.84 345.25,-852.52 500.03,-848.53 611.47,-847.83"/>
<polygon fill="#757575" stroke="#757575" points="611.79,-851.33 621.77,-847.77 611.75,-844.33 611.79,-851.33"/>
</g>
<!-- components/templates/webapp.tsx -->
<g id="node47" class="node">
<title>components/templates/webapp.tsx</title>
<path fill="none" stroke="#c6c5fe" d="M501.83,-137.84C501.83,-137.84 253.17,-137.84 253.17,-137.84 248.83,-137.84 244.5,-133.51 244.5,-129.17 244.5,-129.17 244.5,-120.51 244.5,-120.51 244.5,-116.17 248.83,-111.84 253.17,-111.84 253.17,-111.84 501.83,-111.84 501.83,-111.84 506.17,-111.84 510.5,-116.17 510.5,-120.51 510.5,-120.51 510.5,-129.17 510.5,-129.17 510.5,-133.51 506.17,-137.84 501.83,-137.84"/>
<text text-anchor="middle" x="377.5" y="-121.04" font-family="Arial" font-size="16.00" fill="#c6c5fe">components/templates/webapp.tsx</text>
</g>
<!-- components/index.ts&#45;&gt;components/templates/webapp.tsx -->
<g id="edge53" class="edge">
<title>components/index.ts&#45;&gt;components/templates/webapp.tsx</title>
<path fill="none" stroke="#757575" d="M88.17,-875.82C89.6,-786.02 102.53,-258.96 210,-151.84 217.31,-144.55 225.77,-138.76 234.91,-134.19"/>
<polygon fill="#757575" stroke="#757575" points="236.56,-137.29 244.27,-130.02 233.71,-130.89 236.56,-137.29"/>
</g>
<!-- components/templates/website.tsx -->
<g id="node48" class="node">
<title>components/templates/website.tsx</title>
<path fill="none" stroke="#c6c5fe" d="M501.33,-257.84C501.33,-257.84 253.67,-257.84 253.67,-257.84 249.33,-257.84 245,-253.51 245,-249.17 245,-249.17 245,-240.51 245,-240.51 245,-236.17 249.33,-231.84 253.67,-231.84 253.67,-231.84 501.33,-231.84 501.33,-231.84 505.67,-231.84 510,-236.17 510,-240.51 510,-240.51 510,-249.17 510,-249.17 510,-253.51 505.67,-257.84 501.33,-257.84"/>
<text text-anchor="middle" x="377.5" y="-241.04" font-family="Arial" font-size="16.00" fill="#c6c5fe">components/templates/website.tsx</text>
</g>
<!-- components/index.ts&#45;&gt;components/templates/website.tsx -->
<g id="edge54" class="edge">
<title>components/index.ts&#45;&gt;components/templates/website.tsx</title>
<path fill="none" stroke="#757575" d="M88.63,-875.65C92.78,-794.14 119,-359.75 210,-271.84 217.58,-264.52 226.32,-258.72 235.75,-254.16"/>
<polygon fill="#757575" stroke="#757575" points="237.19,-257.35 244.98,-250.16 234.41,-250.93 237.19,-257.35"/>
</g>
<!-- components/molecules/button&#45;group.tsx&#45;&gt;components/atoms/separator.tsx -->
<g id="edge55" class="edge">
<title>components/molecules/button&#45;group.tsx&#45;&gt;components/atoms/separator.tsx</title>
<path fill="none" stroke="#757575" d="M478.65,-1191.85C532.13,-1198.79 598.08,-1207.36 653.05,-1214.5"/>
<polygon fill="#757575" stroke="#757575" points="652.82,-1218 663.18,-1215.81 653.72,-1211.05 652.82,-1218"/>
</g>
<!-- components/molecules/button&#45;group&#45;variants.tsx -->
<g id="node49" class="node">
<title>components/molecules/button&#45;group&#45;variants.tsx</title>
<path fill="none" stroke="#cfffac" d="M939.33,-1191.84C939.33,-1191.84 589.67,-1191.84 589.67,-1191.84 585.33,-1191.84 581,-1187.51 581,-1183.17 581,-1183.17 581,-1174.51 581,-1174.51 581,-1170.17 585.33,-1165.84 589.67,-1165.84 589.67,-1165.84 939.33,-1165.84 939.33,-1165.84 943.67,-1165.84 948,-1170.17 948,-1174.51 948,-1174.51 948,-1183.17 948,-1183.17 948,-1187.51 943.67,-1191.84 939.33,-1191.84"/>
<text text-anchor="middle" x="764.5" y="-1175.04" font-family="Arial" font-size="16.00" fill="#cfffac">components/molecules/button&#45;group&#45;variants.tsx</text>
</g>
<!-- components/molecules/button&#45;group.tsx&#45;&gt;components/molecules/button&#45;group&#45;variants.tsx -->
<g id="edge56" class="edge">
<title>components/molecules/button&#45;group.tsx&#45;&gt;components/molecules/button&#45;group&#45;variants.tsx</title>
<path fill="none" stroke="#757575" d="M530.11,-1178.84C543.36,-1178.84 556.87,-1178.84 570.4,-1178.84"/>
<polygon fill="#757575" stroke="#757575" points="570.73,-1182.34 580.73,-1178.84 570.73,-1175.34 570.73,-1182.34"/>
</g>
<!-- components/molecules/calendar.tsx&#45;&gt;components/atoms/button&#45;variants.tsx -->
<g id="edge57" class="edge">
<title>components/molecules/calendar.tsx&#45;&gt;components/atoms/button&#45;variants.tsx</title>
<path fill="none" stroke="#757575" d="M515.12,-932.49C734.99,-931.93 1165.98,-930.83 1397.01,-930.24"/>
<polygon fill="#757575" stroke="#757575" points="1397.19,-933.74 1407.18,-930.21 1397.17,-926.74 1397.19,-933.74"/>
</g>
<!-- components/molecules/calendar.tsx&#45;&gt;components/atoms/button.tsx -->
<g id="edge58" class="edge">
<title>components/molecules/calendar.tsx&#45;&gt;components/atoms/button.tsx</title>
<path fill="none" stroke="#757575" d="M515.15,-920.68C537.16,-918.92 559.7,-917.24 581,-915.84 736,-905.69 914.8,-897.89 1030.99,-893.34"/>
<polygon fill="#757575" stroke="#757575" points="1031.14,-896.84 1040.99,-892.95 1030.86,-889.85 1031.14,-896.84"/>
</g>
<!-- components/molecules/calendar.tsx&#45;&gt;components/atoms/calendar&#45;day&#45;button.tsx -->
<g id="edge59" class="edge">
<title>components/molecules/calendar.tsx&#45;&gt;components/atoms/calendar&#45;day&#45;button.tsx</title>
<path fill="none" stroke="#757575" d="M510.46,-945.86C546.27,-949.4 585.2,-953.24 621.54,-956.83"/>
<polygon fill="#757575" stroke="#757575" points="621.42,-960.33 631.72,-957.83 622.11,-953.37 621.42,-960.33"/>
</g>
<!-- components/molecules/dialog&#45;content.tsx&#45;&gt;components/atoms/dialog.tsx -->
<g id="edge60" class="edge">
<title>components/molecules/dialog&#45;content.tsx&#45;&gt;components/atoms/dialog.tsx</title>
<path fill="none" stroke="#757575" d="M922.04,-481.84C958.55,-481.84 996.91,-481.84 1031.72,-481.84"/>
<polygon fill="#757575" stroke="#757575" points="1031.91,-485.34 1041.91,-481.84 1031.91,-478.34 1031.91,-485.34"/>
</g>
<!-- components/molecules/drawer&#45;content.tsx&#45;&gt;components/atoms/drawer.tsx -->
<g id="edge61" class="edge">
<title>components/molecules/drawer&#45;content.tsx&#45;&gt;components/atoms/drawer.tsx</title>
<path fill="none" stroke="#757575" d="M537.6,-1126.99C571.12,-1125.33 606.05,-1123.61 638.13,-1122.03"/>
<polygon fill="#757575" stroke="#757575" points="638.62,-1125.51 648.44,-1121.52 638.28,-1118.52 638.62,-1125.51"/>
</g>
<!-- components/molecules/locale&#45;selector.tsx&#45;&gt;components/atoms/button.tsx -->
<g id="edge62" class="edge">
<title>components/molecules/locale&#45;selector.tsx&#45;&gt;components/atoms/button.tsx</title>
<path fill="none" stroke="#757575" d="M850.34,-412.88C883.86,-421.57 920.79,-435.98 948,-459.84 1015.36,-518.91 1116.7,-785.53 1146.18,-865.86"/>
<polygon fill="#757575" stroke="#757575" points="1142.99,-867.33 1149.71,-875.52 1149.57,-864.93 1142.99,-867.33"/>
</g>
<!-- components/molecules/locale&#45;selector.tsx&#45;&gt;components/atoms/dropdown&#45;menu.tsx -->
<g id="edge63" class="edge">
<title>components/molecules/locale&#45;selector.tsx&#45;&gt;components/atoms/dropdown&#45;menu.tsx</title>
<path fill="none" stroke="#757575" d="M888.85,-386.84C930.88,-382.41 978.04,-377.44 1020.84,-372.93"/>
<polygon fill="#757575" stroke="#757575" points="1021.47,-376.38 1031.04,-371.85 1020.73,-369.42 1021.47,-376.38"/>
</g>
<!-- components/molecules/navigation&#45;menu.tsx&#45;&gt;components/atoms/navigation&#45;menu.tsx -->
<g id="edge64" class="edge">
<title>components/molecules/navigation&#45;menu.tsx&#45;&gt;components/atoms/navigation&#45;menu.tsx</title>
<path fill="none" stroke="#757575" d="M1276.24,-243.82C1322.4,-238.8 1375.32,-233.05 1422.38,-227.93"/>
<polygon fill="#757575" stroke="#757575" points="1422.77,-231.41 1432.33,-226.85 1422.01,-224.45 1422.77,-231.41"/>
</g>
<!-- components/molecules/navigation&#45;menu&#45;styles.tsx -->
<g id="node50" class="node">
<title>components/molecules/navigation&#45;menu&#45;styles.tsx</title>
<path fill="none" stroke="#cfffac" d="M1734.33,-270.84C1734.33,-270.84 1371.67,-270.84 1371.67,-270.84 1367.33,-270.84 1363,-266.51 1363,-262.17 1363,-262.17 1363,-253.51 1363,-253.51 1363,-249.17 1367.33,-244.84 1371.67,-244.84 1371.67,-244.84 1734.33,-244.84 1734.33,-244.84 1738.67,-244.84 1743,-249.17 1743,-253.51 1743,-253.51 1743,-262.17 1743,-262.17 1743,-266.51 1738.67,-270.84 1734.33,-270.84"/>
<text text-anchor="middle" x="1553" y="-254.04" font-family="Arial" font-size="16.00" fill="#cfffac">components/molecules/navigation&#45;menu&#45;styles.tsx</text>
</g>
<!-- components/molecules/navigation&#45;menu.tsx&#45;&gt;components/molecules/navigation&#45;menu&#45;styles.tsx -->
<g id="edge65" class="edge">
<title>components/molecules/navigation&#45;menu.tsx&#45;&gt;components/molecules/navigation&#45;menu&#45;styles.tsx</title>
<path fill="none" stroke="#757575" d="M1322.22,-257.26C1332.3,-257.28 1342.48,-257.31 1352.68,-257.34"/>
<polygon fill="#757575" stroke="#757575" points="1352.86,-260.84 1362.87,-257.36 1352.88,-253.84 1352.86,-260.84"/>
</g>
<!-- components/molecules/search&#45;field.tsx&#45;&gt;components/atoms/button.tsx -->
<g id="edge66" class="edge">
<title>components/molecules/search&#45;field.tsx&#45;&gt;components/atoms/button.tsx</title>
<path fill="none" stroke="#757575" d="M526.14,-1305.99C671.29,-1304.47 880.58,-1294.38 948,-1250.84 1075.53,-1168.48 1132.73,-977.95 1149.21,-911.89"/>
<polygon fill="#757575" stroke="#757575" points="1152.64,-912.6 1151.59,-902.05 1145.84,-910.95 1152.64,-912.6"/>
</g>
<!-- components/molecules/search&#45;field.tsx&#45;&gt;components/atoms/input&#45;group.tsx -->
<g id="edge67" class="edge">
<title>components/molecules/search&#45;field.tsx&#45;&gt;components/atoms/input&#45;group.tsx</title>
<path fill="none" stroke="#757575" d="M438.06,-1317.92C471.59,-1327.25 513.01,-1342.22 545,-1364.84 565.63,-1379.43 558.86,-1396.67 581,-1408.84 593.5,-1415.71 607.19,-1420.85 621.29,-1424.66"/>
<polygon fill="#757575" stroke="#757575" points="620.55,-1428.08 631.1,-1427.08 622.23,-1421.29 620.55,-1428.08"/>
</g>
<!-- components/molecules/search&#45;field.tsx&#45;&gt;components/atoms/input.tsx -->
<g id="edge68" class="edge">
<title>components/molecules/search&#45;field.tsx&#45;&gt;components/atoms/input.tsx</title>
<path fill="none" stroke="#757575" d="M526.04,-1311.01C641.04,-1316.02 804.71,-1323.59 948,-1331.84 976.4,-1333.48 1006.98,-1335.44 1035.68,-1337.37"/>
<polygon fill="#757575" stroke="#757575" points="1035.53,-1340.87 1045.75,-1338.05 1036.01,-1333.88 1035.53,-1340.87"/>
</g>
<!-- components/molecules/select.tsx&#45;&gt;components/atoms/select.tsx -->
<g id="edge69" class="edge">
<title>components/molecules/select.tsx&#45;&gt;components/atoms/select.tsx</title>
<path fill="none" stroke="#757575" d="M487.54,-611.87C536.42,-617.71 594.21,-624.61 644.23,-630.59"/>
<polygon fill="#757575" stroke="#757575" points="644.11,-634.1 654.46,-631.81 644.94,-627.15 644.11,-634.1"/>
</g>
<!-- components/molecules/theme&#45;toggle/default.tsx -->
<g id="node51" class="node">
<title>components/molecules/theme&#45;toggle/default.tsx</title>
<path fill="none" stroke="#cfffac" d="M1724.83,-77.84C1724.83,-77.84 1381.17,-77.84 1381.17,-77.84 1376.83,-77.84 1372.5,-73.51 1372.5,-69.17 1372.5,-69.17 1372.5,-60.51 1372.5,-60.51 1372.5,-56.17 1376.83,-51.84 1381.17,-51.84 1381.17,-51.84 1724.83,-51.84 1724.83,-51.84 1729.17,-51.84 1733.5,-56.17 1733.5,-60.51 1733.5,-60.51 1733.5,-69.17 1733.5,-69.17 1733.5,-73.51 1729.17,-77.84 1724.83,-77.84"/>
<text text-anchor="middle" x="1553" y="-61.04" font-family="Arial" font-size="16.00" fill="#cfffac">components/molecules/theme&#45;toggle/default.tsx</text>
</g>
<!-- components/molecules/theme&#45;toggle/index.ts&#45;&gt;components/molecules/theme&#45;toggle/default.tsx -->
<g id="edge70" class="edge">
<title>components/molecules/theme&#45;toggle/index.ts&#45;&gt;components/molecules/theme&#45;toggle/default.tsx</title>
<path fill="none" stroke="#757575" d="M1327.1,-52.33C1338.66,-52.97 1350.35,-53.62 1362,-54.27"/>
<polygon fill="#757575" stroke="#757575" points="1362.05,-57.78 1372.22,-54.84 1362.43,-50.79 1362.05,-57.78"/>
</g>
<!-- components/molecules/theme&#45;toggle/fallback.tsx -->
<g id="node52" class="node">
<title>components/molecules/theme&#45;toggle/fallback.tsx</title>
<path fill="none" stroke="#cfffac" d="M1728.33,-33.84C1728.33,-33.84 1377.67,-33.84 1377.67,-33.84 1373.33,-33.84 1369,-29.51 1369,-25.17 1369,-25.17 1369,-16.51 1369,-16.51 1369,-12.17 1373.33,-7.84 1377.67,-7.84 1377.67,-7.84 1728.33,-7.84 1728.33,-7.84 1732.67,-7.84 1737,-12.17 1737,-16.51 1737,-16.51 1737,-25.17 1737,-25.17 1737,-29.51 1732.67,-33.84 1728.33,-33.84"/>
<text text-anchor="middle" x="1553" y="-17.04" font-family="Arial" font-size="16.00" fill="#cfffac">components/molecules/theme&#45;toggle/fallback.tsx</text>
</g>
<!-- components/molecules/theme&#45;toggle/index.ts&#45;&gt;components/molecules/theme&#45;toggle/fallback.tsx -->
<g id="edge71" class="edge">
<title>components/molecules/theme&#45;toggle/index.ts&#45;&gt;components/molecules/theme&#45;toggle/fallback.tsx</title>
<path fill="none" stroke="#757575" d="M1327.1,-33.35C1337.55,-32.77 1348.11,-32.18 1358.66,-31.6"/>
<polygon fill="#757575" stroke="#757575" points="1358.97,-35.08 1368.76,-31.03 1358.58,-28.09 1358.97,-35.08"/>
</g>
<!-- components/organisms/command&#45;dialog.tsx&#45;&gt;components/atoms/command.tsx -->
<g id="edge72" class="edge">
<title>components/organisms/command&#45;dialog.tsx&#45;&gt;components/atoms/command.tsx</title>
<path fill="none" stroke="#757575" d="M485.23,-529.87C535.41,-536 595.35,-543.31 646.74,-549.59"/>
<polygon fill="#757575" stroke="#757575" points="646.54,-553.09 656.89,-550.83 647.39,-546.14 646.54,-553.09"/>
</g>
<!-- components/organisms/command&#45;dialog.tsx&#45;&gt;components/atoms/dialog.tsx -->
<g id="edge73" class="edge">
<title>components/organisms/command&#45;dialog.tsx&#45;&gt;components/atoms/dialog.tsx</title>
<path fill="none" stroke="#757575" d="M545.31,-516.69C658.92,-515.69 812.67,-512.58 948,-503.84 977.29,-501.95 1008.83,-499.04 1038.23,-495.94"/>
<polygon fill="#757575" stroke="#757575" points="1038.96,-499.38 1048.53,-494.84 1038.22,-492.42 1038.96,-499.38"/>
</g>
<!-- components/organisms/command&#45;dialog.tsx&#45;&gt;components/molecules/dialog&#45;content.tsx -->
<g id="edge74" class="edge">
<title>components/organisms/command&#45;dialog.tsx&#45;&gt;components/molecules/dialog&#45;content.tsx</title>
<path fill="none" stroke="#757575" d="M521.59,-503.83C550.48,-501.21 580.96,-498.43 610.19,-495.78"/>
<polygon fill="#757575" stroke="#757575" points="610.83,-499.23 620.47,-494.84 610.19,-492.26 610.83,-499.23"/>
</g>
<!-- components/organisms/feature&#45;gallery.tsx&#45;&gt;components/atoms/button.tsx -->
<g id="edge75" class="edge">
<title>components/organisms/feature&#45;gallery.tsx&#45;&gt;components/atoms/button.tsx</title>
<path fill="none" stroke="#757575" d="M466.16,-1065.88C580.42,-1079.43 784.9,-1091.79 948,-1036.84 1026.17,-1010.5 1100.33,-943.67 1134.62,-909.56"/>
<polygon fill="#757575" stroke="#757575" points="1137.53,-911.59 1142.08,-902.02 1132.56,-906.66 1137.53,-911.59"/>
</g>
<!-- components/organisms/feature&#45;gallery.tsx&#45;&gt;components/atoms/card.tsx -->
<g id="edge76" class="edge">
<title>components/organisms/feature&#45;gallery.tsx&#45;&gt;components/atoms/card.tsx</title>
<path fill="none" stroke="#757575" d="M510.46,-1039.82C554.69,-1035.45 603.67,-1030.62 646.67,-1026.37"/>
<polygon fill="#757575" stroke="#757575" points="647.28,-1029.83 656.88,-1025.36 646.59,-1022.86 647.28,-1029.83"/>
</g>
<!-- components/organisms/website&#45;header.tsx&#45;&gt;components/atoms/button.tsx -->
<g id="edge77" class="edge">
<title>components/organisms/website&#45;header.tsx&#45;&gt;components/atoms/button.tsx</title>
<path fill="none" stroke="#757575" d="M926.7,-242.26C934.42,-246.47 941.6,-251.6 948,-257.84 987.56,-296.41 968.67,-450.76 984,-503.84 1025.7,-648.24 1110.4,-809.03 1142.13,-866.74"/>
<polygon fill="#757575" stroke="#757575" points="1139.18,-868.65 1147.08,-875.7 1145.3,-865.26 1139.18,-868.65"/>
</g>
<!-- components/organisms/website&#45;header.tsx&#45;&gt;components/atoms/dropdown&#45;menu.tsx -->
<g id="edge78" class="edge">
<title>components/organisms/website&#45;header.tsx&#45;&gt;components/atoms/dropdown&#45;menu.tsx</title>
<path fill="none" stroke="#757575" d="M915.51,-248.88C926.62,-251.37 937.56,-254.33 948,-257.84 965.56,-263.74 967.6,-270.23 984,-278.84 1028.19,-302.04 1080.3,-326.02 1115.18,-341.59"/>
<polygon fill="#757575" stroke="#757575" points="1113.98,-344.89 1124.54,-345.76 1116.82,-338.5 1113.98,-344.89"/>
</g>
<!-- components/organisms/website&#45;header.tsx&#45;&gt;components/atoms/navigation&#45;menu.tsx -->
<g id="edge79" class="edge">
<title>components/organisms/website&#45;header.tsx&#45;&gt;components/atoms/navigation&#45;menu.tsx</title>
<path fill="none" stroke="#757575" d="M926.56,-231.34C1062.15,-227.54 1255.11,-222.14 1390.75,-218.35"/>
<polygon fill="#757575" stroke="#757575" points="1390.93,-221.85 1400.83,-218.07 1390.73,-214.85 1390.93,-221.85"/>
</g>
<!-- components/organisms/website&#45;header.tsx&#45;&gt;components/molecules/navigation&#45;menu.tsx -->
<g id="edge80" class="edge">
<title>components/organisms/website&#45;header.tsx&#45;&gt;components/molecules/navigation&#45;menu.tsx</title>
<path fill="none" stroke="#757575" d="M926.53,-244.53C943.74,-245.46 961.31,-246.41 978.68,-247.35"/>
<polygon fill="#757575" stroke="#757575" points="978.71,-250.86 988.88,-247.9 979.08,-243.87 978.71,-250.86"/>
</g>
<!-- components/organisms/website&#45;header.tsx&#45;&gt;components/molecules/theme&#45;toggle/index.ts -->
<g id="edge81" class="edge">
<title>components/organisms/website&#45;header.tsx&#45;&gt;components/molecules/theme&#45;toggle/index.ts</title>
<path fill="none" stroke="#757575" d="M838.62,-222.83C872.83,-215.2 913.53,-203.84 948,-187.84 1020.83,-154.02 1095.24,-94.29 1131.62,-63.1"/>
<polygon fill="#757575" stroke="#757575" points="1134.35,-65.36 1139.62,-56.17 1129.77,-60.07 1134.35,-65.36"/>
</g>
<!-- components/templates/error&#45;page.tsx&#45;&gt;components/atoms/button.tsx -->
<g id="edge82" class="edge">
<title>components/templates/error&#45;page.tsx&#45;&gt;components/atoms/button.tsx</title>
<path fill="none" stroke="#757575" d="M892.07,-861.85C936.51,-866.42 986.36,-871.55 1030.59,-876.1"/>
<polygon fill="#757575" stroke="#757575" points="1030.51,-879.61 1040.81,-877.15 1031.22,-872.65 1030.51,-879.61"/>
</g>
<!-- components/templates/webapp.tsx&#45;&gt;components/molecules/toaster.tsx -->
<g id="edge83" class="edge">
<title>components/templates/webapp.tsx&#45;&gt;components/molecules/toaster.tsx</title>
<path fill="none" stroke="#757575" d="M500.58,-137.84C542.18,-142.27 588.86,-147.24 631.21,-151.75"/>
<polygon fill="#757575" stroke="#757575" points="631,-155.25 641.31,-152.83 631.74,-148.29 631,-155.25"/>
</g>
<!-- components/templates/website.tsx&#45;&gt;components/molecules/locale&#45;selector.tsx -->
<g id="edge84" class="edge">
<title>components/templates/website.tsx&#45;&gt;components/molecules/locale&#45;selector.tsx</title>
<path fill="none" stroke="#757575" d="M410.99,-257.92C480.62,-285.95 644.15,-351.79 721.52,-382.94"/>
<polygon fill="#757575" stroke="#757575" points="720.37,-386.25 730.96,-386.74 722.99,-379.76 720.37,-386.25"/>
</g>
<!-- components/templates/website.tsx&#45;&gt;components/molecules/toaster.tsx -->
<g id="edge85" class="edge">
<title>components/templates/website.tsx&#45;&gt;components/molecules/toaster.tsx</title>
<path fill="none" stroke="#757575" d="M442.07,-231.8C510.2,-217.82 618.21,-195.65 689.96,-180.93"/>
<polygon fill="#757575" stroke="#757575" points="690.74,-184.34 699.83,-178.9 689.33,-177.49 690.74,-184.34"/>
</g>
<!-- components/templates/website.tsx&#45;&gt;components/organisms/website&#45;footer.tsx -->
<g id="edge86" class="edge">
<title>components/templates/website.tsx&#45;&gt;components/organisms/website&#45;footer.tsx</title>
<path fill="none" stroke="#757575" d="M510.19,-256.81C542.35,-259.74 577.05,-262.89 610.13,-265.9"/>
<polygon fill="#757575" stroke="#757575" points="610.06,-269.41 620.34,-266.83 610.7,-262.43 610.06,-269.41"/>
</g>
<!-- components/templates/website.tsx&#45;&gt;components/organisms/website&#45;header.tsx -->
<g id="edge87" class="edge">
<title>components/templates/website.tsx&#45;&gt;components/organisms/website&#45;header.tsx</title>
<path fill="none" stroke="#757575" d="M510.19,-241.76C536.56,-241.15 564.64,-240.49 592.13,-239.85"/>
<polygon fill="#757575" stroke="#757575" points="592.31,-243.34 602.23,-239.61 592.15,-236.35 592.31,-243.34"/>
</g>
<!-- contexts/theme.ts -->
<g id="node53" class="node">
<title>contexts/theme.ts</title>
<path fill="none" stroke="#c6c5fe" d="M440.83,-1859.84C440.83,-1859.84 314.17,-1859.84 314.17,-1859.84 309.83,-1859.84 305.5,-1855.51 305.5,-1851.17 305.5,-1851.17 305.5,-1842.51 305.5,-1842.51 305.5,-1838.17 309.83,-1833.84 314.17,-1833.84 314.17,-1833.84 440.83,-1833.84 440.83,-1833.84 445.17,-1833.84 449.5,-1838.17 449.5,-1842.51 449.5,-1842.51 449.5,-1851.17 449.5,-1851.17 449.5,-1855.51 445.17,-1859.84 440.83,-1859.84"/>
<text text-anchor="middle" x="377.5" y="-1843.04" font-family="Arial" font-size="16.00" fill="#c6c5fe">contexts/theme.ts</text>
</g>
<!-- types.ts -->
<g id="node54" class="node">
<title>types.ts</title>
<path fill="none" stroke="#cfffac" d="M792.33,-1837.84C792.33,-1837.84 736.67,-1837.84 736.67,-1837.84 732.33,-1837.84 728,-1833.51 728,-1829.17 728,-1829.17 728,-1820.51 728,-1820.51 728,-1816.17 732.33,-1811.84 736.67,-1811.84 736.67,-1811.84 792.33,-1811.84 792.33,-1811.84 796.67,-1811.84 801,-1816.17 801,-1820.51 801,-1820.51 801,-1829.17 801,-1829.17 801,-1833.51 796.67,-1837.84 792.33,-1837.84"/>
<text text-anchor="middle" x="764.5" y="-1821.04" font-family="Arial" font-size="16.00" fill="#cfffac">types.ts</text>
</g>
<!-- contexts/theme.ts&#45;&gt;types.ts -->
<g id="edge88" class="edge">
<title>contexts/theme.ts&#45;&gt;types.ts</title>
<path fill="none" stroke="#757575" d="M449.56,-1842.78C527.83,-1838.31 651.37,-1831.25 717.73,-1827.46"/>
<polygon fill="#757575" stroke="#757575" points="718.09,-1830.94 727.87,-1826.88 717.69,-1823.95 718.09,-1830.94"/>
</g>
<!-- hooks/breakpoints.ts -->
<g id="node55" class="node">
<title>hooks/breakpoints.ts</title>
<path fill="none" stroke="#cfffac" d="M451.83,-1991.84C451.83,-1991.84 303.17,-1991.84 303.17,-1991.84 298.83,-1991.84 294.5,-1987.51 294.5,-1983.17 294.5,-1983.17 294.5,-1974.51 294.5,-1974.51 294.5,-1970.17 298.83,-1965.84 303.17,-1965.84 303.17,-1965.84 451.83,-1965.84 451.83,-1965.84 456.17,-1965.84 460.5,-1970.17 460.5,-1974.51 460.5,-1974.51 460.5,-1983.17 460.5,-1983.17 460.5,-1987.51 456.17,-1991.84 451.83,-1991.84"/>
<text text-anchor="middle" x="377.5" y="-1975.04" font-family="Arial" font-size="16.00" fill="#cfffac">hooks/breakpoints.ts</text>
</g>
<!-- hooks/css&#45;runtime.ts -->
<g id="node56" class="node">
<title>hooks/css&#45;runtime.ts</title>
<path fill="none" stroke="#cfffac" d="M451.83,-1947.84C451.83,-1947.84 303.17,-1947.84 303.17,-1947.84 298.83,-1947.84 294.5,-1943.51 294.5,-1939.17 294.5,-1939.17 294.5,-1930.51 294.5,-1930.51 294.5,-1926.17 298.83,-1921.84 303.17,-1921.84 303.17,-1921.84 451.83,-1921.84 451.83,-1921.84 456.17,-1921.84 460.5,-1926.17 460.5,-1930.51 460.5,-1930.51 460.5,-1939.17 460.5,-1939.17 460.5,-1943.51 456.17,-1947.84 451.83,-1947.84"/>
<text text-anchor="middle" x="377.5" y="-1931.04" font-family="Arial" font-size="16.00" fill="#cfffac">hooks/css&#45;runtime.ts</text>
</g>
<!-- hooks/index.ts -->
<g id="node57" class="node">
<title>hooks/index.ts</title>
<path fill="none" stroke="#c6c5fe" d="M138.83,-1947.84C138.83,-1947.84 35.17,-1947.84 35.17,-1947.84 30.83,-1947.84 26.5,-1943.51 26.5,-1939.17 26.5,-1939.17 26.5,-1930.51 26.5,-1930.51 26.5,-1926.17 30.83,-1921.84 35.17,-1921.84 35.17,-1921.84 138.83,-1921.84 138.83,-1921.84 143.17,-1921.84 147.5,-1926.17 147.5,-1930.51 147.5,-1930.51 147.5,-1939.17 147.5,-1939.17 147.5,-1943.51 143.17,-1947.84 138.83,-1947.84"/>
<text text-anchor="middle" x="87" y="-1931.04" font-family="Arial" font-size="16.00" fill="#c6c5fe">hooks/index.ts</text>
</g>
<!-- hooks/index.ts&#45;&gt;hooks/breakpoints.ts -->
<g id="edge89" class="edge">
<title>hooks/index.ts&#45;&gt;hooks/breakpoints.ts</title>
<path fill="none" stroke="#757575" d="M147.79,-1946.2C167.56,-1949.8 189.69,-1953.67 210,-1956.84 233.95,-1960.58 259.9,-1964.21 284.03,-1967.41"/>
<polygon fill="#757575" stroke="#757575" points="283.87,-1970.92 294.24,-1968.75 284.78,-1963.98 283.87,-1970.92"/>
</g>
<!-- hooks/index.ts&#45;&gt;hooks/css&#45;runtime.ts -->
<g id="edge90" class="edge">
<title>hooks/index.ts&#45;&gt;hooks/css&#45;runtime.ts</title>
<path fill="none" stroke="#757575" d="M147.78,-1934.84C187.21,-1934.84 239.65,-1934.84 284.37,-1934.84"/>
<polygon fill="#757575" stroke="#757575" points="284.37,-1938.34 294.37,-1934.84 284.37,-1931.34 284.37,-1938.34"/>
</g>
<!-- hooks/scroll.ts -->
<g id="node58" class="node">
<title>hooks/scroll.ts</title>
<path fill="none" stroke="#cfffac" d="M428.83,-1903.84C428.83,-1903.84 326.17,-1903.84 326.17,-1903.84 321.83,-1903.84 317.5,-1899.51 317.5,-1895.17 317.5,-1895.17 317.5,-1886.51 317.5,-1886.51 317.5,-1882.17 321.83,-1877.84 326.17,-1877.84 326.17,-1877.84 428.83,-1877.84 428.83,-1877.84 433.17,-1877.84 437.5,-1882.17 437.5,-1886.51 437.5,-1886.51 437.5,-1895.17 437.5,-1895.17 437.5,-1899.51 433.17,-1903.84 428.83,-1903.84"/>
<text text-anchor="middle" x="377.5" y="-1887.04" font-family="Arial" font-size="16.00" fill="#cfffac">hooks/scroll.ts</text>
</g>
<!-- hooks/index.ts&#45;&gt;hooks/scroll.ts -->
<g id="edge91" class="edge">
<title>hooks/index.ts&#45;&gt;hooks/scroll.ts</title>
<path fill="none" stroke="#757575" d="M147.79,-1923.48C167.56,-1919.88 189.69,-1916.01 210,-1912.84 241.96,-1907.85 277.5,-1903.05 307.5,-1899.22"/>
<polygon fill="#757575" stroke="#757575" points="307.97,-1902.69 317.45,-1897.96 307.09,-1895.74 307.97,-1902.69"/>
</g>
<!-- hooks/layout&#45;config.ts -->
<g id="node59" class="node">
<title>hooks/layout&#45;config.ts</title>
<path fill="none" stroke="#cfffac" d="M165.33,-2002.84C165.33,-2002.84 8.67,-2002.84 8.67,-2002.84 4.33,-2002.84 0,-1998.51 0,-1994.17 0,-1994.17 0,-1985.51 0,-1985.51 0,-1981.17 4.33,-1976.84 8.67,-1976.84 8.67,-1976.84 165.33,-1976.84 165.33,-1976.84 169.67,-1976.84 174,-1981.17 174,-1985.51 174,-1985.51 174,-1994.17 174,-1994.17 174,-1998.51 169.67,-2002.84 165.33,-2002.84"/>
<text text-anchor="middle" x="87" y="-1986.04" font-family="Arial" font-size="16.00" fill="#cfffac">hooks/layout&#45;config.ts</text>
</g>
<!-- providers/index.ts -->
<g id="node60" class="node">
<title>providers/index.ts</title>
<path fill="none" stroke="#c6c5fe" d="M150.33,-1815.84C150.33,-1815.84 23.67,-1815.84 23.67,-1815.84 19.33,-1815.84 15,-1811.51 15,-1807.17 15,-1807.17 15,-1798.51 15,-1798.51 15,-1794.17 19.33,-1789.84 23.67,-1789.84 23.67,-1789.84 150.33,-1789.84 150.33,-1789.84 154.67,-1789.84 159,-1794.17 159,-1798.51 159,-1798.51 159,-1807.17 159,-1807.17 159,-1811.51 154.67,-1815.84 150.33,-1815.84"/>
<text text-anchor="middle" x="87" y="-1799.04" font-family="Arial" font-size="16.00" fill="#c6c5fe">providers/index.ts</text>
</g>
<!-- providers/theme.tsx -->
<g id="node61" class="node">
<title>providers/theme.tsx</title>
<path fill="none" stroke="#c6c5fe" d="M447.83,-1815.84C447.83,-1815.84 307.17,-1815.84 307.17,-1815.84 302.83,-1815.84 298.5,-1811.51 298.5,-1807.17 298.5,-1807.17 298.5,-1798.51 298.5,-1798.51 298.5,-1794.17 302.83,-1789.84 307.17,-1789.84 307.17,-1789.84 447.83,-1789.84 447.83,-1789.84 452.17,-1789.84 456.5,-1794.17 456.5,-1798.51 456.5,-1798.51 456.5,-1807.17 456.5,-1807.17 456.5,-1811.51 452.17,-1815.84 447.83,-1815.84"/>
<text text-anchor="middle" x="377.5" y="-1799.04" font-family="Arial" font-size="16.00" fill="#c6c5fe">providers/theme.tsx</text>
</g>
<!-- providers/index.ts&#45;&gt;providers/theme.tsx -->
<g id="edge92" class="edge">
<title>providers/index.ts&#45;&gt;providers/theme.tsx</title>
<path fill="none" stroke="#757575" d="M159.31,-1802.84C198.31,-1802.84 246.97,-1802.84 288.33,-1802.84"/>
<polygon fill="#757575" stroke="#757575" points="288.41,-1806.34 298.41,-1802.84 288.41,-1799.34 288.41,-1806.34"/>
</g>
<!-- providers/theme.tsx&#45;&gt;types.ts -->
<g id="edge93" class="edge">
<title>providers/theme.tsx&#45;&gt;types.ts</title>
<path fill="none" stroke="#757575" d="M456.87,-1807.32C535.18,-1811.79 652.93,-1818.52 717.34,-1822.2"/>
<polygon fill="#757575" stroke="#757575" points="717.4,-1825.71 727.59,-1822.79 717.8,-1818.72 717.4,-1825.71"/>
</g>
<!-- utils/classnames.ts -->
<g id="node62" class="node">
<title>utils/classnames.ts</title>
<path fill="none" stroke="#cfffac" d="M445.83,-2079.84C445.83,-2079.84 309.17,-2079.84 309.17,-2079.84 304.83,-2079.84 300.5,-2075.51 300.5,-2071.17 300.5,-2071.17 300.5,-2062.51 300.5,-2062.51 300.5,-2058.17 304.83,-2053.84 309.17,-2053.84 309.17,-2053.84 445.83,-2053.84 445.83,-2053.84 450.17,-2053.84 454.5,-2058.17 454.5,-2062.51 454.5,-2062.51 454.5,-2071.17 454.5,-2071.17 454.5,-2075.51 450.17,-2079.84 445.83,-2079.84"/>
<text text-anchor="middle" x="377.5" y="-2063.04" font-family="Arial" font-size="16.00" fill="#cfffac">utils/classnames.ts</text>
</g>
<!-- utils/index.ts -->
<g id="node63" class="node">
<title>utils/index.ts</title>
<path fill="none" stroke="#c6c5fe" d="M131.83,-2057.84C131.83,-2057.84 42.17,-2057.84 42.17,-2057.84 37.83,-2057.84 33.5,-2053.51 33.5,-2049.17 33.5,-2049.17 33.5,-2040.51 33.5,-2040.51 33.5,-2036.17 37.83,-2031.84 42.17,-2031.84 42.17,-2031.84 131.83,-2031.84 131.83,-2031.84 136.17,-2031.84 140.5,-2036.17 140.5,-2040.51 140.5,-2040.51 140.5,-2049.17 140.5,-2049.17 140.5,-2053.51 136.17,-2057.84 131.83,-2057.84"/>
<text text-anchor="middle" x="87" y="-2041.04" font-family="Arial" font-size="16.00" fill="#c6c5fe">utils/index.ts</text>
</g>
<!-- utils/index.ts&#45;&gt;utils/classnames.ts -->
<g id="edge94" class="edge">
<title>utils/index.ts&#45;&gt;utils/classnames.ts</title>
<path fill="none" stroke="#757575" d="M140.58,-2048.85C182.31,-2052.03 241.51,-2056.55 290.16,-2060.26"/>
<polygon fill="#757575" stroke="#757575" points="290.14,-2063.76 300.38,-2061.04 290.67,-2056.79 290.14,-2063.76"/>
</g>
<!-- utils/navigation.ts -->
<g id="node64" class="node">
<title>utils/navigation.ts</title>
<path fill="none" stroke="#cfffac" d="M439.83,-2035.84C439.83,-2035.84 315.17,-2035.84 315.17,-2035.84 310.83,-2035.84 306.5,-2031.51 306.5,-2027.17 306.5,-2027.17 306.5,-2018.51 306.5,-2018.51 306.5,-2014.17 310.83,-2009.84 315.17,-2009.84 315.17,-2009.84 439.83,-2009.84 439.83,-2009.84 444.17,-2009.84 448.5,-2014.17 448.5,-2018.51 448.5,-2018.51 448.5,-2027.17 448.5,-2027.17 448.5,-2031.51 444.17,-2035.84 439.83,-2035.84"/>
<text text-anchor="middle" x="377.5" y="-2019.04" font-family="Arial" font-size="16.00" fill="#cfffac">utils/navigation.ts</text>
</g>
<!-- utils/index.ts&#45;&gt;utils/navigation.ts -->
<g id="edge95" class="edge">
<title>utils/index.ts&#45;&gt;utils/navigation.ts</title>
<path fill="none" stroke="#757575" d="M140.58,-2040.83C184.07,-2037.51 246.53,-2032.75 296.26,-2028.96"/>
<polygon fill="#757575" stroke="#757575" points="296.65,-2032.44 306.35,-2028.19 296.11,-2025.46 296.65,-2032.44"/>
</g>
<!-- vite&#45;env.d.ts -->
<g id="node65" class="node">
<title>vite&#45;env.d.ts</title>
<path fill="none" stroke="#cfffac" d="M129.83,-2101.84C129.83,-2101.84 44.17,-2101.84 44.17,-2101.84 39.83,-2101.84 35.5,-2097.51 35.5,-2093.17 35.5,-2093.17 35.5,-2084.51 35.5,-2084.51 35.5,-2080.17 39.83,-2075.84 44.17,-2075.84 44.17,-2075.84 129.83,-2075.84 129.83,-2075.84 134.17,-2075.84 138.5,-2080.17 138.5,-2084.51 138.5,-2084.51 138.5,-2093.17 138.5,-2093.17 138.5,-2097.51 134.17,-2101.84 129.83,-2101.84"/>
<text text-anchor="middle" x="87" y="-2085.04" font-family="Arial" font-size="16.00" fill="#cfffac">vite&#45;env.d.ts</text>
</g>
</g>
</svg>
