<?xml version="1.0" encoding="UTF-8" standalone="no"?>
<!DOCTYPE svg PUBLIC "-//W3C//DTD SVG 1.1//EN"
 "http://www.w3.org/Graphics/SVG/1.1/DTD/svg11.dtd">
<!-- Generated by graphviz version 2.43.0 (0)
 -->
<!-- Title: G Pages: 1 -->
<svg width="1883pt" height="1916pt"
 viewBox="0.00 0.00 1883.20 1916.20" xmlns="http://www.w3.org/2000/svg" xmlns:xlink="http://www.w3.org/1999/xlink">
<g id="graph0" class="graph" transform="scale(1 1) rotate(0) translate(21.6 1894.6)">
<title>G</title>
<polygon fill="#111111" stroke="transparent" points="-21.6,21.6 -21.6,-1894.6 1861.6,-1894.6 1861.6,21.6 -21.6,21.6"/>
<!-- components/atoms/alert&#45;variants.tsx -->
<g id="node1" class="node">
<title>components/atoms/alert&#45;variants.tsx</title>
<path fill="none" stroke="#cfffac" d="M991.83,-1435C991.83,-1435 731.17,-1435 731.17,-1435 726.83,-1435 722.5,-1430.67 722.5,-1426.33 722.5,-1426.33 722.5,-1417.67 722.5,-1417.67 722.5,-1413.33 726.83,-1409 731.17,-1409 731.17,-1409 991.83,-1409 991.83,-1409 996.17,-1409 1000.5,-1413.33 1000.5,-1417.67 1000.5,-1417.67 1000.5,-1426.33 1000.5,-1426.33 1000.5,-1430.67 996.17,-1435 991.83,-1435"/>
<text text-anchor="middle" x="861.5" y="-1418.2" font-family="Arial" font-size="16.00" fill="#cfffac">components/atoms/alert&#45;variants.tsx</text>
</g>
<!-- components/atoms/alert.tsx -->
<g id="node2" class="node">
<title>components/atoms/alert.tsx</title>
<path fill="none" stroke="#c6c5fe" d="M580.83,-1417C580.83,-1417 383.17,-1417 383.17,-1417 378.83,-1417 374.5,-1412.67 374.5,-1408.33 374.5,-1408.33 374.5,-1399.67 374.5,-1399.67 374.5,-1395.33 378.83,-1391 383.17,-1391 383.17,-1391 580.83,-1391 580.83,-1391 585.17,-1391 589.5,-1395.33 589.5,-1399.67 589.5,-1399.67 589.5,-1408.33 589.5,-1408.33 589.5,-1412.67 585.17,-1417 580.83,-1417"/>
<text text-anchor="middle" x="482" y="-1400.2" font-family="Arial" font-size="16.00" fill="#c6c5fe">components/atoms/alert.tsx</text>
</g>
<!-- components/atoms/alert.tsx&#45;&gt;components/atoms/alert&#45;variants.tsx -->
<g id="edge1" class="edge">
<title>components/atoms/alert.tsx&#45;&gt;components/atoms/alert&#45;variants.tsx</title>
<path fill="none" stroke="#757575" d="M589.66,-1409.09C627.73,-1410.9 671.33,-1412.98 712.27,-1414.93"/>
<polygon fill="#757575" stroke="#757575" points="712.18,-1418.43 722.33,-1415.41 712.51,-1411.44 712.18,-1418.43"/>
</g>
<!-- components/atoms/badge&#45;variants.tsx -->
<g id="node3" class="node">
<title>components/atoms/badge&#45;variants.tsx</title>
<path fill="none" stroke="#cfffac" d="M998.33,-1391C998.33,-1391 724.67,-1391 724.67,-1391 720.33,-1391 716,-1386.67 716,-1382.33 716,-1382.33 716,-1373.67 716,-1373.67 716,-1369.33 720.33,-1365 724.67,-1365 724.67,-1365 998.33,-1365 998.33,-1365 1002.67,-1365 1007,-1369.33 1007,-1373.67 1007,-1373.67 1007,-1382.33 1007,-1382.33 1007,-1386.67 1002.67,-1391 998.33,-1391"/>
<text text-anchor="middle" x="861.5" y="-1374.2" font-family="Arial" font-size="16.00" fill="#cfffac">components/atoms/badge&#45;variants.tsx</text>
</g>
<!-- components/atoms/badge.tsx -->
<g id="node4" class="node">
<title>components/atoms/badge.tsx</title>
<path fill="none" stroke="#c6c5fe" d="M587.83,-1373C587.83,-1373 376.17,-1373 376.17,-1373 371.83,-1373 367.5,-1368.67 367.5,-1364.33 367.5,-1364.33 367.5,-1355.67 367.5,-1355.67 367.5,-1351.33 371.83,-1347 376.17,-1347 376.17,-1347 587.83,-1347 587.83,-1347 592.17,-1347 596.5,-1351.33 596.5,-1355.67 596.5,-1355.67 596.5,-1364.33 596.5,-1364.33 596.5,-1368.67 592.17,-1373 587.83,-1373"/>
<text text-anchor="middle" x="482" y="-1356.2" font-family="Arial" font-size="16.00" fill="#c6c5fe">components/atoms/badge.tsx</text>
</g>
<!-- components/atoms/badge.tsx&#45;&gt;components/atoms/badge&#45;variants.tsx -->
<g id="edge2" class="edge">
<title>components/atoms/badge.tsx&#45;&gt;components/atoms/badge&#45;variants.tsx</title>
<path fill="none" stroke="#757575" d="M596.52,-1365.41C630.85,-1367.05 669.16,-1368.88 705.71,-1370.62"/>
<polygon fill="#757575" stroke="#757575" points="705.82,-1374.13 715.97,-1371.11 706.15,-1367.14 705.82,-1374.13"/>
</g>
<!-- components/atoms/button&#45;variants.tsx -->
<g id="node5" class="node">
<title>components/atoms/button&#45;variants.tsx</title>
<path fill="none" stroke="#cfffac" d="M1786.83,-1312C1786.83,-1312 1513.17,-1312 1513.17,-1312 1508.83,-1312 1504.5,-1307.67 1504.5,-1303.33 1504.5,-1303.33 1504.5,-1294.67 1504.5,-1294.67 1504.5,-1290.33 1508.83,-1286 1513.17,-1286 1513.17,-1286 1786.83,-1286 1786.83,-1286 1791.17,-1286 1795.5,-1290.33 1795.5,-1294.67 1795.5,-1294.67 1795.5,-1303.33 1795.5,-1303.33 1795.5,-1307.67 1791.17,-1312 1786.83,-1312"/>
<text text-anchor="middle" x="1650" y="-1295.2" font-family="Arial" font-size="16.00" fill="#cfffac">components/atoms/button&#45;variants.tsx</text>
</g>
<!-- components/atoms/button.tsx -->
<g id="node6" class="node">
<title>components/atoms/button.tsx</title>
<path fill="none" stroke="#c6c5fe" d="M1358.33,-1130C1358.33,-1130 1146.67,-1130 1146.67,-1130 1142.33,-1130 1138,-1125.67 1138,-1121.33 1138,-1121.33 1138,-1112.67 1138,-1112.67 1138,-1108.33 1142.33,-1104 1146.67,-1104 1146.67,-1104 1358.33,-1104 1358.33,-1104 1362.67,-1104 1367,-1108.33 1367,-1112.67 1367,-1112.67 1367,-1121.33 1367,-1121.33 1367,-1125.67 1362.67,-1130 1358.33,-1130"/>
<text text-anchor="middle" x="1252.5" y="-1113.2" font-family="Arial" font-size="16.00" fill="#c6c5fe">components/atoms/button.tsx</text>
</g>
<!-- components/atoms/button.tsx&#45;&gt;components/atoms/button&#45;variants.tsx -->
<g id="edge3" class="edge">
<title>components/atoms/button.tsx&#45;&gt;components/atoms/button&#45;variants.tsx</title>
<path fill="none" stroke="#757575" d="M1281.94,-1130.09C1351.84,-1162.25 1532.04,-1245.18 1610.99,-1281.51"/>
<polygon fill="#757575" stroke="#757575" points="1610,-1284.91 1620.55,-1285.91 1612.93,-1278.55 1610,-1284.91"/>
</g>
<!-- components/atoms/calendar&#45;day&#45;button.tsx -->
<g id="node7" class="node">
<title>components/atoms/calendar&#45;day&#45;button.tsx</title>
<path fill="none" stroke="#c6c5fe" d="M1016.83,-1233C1016.83,-1233 706.17,-1233 706.17,-1233 701.83,-1233 697.5,-1228.67 697.5,-1224.33 697.5,-1224.33 697.5,-1215.67 697.5,-1215.67 697.5,-1211.33 701.83,-1207 706.17,-1207 706.17,-1207 1016.83,-1207 1016.83,-1207 1021.17,-1207 1025.5,-1211.33 1025.5,-1215.67 1025.5,-1215.67 1025.5,-1224.33 1025.5,-1224.33 1025.5,-1228.67 1021.17,-1233 1016.83,-1233"/>
<text text-anchor="middle" x="861.5" y="-1216.2" font-family="Arial" font-size="16.00" fill="#c6c5fe">components/atoms/calendar&#45;day&#45;button.tsx</text>
</g>
<!-- components/atoms/calendar&#45;day&#45;button.tsx&#45;&gt;components/atoms/button.tsx -->
<g id="edge4" class="edge">
<title>components/atoms/calendar&#45;day&#45;button.tsx&#45;&gt;components/atoms/button.tsx</title>
<path fill="none" stroke="#757575" d="M975.67,-1206.96C998.78,-1203.27 1022.81,-1198.66 1045,-1193 1104.97,-1177.7 1171.74,-1151.33 1212.69,-1134.02"/>
<polygon fill="#757575" stroke="#757575" points="1214.19,-1137.19 1222.02,-1130.05 1211.45,-1130.75 1214.19,-1137.19"/>
</g>
<!-- components/atoms/card.tsx -->
<g id="node8" class="node">
<title>components/atoms/card.tsx</title>
<path fill="none" stroke="#cfffac" d="M960.33,-1069C960.33,-1069 762.67,-1069 762.67,-1069 758.33,-1069 754,-1064.67 754,-1060.33 754,-1060.33 754,-1051.67 754,-1051.67 754,-1047.33 758.33,-1043 762.67,-1043 762.67,-1043 960.33,-1043 960.33,-1043 964.67,-1043 969,-1047.33 969,-1051.67 969,-1051.67 969,-1060.33 969,-1060.33 969,-1064.67 964.67,-1069 960.33,-1069"/>
<text text-anchor="middle" x="861.5" y="-1052.2" font-family="Arial" font-size="16.00" fill="#cfffac">components/atoms/card.tsx</text>
</g>
<!-- components/atoms/checkbox.tsx -->
<g id="node9" class="node">
<title>components/atoms/checkbox.tsx</title>
<path fill="none" stroke="#cfffac" d="M599.83,-425C599.83,-425 364.17,-425 364.17,-425 359.83,-425 355.5,-420.67 355.5,-416.33 355.5,-416.33 355.5,-407.67 355.5,-407.67 355.5,-403.33 359.83,-399 364.17,-399 364.17,-399 599.83,-399 599.83,-399 604.17,-399 608.5,-403.33 608.5,-407.67 608.5,-407.67 608.5,-416.33 608.5,-416.33 608.5,-420.67 604.17,-425 599.83,-425"/>
<text text-anchor="middle" x="482" y="-408.2" font-family="Arial" font-size="16.00" fill="#cfffac">components/atoms/checkbox.tsx</text>
</g>
<!-- components/atoms/collapsible.tsx -->
<g id="node10" class="node">
<title>components/atoms/collapsible.tsx</title>
<path fill="none" stroke="#cfffac" d="M603.33,-381C603.33,-381 360.67,-381 360.67,-381 356.33,-381 352,-376.67 352,-372.33 352,-372.33 352,-363.67 352,-363.67 352,-359.33 356.33,-355 360.67,-355 360.67,-355 603.33,-355 603.33,-355 607.67,-355 612,-359.33 612,-363.67 612,-363.67 612,-372.33 612,-372.33 612,-376.67 607.67,-381 603.33,-381"/>
<text text-anchor="middle" x="482" y="-364.2" font-family="Arial" font-size="16.00" fill="#cfffac">components/atoms/collapsible.tsx</text>
</g>
<!-- components/atoms/dialog.tsx -->
<g id="node11" class="node">
<title>components/atoms/dialog.tsx</title>
<path fill="none" stroke="#cfffac" d="M966.33,-47C966.33,-47 756.67,-47 756.67,-47 752.33,-47 748,-42.67 748,-38.33 748,-38.33 748,-29.67 748,-29.67 748,-25.33 752.33,-21 756.67,-21 756.67,-21 966.33,-21 966.33,-21 970.67,-21 975,-25.33 975,-29.67 975,-29.67 975,-38.33 975,-38.33 975,-42.67 970.67,-47 966.33,-47"/>
<text text-anchor="middle" x="861.5" y="-30.2" font-family="Arial" font-size="16.00" fill="#cfffac">components/atoms/dialog.tsx</text>
</g>
<!-- components/atoms/drawer.tsx -->
<g id="node12" class="node">
<title>components/atoms/drawer.tsx</title>
<path fill="none" stroke="#cfffac" d="M968.83,-403C968.83,-403 754.17,-403 754.17,-403 749.83,-403 745.5,-398.67 745.5,-394.33 745.5,-394.33 745.5,-385.67 745.5,-385.67 745.5,-381.33 749.83,-377 754.17,-377 754.17,-377 968.83,-377 968.83,-377 973.17,-377 977.5,-381.33 977.5,-385.67 977.5,-385.67 977.5,-394.33 977.5,-394.33 977.5,-398.67 973.17,-403 968.83,-403"/>
<text text-anchor="middle" x="861.5" y="-386.2" font-family="Arial" font-size="16.00" fill="#cfffac">components/atoms/drawer.tsx</text>
</g>
<!-- components/atoms/dropdown&#45;menu.tsx -->
<g id="node13" class="node">
<title>components/atoms/dropdown&#45;menu.tsx</title>
<path fill="none" stroke="#cfffac" d="M1393.83,-791C1393.83,-791 1111.17,-791 1111.17,-791 1106.83,-791 1102.5,-786.67 1102.5,-782.33 1102.5,-782.33 1102.5,-773.67 1102.5,-773.67 1102.5,-769.33 1106.83,-765 1111.17,-765 1111.17,-765 1393.83,-765 1393.83,-765 1398.17,-765 1402.5,-769.33 1402.5,-773.67 1402.5,-773.67 1402.5,-782.33 1402.5,-782.33 1402.5,-786.67 1398.17,-791 1393.83,-791"/>
<text text-anchor="middle" x="1252.5" y="-774.2" font-family="Arial" font-size="16.00" fill="#cfffac">components/atoms/dropdown&#45;menu.tsx</text>
</g>
<!-- components/atoms/empty.tsx -->
<g id="node14" class="node">
<title>components/atoms/empty.tsx</title>
<path fill="none" stroke="#cfffac" d="M586.83,-211C586.83,-211 377.17,-211 377.17,-211 372.83,-211 368.5,-206.67 368.5,-202.33 368.5,-202.33 368.5,-193.67 368.5,-193.67 368.5,-189.33 372.83,-185 377.17,-185 377.17,-185 586.83,-185 586.83,-185 591.17,-185 595.5,-189.33 595.5,-193.67 595.5,-193.67 595.5,-202.33 595.5,-202.33 595.5,-206.67 591.17,-211 586.83,-211"/>
<text text-anchor="middle" x="482" y="-194.2" font-family="Arial" font-size="16.00" fill="#cfffac">components/atoms/empty.tsx</text>
</g>
<!-- components/atoms/field&#45;variants.tsx -->
<g id="node15" class="node">
<title>components/atoms/field&#45;variants.tsx</title>
<path fill="none" stroke="#cfffac" d="M990.83,-252C990.83,-252 732.17,-252 732.17,-252 727.83,-252 723.5,-247.67 723.5,-243.33 723.5,-243.33 723.5,-234.67 723.5,-234.67 723.5,-230.33 727.83,-226 732.17,-226 732.17,-226 990.83,-226 990.83,-226 995.17,-226 999.5,-230.33 999.5,-234.67 999.5,-234.67 999.5,-243.33 999.5,-243.33 999.5,-247.67 995.17,-252 990.83,-252"/>
<text text-anchor="middle" x="861.5" y="-235.2" font-family="Arial" font-size="16.00" fill="#cfffac">components/atoms/field&#45;variants.tsx</text>
</g>
<!-- components/atoms/field.tsx -->
<g id="node16" class="node">
<title>components/atoms/field.tsx</title>
<path fill="none" stroke="#c6c5fe" d="M580.33,-255C580.33,-255 383.67,-255 383.67,-255 379.33,-255 375,-250.67 375,-246.33 375,-246.33 375,-237.67 375,-237.67 375,-233.33 379.33,-229 383.67,-229 383.67,-229 580.33,-229 580.33,-229 584.67,-229 589,-233.33 589,-237.67 589,-237.67 589,-246.33 589,-246.33 589,-250.67 584.67,-255 580.33,-255"/>
<text text-anchor="middle" x="482" y="-238.2" font-family="Arial" font-size="16.00" fill="#c6c5fe">components/atoms/field.tsx</text>
</g>
<!-- components/atoms/field.tsx&#45;&gt;components/atoms/field&#45;variants.tsx -->
<g id="edge5" class="edge">
<title>components/atoms/field.tsx&#45;&gt;components/atoms/field&#45;variants.tsx</title>
<path fill="none" stroke="#757575" d="M589.16,-241.16C627.64,-240.85 671.82,-240.5 713.21,-240.17"/>
<polygon fill="#757575" stroke="#757575" points="713.41,-243.67 723.39,-240.09 713.36,-236.67 713.41,-243.67"/>
</g>
<!-- components/atoms/label.tsx -->
<g id="node17" class="node">
<title>components/atoms/label.tsx</title>
<path fill="none" stroke="#cfffac" d="M961.83,-296C961.83,-296 761.17,-296 761.17,-296 756.83,-296 752.5,-291.67 752.5,-287.33 752.5,-287.33 752.5,-278.67 752.5,-278.67 752.5,-274.33 756.83,-270 761.17,-270 761.17,-270 961.83,-270 961.83,-270 966.17,-270 970.5,-274.33 970.5,-278.67 970.5,-278.67 970.5,-287.33 970.5,-287.33 970.5,-291.67 966.17,-296 961.83,-296"/>
<text text-anchor="middle" x="861.5" y="-279.2" font-family="Arial" font-size="16.00" fill="#cfffac">components/atoms/label.tsx</text>
</g>
<!-- components/atoms/field.tsx&#45;&gt;components/atoms/label.tsx -->
<g id="edge6" class="edge">
<title>components/atoms/field.tsx&#45;&gt;components/atoms/label.tsx</title>
<path fill="none" stroke="#757575" d="M589.16,-253.53C636.8,-258.7 693.18,-264.83 742.17,-270.15"/>
<polygon fill="#757575" stroke="#757575" points="741.87,-273.64 752.19,-271.24 742.62,-266.68 741.87,-273.64"/>
</g>
<!-- components/atoms/separator.tsx -->
<g id="node18" class="node">
<title>components/atoms/separator.tsx</title>
<path fill="none" stroke="#cfffac" d="M978.33,-172C978.33,-172 744.67,-172 744.67,-172 740.33,-172 736,-167.67 736,-163.33 736,-163.33 736,-154.67 736,-154.67 736,-150.33 740.33,-146 744.67,-146 744.67,-146 978.33,-146 978.33,-146 982.67,-146 987,-150.33 987,-154.67 987,-154.67 987,-163.33 987,-163.33 987,-167.67 982.67,-172 978.33,-172"/>
<text text-anchor="middle" x="861.5" y="-155.2" font-family="Arial" font-size="16.00" fill="#cfffac">components/atoms/separator.tsx</text>
</g>
<!-- components/atoms/field.tsx&#45;&gt;components/atoms/separator.tsx -->
<g id="edge7" class="edge">
<title>components/atoms/field.tsx&#45;&gt;components/atoms/separator.tsx</title>
<path fill="none" stroke="#757575" d="M589.39,-229.3C607.04,-226.62 625.08,-223.51 642,-220 700.61,-207.82 766.66,-188.6 810.64,-174.99"/>
<polygon fill="#757575" stroke="#757575" points="811.72,-178.32 820.23,-172.01 809.64,-171.64 811.72,-178.32"/>
</g>
<!-- components/atoms/input&#45;group&#45;variants.tsx -->
<g id="node19" class="node">
<title>components/atoms/input&#45;group&#45;variants.tsx</title>
<path fill="none" stroke="#cfffac" d="M1407.83,-912C1407.83,-912 1097.17,-912 1097.17,-912 1092.83,-912 1088.5,-907.67 1088.5,-903.33 1088.5,-903.33 1088.5,-894.67 1088.5,-894.67 1088.5,-890.33 1092.83,-886 1097.17,-886 1097.17,-886 1407.83,-886 1407.83,-886 1412.17,-886 1416.5,-890.33 1416.5,-894.67 1416.5,-894.67 1416.5,-903.33 1416.5,-903.33 1416.5,-907.67 1412.17,-912 1407.83,-912"/>
<text text-anchor="middle" x="1252.5" y="-895.2" font-family="Arial" font-size="16.00" fill="#cfffac">components/atoms/input&#45;group&#45;variants.tsx</text>
</g>
<!-- components/atoms/input&#45;group.tsx -->
<g id="node20" class="node">
<title>components/atoms/input&#45;group.tsx</title>
<path fill="none" stroke="#c6c5fe" d="M985.83,-911C985.83,-911 737.17,-911 737.17,-911 732.83,-911 728.5,-906.67 728.5,-902.33 728.5,-902.33 728.5,-893.67 728.5,-893.67 728.5,-889.33 732.83,-885 737.17,-885 737.17,-885 985.83,-885 985.83,-885 990.17,-885 994.5,-889.33 994.5,-893.67 994.5,-893.67 994.5,-902.33 994.5,-902.33 994.5,-906.67 990.17,-911 985.83,-911"/>
<text text-anchor="middle" x="861.5" y="-894.2" font-family="Arial" font-size="16.00" fill="#c6c5fe">components/atoms/input&#45;group.tsx</text>
</g>
<!-- components/atoms/input&#45;group.tsx&#45;&gt;components/atoms/button.tsx -->
<g id="edge8" class="edge">
<title>components/atoms/input&#45;group.tsx&#45;&gt;components/atoms/button.tsx</title>
<path fill="none" stroke="#757575" d="M911.43,-911.08C949.17,-922.19 1002,-939.98 1045,-963 1117.95,-1002.05 1193.31,-1065.09 1229.5,-1097.05"/>
<polygon fill="#757575" stroke="#757575" points="1227.22,-1099.71 1237.02,-1103.74 1231.87,-1094.48 1227.22,-1099.71"/>
</g>
<!-- components/atoms/input&#45;group.tsx&#45;&gt;components/atoms/input&#45;group&#45;variants.tsx -->
<g id="edge9" class="edge">
<title>components/atoms/input&#45;group.tsx&#45;&gt;components/atoms/input&#45;group&#45;variants.tsx</title>
<path fill="none" stroke="#757575" d="M994.74,-898.34C1021.52,-898.41 1050.05,-898.48 1078.01,-898.55"/>
<polygon fill="#757575" stroke="#757575" points="1078.26,-902.05 1088.27,-898.58 1078.28,-895.05 1078.26,-902.05"/>
</g>
<!-- components/atoms/input.tsx -->
<g id="node21" class="node">
<title>components/atoms/input.tsx</title>
<path fill="none" stroke="#cfffac" d="M1353.33,-956C1353.33,-956 1151.67,-956 1151.67,-956 1147.33,-956 1143,-951.67 1143,-947.33 1143,-947.33 1143,-938.67 1143,-938.67 1143,-934.33 1147.33,-930 1151.67,-930 1151.67,-930 1353.33,-930 1353.33,-930 1357.67,-930 1362,-934.33 1362,-938.67 1362,-938.67 1362,-947.33 1362,-947.33 1362,-951.67 1357.67,-956 1353.33,-956"/>
<text text-anchor="middle" x="1252.5" y="-939.2" font-family="Arial" font-size="16.00" fill="#cfffac">components/atoms/input.tsx</text>
</g>
<!-- components/atoms/input&#45;group.tsx&#45;&gt;components/atoms/input.tsx -->
<g id="edge10" class="edge">
<title>components/atoms/input&#45;group.tsx&#45;&gt;components/atoms/input.tsx</title>
<path fill="none" stroke="#757575" d="M975.01,-911.02C1024.45,-916.73 1082.54,-923.45 1132.68,-929.25"/>
<polygon fill="#757575" stroke="#757575" points="1132.59,-932.77 1142.92,-930.44 1133.39,-925.81 1132.59,-932.77"/>
</g>
<!-- components/atoms/textarea.tsx -->
<g id="node22" class="node">
<title>components/atoms/textarea.tsx</title>
<path fill="none" stroke="#cfffac" d="M1364.83,-868C1364.83,-868 1140.17,-868 1140.17,-868 1135.83,-868 1131.5,-863.67 1131.5,-859.33 1131.5,-859.33 1131.5,-850.67 1131.5,-850.67 1131.5,-846.33 1135.83,-842 1140.17,-842 1140.17,-842 1364.83,-842 1364.83,-842 1369.17,-842 1373.5,-846.33 1373.5,-850.67 1373.5,-850.67 1373.5,-859.33 1373.5,-859.33 1373.5,-863.67 1369.17,-868 1364.83,-868"/>
<text text-anchor="middle" x="1252.5" y="-851.2" font-family="Arial" font-size="16.00" fill="#cfffac">components/atoms/textarea.tsx</text>
</g>
<!-- components/atoms/input&#45;group.tsx&#45;&gt;components/atoms/textarea.tsx -->
<g id="edge11" class="edge">
<title>components/atoms/input&#45;group.tsx&#45;&gt;components/atoms/textarea.tsx</title>
<path fill="none" stroke="#757575" d="M980.27,-884.98C1025.58,-879.97 1077.51,-874.23 1123.72,-869.12"/>
<polygon fill="#757575" stroke="#757575" points="1124.24,-872.59 1133.8,-868.01 1123.47,-865.63 1124.24,-872.59"/>
</g>
<!-- components/atoms/navigation&#45;menu.tsx -->
<g id="node23" class="node">
<title>components/atoms/navigation&#45;menu.tsx</title>
<path fill="none" stroke="#cfffac" d="M1793.33,-704C1793.33,-704 1506.67,-704 1506.67,-704 1502.33,-704 1498,-699.67 1498,-695.33 1498,-695.33 1498,-686.67 1498,-686.67 1498,-682.33 1502.33,-678 1506.67,-678 1506.67,-678 1793.33,-678 1793.33,-678 1797.67,-678 1802,-682.33 1802,-686.67 1802,-686.67 1802,-695.33 1802,-695.33 1802,-699.67 1797.67,-704 1793.33,-704"/>
<text text-anchor="middle" x="1650" y="-687.2" font-family="Arial" font-size="16.00" fill="#cfffac">components/atoms/navigation&#45;menu.tsx</text>
</g>
<!-- components/atoms/popover.tsx -->
<g id="node24" class="node">
<title>components/atoms/popover.tsx</title>
<path fill="none" stroke="#cfffac" d="M594.33,-1543C594.33,-1543 369.67,-1543 369.67,-1543 365.33,-1543 361,-1538.67 361,-1534.33 361,-1534.33 361,-1525.67 361,-1525.67 361,-1521.33 365.33,-1517 369.67,-1517 369.67,-1517 594.33,-1517 594.33,-1517 598.67,-1517 603,-1521.33 603,-1525.67 603,-1525.67 603,-1534.33 603,-1534.33 603,-1538.67 598.67,-1543 594.33,-1543"/>
<text text-anchor="middle" x="482" y="-1526.2" font-family="Arial" font-size="16.00" fill="#cfffac">components/atoms/popover.tsx</text>
</g>
<!-- components/atoms/select.tsx -->
<g id="node25" class="node">
<title>components/atoms/select.tsx</title>
<path fill="none" stroke="#cfffac" d="M966.33,-1501C966.33,-1501 756.67,-1501 756.67,-1501 752.33,-1501 748,-1496.67 748,-1492.33 748,-1492.33 748,-1483.67 748,-1483.67 748,-1479.33 752.33,-1475 756.67,-1475 756.67,-1475 966.33,-1475 966.33,-1475 970.67,-1475 975,-1479.33 975,-1483.67 975,-1483.67 975,-1492.33 975,-1492.33 975,-1496.67 970.67,-1501 966.33,-1501"/>
<text text-anchor="middle" x="861.5" y="-1484.2" font-family="Arial" font-size="16.00" fill="#cfffac">components/atoms/select.tsx</text>
</g>
<!-- components/index.ts -->
<g id="node26" class="node">
<title>components/index.ts</title>
<path fill="none" stroke="#c6c5fe" d="M217.33,-782C217.33,-782 68.67,-782 68.67,-782 64.33,-782 60,-777.67 60,-773.33 60,-773.33 60,-764.67 60,-764.67 60,-760.33 64.33,-756 68.67,-756 68.67,-756 217.33,-756 217.33,-756 221.67,-756 226,-760.33 226,-764.67 226,-764.67 226,-773.33 226,-773.33 226,-777.67 221.67,-782 217.33,-782"/>
<text text-anchor="middle" x="143" y="-765.2" font-family="Arial" font-size="16.00" fill="#c6c5fe">components/index.ts</text>
</g>
<!-- components/index.ts&#45;&gt;components/atoms/alert.tsx -->
<g id="edge12" class="edge">
<title>components/index.ts&#45;&gt;components/atoms/alert.tsx</title>
<path fill="none" stroke="#757575" d="M145.87,-782.2C157.72,-863.72 224.86,-1298.02 322,-1382 334.13,-1392.49 348.85,-1399.37 364.37,-1403.74"/>
<polygon fill="#757575" stroke="#757575" points="363.58,-1407.15 374.12,-1406.15 365.25,-1400.36 363.58,-1407.15"/>
</g>
<!-- components/index.ts&#45;&gt;components/atoms/badge.tsx -->
<g id="edge13" class="edge">
<title>components/index.ts&#45;&gt;components/atoms/badge.tsx</title>
<path fill="none" stroke="#757575" d="M143.59,-782.25C142.19,-851.99 145.48,-1179.23 322,-1333 332.36,-1342.03 344.6,-1348.59 357.6,-1353.29"/>
<polygon fill="#757575" stroke="#757575" points="356.61,-1356.65 367.2,-1356.4 358.76,-1349.99 356.61,-1356.65"/>
</g>
<!-- components/index.ts&#45;&gt;components/atoms/button&#45;variants.tsx -->
<g id="edge14" class="edge">
<title>components/index.ts&#45;&gt;components/atoms/button&#45;variants.tsx</title>
<path fill="none" stroke="#757575" d="M143.72,-782.35C143.1,-849.76 150.11,-1154.54 322,-1282 414.04,-1350.25 1164.4,-1322.69 1494.32,-1307.02"/>
<polygon fill="#757575" stroke="#757575" points="1494.62,-1310.51 1504.44,-1306.53 1494.29,-1303.51 1494.62,-1310.51"/>
</g>
<!-- components/index.ts&#45;&gt;components/atoms/button.tsx -->
<g id="edge15" class="edge">
<title>components/index.ts&#45;&gt;components/atoms/button.tsx</title>
<path fill="none" stroke="#757575" d="M145.41,-782.2C152.19,-838.41 186.95,-1058.99 322,-1148 389.09,-1192.21 965.08,-1168.23 1045,-1160 1095.65,-1154.78 1152.19,-1142.55 1193.29,-1132.46"/>
<polygon fill="#757575" stroke="#757575" points="1194.27,-1135.82 1203.13,-1130.01 1192.58,-1129.03 1194.27,-1135.82"/>
</g>
<!-- components/index.ts&#45;&gt;components/atoms/calendar&#45;day&#45;button.tsx -->
<g id="edge16" class="edge">
<title>components/index.ts&#45;&gt;components/atoms/calendar&#45;day&#45;button.tsx</title>
<path fill="none" stroke="#757575" d="M144.76,-782C149,-841.59 175.27,-1090.07 322,-1193 379.15,-1233.09 552.48,-1235.63 687.22,-1230.77"/>
<polygon fill="#757575" stroke="#757575" points="687.4,-1234.26 697.27,-1230.39 687.14,-1227.27 687.4,-1234.26"/>
</g>
<!-- components/index.ts&#45;&gt;components/atoms/card.tsx -->
<g id="edge17" class="edge">
<title>components/index.ts&#45;&gt;components/atoms/card.tsx</title>
<path fill="none" stroke="#757575" d="M148.23,-782.14C163.32,-826.54 219.13,-971.42 322,-1029 391.63,-1067.97 607.34,-1067.01 743.68,-1062.02"/>
<polygon fill="#757575" stroke="#757575" points="743.91,-1065.52 753.77,-1061.64 743.64,-1058.52 743.91,-1065.52"/>
</g>
<!-- components/index.ts&#45;&gt;components/atoms/checkbox.tsx -->
<g id="edge18" class="edge">
<title>components/index.ts&#45;&gt;components/atoms/checkbox.tsx</title>
<path fill="none" stroke="#757575" d="M146.74,-755.87C158.03,-705.35 205.89,-522.27 322,-439 329.44,-433.67 337.56,-429.26 346.09,-425.62"/>
<polygon fill="#757575" stroke="#757575" points="347.42,-428.85 355.48,-421.97 344.89,-422.33 347.42,-428.85"/>
</g>
<!-- components/index.ts&#45;&gt;components/atoms/collapsible.tsx -->
<g id="edge19" class="edge">
<title>components/index.ts&#45;&gt;components/atoms/collapsible.tsx</title>
<path fill="none" stroke="#757575" d="M145.71,-755.78C153.62,-700.43 192.04,-485.68 322,-390 328.31,-385.35 335.16,-381.46 342.34,-378.22"/>
<polygon fill="#757575" stroke="#757575" points="343.66,-381.46 351.6,-374.44 341.02,-374.97 343.66,-381.46"/>
</g>
<!-- components/index.ts&#45;&gt;components/atoms/dialog.tsx -->
<g id="edge20" class="edge">
<title>components/index.ts&#45;&gt;components/atoms/dialog.tsx</title>
<path fill="none" stroke="#757575" d="M145.46,-755.87C155.34,-669.73 215.11,-186.24 322,-94 325.92,-90.61 579.71,-63.45 737.44,-46.85"/>
<polygon fill="#757575" stroke="#757575" points="738.1,-50.3 747.68,-45.78 737.37,-43.34 738.1,-50.3"/>
</g>
<!-- components/index.ts&#45;&gt;components/atoms/drawer.tsx -->
<g id="edge21" class="edge">
<title>components/index.ts&#45;&gt;components/atoms/drawer.tsx</title>
<path fill="none" stroke="#757575" d="M147.42,-755.69C160.5,-707.76 212.24,-543.05 322,-472 382.11,-433.08 571.29,-445.3 642,-434 692.69,-425.9 749.52,-414.38 792.52,-405.16"/>
<polygon fill="#757575" stroke="#757575" points="793.27,-408.58 802.31,-403.05 791.79,-401.73 793.27,-408.58"/>
</g>
<!-- components/index.ts&#45;&gt;components/atoms/dropdown&#45;menu.tsx -->
<g id="edge22" class="edge">
<title>components/index.ts&#45;&gt;components/atoms/dropdown&#45;menu.tsx</title>
<path fill="none" stroke="#757575" d="M226.34,-776.83C256.41,-779.33 290.72,-781.77 322,-783 592.16,-793.61 906.83,-788.19 1092.03,-783.18"/>
<polygon fill="#757575" stroke="#757575" points="1092.22,-786.67 1102.12,-782.9 1092.03,-779.68 1092.22,-786.67"/>
</g>
<!-- components/index.ts&#45;&gt;components/atoms/empty.tsx -->
<g id="edge23" class="edge">
<title>components/index.ts&#45;&gt;components/atoms/empty.tsx</title>
<path fill="none" stroke="#757575" d="M143.64,-756C142.5,-687.57 146.89,-366.71 322,-220 332.66,-211.07 345.2,-204.79 358.49,-200.46"/>
<polygon fill="#757575" stroke="#757575" points="359.64,-203.77 368.28,-197.64 357.7,-197.04 359.64,-203.77"/>
</g>
<!-- components/index.ts&#45;&gt;components/atoms/field.tsx -->
<g id="edge24" class="edge">
<title>components/index.ts&#45;&gt;components/atoms/field.tsx</title>
<path fill="none" stroke="#757575" d="M144.18,-755.96C145.82,-691.34 162.17,-403.21 322,-269 334.43,-258.56 349.38,-251.47 365.08,-246.74"/>
<polygon fill="#757575" stroke="#757575" points="366.18,-250.06 374.93,-244.09 364.37,-243.3 366.18,-250.06"/>
</g>
<!-- components/index.ts&#45;&gt;components/atoms/label.tsx -->
<g id="edge27" class="edge">
<title>components/index.ts&#45;&gt;components/atoms/label.tsx</title>
<path fill="none" stroke="#757575" d="M144.19,-755.96C145.89,-692.7 162.51,-416.09 322,-302 386.86,-255.61 604.15,-262.58 742.09,-272.41"/>
<polygon fill="#757575" stroke="#757575" points="742.06,-275.92 752.29,-273.16 742.57,-268.94 742.06,-275.92"/>
</g>
<!-- components/index.ts&#45;&gt;components/atoms/separator.tsx -->
<g id="edge31" class="edge">
<title>components/index.ts&#45;&gt;components/atoms/separator.tsx</title>
<path fill="none" stroke="#757575" d="M145.87,-755.83C157.56,-675.44 223.36,-251.83 322,-176 382.82,-129.25 586.76,-135.43 725.46,-145.9"/>
<polygon fill="#757575" stroke="#757575" points="725.5,-149.42 735.74,-146.69 726.04,-142.44 725.5,-149.42"/>
</g>
<!-- components/index.ts&#45;&gt;components/atoms/input&#45;group.tsx -->
<g id="edge25" class="edge">
<title>components/index.ts&#45;&gt;components/atoms/input&#45;group.tsx</title>
<path fill="none" stroke="#757575" d="M156.23,-782.16C183.03,-809.93 250.29,-873.82 322,-897 478.41,-947.56 674,-929.14 781.16,-912.64"/>
<polygon fill="#757575" stroke="#757575" points="781.91,-916.07 791.25,-911.06 780.83,-909.15 781.91,-916.07"/>
</g>
<!-- components/index.ts&#45;&gt;components/atoms/input.tsx -->
<g id="edge26" class="edge">
<title>components/index.ts&#45;&gt;components/atoms/input.tsx</title>
<path fill="none" stroke="#757575" d="M149.86,-782.28C168.26,-822.08 229.26,-940.38 322,-984 468.71,-1053 956.85,-988.58 1160.76,-957.55"/>
<polygon fill="#757575" stroke="#757575" points="1161.49,-960.98 1170.84,-956.01 1160.43,-954.06 1161.49,-960.98"/>
</g>
<!-- components/index.ts&#45;&gt;components/atoms/textarea.tsx -->
<g id="edge32" class="edge">
<title>components/index.ts&#45;&gt;components/atoms/textarea.tsx</title>
<path fill="none" stroke="#757575" d="M167.56,-782.03C200.8,-799.63 263.91,-830.13 322,-842 470.64,-872.38 902.32,-865.15 1121.11,-859.16"/>
<polygon fill="#757575" stroke="#757575" points="1121.47,-862.66 1131.36,-858.88 1121.27,-855.66 1121.47,-862.66"/>
</g>
<!-- components/index.ts&#45;&gt;components/atoms/navigation&#45;menu.tsx -->
<g id="edge28" class="edge">
<title>components/index.ts&#45;&gt;components/atoms/navigation&#45;menu.tsx</title>
<path fill="none" stroke="#757575" d="M226.41,-766.13C325.19,-762.59 495.73,-756.15 642,-749 940.49,-734.41 1288.52,-713.5 1487.4,-701.18"/>
<polygon fill="#757575" stroke="#757575" points="1487.87,-704.65 1497.63,-700.54 1487.44,-697.67 1487.87,-704.65"/>
</g>
<!-- components/index.ts&#45;&gt;components/atoms/popover.tsx -->
<g id="edge29" class="edge">
<title>components/index.ts&#45;&gt;components/atoms/popover.tsx</title>
<path fill="none" stroke="#757575" d="M145.23,-782.01C154,-871.75 209.8,-1398.37 322,-1503 330.55,-1510.98 340.55,-1517.07 351.28,-1521.68"/>
<polygon fill="#757575" stroke="#757575" points="350.3,-1525.05 360.89,-1525.36 352.81,-1518.51 350.3,-1525.05"/>
</g>
<!-- components/index.ts&#45;&gt;components/atoms/select.tsx -->
<g id="edge30" class="edge">
<title>components/index.ts&#45;&gt;components/atoms/select.tsx</title>
<path fill="none" stroke="#757575" d="M145.24,-782.16C153.84,-870.65 207.81,-1378.08 322,-1470 353.54,-1495.39 588.76,-1494.67 737.7,-1491.54"/>
<polygon fill="#757575" stroke="#757575" points="737.91,-1495.04 747.83,-1491.32 737.76,-1488.04 737.91,-1495.04"/>
</g>
<!-- components/molecules/button&#45;group.tsx -->
<g id="node27" class="node">
<title>components/molecules/button&#45;group.tsx</title>
<path fill="none" stroke="#c6c5fe" d="M625.83,-129C625.83,-129 338.17,-129 338.17,-129 333.83,-129 329.5,-124.67 329.5,-120.33 329.5,-120.33 329.5,-111.67 329.5,-111.67 329.5,-107.33 333.83,-103 338.17,-103 338.17,-103 625.83,-103 625.83,-103 630.17,-103 634.5,-107.33 634.5,-111.67 634.5,-111.67 634.5,-120.33 634.5,-120.33 634.5,-124.67 630.17,-129 625.83,-129"/>
<text text-anchor="middle" x="482" y="-112.2" font-family="Arial" font-size="16.00" fill="#c6c5fe">components/molecules/button&#45;group.tsx</text>
</g>
<!-- components/index.ts&#45;&gt;components/molecules/button&#45;group.tsx -->
<g id="edge33" class="edge">
<title>components/index.ts&#45;&gt;components/molecules/button&#45;group.tsx</title>
<path fill="none" stroke="#757575" d="M145.83,-755.83C157.51,-673.53 224.42,-230.5 322,-143 325.65,-139.73 329.55,-136.77 333.64,-134.11"/>
<polygon fill="#757575" stroke="#757575" points="335.42,-137.12 342.29,-129.06 331.89,-131.08 335.42,-137.12"/>
</g>
<!-- components/molecules/calendar.tsx -->
<g id="node28" class="node">
<title>components/molecules/calendar.tsx</title>
<path fill="none" stroke="#c6c5fe" d="M610.83,-1273C610.83,-1273 353.17,-1273 353.17,-1273 348.83,-1273 344.5,-1268.67 344.5,-1264.33 344.5,-1264.33 344.5,-1255.67 344.5,-1255.67 344.5,-1251.33 348.83,-1247 353.17,-1247 353.17,-1247 610.83,-1247 610.83,-1247 615.17,-1247 619.5,-1251.33 619.5,-1255.67 619.5,-1255.67 619.5,-1264.33 619.5,-1264.33 619.5,-1268.67 615.17,-1273 610.83,-1273"/>
<text text-anchor="middle" x="482" y="-1256.2" font-family="Arial" font-size="16.00" fill="#c6c5fe">components/molecules/calendar.tsx</text>
</g>
<!-- components/index.ts&#45;&gt;components/molecules/calendar.tsx -->
<g id="edge34" class="edge">
<title>components/index.ts&#45;&gt;components/molecules/calendar.tsx</title>
<path fill="none" stroke="#757575" d="M144.62,-782.3C148.28,-844.51 172.44,-1108.81 322,-1232 326.64,-1235.82 331.62,-1239.2 336.86,-1242.19"/>
<polygon fill="#757575" stroke="#757575" points="335.39,-1245.37 345.88,-1246.84 338.6,-1239.15 335.39,-1245.37"/>
</g>
<!-- components/molecules/dialog&#45;content.tsx -->
<g id="node29" class="node">
<title>components/molecules/dialog&#45;content.tsx</title>
<path fill="none" stroke="#c6c5fe" d="M630.83,-47C630.83,-47 333.17,-47 333.17,-47 328.83,-47 324.5,-42.67 324.5,-38.33 324.5,-38.33 324.5,-29.67 324.5,-29.67 324.5,-25.33 328.83,-21 333.17,-21 333.17,-21 630.83,-21 630.83,-21 635.17,-21 639.5,-25.33 639.5,-29.67 639.5,-29.67 639.5,-38.33 639.5,-38.33 639.5,-42.67 635.17,-47 630.83,-47"/>
<text text-anchor="middle" x="482" y="-30.2" font-family="Arial" font-size="16.00" fill="#c6c5fe">components/molecules/dialog&#45;content.tsx</text>
</g>
<!-- components/index.ts&#45;&gt;components/molecules/dialog&#45;content.tsx -->
<g id="edge35" class="edge">
<title>components/index.ts&#45;&gt;components/molecules/dialog&#45;content.tsx</title>
<path fill="none" stroke="#757575" d="M145.37,-755.88C154.82,-667.68 213.36,-161.47 322,-61 325.45,-57.81 329.12,-54.93 332.99,-52.32"/>
<polygon fill="#757575" stroke="#757575" points="334.98,-55.2 341.72,-47.03 331.35,-49.22 334.98,-55.2"/>
</g>
<!-- components/molecules/drawer&#45;content.tsx -->
<g id="node30" class="node">
<title>components/molecules/drawer&#45;content.tsx</title>
<path fill="none" stroke="#c6c5fe" d="M633.33,-337C633.33,-337 330.67,-337 330.67,-337 326.33,-337 322,-332.67 322,-328.33 322,-328.33 322,-319.67 322,-319.67 322,-315.33 326.33,-311 330.67,-311 330.67,-311 633.33,-311 633.33,-311 637.67,-311 642,-315.33 642,-319.67 642,-319.67 642,-328.33 642,-328.33 642,-332.67 637.67,-337 633.33,-337"/>
<text text-anchor="middle" x="482" y="-320.2" font-family="Arial" font-size="16.00" fill="#c6c5fe">components/molecules/drawer&#45;content.tsx</text>
</g>
<!-- components/index.ts&#45;&gt;components/molecules/drawer&#45;content.tsx -->
<g id="edge36" class="edge">
<title>components/index.ts&#45;&gt;components/molecules/drawer&#45;content.tsx</title>
<path fill="none" stroke="#757575" d="M145.01,-755.92C150.33,-697.04 180.46,-454.72 322,-346 323.62,-344.76 325.27,-343.57 326.96,-342.43"/>
<polygon fill="#757575" stroke="#757575" points="328.92,-345.34 335.66,-337.16 325.29,-339.35 328.92,-345.34"/>
</g>
<!-- components/molecules/locale&#45;selector.tsx -->
<g id="node31" class="node">
<title>components/molecules/locale&#45;selector.tsx</title>
<path fill="none" stroke="#c6c5fe" d="M1011.33,-829C1011.33,-829 711.67,-829 711.67,-829 707.33,-829 703,-824.67 703,-820.33 703,-820.33 703,-811.67 703,-811.67 703,-807.33 707.33,-803 711.67,-803 711.67,-803 1011.33,-803 1011.33,-803 1015.67,-803 1020,-807.33 1020,-811.67 1020,-811.67 1020,-820.33 1020,-820.33 1020,-824.67 1015.67,-829 1011.33,-829"/>
<text text-anchor="middle" x="861.5" y="-812.2" font-family="Arial" font-size="16.00" fill="#c6c5fe">components/molecules/locale&#45;selector.tsx</text>
</g>
<!-- components/index.ts&#45;&gt;components/molecules/locale&#45;selector.tsx -->
<g id="edge37" class="edge">
<title>components/index.ts&#45;&gt;components/molecules/locale&#45;selector.tsx</title>
<path fill="none" stroke="#757575" d="M177.82,-782.02C213.16,-794.87 270.53,-813.64 322,-821 451.13,-839.48 599.45,-836.33 707.7,-829.64"/>
<polygon fill="#757575" stroke="#757575" points="707.96,-833.13 717.72,-829 707.51,-826.14 707.96,-833.13"/>
</g>
<!-- components/molecules/navigation&#45;menu.tsx -->
<g id="node32" class="node">
<title>components/molecules/navigation&#45;menu.tsx</title>
<path fill="none" stroke="#c6c5fe" d="M1410.33,-661C1410.33,-661 1094.67,-661 1094.67,-661 1090.33,-661 1086,-656.67 1086,-652.33 1086,-652.33 1086,-643.67 1086,-643.67 1086,-639.33 1090.33,-635 1094.67,-635 1094.67,-635 1410.33,-635 1410.33,-635 1414.67,-635 1419,-639.33 1419,-643.67 1419,-643.67 1419,-652.33 1419,-652.33 1419,-656.67 1414.67,-661 1410.33,-661"/>
<text text-anchor="middle" x="1252.5" y="-644.2" font-family="Arial" font-size="16.00" fill="#c6c5fe">components/molecules/navigation&#45;menu.tsx</text>
</g>
<!-- components/index.ts&#45;&gt;components/molecules/navigation&#45;menu.tsx -->
<g id="edge38" class="edge">
<title>components/index.ts&#45;&gt;components/molecules/navigation&#45;menu.tsx</title>
<path fill="none" stroke="#757575" d="M155.21,-755.73C181,-726.35 248.04,-656.43 322,-631 464.15,-582.13 891.51,-613.37 1113.79,-634.02"/>
<polygon fill="#757575" stroke="#757575" points="1113.61,-637.52 1123.9,-634.97 1114.27,-630.55 1113.61,-637.52"/>
</g>
<!-- components/molecules/search&#45;field.tsx -->
<g id="node33" class="node">
<title>components/molecules/search&#45;field.tsx</title>
<path fill="none" stroke="#c6c5fe" d="M621.83,-975C621.83,-975 342.17,-975 342.17,-975 337.83,-975 333.5,-970.67 333.5,-966.33 333.5,-966.33 333.5,-957.67 333.5,-957.67 333.5,-953.33 337.83,-949 342.17,-949 342.17,-949 621.83,-949 621.83,-949 626.17,-949 630.5,-953.33 630.5,-957.67 630.5,-957.67 630.5,-966.33 630.5,-966.33 630.5,-970.67 626.17,-975 621.83,-975"/>
<text text-anchor="middle" x="482" y="-958.2" font-family="Arial" font-size="16.00" fill="#c6c5fe">components/molecules/search&#45;field.tsx</text>
</g>
<!-- components/index.ts&#45;&gt;components/molecules/search&#45;field.tsx -->
<g id="edge39" class="edge">
<title>components/index.ts&#45;&gt;components/molecules/search&#45;field.tsx</title>
<path fill="none" stroke="#757575" d="M153.49,-782.03C177.58,-814.06 244.73,-896.78 322,-935 330.75,-939.33 340.07,-942.98 349.64,-946.06"/>
<polygon fill="#757575" stroke="#757575" points="348.69,-949.43 359.28,-948.95 350.7,-942.72 348.69,-949.43"/>
</g>
<!-- components/molecules/select.tsx -->
<g id="node34" class="node">
<title>components/molecules/select.tsx</title>
<path fill="none" stroke="#c6c5fe" d="M601.33,-1461C601.33,-1461 362.67,-1461 362.67,-1461 358.33,-1461 354,-1456.67 354,-1452.33 354,-1452.33 354,-1443.67 354,-1443.67 354,-1439.33 358.33,-1435 362.67,-1435 362.67,-1435 601.33,-1435 601.33,-1435 605.67,-1435 610,-1439.33 610,-1443.67 610,-1443.67 610,-1452.33 610,-1452.33 610,-1456.67 605.67,-1461 601.33,-1461"/>
<text text-anchor="middle" x="482" y="-1444.2" font-family="Arial" font-size="16.00" fill="#c6c5fe">components/molecules/select.tsx</text>
</g>
<!-- components/index.ts&#45;&gt;components/molecules/select.tsx -->
<g id="edge40" class="edge">
<title>components/index.ts&#45;&gt;components/molecules/select.tsx</title>
<path fill="none" stroke="#757575" d="M145.58,-782.02C156.11,-866.41 218.78,-1335.13 322,-1426 328.76,-1431.95 336.35,-1436.75 344.46,-1440.6"/>
<polygon fill="#757575" stroke="#757575" points="343.23,-1443.88 353.8,-1444.54 345.95,-1437.43 343.23,-1443.88"/>
</g>
<!-- components/molecules/theme&#45;toggle/index.ts -->
<g id="node35" class="node">
<title>components/molecules/theme&#45;toggle/index.ts</title>
<path fill="none" stroke="#c6c5fe" d="M1415.33,-595C1415.33,-595 1089.67,-595 1089.67,-595 1085.33,-595 1081,-590.67 1081,-586.33 1081,-586.33 1081,-577.67 1081,-577.67 1081,-573.33 1085.33,-569 1089.67,-569 1089.67,-569 1415.33,-569 1415.33,-569 1419.67,-569 1424,-573.33 1424,-577.67 1424,-577.67 1424,-586.33 1424,-586.33 1424,-590.67 1419.67,-595 1415.33,-595"/>
<text text-anchor="middle" x="1252.5" y="-578.2" font-family="Arial" font-size="16.00" fill="#c6c5fe">components/molecules/theme&#45;toggle/index.ts</text>
</g>
<!-- components/index.ts&#45;&gt;components/molecules/theme&#45;toggle/index.ts -->
<g id="edge41" class="edge">
<title>components/index.ts&#45;&gt;components/molecules/theme&#45;toggle/index.ts</title>
<path fill="none" stroke="#757575" d="M152.78,-755.58C175.74,-721.88 241.38,-634 322,-601 452.72,-547.5 839.17,-558.27 1070.57,-570.44"/>
<polygon fill="#757575" stroke="#757575" points="1070.61,-573.95 1080.79,-570.98 1070.99,-566.96 1070.61,-573.95"/>
</g>
<!-- components/molecules/toaster.tsx -->
<g id="node36" class="node">
<title>components/molecules/toaster.tsx</title>
<path fill="none" stroke="#cfffac" d="M983.83,-545C983.83,-545 739.17,-545 739.17,-545 734.83,-545 730.5,-540.67 730.5,-536.33 730.5,-536.33 730.5,-527.67 730.5,-527.67 730.5,-523.33 734.83,-519 739.17,-519 739.17,-519 983.83,-519 983.83,-519 988.17,-519 992.5,-523.33 992.5,-527.67 992.5,-527.67 992.5,-536.33 992.5,-536.33 992.5,-540.67 988.17,-545 983.83,-545"/>
<text text-anchor="middle" x="861.5" y="-528.2" font-family="Arial" font-size="16.00" fill="#cfffac">components/molecules/toaster.tsx</text>
</g>
<!-- components/index.ts&#45;&gt;components/molecules/toaster.tsx -->
<g id="edge42" class="edge">
<title>components/index.ts&#45;&gt;components/molecules/toaster.tsx</title>
<path fill="none" stroke="#757575" d="M150.19,-755.96C169.29,-717.36 231.59,-603.67 322,-559 389.44,-525.68 584.47,-523.56 720.29,-526.59"/>
<polygon fill="#757575" stroke="#757575" points="720.29,-530.09 730.37,-526.83 720.46,-523.09 720.29,-530.09"/>
</g>
<!-- components/organisms/feature&#45;gallery.tsx -->
<g id="node37" class="node">
<title>components/organisms/feature&#45;gallery.tsx</title>
<path fill="none" stroke="#c6c5fe" d="M631.83,-1107C631.83,-1107 332.17,-1107 332.17,-1107 327.83,-1107 323.5,-1102.67 323.5,-1098.33 323.5,-1098.33 323.5,-1089.67 323.5,-1089.67 323.5,-1085.33 327.83,-1081 332.17,-1081 332.17,-1081 631.83,-1081 631.83,-1081 636.17,-1081 640.5,-1085.33 640.5,-1089.67 640.5,-1089.67 640.5,-1098.33 640.5,-1098.33 640.5,-1102.67 636.17,-1107 631.83,-1107"/>
<text text-anchor="middle" x="482" y="-1090.2" font-family="Arial" font-size="16.00" fill="#c6c5fe">components/organisms/feature&#45;gallery.tsx</text>
</g>
<!-- components/index.ts&#45;&gt;components/organisms/feature&#45;gallery.tsx -->
<g id="edge43" class="edge">
<title>components/index.ts&#45;&gt;components/organisms/feature&#45;gallery.tsx</title>
<path fill="none" stroke="#757575" d="M147.53,-782.17C160.98,-829.62 213.84,-992.96 322,-1067 327.38,-1070.68 333.1,-1073.92 339.05,-1076.76"/>
<polygon fill="#757575" stroke="#757575" points="338.01,-1080.13 348.58,-1080.91 340.81,-1073.71 338.01,-1080.13"/>
</g>
<!-- components/organisms/website&#45;footer.tsx -->
<g id="node38" class="node">
<title>components/organisms/website&#45;footer.tsx</title>
<path fill="none" stroke="#cfffac" d="M1010.33,-709C1010.33,-709 712.67,-709 712.67,-709 708.33,-709 704,-704.67 704,-700.33 704,-700.33 704,-691.67 704,-691.67 704,-687.33 708.33,-683 712.67,-683 712.67,-683 1010.33,-683 1010.33,-683 1014.67,-683 1019,-687.33 1019,-691.67 1019,-691.67 1019,-700.33 1019,-700.33 1019,-704.67 1014.67,-709 1010.33,-709"/>
<text text-anchor="middle" x="861.5" y="-692.2" font-family="Arial" font-size="16.00" fill="#cfffac">components/organisms/website&#45;footer.tsx</text>
</g>
<!-- components/index.ts&#45;&gt;components/organisms/website&#45;footer.tsx -->
<g id="edge44" class="edge">
<title>components/index.ts&#45;&gt;components/organisms/website&#45;footer.tsx</title>
<path fill="none" stroke="#757575" d="M226.19,-760.63C347.37,-748.28 575.48,-725.04 722.58,-710.05"/>
<polygon fill="#757575" stroke="#757575" points="722.99,-713.53 732.59,-709.03 722.28,-706.56 722.99,-713.53"/>
</g>
<!-- components/organisms/website&#45;header.tsx -->
<g id="node39" class="node">
<title>components/organisms/website&#45;header.tsx</title>
<path fill="none" stroke="#c6c5fe" d="M1014.83,-665C1014.83,-665 708.17,-665 708.17,-665 703.83,-665 699.5,-660.67 699.5,-656.33 699.5,-656.33 699.5,-647.67 699.5,-647.67 699.5,-643.33 703.83,-639 708.17,-639 708.17,-639 1014.83,-639 1014.83,-639 1019.17,-639 1023.5,-643.33 1023.5,-647.67 1023.5,-647.67 1023.5,-656.33 1023.5,-656.33 1023.5,-660.67 1019.17,-665 1014.83,-665"/>
<text text-anchor="middle" x="861.5" y="-648.2" font-family="Arial" font-size="16.00" fill="#c6c5fe">components/organisms/website&#45;header.tsx</text>
</g>
<!-- components/index.ts&#45;&gt;components/organisms/website&#45;header.tsx -->
<g id="edge45" class="edge">
<title>components/index.ts&#45;&gt;components/organisms/website&#45;header.tsx</title>
<path fill="none" stroke="#757575" d="M160.43,-755.95C190.43,-733.02 256.99,-686.2 322,-668 455.85,-630.54 615.77,-631.18 726.38,-638.31"/>
<polygon fill="#757575" stroke="#757575" points="726.38,-641.81 736.6,-638.99 726.85,-634.83 726.38,-641.81"/>
</g>
<!-- components/templates/error&#45;page.tsx -->
<g id="node40" class="node">
<title>components/templates/error&#45;page.tsx</title>
<path fill="none" stroke="#c6c5fe" d="M995.33,-1151C995.33,-1151 727.67,-1151 727.67,-1151 723.33,-1151 719,-1146.67 719,-1142.33 719,-1142.33 719,-1133.67 719,-1133.67 719,-1129.33 723.33,-1125 727.67,-1125 727.67,-1125 995.33,-1125 995.33,-1125 999.67,-1125 1004,-1129.33 1004,-1133.67 1004,-1133.67 1004,-1142.33 1004,-1142.33 1004,-1146.67 999.67,-1151 995.33,-1151"/>
<text text-anchor="middle" x="861.5" y="-1134.2" font-family="Arial" font-size="16.00" fill="#c6c5fe">components/templates/error&#45;page.tsx</text>
</g>
<!-- components/index.ts&#45;&gt;components/templates/error&#45;page.tsx -->
<g id="edge46" class="edge">
<title>components/index.ts&#45;&gt;components/templates/error&#45;page.tsx</title>
<path fill="none" stroke="#757575" d="M146,-782.17C154.87,-835.36 195.93,-1035.4 322,-1116 383.86,-1155.55 572.27,-1154.88 708.81,-1148.43"/>
<polygon fill="#757575" stroke="#757575" points="709.15,-1151.92 718.97,-1147.94 708.81,-1144.93 709.15,-1151.92"/>
</g>
<!-- components/templates/webapp.tsx -->
<g id="node41" class="node">
<title>components/templates/webapp.tsx</title>
<path fill="none" stroke="#c6c5fe" d="M606.33,-507C606.33,-507 357.67,-507 357.67,-507 353.33,-507 349,-502.67 349,-498.33 349,-498.33 349,-489.67 349,-489.67 349,-485.33 353.33,-481 357.67,-481 357.67,-481 606.33,-481 606.33,-481 610.67,-481 615,-485.33 615,-489.67 615,-489.67 615,-498.33 615,-498.33 615,-502.67 610.67,-507 606.33,-507"/>
<text text-anchor="middle" x="482" y="-490.2" font-family="Arial" font-size="16.00" fill="#c6c5fe">components/templates/webapp.tsx</text>
</g>
<!-- components/index.ts&#45;&gt;components/templates/webapp.tsx -->
<g id="edge47" class="edge">
<title>components/index.ts&#45;&gt;components/templates/webapp.tsx</title>
<path fill="none" stroke="#757575" d="M149.15,-755.72C166.33,-713.39 226.03,-580.93 322,-521 328.2,-517.13 334.8,-513.76 341.64,-510.84"/>
<polygon fill="#757575" stroke="#757575" points="343.07,-514.04 351.1,-507.13 340.52,-507.52 343.07,-514.04"/>
</g>
<!-- components/templates/website.tsx -->
<g id="node42" class="node">
<title>components/templates/website.tsx</title>
<path fill="none" stroke="#c6c5fe" d="M605.83,-703C605.83,-703 358.17,-703 358.17,-703 353.83,-703 349.5,-698.67 349.5,-694.33 349.5,-694.33 349.5,-685.67 349.5,-685.67 349.5,-681.33 353.83,-677 358.17,-677 358.17,-677 605.83,-677 605.83,-677 610.17,-677 614.5,-681.33 614.5,-685.67 614.5,-685.67 614.5,-694.33 614.5,-694.33 614.5,-698.67 610.17,-703 605.83,-703"/>
<text text-anchor="middle" x="482" y="-686.2" font-family="Arial" font-size="16.00" fill="#c6c5fe">components/templates/website.tsx</text>
</g>
<!-- components/index.ts&#45;&gt;components/templates/website.tsx -->
<g id="edge48" class="edge">
<title>components/index.ts&#45;&gt;components/templates/website.tsx</title>
<path fill="none" stroke="#757575" d="M183.59,-756C219.44,-744.57 273.84,-728.08 322,-717 341.7,-712.47 362.93,-708.34 383.26,-704.76"/>
<polygon fill="#757575" stroke="#757575" points="383.91,-708.2 393.16,-703.04 382.71,-701.3 383.91,-708.2"/>
</g>
<!-- components/molecules/button&#45;group.tsx&#45;&gt;components/atoms/separator.tsx -->
<g id="edge49" class="edge">
<title>components/molecules/button&#45;group.tsx&#45;&gt;components/atoms/separator.tsx</title>
<path fill="none" stroke="#757575" d="M597.29,-129.02C641.17,-134.02 691.44,-139.74 736.22,-144.84"/>
<polygon fill="#757575" stroke="#757575" points="735.94,-148.33 746.28,-145.99 736.74,-141.38 735.94,-148.33"/>
</g>
<!-- components/molecules/button&#45;group&#45;variants.tsx -->
<g id="node43" class="node">
<title>components/molecules/button&#45;group&#45;variants.tsx</title>
<path fill="none" stroke="#cfffac" d="M1036.33,-128C1036.33,-128 686.67,-128 686.67,-128 682.33,-128 678,-123.67 678,-119.33 678,-119.33 678,-110.67 678,-110.67 678,-106.33 682.33,-102 686.67,-102 686.67,-102 1036.33,-102 1036.33,-102 1040.67,-102 1045,-106.33 1045,-110.67 1045,-110.67 1045,-119.33 1045,-119.33 1045,-123.67 1040.67,-128 1036.33,-128"/>
<text text-anchor="middle" x="861.5" y="-111.2" font-family="Arial" font-size="16.00" fill="#cfffac">components/molecules/button&#45;group&#45;variants.tsx</text>
</g>
<!-- components/molecules/button&#45;group.tsx&#45;&gt;components/molecules/button&#45;group&#45;variants.tsx -->
<g id="edge50" class="edge">
<title>components/molecules/button&#45;group.tsx&#45;&gt;components/molecules/button&#45;group&#45;variants.tsx</title>
<path fill="none" stroke="#757575" d="M634.64,-115.6C645.55,-115.57 656.63,-115.54 667.73,-115.51"/>
<polygon fill="#757575" stroke="#757575" points="667.93,-119.01 677.92,-115.48 667.91,-112.01 667.93,-119.01"/>
</g>
<!-- components/molecules/calendar.tsx&#45;&gt;components/atoms/button&#45;variants.tsx -->
<g id="edge51" class="edge">
<title>components/molecules/calendar.tsx&#45;&gt;components/atoms/button&#45;variants.tsx</title>
<path fill="none" stroke="#757575" d="M619.58,-1271.41C639.18,-1272.79 659.09,-1274.04 678,-1275 965.88,-1289.62 1302.25,-1295.42 1493.99,-1297.65"/>
<polygon fill="#757575" stroke="#757575" points="1494.1,-1301.16 1504.14,-1297.77 1494.19,-1294.16 1494.1,-1301.16"/>
</g>
<!-- components/molecules/calendar.tsx&#45;&gt;components/atoms/button.tsx -->
<g id="edge52" class="edge">
<title>components/molecules/calendar.tsx&#45;&gt;components/atoms/button.tsx</title>
<path fill="none" stroke="#757575" d="M597.37,-1273.01C712.87,-1282.32 895.13,-1286.42 1045,-1242 1118.28,-1220.28 1191.95,-1166.06 1228.27,-1136.68"/>
<polygon fill="#757575" stroke="#757575" points="1230.75,-1139.17 1236.26,-1130.12 1226.31,-1133.76 1230.75,-1139.17"/>
</g>
<!-- components/molecules/calendar.tsx&#45;&gt;components/atoms/calendar&#45;day&#45;button.tsx -->
<g id="edge53" class="edge">
<title>components/molecules/calendar.tsx&#45;&gt;components/atoms/calendar&#45;day&#45;button.tsx</title>
<path fill="none" stroke="#757575" d="M605.82,-1246.99C644.81,-1242.85 688.09,-1238.27 727.75,-1234.07"/>
<polygon fill="#757575" stroke="#757575" points="728.17,-1237.54 737.74,-1233.01 727.43,-1230.58 728.17,-1237.54"/>
</g>
<!-- components/molecules/dialog&#45;content.tsx&#45;&gt;components/atoms/dialog.tsx -->
<g id="edge54" class="edge">
<title>components/molecules/dialog&#45;content.tsx&#45;&gt;components/atoms/dialog.tsx</title>
<path fill="none" stroke="#757575" d="M639.54,-34C672.28,-34 706.36,-34 737.66,-34"/>
<polygon fill="#757575" stroke="#757575" points="737.72,-37.5 747.72,-34 737.72,-30.5 737.72,-37.5"/>
</g>
<!-- components/molecules/drawer&#45;content.tsx&#45;&gt;components/atoms/drawer.tsx -->
<g id="edge55" class="edge">
<title>components/molecules/drawer&#45;content.tsx&#45;&gt;components/atoms/drawer.tsx</title>
<path fill="none" stroke="#757575" d="M584.08,-337.04C603.34,-339.79 623.32,-342.83 642,-346 691.98,-354.48 748.02,-365.8 790.83,-374.84"/>
<polygon fill="#757575" stroke="#757575" points="790.36,-378.32 800.87,-376.97 791.81,-371.47 790.36,-378.32"/>
</g>
<!-- components/molecules/locale&#45;selector.tsx&#45;&gt;components/atoms/button.tsx -->
<g id="edge56" class="edge">
<title>components/molecules/locale&#45;selector.tsx&#45;&gt;components/atoms/button.tsx</title>
<path fill="none" stroke="#757575" d="M951.39,-829.03C984.13,-837.68 1019.42,-852.08 1045,-876 1076.16,-905.15 1056.43,-930.11 1081,-965 1121.06,-1021.88 1186.28,-1072.19 1223.37,-1098.21"/>
<polygon fill="#757575" stroke="#757575" points="1221.51,-1101.18 1231.72,-1104 1225.49,-1095.43 1221.51,-1101.18"/>
</g>
<!-- components/molecules/locale&#45;selector.tsx&#45;&gt;components/atoms/dropdown&#45;menu.tsx -->
<g id="edge57" class="edge">
<title>components/molecules/locale&#45;selector.tsx&#45;&gt;components/atoms/dropdown&#45;menu.tsx</title>
<path fill="none" stroke="#757575" d="M995.83,-802.98C1032.01,-799.44 1071.35,-795.6 1108.06,-792.01"/>
<polygon fill="#757575" stroke="#757575" points="1108.73,-795.46 1118.35,-791.01 1108.05,-788.5 1108.73,-795.46"/>
</g>
<!-- components/molecules/navigation&#45;menu.tsx&#45;&gt;components/atoms/navigation&#45;menu.tsx -->
<g id="edge58" class="edge">
<title>components/molecules/navigation&#45;menu.tsx&#45;&gt;components/atoms/navigation&#45;menu.tsx</title>
<path fill="none" stroke="#757575" d="M1373.24,-661.02C1419.4,-666.04 1472.32,-671.79 1519.38,-676.91"/>
<polygon fill="#757575" stroke="#757575" points="1519.01,-680.39 1529.33,-677.99 1519.77,-673.43 1519.01,-680.39"/>
</g>
<!-- components/molecules/navigation&#45;menu&#45;styles.tsx -->
<g id="node44" class="node">
<title>components/molecules/navigation&#45;menu&#45;styles.tsx</title>
<path fill="none" stroke="#cfffac" d="M1831.33,-660C1831.33,-660 1468.67,-660 1468.67,-660 1464.33,-660 1460,-655.67 1460,-651.33 1460,-651.33 1460,-642.67 1460,-642.67 1460,-638.33 1464.33,-634 1468.67,-634 1468.67,-634 1831.33,-634 1831.33,-634 1835.67,-634 1840,-638.33 1840,-642.67 1840,-642.67 1840,-651.33 1840,-651.33 1840,-655.67 1835.67,-660 1831.33,-660"/>
<text text-anchor="middle" x="1650" y="-643.2" font-family="Arial" font-size="16.00" fill="#cfffac">components/molecules/navigation&#45;menu&#45;styles.tsx</text>
</g>
<!-- components/molecules/navigation&#45;menu.tsx&#45;&gt;components/molecules/navigation&#45;menu&#45;styles.tsx -->
<g id="edge59" class="edge">
<title>components/molecules/navigation&#45;menu.tsx&#45;&gt;components/molecules/navigation&#45;menu&#45;styles.tsx</title>
<path fill="none" stroke="#757575" d="M1419.22,-647.58C1429.3,-647.56 1439.48,-647.53 1449.68,-647.5"/>
<polygon fill="#757575" stroke="#757575" points="1449.88,-651 1459.87,-647.48 1449.86,-644 1449.88,-651"/>
</g>
<!-- components/molecules/search&#45;field.tsx&#45;&gt;components/atoms/button.tsx -->
<g id="edge60" class="edge">
<title>components/molecules/search&#45;field.tsx&#45;&gt;components/atoms/button.tsx</title>
<path fill="none" stroke="#757575" d="M630.8,-970.62C745.29,-979.76 907.09,-998.08 1045,-1034 1107.14,-1050.18 1175.62,-1080.33 1216.02,-1099.49"/>
<polygon fill="#757575" stroke="#757575" points="1214.65,-1102.72 1225.18,-1103.88 1217.67,-1096.4 1214.65,-1102.72"/>
</g>
<!-- components/molecules/search&#45;field.tsx&#45;&gt;components/atoms/input&#45;group.tsx -->
<g id="edge61" class="edge">
<title>components/molecules/search&#45;field.tsx&#45;&gt;components/atoms/input&#45;group.tsx</title>
<path fill="none" stroke="#757575" d="M569.55,-948.96C593.14,-944.96 618.64,-940.21 642,-935 658.21,-931.38 661.76,-928.44 678,-925 700.11,-920.31 723.89,-916.16 746.75,-912.6"/>
<polygon fill="#757575" stroke="#757575" points="747.47,-916.03 756.83,-911.06 746.42,-909.11 747.47,-916.03"/>
</g>
<!-- components/molecules/search&#45;field.tsx&#45;&gt;components/atoms/input.tsx -->
<g id="edge62" class="edge">
<title>components/molecules/search&#45;field.tsx&#45;&gt;components/atoms/input.tsx</title>
<path fill="none" stroke="#757575" d="M630.72,-958.35C776.68,-954.74 997.17,-949.29 1132.32,-945.95"/>
<polygon fill="#757575" stroke="#757575" points="1132.8,-949.44 1142.71,-945.69 1132.63,-942.44 1132.8,-949.44"/>
</g>
<!-- components/molecules/select.tsx&#45;&gt;components/atoms/select.tsx -->
<g id="edge63" class="edge">
<title>components/molecules/select.tsx&#45;&gt;components/atoms/select.tsx</title>
<path fill="none" stroke="#757575" d="M605.82,-1461.01C648.17,-1465.5 695.57,-1470.52 737.89,-1475.01"/>
<polygon fill="#757575" stroke="#757575" points="737.65,-1478.5 747.97,-1476.08 738.39,-1471.54 737.65,-1478.5"/>
</g>
<!-- components/molecules/theme&#45;toggle/default.tsx -->
<g id="node45" class="node">
<title>components/molecules/theme&#45;toggle/default.tsx</title>
<path fill="none" stroke="#cfffac" d="M1821.83,-599C1821.83,-599 1478.17,-599 1478.17,-599 1473.83,-599 1469.5,-594.67 1469.5,-590.33 1469.5,-590.33 1469.5,-581.67 1469.5,-581.67 1469.5,-577.33 1473.83,-573 1478.17,-573 1478.17,-573 1821.83,-573 1821.83,-573 1826.17,-573 1830.5,-577.33 1830.5,-581.67 1830.5,-581.67 1830.5,-590.33 1830.5,-590.33 1830.5,-594.67 1826.17,-599 1821.83,-599"/>
<text text-anchor="middle" x="1650" y="-582.2" font-family="Arial" font-size="16.00" fill="#cfffac">components/molecules/theme&#45;toggle/default.tsx</text>
</g>
<!-- components/molecules/theme&#45;toggle/index.ts&#45;&gt;components/molecules/theme&#45;toggle/default.tsx -->
<g id="edge64" class="edge">
<title>components/molecules/theme&#45;toggle/index.ts&#45;&gt;components/molecules/theme&#45;toggle/default.tsx</title>
<path fill="none" stroke="#757575" d="M1424.1,-583.73C1435.66,-583.84 1447.35,-583.96 1459,-584.08"/>
<polygon fill="#757575" stroke="#757575" points="1459.19,-587.58 1469.22,-584.18 1459.26,-580.58 1459.19,-587.58"/>
</g>
<!-- components/molecules/theme&#45;toggle/fallback.tsx -->
<g id="node46" class="node">
<title>components/molecules/theme&#45;toggle/fallback.tsx</title>
<path fill="none" stroke="#cfffac" d="M1825.33,-555C1825.33,-555 1474.67,-555 1474.67,-555 1470.33,-555 1466,-550.67 1466,-546.33 1466,-546.33 1466,-537.67 1466,-537.67 1466,-533.33 1470.33,-529 1474.67,-529 1474.67,-529 1825.33,-529 1825.33,-529 1829.67,-529 1834,-533.33 1834,-537.67 1834,-537.67 1834,-546.33 1834,-546.33 1834,-550.67 1829.67,-555 1825.33,-555"/>
<text text-anchor="middle" x="1650" y="-538.2" font-family="Arial" font-size="16.00" fill="#cfffac">components/molecules/theme&#45;toggle/fallback.tsx</text>
</g>
<!-- components/molecules/theme&#45;toggle/index.ts&#45;&gt;components/molecules/theme&#45;toggle/fallback.tsx -->
<g id="edge65" class="edge">
<title>components/molecules/theme&#45;toggle/index.ts&#45;&gt;components/molecules/theme&#45;toggle/fallback.tsx</title>
<path fill="none" stroke="#757575" d="M1382.18,-568.99C1423.11,-564.85 1468.56,-560.25 1510.18,-556.04"/>
<polygon fill="#757575" stroke="#757575" points="1510.79,-559.5 1520.39,-555.01 1510.09,-552.53 1510.79,-559.5"/>
</g>
<!-- components/organisms/feature&#45;gallery.tsx&#45;&gt;components/atoms/button.tsx -->
<g id="edge68" class="edge">
<title>components/organisms/feature&#45;gallery.tsx&#45;&gt;components/atoms/button.tsx</title>
<path fill="none" stroke="#757575" d="M640.84,-1098.72C785,-1103.04 995.26,-1109.33 1127.65,-1113.29"/>
<polygon fill="#757575" stroke="#757575" points="1127.73,-1116.8 1137.83,-1113.6 1127.94,-1109.8 1127.73,-1116.8"/>
</g>
<!-- components/organisms/feature&#45;gallery.tsx&#45;&gt;components/atoms/card.tsx -->
<g id="edge69" class="edge">
<title>components/organisms/feature&#45;gallery.tsx&#45;&gt;components/atoms/card.tsx</title>
<path fill="none" stroke="#757575" d="M612.39,-1080.98C654.98,-1076.69 702.06,-1071.95 743.66,-1067.76"/>
<polygon fill="#757575" stroke="#757575" points="744.23,-1071.22 753.83,-1066.74 743.53,-1064.26 744.23,-1071.22"/>
</g>
<!-- components/organisms/website&#45;header.tsx&#45;&gt;components/atoms/button.tsx -->
<g id="edge70" class="edge">
<title>components/organisms/website&#45;header.tsx&#45;&gt;components/atoms/button.tsx</title>
<path fill="none" stroke="#757575" d="M1023.87,-658.26C1031.54,-662.5 1038.67,-667.69 1045,-674 1091.15,-720 1050.74,-907.29 1081,-965 1112.93,-1025.9 1179.82,-1074.03 1219.67,-1098.75"/>
<polygon fill="#757575" stroke="#757575" points="1217.86,-1101.75 1228.22,-1103.96 1221.49,-1095.77 1217.86,-1101.75"/>
</g>
<!-- components/organisms/website&#45;header.tsx&#45;&gt;components/atoms/dropdown&#45;menu.tsx -->
<g id="edge71" class="edge">
<title>components/organisms/website&#45;header.tsx&#45;&gt;components/atoms/dropdown&#45;menu.tsx</title>
<path fill="none" stroke="#757575" d="M1020.35,-665.12C1028.82,-667.65 1037.09,-670.59 1045,-674 1064.12,-682.25 1063.27,-693.08 1081,-704 1120.05,-728.06 1168.3,-748.21 1203.49,-761.38"/>
<polygon fill="#757575" stroke="#757575" points="1202.46,-764.73 1213.05,-764.91 1204.88,-758.16 1202.46,-764.73"/>
</g>
<!-- components/organisms/website&#45;header.tsx&#45;&gt;components/atoms/navigation&#45;menu.tsx -->
<g id="edge72" class="edge">
<title>components/organisms/website&#45;header.tsx&#45;&gt;components/atoms/navigation&#45;menu.tsx</title>
<path fill="none" stroke="#757575" d="M1009.35,-665.01C1033.29,-666.87 1057.82,-668.62 1081,-670 1218.09,-678.18 1374,-683.67 1487.75,-686.98"/>
<polygon fill="#757575" stroke="#757575" points="1487.83,-690.48 1497.93,-687.27 1488.03,-683.49 1487.83,-690.48"/>
</g>
<!-- components/organisms/website&#45;header.tsx&#45;&gt;components/molecules/navigation&#45;menu.tsx -->
<g id="edge73" class="edge">
<title>components/organisms/website&#45;header.tsx&#45;&gt;components/molecules/navigation&#45;menu.tsx</title>
<path fill="none" stroke="#757575" d="M1023.53,-650.34C1040.74,-650.17 1058.31,-649.99 1075.68,-649.81"/>
<polygon fill="#757575" stroke="#757575" points="1075.92,-653.31 1085.88,-649.7 1075.85,-646.31 1075.92,-653.31"/>
</g>
<!-- components/organisms/website&#45;header.tsx&#45;&gt;components/molecules/theme&#45;toggle/index.ts -->
<g id="edge74" class="edge">
<title>components/organisms/website&#45;header.tsx&#45;&gt;components/molecules/theme&#45;toggle/index.ts</title>
<path fill="none" stroke="#757575" d="M934.76,-639C1001.14,-627.05 1099.48,-609.36 1168.94,-596.86"/>
<polygon fill="#757575" stroke="#757575" points="1169.75,-600.27 1178.97,-595.05 1168.51,-593.38 1169.75,-600.27"/>
</g>
<!-- components/templates/error&#45;page.tsx&#45;&gt;components/atoms/button.tsx -->
<g id="edge75" class="edge">
<title>components/templates/error&#45;page.tsx&#45;&gt;components/atoms/button.tsx</title>
<path fill="none" stroke="#757575" d="M1004.04,-1130.36C1044.51,-1128.17 1088.28,-1125.81 1127.61,-1123.69"/>
<polygon fill="#757575" stroke="#757575" points="1127.97,-1127.17 1137.77,-1123.14 1127.6,-1120.18 1127.97,-1127.17"/>
</g>
<!-- components/templates/webapp.tsx&#45;&gt;components/molecules/toaster.tsx -->
<g id="edge76" class="edge">
<title>components/templates/webapp.tsx&#45;&gt;components/molecules/toaster.tsx</title>
<path fill="none" stroke="#757575" d="M612.39,-507.02C647.5,-510.56 685.67,-514.4 721.3,-517.99"/>
<polygon fill="#757575" stroke="#757575" points="720.98,-521.47 731.28,-518.99 721.68,-514.51 720.98,-521.47"/>
</g>
<!-- components/templates/website.tsx&#45;&gt;components/molecules/locale&#45;selector.tsx -->
<g id="edge77" class="edge">
<title>components/templates/website.tsx&#45;&gt;components/molecules/locale&#45;selector.tsx</title>
<path fill="none" stroke="#757575" d="M521.98,-703.01C591.3,-726.15 735.84,-774.39 811.67,-799.7"/>
<polygon fill="#757575" stroke="#757575" points="810.86,-803.12 821.45,-802.97 813.07,-796.48 810.86,-803.12"/>
</g>
<!-- components/templates/website.tsx&#45;&gt;components/molecules/toaster.tsx -->
<g id="edge78" class="edge">
<title>components/templates/website.tsx&#45;&gt;components/molecules/toaster.tsx</title>
<path fill="none" stroke="#757575" d="M514.21,-676.94C582.31,-648.43 744.18,-580.68 820.01,-548.95"/>
<polygon fill="#757575" stroke="#757575" points="821.38,-552.17 829.25,-545.08 818.67,-545.71 821.38,-552.17"/>
</g>
<!-- components/templates/website.tsx&#45;&gt;components/organisms/website&#45;footer.tsx -->
<g id="edge79" class="edge">
<title>components/templates/website.tsx&#45;&gt;components/organisms/website&#45;footer.tsx</title>
<path fill="none" stroke="#757575" d="M614.5,-692.09C640.07,-692.5 667.18,-692.93 693.71,-693.35"/>
<polygon fill="#757575" stroke="#757575" points="693.79,-696.85 703.84,-693.51 693.9,-689.85 693.79,-696.85"/>
</g>
<!-- components/templates/website.tsx&#45;&gt;components/organisms/website&#45;header.tsx -->
<g id="edge80" class="edge">
<title>components/templates/website.tsx&#45;&gt;components/organisms/website&#45;header.tsx</title>
<path fill="none" stroke="#757575" d="M612.39,-676.98C647.5,-673.44 685.67,-669.6 721.3,-666.01"/>
<polygon fill="#757575" stroke="#757575" points="721.68,-669.49 731.28,-665.01 720.98,-662.53 721.68,-669.49"/>
</g>
<!-- components/organisms/command.tsx -->
<g id="node47" class="node">
<title>components/organisms/command.tsx</title>
<path fill="none" stroke="#c6c5fe" d="M277.33,-26C277.33,-26 8.67,-26 8.67,-26 4.33,-26 0,-21.67 0,-17.33 0,-17.33 0,-8.67 0,-8.67 0,-4.33 4.33,0 8.67,0 8.67,0 277.33,0 277.33,0 281.67,0 286,-4.33 286,-8.67 286,-8.67 286,-17.33 286,-17.33 286,-21.67 281.67,-26 277.33,-26"/>
<text text-anchor="middle" x="143" y="-9.2" font-family="Arial" font-size="16.00" fill="#c6c5fe">components/organisms/command.tsx</text>
</g>
<!-- components/organisms/command.tsx&#45;&gt;components/atoms/dialog.tsx -->
<g id="edge66" class="edge">
<title>components/organisms/command.tsx&#45;&gt;components/atoms/dialog.tsx</title>
<path fill="none" stroke="#757575" d="M286.33,-12.13C298.4,-12.08 310.41,-12.03 322,-12 464.22,-11.6 499.96,-4.87 642,-12 674.78,-13.65 710.23,-16.67 742.84,-19.97"/>
<polygon fill="#757575" stroke="#757575" points="742.55,-23.46 752.86,-21 743.27,-16.49 742.55,-23.46"/>
</g>
<!-- components/organisms/command.tsx&#45;&gt;components/molecules/dialog&#45;content.tsx -->
<g id="edge67" class="edge">
<title>components/organisms/command.tsx&#45;&gt;components/molecules/dialog&#45;content.tsx</title>
<path fill="none" stroke="#757575" d="M286.43,-21.88C295.66,-22.45 305.01,-23.03 314.34,-23.61"/>
<polygon fill="#757575" stroke="#757575" points="314.26,-27.12 324.46,-24.25 314.7,-20.13 314.26,-27.12"/>
</g>
<!-- contexts/theme.ts -->
<g id="node48" class="node">
<title>contexts/theme.ts</title>
<path fill="none" stroke="#c6c5fe" d="M545.33,-1631C545.33,-1631 418.67,-1631 418.67,-1631 414.33,-1631 410,-1626.67 410,-1622.33 410,-1622.33 410,-1613.67 410,-1613.67 410,-1609.33 414.33,-1605 418.67,-1605 418.67,-1605 545.33,-1605 545.33,-1605 549.67,-1605 554,-1609.33 554,-1613.67 554,-1613.67 554,-1622.33 554,-1622.33 554,-1626.67 549.67,-1631 545.33,-1631"/>
<text text-anchor="middle" x="482" y="-1614.2" font-family="Arial" font-size="16.00" fill="#c6c5fe">contexts/theme.ts</text>
</g>
<!-- types.ts -->
<g id="node49" class="node">
<title>types.ts</title>
<path fill="none" stroke="#cfffac" d="M889.33,-1609C889.33,-1609 833.67,-1609 833.67,-1609 829.33,-1609 825,-1604.67 825,-1600.33 825,-1600.33 825,-1591.67 825,-1591.67 825,-1587.33 829.33,-1583 833.67,-1583 833.67,-1583 889.33,-1583 889.33,-1583 893.67,-1583 898,-1587.33 898,-1591.67 898,-1591.67 898,-1600.33 898,-1600.33 898,-1604.67 893.67,-1609 889.33,-1609"/>
<text text-anchor="middle" x="861.5" y="-1592.2" font-family="Arial" font-size="16.00" fill="#cfffac">types.ts</text>
</g>
<!-- contexts/theme.ts&#45;&gt;types.ts -->
<g id="edge81" class="edge">
<title>contexts/theme.ts&#45;&gt;types.ts</title>
<path fill="none" stroke="#757575" d="M554,-1613.86C630.28,-1609.42 749.26,-1602.48 814.27,-1598.69"/>
<polygon fill="#757575" stroke="#757575" points="814.83,-1602.17 824.61,-1598.09 814.42,-1595.18 814.83,-1602.17"/>
</g>
<!-- hooks/breakpoints.ts -->
<g id="node50" class="node">
<title>hooks/breakpoints.ts</title>
<path fill="none" stroke="#cfffac" d="M556.33,-1763C556.33,-1763 407.67,-1763 407.67,-1763 403.33,-1763 399,-1758.67 399,-1754.33 399,-1754.33 399,-1745.67 399,-1745.67 399,-1741.33 403.33,-1737 407.67,-1737 407.67,-1737 556.33,-1737 556.33,-1737 560.67,-1737 565,-1741.33 565,-1745.67 565,-1745.67 565,-1754.33 565,-1754.33 565,-1758.67 560.67,-1763 556.33,-1763"/>
<text text-anchor="middle" x="482" y="-1746.2" font-family="Arial" font-size="16.00" fill="#cfffac">hooks/breakpoints.ts</text>
</g>
<!-- hooks/css&#45;runtime.ts -->
<g id="node51" class="node">
<title>hooks/css&#45;runtime.ts</title>
<path fill="none" stroke="#cfffac" d="M556.33,-1719C556.33,-1719 407.67,-1719 407.67,-1719 403.33,-1719 399,-1714.67 399,-1710.33 399,-1710.33 399,-1701.67 399,-1701.67 399,-1697.33 403.33,-1693 407.67,-1693 407.67,-1693 556.33,-1693 556.33,-1693 560.67,-1693 565,-1697.33 565,-1701.67 565,-1701.67 565,-1710.33 565,-1710.33 565,-1714.67 560.67,-1719 556.33,-1719"/>
<text text-anchor="middle" x="482" y="-1702.2" font-family="Arial" font-size="16.00" fill="#cfffac">hooks/css&#45;runtime.ts</text>
</g>
<!-- hooks/index.ts -->
<g id="node52" class="node">
<title>hooks/index.ts</title>
<path fill="none" stroke="#c6c5fe" d="M194.83,-1719C194.83,-1719 91.17,-1719 91.17,-1719 86.83,-1719 82.5,-1714.67 82.5,-1710.33 82.5,-1710.33 82.5,-1701.67 82.5,-1701.67 82.5,-1697.33 86.83,-1693 91.17,-1693 91.17,-1693 194.83,-1693 194.83,-1693 199.17,-1693 203.5,-1697.33 203.5,-1701.67 203.5,-1701.67 203.5,-1710.33 203.5,-1710.33 203.5,-1714.67 199.17,-1719 194.83,-1719"/>
<text text-anchor="middle" x="143" y="-1702.2" font-family="Arial" font-size="16.00" fill="#c6c5fe">hooks/index.ts</text>
</g>
<!-- hooks/index.ts&#45;&gt;hooks/breakpoints.ts -->
<g id="edge82" class="edge">
<title>hooks/index.ts&#45;&gt;hooks/breakpoints.ts</title>
<path fill="none" stroke="#757575" d="M203.86,-1713.82C255.18,-1720.52 329.92,-1730.27 388.86,-1737.97"/>
<polygon fill="#757575" stroke="#757575" points="388.56,-1741.46 398.93,-1739.28 389.46,-1734.52 388.56,-1741.46"/>
</g>
<!-- hooks/index.ts&#45;&gt;hooks/css&#45;runtime.ts -->
<g id="edge83" class="edge">
<title>hooks/index.ts&#45;&gt;hooks/css&#45;runtime.ts</title>
<path fill="none" stroke="#757575" d="M203.86,-1706C255.18,-1706 329.92,-1706 388.86,-1706"/>
<polygon fill="#757575" stroke="#757575" points="388.93,-1709.5 398.93,-1706 388.93,-1702.5 388.93,-1709.5"/>
</g>
<!-- hooks/scroll.ts -->
<g id="node53" class="node">
<title>hooks/scroll.ts</title>
<path fill="none" stroke="#cfffac" d="M533.33,-1675C533.33,-1675 430.67,-1675 430.67,-1675 426.33,-1675 422,-1670.67 422,-1666.33 422,-1666.33 422,-1657.67 422,-1657.67 422,-1653.33 426.33,-1649 430.67,-1649 430.67,-1649 533.33,-1649 533.33,-1649 537.67,-1649 542,-1653.33 542,-1657.67 542,-1657.67 542,-1666.33 542,-1666.33 542,-1670.67 537.67,-1675 533.33,-1675"/>
<text text-anchor="middle" x="482" y="-1658.2" font-family="Arial" font-size="16.00" fill="#cfffac">hooks/scroll.ts</text>
</g>
<!-- hooks/index.ts&#45;&gt;hooks/scroll.ts -->
<g id="edge84" class="edge">
<title>hooks/index.ts&#45;&gt;hooks/scroll.ts</title>
<path fill="none" stroke="#757575" d="M203.86,-1698.18C262.18,-1690.57 350.77,-1679 412.01,-1671.01"/>
<polygon fill="#757575" stroke="#757575" points="412.52,-1674.47 421.98,-1669.71 411.61,-1667.53 412.52,-1674.47"/>
</g>
<!-- hooks/layout&#45;config.ts -->
<g id="node54" class="node">
<title>hooks/layout&#45;config.ts</title>
<path fill="none" stroke="#cfffac" d="M221.33,-1774C221.33,-1774 64.67,-1774 64.67,-1774 60.33,-1774 56,-1769.67 56,-1765.33 56,-1765.33 56,-1756.67 56,-1756.67 56,-1752.33 60.33,-1748 64.67,-1748 64.67,-1748 221.33,-1748 221.33,-1748 225.67,-1748 230,-1752.33 230,-1756.67 230,-1756.67 230,-1765.33 230,-1765.33 230,-1769.67 225.67,-1774 221.33,-1774"/>
<text text-anchor="middle" x="143" y="-1757.2" font-family="Arial" font-size="16.00" fill="#cfffac">hooks/layout&#45;config.ts</text>
</g>
<!-- providers/index.ts -->
<g id="node55" class="node">
<title>providers/index.ts</title>
<path fill="none" stroke="#c6c5fe" d="M206.33,-1587C206.33,-1587 79.67,-1587 79.67,-1587 75.33,-1587 71,-1582.67 71,-1578.33 71,-1578.33 71,-1569.67 71,-1569.67 71,-1565.33 75.33,-1561 79.67,-1561 79.67,-1561 206.33,-1561 206.33,-1561 210.67,-1561 215,-1565.33 215,-1569.67 215,-1569.67 215,-1578.33 215,-1578.33 215,-1582.67 210.67,-1587 206.33,-1587"/>
<text text-anchor="middle" x="143" y="-1570.2" font-family="Arial" font-size="16.00" fill="#c6c5fe">providers/index.ts</text>
</g>
<!-- providers/theme.tsx -->
<g id="node56" class="node">
<title>providers/theme.tsx</title>
<path fill="none" stroke="#c6c5fe" d="M552.33,-1587C552.33,-1587 411.67,-1587 411.67,-1587 407.33,-1587 403,-1582.67 403,-1578.33 403,-1578.33 403,-1569.67 403,-1569.67 403,-1565.33 407.33,-1561 411.67,-1561 411.67,-1561 552.33,-1561 552.33,-1561 556.67,-1561 561,-1565.33 561,-1569.67 561,-1569.67 561,-1578.33 561,-1578.33 561,-1582.67 556.67,-1587 552.33,-1587"/>
<text text-anchor="middle" x="482" y="-1570.2" font-family="Arial" font-size="16.00" fill="#c6c5fe">providers/theme.tsx</text>
</g>
<!-- providers/index.ts&#45;&gt;providers/theme.tsx -->
<g id="edge85" class="edge">
<title>providers/index.ts&#45;&gt;providers/theme.tsx</title>
<path fill="none" stroke="#757575" d="M215.06,-1574C266.87,-1574 337.41,-1574 392.82,-1574"/>
<polygon fill="#757575" stroke="#757575" points="392.98,-1577.5 402.98,-1574 392.98,-1570.5 392.98,-1577.5"/>
</g>
<!-- providers/theme.tsx&#45;&gt;types.ts -->
<g id="edge86" class="edge">
<title>providers/theme.tsx&#45;&gt;types.ts</title>
<path fill="none" stroke="#757575" d="M561.22,-1578.56C637.73,-1583.02 751.65,-1589.66 814.58,-1593.32"/>
<polygon fill="#757575" stroke="#757575" points="814.41,-1596.82 824.6,-1593.91 814.82,-1589.83 814.41,-1596.82"/>
</g>
<!-- utils/classnames.ts -->
<g id="node57" class="node">
<title>utils/classnames.ts</title>
<path fill="none" stroke="#cfffac" d="M550.33,-1851C550.33,-1851 413.67,-1851 413.67,-1851 409.33,-1851 405,-1846.67 405,-1842.33 405,-1842.33 405,-1833.67 405,-1833.67 405,-1829.33 409.33,-1825 413.67,-1825 413.67,-1825 550.33,-1825 550.33,-1825 554.67,-1825 559,-1829.33 559,-1833.67 559,-1833.67 559,-1842.33 559,-1842.33 559,-1846.67 554.67,-1851 550.33,-1851"/>
<text text-anchor="middle" x="482" y="-1834.2" font-family="Arial" font-size="16.00" fill="#cfffac">utils/classnames.ts</text>
</g>
<!-- utils/index.ts -->
<g id="node58" class="node">
<title>utils/index.ts</title>
<path fill="none" stroke="#c6c5fe" d="M187.83,-1829C187.83,-1829 98.17,-1829 98.17,-1829 93.83,-1829 89.5,-1824.67 89.5,-1820.33 89.5,-1820.33 89.5,-1811.67 89.5,-1811.67 89.5,-1807.33 93.83,-1803 98.17,-1803 98.17,-1803 187.83,-1803 187.83,-1803 192.17,-1803 196.5,-1807.33 196.5,-1811.67 196.5,-1811.67 196.5,-1820.33 196.5,-1820.33 196.5,-1824.67 192.17,-1829 187.83,-1829"/>
<text text-anchor="middle" x="143" y="-1812.2" font-family="Arial" font-size="16.00" fill="#c6c5fe">utils/index.ts</text>
</g>
<!-- utils/index.ts&#45;&gt;utils/classnames.ts -->
<g id="edge87" class="edge">
<title>utils/index.ts&#45;&gt;utils/classnames.ts</title>
<path fill="none" stroke="#757575" d="M196.66,-1819.44C249.61,-1822.89 332.16,-1828.28 394.7,-1832.37"/>
<polygon fill="#757575" stroke="#757575" points="394.74,-1835.88 404.95,-1833.04 395.2,-1828.89 394.74,-1835.88"/>
</g>
<!-- utils/navigation.ts -->
<g id="node59" class="node">
<title>utils/navigation.ts</title>
<path fill="none" stroke="#cfffac" d="M544.33,-1807C544.33,-1807 419.67,-1807 419.67,-1807 415.33,-1807 411,-1802.67 411,-1798.33 411,-1798.33 411,-1789.67 411,-1789.67 411,-1785.33 415.33,-1781 419.67,-1781 419.67,-1781 544.33,-1781 544.33,-1781 548.67,-1781 553,-1785.33 553,-1789.67 553,-1789.67 553,-1798.33 553,-1798.33 553,-1802.67 548.67,-1807 544.33,-1807"/>
<text text-anchor="middle" x="482" y="-1790.2" font-family="Arial" font-size="16.00" fill="#cfffac">utils/navigation.ts</text>
</g>
<!-- utils/index.ts&#45;&gt;utils/navigation.ts -->
<g id="edge88" class="edge">
<title>utils/index.ts&#45;&gt;utils/navigation.ts</title>
<path fill="none" stroke="#757575" d="M196.66,-1812.56C251.28,-1809 337.38,-1803.38 400.54,-1799.25"/>
<polygon fill="#757575" stroke="#757575" points="401.12,-1802.72 410.87,-1798.58 400.66,-1795.74 401.12,-1802.72"/>
</g>
<!-- vite&#45;env.d.ts -->
<g id="node60" class="node">
<title>vite&#45;env.d.ts</title>
<path fill="none" stroke="#cfffac" d="M185.83,-1873C185.83,-1873 100.17,-1873 100.17,-1873 95.83,-1873 91.5,-1868.67 91.5,-1864.33 91.5,-1864.33 91.5,-1855.67 91.5,-1855.67 91.5,-1851.33 95.83,-1847 100.17,-1847 100.17,-1847 185.83,-1847 185.83,-1847 190.17,-1847 194.5,-1851.33 194.5,-1855.67 194.5,-1855.67 194.5,-1864.33 194.5,-1864.33 194.5,-1868.67 190.17,-1873 185.83,-1873"/>
<text text-anchor="middle" x="143" y="-1856.2" font-family="Arial" font-size="16.00" fill="#cfffac">vite&#45;env.d.ts</text>
</g>
</g>
</svg>
